<?xml version="1.0" standalone="no"?>
<!DOCTYPE svg PUBLIC "-//W3C//DTD SVG 1.1//EN" "http://www.w3.org/Graphics/SVG/1.1/DTD/svg11.dtd" >
<svg xmlns="http://www.w3.org/2000/svg" xmlns:xlink="http://www.w3.org/1999/xlink" version="1.1">
<metadata>
Created by FontForge 20170731 at Wed Apr 22 05:53:12 2020
 By Aleksey,,,
Copyright 2020 The Anybody Project Authors (https://github.com/Etcetera-Type-Co/Anybody)
</metadata>
<defs>
<font id="Anybody-Bold" horiz-adv-x="1143" >
  <font-face 
    font-family="Anybody"
    font-weight="700"
    font-stretch="normal"
    units-per-em="2000"
    panose-1="0 0 0 0 0 0 0 0 0 0"
    ascent="1600"
    descent="-400"
    x-height="1190"
    cap-height="1350"
    bbox="-277 -538 2322 1942"
    underline-thickness="105"
    underline-position="-366"
    unicode-range="U+000D-FB02"
  />
<missing-glyph horiz-adv-x="608" 
d="M100 146v1042h348v-1042h-348zM126 172h296v990h-296v-990zM202 564l-20 20l75 76l-75 76l20 20l75 -76l75 76l20 -20l-75 -76l75 -76l-20 -20l-75 76zM202 902l-20 20l75 76l-75 76l20 20l75 -76l75 76l20 -20l-75 -76l75 -76l-20 -20l-75 76zM202 226l-20 20l75 76
l-75 76l20 20l75 -76l75 76l20 -20l-75 -76l75 -76l-20 -20l-75 76z" />
    <glyph glyph-name="fi" unicode="fi" horiz-adv-x="1330" 
d="M209 0v969h-189v221h191l-2 51q0 168 133.5 251.5t415.5 83.5h53v-215h-32q-144 0 -198.5 -27t-54.5 -94v-50h246v-221h-246v-969h-317zM911 0v1191h318v-1191h-318zM911 1542h318v-230h-318v230z" />
    <glyph glyph-name="fl" unicode="fl" horiz-adv-x="1319" 
d="M209 0v969h-189v221h191l-2 51q0 168 133.5 251.5t415.5 83.5h53v-215h-32q-144 0 -198.5 -27t-54.5 -94v-50h246v-221h-246v-969h-317zM913 0v1570h318v-1570h-318z" />
    <glyph glyph-name="f_f" unicode="ff" horiz-adv-x="1653" 
d="M209 0v969h-189v221h191l-2 51q0 168 133.5 251.5t415.5 83.5h53v-215h-32q-144 0 -198.5 -27t-54.5 -94v-50h246v-221h-246v-969h-317zM1019 0v969h-189v221h191l-2 51q0 168 133.5 251.5t415.5 83.5h53v-215h-32q-144 0 -198.5 -27t-54.5 -94v-50h246v-221h-246v-969
h-317z" />
    <glyph glyph-name="f_f_i" unicode="ffi" horiz-adv-x="2140" 
d="M209 0v969h-189v221h191l-2 51q0 168 133.5 251.5t415.5 83.5h53v-215h-32q-144 0 -198.5 -27t-54.5 -94v-50h246v-221h-246v-969h-317zM1019 0v969h-189v221h191l-2 51q0 168 133.5 251.5t415.5 83.5h53v-215h-32q-144 0 -198.5 -27t-54.5 -94v-50h246v-221h-246v-969
h-317zM1720 0v1191h318v-1191h-318zM1720 1542h318v-230h-318v230z" />
    <glyph glyph-name="f_f_l" unicode="ffl" horiz-adv-x="2129" 
d="M209 0v969h-189v221h191l-2 51q0 168 133.5 251.5t415.5 83.5h53v-215h-32q-144 0 -198.5 -27t-54.5 -94v-50h246v-221h-246v-969h-317zM1019 0v969h-189v221h191l-2 51q0 168 133.5 251.5t415.5 83.5h53v-215h-32q-144 0 -198.5 -27t-54.5 -94v-50h246v-221h-246v-969
h-317zM1723 0v1570h318v-1570h-318z" />
    <glyph glyph-name=".notdef" horiz-adv-x="608" 
d="M100 146v1042h348v-1042h-348zM126 172h296v990h-296v-990zM202 564l-20 20l75 76l-75 76l20 20l75 -76l75 76l20 -20l-75 -76l75 -76l-20 -20l-75 76zM202 902l-20 20l75 76l-75 76l20 20l75 -76l75 76l20 -20l-75 -76l75 -76l-20 -20l-75 76zM202 226l-20 20l75 76
l-75 76l20 20l75 -76l75 76l20 -20l-75 -76l75 -76l-20 -20l-75 76z" />
    <glyph glyph-name=".null" horiz-adv-x="0" 
 />
    <glyph glyph-name="nonmarkingreturn" horiz-adv-x="666" 
 />
    <glyph glyph-name="NULL" horiz-adv-x="0" 
 />
    <glyph glyph-name="NULL" horiz-adv-x="0" 
 />
    <glyph glyph-name="CR" unicode="&#xd;" horiz-adv-x="344" 
 />
    <glyph glyph-name="space" unicode=" " horiz-adv-x="402" 
 />
    <glyph glyph-name="exclam" unicode="!" horiz-adv-x="452" 
d="M84 408l-24 942h353l-25 -942h-304zM226 -41q-74 0 -125 51t-51 124t51 123t125 50q70 0 121 -50t51 -123t-51 -124t-121 -51z" />
    <glyph glyph-name="quotedbl" unicode="&#x22;" horiz-adv-x="516" 
d="M139 850v500h233v-500h-233z" />
    <glyph glyph-name="numbersign" unicode="#" horiz-adv-x="1316" 
d="M718 0l45 323h-321l-44 -323h-240l44 323h-168v192h194l44 316h-207v193h233l45 326h241l-45 -326h321l45 326h241l-45 -326h170v-193h-197l-44 -316h210v-192h-236l-45 -323h-241zM469 515h320l44 316h-321z" />
    <glyph glyph-name="dollar" unicode="$" horiz-adv-x="1054" 
d="M438 -20v120q-144 14 -234 68q-122 74 -153 265l292 71q13 -117 67 -159t134 -42q82 0 123.5 31.5t41.5 91.5q0 78 -58.5 101t-200.5 48q-223 34 -308 105t-85 242q0 176 124 256q96 61 256 76v117h189v-116q163 -12 251 -71q109 -74 136 -255l-285 -70
q-13 106 -61.5 149t-131.5 43q-79 0 -120.5 -34.5t-41.5 -90.5q0 -76 61.5 -94.5t197.5 -40.5q214 -31 303.5 -104t89.5 -241q0 -193 -121 -272q-100 -65 -276 -77v-117h-190z" />
    <glyph glyph-name="percent" unicode="%" horiz-adv-x="1252" 
d="M63 0l914 1348h204l-912 -1348h-206zM350 827q-144 0 -219.5 51t-75.5 171v94q0 121 75 172t220 51t219.5 -50.5t74.5 -172.5v-94q0 -121 -74.5 -171.5t-219.5 -50.5zM920 -7q-144 0 -219.5 51t-75.5 171v94q0 121 75 172t220 51t219.5 -50.5t74.5 -172.5v-94
q0 -121 -74.5 -171.5t-219.5 -50.5zM349 955q46 0 68 18t22 68v110q0 50 -22 68t-68 18q-47 0 -68 -18t-21 -68v-110q0 -50 21 -68t68 -18zM919 121q46 0 68 18t22 68v110q0 50 -22 68t-68 18t-67.5 -18t-21.5 -68v-110q0 -50 21.5 -68t67.5 -18z" />
    <glyph glyph-name="ampersand" unicode="&#x26;" horiz-adv-x="1342" 
d="M537 -13q-248 0 -380.5 89.5t-132.5 265.5q0 173 152 282q62 44 121 83q-32 38 -65 81q-87 111 -87 242q0 165 121.5 248.5t296.5 83.5q185 0 304.5 -82.5t119.5 -248.5q0 -149 -115 -241q-78 -62 -170 -121l237 -262q63 102 63 266h279q0 -289 -168 -459l193 -214h-344
l-63 66q-165 -79 -362 -79zM727 247l-267 282q-37 -23 -61 -43q-64 -52 -64 -126t51 -109.5t172 -35.5q86 0 169 32zM538 846q57 31 94 63q58 52 58 122q0 60 -34 87.5t-91 27.5q-58 0 -89 -27.5t-31 -88.5q0 -70 44 -126q21 -27 49 -58z" />
    <glyph glyph-name="quotesingle" unicode="'" horiz-adv-x="318" 
d="M41 872v478h234v-478h-234z" />
    <glyph glyph-name="parenleft" unicode="(" horiz-adv-x="611" 
d="M322 -462q-26 30 -71.5 103.5t-93.5 194.5t-81 294t-33 402q0 228 33 402t81 297t93.5 197.5t71.5 104.5l241 -131q-25 -35 -64.5 -105.5t-79 -178t-66.5 -254t-27 -332.5t27 -331t66.5 -251.5t79 -176.5t64.5 -104z" />
    <glyph glyph-name="parenright" unicode=")" horiz-adv-x="615" 
d="M283 -462l-241 131q25 34 64.5 104t79 176.5t66.5 251.5t27 331t-27 332.5t-66.5 254t-79 178t-64.5 105.5l241 131q26 -30 71.5 -104.5t93.5 -197.5t81 -297t33 -402q0 -229 -33 -402t-81 -294t-93.5 -194.5t-71.5 -103.5z" />
    <glyph glyph-name="asterisk" unicode="*" horiz-adv-x="434" 
d="M232 1016l-66 68l-5 -10l-113 54l76 129l27 -13l10 13l7 -4v129h108v-115l107 32l34 -103l-136 -40l-2 -4l44 -45z" />
    <glyph glyph-name="plus" unicode="+" horiz-adv-x="553" 
d="M180 199v183h-153v196h153v184h204v-184h152v-196h-152v-183h-204z" />
    <glyph glyph-name="comma" unicode="," horiz-adv-x="525" 
d="M21 -258l89 410h317l-232 -410h-174z" />
    <glyph glyph-name="hyphen" unicode="-" horiz-adv-x="750" 
d="M45 374v209h643v-209h-643z" />
    <glyph glyph-name="period" unicode="." horiz-adv-x="430" 
d="M211 -20q-72 0 -122 49.5t-50 120.5t50 120t122 49q69 0 118.5 -49t49.5 -120t-49.5 -120.5t-118.5 -49.5z" />
    <glyph glyph-name="slash" unicode="/" horiz-adv-x="784" 
d="M16 0l483 1348h269l-484 -1348h-268z" />
    <glyph glyph-name="zero" unicode="0" horiz-adv-x="1008" 
d="M498 -14q-231 0 -342 82t-111 261v689q0 178 111 260.5t341.5 82.5t341.5 -82.5t111 -260.5v-689q0 -179 -111 -261t-341 -82zM498 209q70 0 101 32t31 108v649q0 76 -30.5 108t-101.5 32q-73 0 -103 -32t-30 -108v-649q0 -76 30 -108t103 -32z" />
    <glyph glyph-name="one" unicode="1" horiz-adv-x="937" 
d="M58 0v223h260v870l-271 -81v236l319 104h269v-1129h254v-223h-831z" />
    <glyph glyph-name="two" unicode="2" horiz-adv-x="1024" 
d="M54 0v182q0 127 86 238.5t258 228.5q159 109 203 173t44 155q0 103 -31.5 132t-95.5 29q-73 0 -111 -44t-38 -202h-317q0 178 74.5 323.5t389.5 145.5q322 0 386 -126t64 -257q0 -156 -93.5 -270t-239.5 -232q-128 -95 -185.5 -153t-57.5 -100h574v-223h-910z" />
    <glyph glyph-name="three" unicode="3" horiz-adv-x="1027" 
d="M511 -14q-315 0 -388 139t-73 329h316q0 -169 36.5 -208.5t110.5 -39.5q73 0 108 37t35 191q0 78 -43.5 106.5t-158.5 30.5v205q115 1 158.5 31t43.5 106q0 157 -35 192.5t-108 35.5t-110 -40.5t-37 -224.5h-316q0 197 73.5 341t388.5 144q324 0 392 -117t68 -272
q0 -113 -49 -201.5t-201 -93.5q153 -5 201.5 -92t48.5 -200q0 -160 -68 -279.5t-393 -119.5z" />
    <glyph glyph-name="four" unicode="4" horiz-adv-x="1035" 
d="M543 0v290h-509v213l331 847h494v-848h130v-212h-130v-290h-316zM348 502h195v600z" />
    <glyph glyph-name="five" unicode="5" horiz-adv-x="1012" 
d="M481 -13q-287 0 -362.5 137.5t-75.5 301.5h316q2 -147 35 -184t102 -37q68 0 101.5 41.5t33.5 228.5q0 159 -33 198t-97 39q-66 0 -102.5 -35.5t-39.5 -95.5v0v0h-316v769h881v-221h-565v-274q120 64 268 64q200 0 262.5 -121t62.5 -319q0 -219 -77 -355.5t-394 -136.5z
" />
    <glyph glyph-name="six" unicode="6" horiz-adv-x="1019" 
d="M490 -13q-319 0 -383 165t-64 495q0 364 71 539t400 175q305 0 367.5 -136.5t62.5 -255.5h-317q-3 95 -27.5 135.5t-85.5 40.5q-73 0 -113 -66q-27 -44 -36 -239q110 72 264 72q209 0 270 -118t61 -318q0 -203 -68.5 -346t-401.5 -143zM361 576q1 -269 37 -319
q38 -52 109 -52q72 0 102 44t30 207q0 176 -30 215.5t-99 39.5q-68 0 -106 -42q-34 -39 -43 -93z" />
    <glyph glyph-name="seven" unicode="7" horiz-adv-x="917" 
d="M212 0q-1 299 88.5 590t252.5 533l1 5h-529v222h866v-223q-165 -264 -251 -548.5t-84 -578.5h-344z" />
    <glyph glyph-name="eight" unicode="8" horiz-adv-x="1009" 
d="M503 -15q-311 0 -382.5 140t-71.5 313q0 179 123 267q9 6 19 12q-7 4 -13 8q-116 76 -116 250q0 135 69 260.5t372 125.5q292 0 365.5 -126t73.5 -260q0 -173 -115 -250q-6 -4 -13 -8q10 -6 19 -13q122 -88 122 -266q0 -173 -76 -313t-376 -140zM502 205q71 0 104 42
t33 168q0 130 -33 167t-104 37t-104 -37t-33 -167q0 -126 33.5 -168t103.5 -42zM502 816q70 0 100.5 34.5t30.5 142.5q0 81 -32 116.5t-99 35.5t-99 -35.5t-32 -116.5q0 -108 30.5 -142.5t100.5 -34.5z" />
    <glyph glyph-name="nine" unicode="9" horiz-adv-x="1018" 
d="M499 -13q-314 0 -372.5 141t-58.5 243h317q3 -87 27.5 -127.5t87.5 -40.5q73 0 112 63q26 43 34 242q-109 -72 -263 -72q-209 0 -270.5 132t-61.5 331q0 193 69 327.5t407 134.5q314 0 378 -175t64 -485q0 -347 -71 -530.5t-399 -183.5zM651 769q-1 277 -35 324
q-35 48 -106 48q-73 0 -107.5 -43.5t-34.5 -204.5q0 -173 32.5 -212t101.5 -39q68 0 107 40q34 35 42 87z" />
    <glyph glyph-name="colon" unicode=":" horiz-adv-x="437" 
d="M211 -20q-72 0 -122 49.5t-50 120.5t50 120t122 49q69 0 118.5 -49t49.5 -120t-49.5 -120.5t-118.5 -49.5zM211 862q-72 0 -122 49.5t-50 120.5t50 120t122 49q69 0 118.5 -49t49.5 -120t-49.5 -120.5t-118.5 -49.5z" />
    <glyph glyph-name="semicolon" unicode=";" horiz-adv-x="503" 
d="M245 862q-72 0 -122 49.5t-50 120.5t50 120t122 49q69 0 118.5 -49t49.5 -120t-49.5 -120.5t-118.5 -49.5zM5 -156l89 410h317l-232 -410h-174z" />
    <glyph glyph-name="less" unicode="&#x3c;" horiz-adv-x="707" 
d="M647 -5l-610 375v232l610 375v-280l-439 -211l439 -210v-281z" />
    <glyph glyph-name="equal" unicode="=" horiz-adv-x="561" 
d="M22 603v192h509v-192h-509zM22 176v192h509v-192h-509z" />
    <glyph glyph-name="greater" unicode="&#x3e;" horiz-adv-x="706" 
d="M55 -5v281l439 210l-439 211v280l611 -375v-232z" />
    <glyph glyph-name="question" unicode="?" horiz-adv-x="1034" 
d="M372 383q0 149 41 237t119 158q58 56 97 106.5t39 120.5q0 80 -32.5 117t-114.5 37q-87 0 -126 -53.5t-39 -186.5h-309q0 256 113.5 348.5t356.5 92.5q260 0 362 -81t102 -239q0 -121 -52 -202t-119 -144q-80 -78 -102.5 -152.5t-23.5 -158.5h-312zM534 -30
q-71 0 -121 49.5t-50 120.5t50 120t121 49q69 0 118.5 -49t49.5 -120t-49.5 -120.5t-118.5 -49.5z" />
    <glyph glyph-name="at" unicode="@" horiz-adv-x="1563" 
d="M682 -29q-123 0 -237.5 36t-204 114t-140 202.5t-45.5 302.5q7 253 113.5 417t286 243t402.5 79q198 0 342 -66t219.5 -195t69.5 -315q-6 -175 -69 -290t-159 -171.5t-202 -56.5q-88 0 -129 45.5t-39 91.5q-9 -38 -59 -69.5t-132 -31.5q-97 0 -164.5 82.5t-61.5 244.5
q4 132 45 222.5t104.5 136.5t134.5 46q68 0 100 -39t32 -66l9 90h143l-49 -523q-5 -46 17.5 -66.5t57.5 -20.5q68 0 111 90.5t49 272.5q9 217 -101 311t-301 94q-134 0 -248 -55t-185 -174.5t-76 -311.5q-6 -176 48.5 -283.5t144 -156t190.5 -48.5q76 0 130 17t85 38t38 30
l169 -139q-26 -27 -87.5 -57t-151.5 -50.5t-200 -20.5zM748 441q37 0 64 23t33 54l25 290q0 44 -28 65t-57 21q-31 0 -59 -34t-47 -89t-20 -116q-3 -87 21 -150.5t68 -63.5z" />
    <glyph glyph-name="A" unicode="A" horiz-adv-x="1180" 
d="M43 0l302 1351h489l304 -1351h-329l-61 332h-315l-62 -332h-328zM471 550h239l-114 601h-10z" />
    <glyph glyph-name="B" unicode="B" horiz-adv-x="1112" 
d="M58 0v1350h652q225 0 266.5 -108.5t41.5 -210.5q0 -106 -35 -200.5t-154 -98.5q121 -7 165.5 -107t44.5 -232q0 -158 -41 -275.5t-273 -117.5h-667zM379 223h256q54 0 69 47.5t15 150.5q0 99 -17 151.5t-79 52.5h-244v-402zM379 830h229q55 0 71.5 43.5t16.5 115.5
q0 69 -14.5 104.5t-67.5 35.5h-235v-299z" />
    <glyph glyph-name="C" unicode="C" horiz-adv-x="1110" 
d="M549 -8q-337 0 -426.5 174.5t-89.5 512.5t89.5 510t425.5 172q339 0 420 -167t81 -398h-323q0 230 -44.5 286t-133.5 56q-92 0 -142 -62.5t-50 -396.5q0 -337 50.5 -400.5t141.5 -63.5q88 0 133 57.5t45 282.5h323q0 -223 -81 -393t-419 -170z" />
    <glyph glyph-name="D" unicode="D" horiz-adv-x="1099" 
d="M58 0v1350h589q254 0 328.5 -147t74.5 -527.5t-74.5 -528t-328.5 -147.5h-589zM378 223h176q94 0 135 62.5t41 390.5q0 326 -41 388.5t-135 62.5h-176v-904z" />
    <glyph glyph-name="E" unicode="E" horiz-adv-x="909" 
d="M54 0v1350h788v-223h-467v-336h436v-214h-436v-354h467v-223h-788z" />
    <glyph glyph-name="F" unicode="F" horiz-adv-x="856" 
d="M50 0v1350h752v-223h-431v-407h398v-214h-398v-506h-321z" />
    <glyph glyph-name="G" unicode="G" horiz-adv-x="1140" 
d="M521 -8q-307 0 -392.5 175.5t-85.5 512.5q0 343 88 512t425 169q322 0 411 -159t89 -352h-322q-2 181 -44 235t-133 54q-96 0 -144 -63.5t-48 -410.5q0 -292 48.5 -371t145.5 -79q89 0 130 41t45 185v54h-161v197h483v-692h-193l-16 109q-89 -117 -326 -117z" />
    <glyph glyph-name="H" unicode="H" horiz-adv-x="1123" 
d="M58 0v1350h321v-560h339v560h321v-1350h-321v567h-339v-567h-321z" />
    <glyph glyph-name="I" unicode="I" horiz-adv-x="518" 
d="M91 0v1350h321v-1350h-321z" />
    <glyph glyph-name="J" unicode="J" horiz-adv-x="1094" 
d="M526 -11q-240 0 -361.5 85.5t-121.5 270.5v253h319v-205q0 -93 35 -139t128 -46q94 0 130 44.5t36 137.5v960h319v-1014q0 -177 -119.5 -262t-364.5 -85z" />
    <glyph glyph-name="K" unicode="K" horiz-adv-x="1061" 
d="M58 0v1350h319v-584l308 584h349l-369 -676l370 -674h-349l-309 583v-583h-319z" />
    <glyph glyph-name="L" unicode="L" horiz-adv-x="835" 
d="M58 0v1350h321v-1129h404v-221h-725z" />
    <glyph glyph-name="M" unicode="M" horiz-adv-x="1547" 
d="M58 0v1350h516l187 -1087l187 1087h515v-1350h-316v1125h-4l-199 -1092h-367l-198 1092h-4v-1125h-317z" />
    <glyph glyph-name="N" unicode="N" horiz-adv-x="1312" 
d="M58 0v1350h512l336 -1072l3 1072h319v-1350h-511l-341 1096v-1096h-318z" />
    <glyph glyph-name="O" unicode="O" 
d="M568 -10q-337 0 -431 160t-94 525t94 525.5t431 160.5t431.5 -160.5t94.5 -525.5t-94.5 -525t-431.5 -160zM568 213q99 0 153 66.5t54 395.5q0 335 -54 399t-153 64q-98 0 -152 -64t-54 -399q0 -329 54 -395.5t152 -66.5z" />
    <glyph glyph-name="P" unicode="P" horiz-adv-x="1064" 
d="M58 0v1350h616q233 0 286 -150.5t53 -344.5q0 -196 -53 -346t-286 -150h-295v-359h-321zM379 582h192q70 0 96.5 62t26.5 211q0 147 -26.5 209.5t-96.5 62.5h-192v-545z" />
    <glyph glyph-name="Q" unicode="Q" horiz-adv-x="1149" 
d="M856 -240l-151 238q-62 -8 -137 -8q-337 0 -431 160t-94 525t94 525.5t431 160.5t431.5 -160.5t94.5 -525.5t-95 -525q-20 -34 -51 -61l133 -213zM568 213q99 0 153 66.5t54 395.5q0 335 -54 399t-153 64q-98 0 -152 -64t-54 -399q0 -329 54 -395.5t152 -66.5z" />
    <glyph glyph-name="R" unicode="R" horiz-adv-x="1091" 
d="M58 0v1350h659q207 0 256.5 -126.5t49.5 -279.5q0 -151 -52 -268q-34 -75 -132 -102l200 -574h-341l-176 559h-142v-559h-322zM380 756h215q62 0 83.5 48.5t21.5 136.5t-21.5 137t-83.5 49h-215v-371z" />
    <glyph glyph-name="S" unicode="S" horiz-adv-x="1110" 
d="M548 -9q-336 0 -420.5 135t-84.5 361h321q0 -190 48.5 -232t133.5 -42t133.5 36t48.5 113q0 94 -69.5 129t-208.5 70q-241 67 -323.5 141.5t-82.5 244.5q0 153 86 283.5t414 130.5q329 0 414.5 -139.5t85.5 -350.5h-321q0 184 -50 226.5t-132 42.5q-86 0 -135 -37.5
t-49 -108.5q0 -101 71.5 -134.5t212.5 -71.5q242 -65 323.5 -133.5t81.5 -238.5q0 -158 -83.5 -291.5t-414.5 -133.5z" />
    <glyph glyph-name="T" unicode="T" horiz-adv-x="1027" 
d="M352 0v1127h-302v223h925v-223h-302v-1127h-321z" />
    <glyph glyph-name="U" unicode="U" horiz-adv-x="1144" 
d="M565 -9q-258 0 -381 89t-123 300v970h321v-934q0 -108 43 -155t139.5 -47t139.5 46.5t43 155.5v934h321v-970q0 -211 -123 -300t-380 -89z" />
    <glyph glyph-name="V" unicode="V" horiz-adv-x="1134" 
d="M315 0l-279 1350h327l200 -1145l200 1145h326l-280 -1350h-494z" />
    <glyph glyph-name="W" unicode="W" horiz-adv-x="1698" 
d="M215 0l-183 1350h342l107 -1094l161 1094h396l161 -1095l112 1095h341l-186 -1350h-485l-140 1116l-143 -1116h-483z" />
    <glyph glyph-name="X" unicode="X" horiz-adv-x="1146" 
d="M12 0l306 668l-295 682h360l185 -547l187 547h359l-296 -682l306 -668h-359l-197 533l-196 -533h-360z" />
    <glyph glyph-name="Y" unicode="Y" horiz-adv-x="1159" 
d="M418 0v413l-400 937h346l215 -637l213 637h346l-399 -937v-413h-321z" />
    <glyph glyph-name="Z" unicode="Z" horiz-adv-x="930" 
d="M46 0v228l468 901h-456v221h792v-222l-468 -906h481v-222h-817z" />
    <glyph glyph-name="bracketleft" unicode="[" horiz-adv-x="640" 
d="M41 -375v1822h549v-209h-288v-1404h288v-209h-549z" />
    <glyph glyph-name="backslash" unicode="\" horiz-adv-x="819" 
d="M499 0l-463 1348h283l465 -1348h-285z" />
    <glyph glyph-name="bracketright" unicode="]" horiz-adv-x="640" 
d="M40 -375v209h288v1404h-288v209h549v-1822h-549z" />
    <glyph glyph-name="asciicircum" unicode="^" horiz-adv-x="693" 
d="M22 1207l207 239h227l207 -237h-190l-130 160l-129 -162h-192z" />
    <glyph glyph-name="underscore" unicode="_" horiz-adv-x="1065" 
d="M-2 -248v206h1069v-206h-1069z" />
    <glyph glyph-name="grave" unicode="`" horiz-adv-x="549" 
d="M282 1206l-203 202h214l135 -202h-146z" />
    <glyph glyph-name="a" unicode="a" horiz-adv-x="1099" 
d="M756 0l-25 80q-5 -5 -11 -10q-94 -82 -291 -82q-182 0 -283 76.5t-101 289.5q0 197 97.5 277.5t317.5 80.5h245v39q0 127 -41.5 179t-117.5 52q-68 0 -113 -46.5t-55 -159.5l-316 63q20 193 133.5 278t342.5 85q320 0 403.5 -151t83.5 -415v-636h-269zM705 334v180h-153
q-108 0 -144.5 -38t-36.5 -118t32.5 -120t111.5 -40q84 0 137 38t53 98z" />
    <glyph glyph-name="b" unicode="b" horiz-adv-x="1095" 
d="M63 0v1570h317v-451q129 81 295 81q218 0 290.5 -165.5t72.5 -436.5t-72.5 -438t-290.5 -167q-174 0 -307 88q-3 2 -5 3l-18 -84h-282zM380 777v-362q5 -88 51 -142q52 -59 127 -59q80 0 120.5 68t40.5 315q0 242 -40.5 311.5t-120.5 69.5q-75 0 -127 -61
q-46 -54 -51 -140z" />
    <glyph glyph-name="c" unicode="c" horiz-adv-x="1051" 
d="M530 -11q-319 0 -407 162t-88 441q0 290 88 449.5t407 159.5q294 0 371 -141t89 -305l-293 -71q-5 163 -47 228t-120 65t-125.5 -70.5t-47.5 -314.5q0 -230 47.5 -305t125.5 -75t120 69.5t47 219.5l293 -74q-12 -149 -89 -293.5t-371 -144.5z" />
    <glyph glyph-name="d" unicode="d" horiz-adv-x="1096" 
d="M730 0l-15 83q-2 -1 -3 -2q-133 -88 -308 -88q-217 0 -289.5 167t-72.5 438t72.5 436.5t289.5 165.5q167 0 296 -81v451h316v-1570h-286zM700 416v361q-5 86 -52 140q-51 61 -126 61q-80 0 -120.5 -69.5t-40.5 -311.5q0 -245 40.5 -314t120.5 -69q75 0 126 60
q47 54 52 142z" />
    <glyph glyph-name="e" unicode="e" horiz-adv-x="1096" 
d="M545 -11q-322 0 -412 163t-90 440q0 287 90.5 448.5t407.5 161.5q323 0 409.5 -163t86.5 -441q0 -57 -4 -102h-677q9 -159 48 -217q50 -75 141 -75q65 0 114 49t60 160l294 -68q-21 -200 -143 -278t-325 -78zM355 695h366q-3 163 -46 226q-46 68 -134 68q-87 0 -138 -73
q-39 -56 -48 -221z" />
    <glyph glyph-name="f" unicode="f" horiz-adv-x="843" 
d="M209 0v969h-189v221h191l-2 51q0 168 133.5 251.5t415.5 83.5h53v-215h-32q-144 0 -198.5 -27t-54.5 -94v-50h246v-221h-246v-969h-317z" />
    <glyph glyph-name="g" unicode="g" horiz-adv-x="1102" 
d="M524 -464q-247 0 -356 91.5t-109 307.5h312q0 -102 42.5 -145.5t111.5 -43.5q46 0 86 24.5t64.5 88t24.5 179.5v36q-129 -81 -296 -81q-217 0 -289.5 167t-72.5 438t72.5 436.5t289.5 165.5q175 0 308 -89l2 -2l8 81h297v-1146q0 -197 -56.5 -307.5t-166.5 -155.5
t-272 -45zM700 764q-2 95 -52 153q-51 61 -126 61q-80 0 -120.5 -69.5t-40.5 -311.5q0 -245 40.5 -314t120.5 -69q75 0 126 60q50 58 52 155v335z" />
    <glyph glyph-name="h" unicode="h" horiz-adv-x="1081" 
d="M63 0v1570h317v-475q119 105 296 105q206 0 265.5 -154.5t59.5 -388.5v-657h-316v646q0 202 -32.5 266.5t-103.5 64.5q-75 0 -124 -73q-35 -52 -45 -129v-775h-317z" />
    <glyph glyph-name="i" unicode="i" horiz-adv-x="496" 
d="M77 0v1191h318v-1191h-318zM77 1542h318v-230h-318v230z" />
    <glyph glyph-name="j" unicode="j" horiz-adv-x="522" 
d="M-103 -460v225q99 0 152 46t53 190v1190h317v-1173q0 -288 -133 -383t-389 -95zM102 1542h318v-230h-318v230z" />
    <glyph glyph-name="k" unicode="k" horiz-adv-x="1062" 
d="M63 0v1570h317v-780l278 401h356l-293 -440l299 -751h-334l-182 520l-124 -158v-362h-317z" />
    <glyph glyph-name="l" unicode="l" horiz-adv-x="487" 
d="M81 0v1570h318v-1570h-318z" />
    <glyph glyph-name="m" unicode="m" horiz-adv-x="1601" 
d="M63 0v1190h294l14 -100q113 110 265 110q211 0 263 -142q3 -7 5 -13l12 14q121 141 293 141q210 0 261 -142t51 -321v-737h-316v690q0 164 -24.5 225.5t-86.5 61.5q-65 0 -104 -69q-33 -56 -38 -170v-1v-737h-317v690q0 164 -25.5 225.5t-87.5 61.5q-65 0 -105 -69
q-30 -53 -37 -161v-747h-317z" />
    <glyph glyph-name="n" unicode="n" horiz-adv-x="1077" 
d="M63 0v1190h294l11 -102q121 112 304 112q206 0 265.5 -154.5t59.5 -388.5v-657h-316v646q0 202 -32.5 266.5t-103.5 64.5q-75 0 -124 -73q-30 -44 -41 -107v-797h-317z" />
    <glyph glyph-name="o" unicode="o" horiz-adv-x="1098" 
d="M542 -9q-316 0 -408 155.5t-92 451.5q0 298 92 451.5t408 153.5q315 0 407 -153.5t92 -451.5q0 -296 -92 -451.5t-407 -155.5zM542 211q85 0 133.5 71t48.5 315q0 245 -48.5 315.5t-133.5 70.5q-86 0 -134.5 -70.5t-48.5 -315.5q0 -244 48.5 -315t134.5 -71z" />
    <glyph glyph-name="p" unicode="p" horiz-adv-x="1095" 
d="M63 -442v1632h296l8 -80q1 0 1 1q133 89 307 89q218 0 290.5 -165.5t72.5 -436.5t-72.5 -438t-290.5 -167q-167 0 -295 81v-516h-317zM380 429q2 -98 51 -156q52 -59 127 -59q80 0 120.5 68t40.5 315q0 242 -40.5 311.5t-120.5 69.5q-75 0 -127 -61q-49 -58 -51 -153
v-335z" />
    <glyph glyph-name="q" unicode="q" horiz-adv-x="1096" 
d="M698 -442v514q-128 -79 -294 -79q-217 0 -289.5 167t-72.5 438t72.5 436.5t289.5 165.5q173 0 305 -88l9 78h297v-1632h-317zM698 799q-9 71 -50 118q-51 61 -126 61q-80 0 -120.5 -69.5t-40.5 -311.5q0 -245 40.5 -314t120.5 -69q75 0 126 60q41 47 50 119v406z" />
    <glyph glyph-name="r" unicode="r" horiz-adv-x="1068" 
d="M671 603q0 242 -33.5 308.5t-99.5 66.5q-74 0 -117 -65q-36 -56 -41 -120v-793h-317v1190h297l8 -93l4 4q116 100 293 100q211 0 267 -148t56 -450h-317z" />
    <glyph glyph-name="s" unicode="s" horiz-adv-x="1085" 
d="M549 -9q-221 0 -343.5 76.5t-152.5 274.5l291 74q14 -122 67.5 -165.5t133.5 -43.5q82 0 123.5 33t41.5 95q0 81 -58.5 105t-200.5 50q-223 35 -308 108.5t-85 251.5q0 182 124.5 265.5t357.5 83.5q229 0 338 -77t137 -265l-285 -72q-14 110 -62 154.5t-132 44.5
q-79 0 -120.5 -36t-41.5 -94q0 -79 61.5 -98t197.5 -42q214 -32 304 -108t90 -250q0 -201 -121.5 -283t-356.5 -82z" />
    <glyph glyph-name="t" unicode="t" horiz-adv-x="861" 
d="M541 -14q-147 0 -233 61.5t-86 229.5v690h-203v223h203v262h318v-262h273v-223h-273v-623q0 -87 27 -112.5t84 -24.5q54 0 119 13v-217q-127 -17 -229 -17z" />
    <glyph glyph-name="u" unicode="u" horiz-adv-x="1079" 
d="M703 0l-13 107q-122 -116 -309 -116q-206 0 -265.5 154.5t-59.5 388.5v657h317v-646q0 -202 32 -266.5t104 -64.5q74 0 123 73q42 62 48 160v743h317v-1190h-294z" />
    <glyph glyph-name="v" unicode="v" horiz-adv-x="1064" 
d="M291 0l-272 1191h333l173 -988h1l174 988h331l-272 -1191h-468z" />
    <glyph glyph-name="w" unicode="w" horiz-adv-x="1611" 
d="M225 0l-184 1190h327l91 -966l165 966h359l163 -964l90 964h326l-184 -1190h-455l-120 775l-119 -775h-459z" />
    <glyph glyph-name="x" unicode="x" horiz-adv-x="1088" 
d="M18 0l286 595l-277 595h351l167 -469l161 469h349l-279 -595l283 -595h-351l-173 469l-168 -469h-349z" />
    <glyph glyph-name="y" unicode="y" horiz-adv-x="1059" 
d="M270 0l-251 1190h331l174 -913l173 913h330l-252 -1190q-56 -250 -222 -357t-459 -107v224q162 0 262 56q99 57 128 184h-214z" />
    <glyph glyph-name="z" unicode="z" horiz-adv-x="875" 
d="M52 0v216l423 753h-419v221h750v-215l-414 -754h422v-221h-762z" />
    <glyph glyph-name="braceleft" unicode="{" horiz-adv-x="678" 
d="M622 -377q-126 0 -223 34.5t-152 108.5t-55 193v263q0 63 -25.5 102t-62.5 57t-73 18v210q36 0 73 18.5t62.5 58t25.5 102.5v302q0 124 57.5 197.5t155 105.5t217.5 32v-208q-31 0 -71 -9t-69 -44.5t-29 -113.5v-349q0 -62 -28 -100.5t-65 -58.5t-67 -27.5t-34 -9.5
q4 -2 34 -10t67 -28.5t65 -58.5t28 -100v-309q0 -78 29 -113.5t69 -45t71 -9.5v-208z" />
    <glyph glyph-name="bar" unicode="|" horiz-adv-x="357" 
d="M44 -226v1648h261v-1648h-261z" />
    <glyph glyph-name="braceright" unicode="}" horiz-adv-x="671" 
d="M40 -377v208q31 0 70.5 9.5t69 45t29.5 113.5v309q0 62 28 100t65 58.5t67.5 28.5t34.5 10q-4 2 -34.5 9.5t-67.5 27.5t-65 58.5t-28 100.5v349q0 78 -29.5 113.5t-69 44.5t-70.5 9v208q119 0 216.5 -32t155.5 -105.5t58 -197.5v-302q0 -63 25 -102.5t62.5 -58
t73.5 -18.5v-210q-36 0 -73.5 -18t-62.5 -57t-25 -102v-263q0 -119 -55.5 -193t-152.5 -108.5t-222 -34.5z" />
    <glyph glyph-name="asciitilde" unicode="~" horiz-adv-x="771" 
d="M530 550q-60 0 -95.5 20t-67 40.5t-80.5 20.5q-47 0 -79.5 -23.5t-43.5 -36.5l-140 154q15 16 49.5 42t83.5 47t107 21q59 0 93.5 -18.5t66.5 -37t84 -18.5q48 0 70.5 17t25.5 23l141 -159q-6 -9 -37 -31t-77.5 -41.5t-100.5 -19.5z" />
    <glyph glyph-name="uni00A0" unicode="&#xa0;" horiz-adv-x="344" 
 />
    <glyph glyph-name="exclamdown" unicode="&#xa1;" horiz-adv-x="425" 
d="M49 0l24 942h304l25 -942h-353zM226 1034q-75 0 -128 52.5t-53 126.5q0 75 53 127.5t128 52.5q73 0 125.5 -52.5t52.5 -127.5q0 -74 -52.5 -126.5t-125.5 -52.5z" />
    <glyph glyph-name="cent" unicode="&#xa2;" horiz-adv-x="1057" 
d="M423 -20v124q-220 24 -291 149q-87 155 -87 422q0 277 87 430q71 123 291 147v118h219v-117q206 -21 268 -131q77 -135 90 -291l-294 -68q-5 155 -47 217.5t-120 62.5t-125 -67.5t-47 -300.5q0 -220 47.5 -292t124.5 -72q78 0 120 66.5t47 209.5l294 -70
q-13 -143 -90 -281q-62 -112 -268 -133v-123h-219z" />
    <glyph glyph-name="sterling" unicode="&#xa3;" horiz-adv-x="1080" 
d="M214 -26l-115 186q13 7 48 35.5t65.5 80t30.5 128.5q0 48 -4 88t-11 75h-175v198h125q-12 46 -20.5 96t-8.5 113q0 97 39.5 186.5t135 146.5t265.5 57q113 0 191 -27.5t128 -70.5t77.5 -89.5t39.5 -83.5l-262 -88q-19 63 -58 107t-114 44q-134 0 -134 -183
q0 -58 6.5 -109t15.5 -99h341v-198h-304q4 -34 7 -70.5t3 -77.5q0 -60 -22 -114.5t-54 -96.5q24 7 49 11.5t49 4.5q53 0 91.5 -9.5t73 -18.5t77.5 -9q55 0 89.5 5.5t59.5 16.5l88 -205q-12 -5 -81 -15t-160 -10q-66 0 -109.5 12t-90.5 23.5t-124 12.5q-89 0 -156 -17.5
t-92 -35.5z" />
    <glyph glyph-name="currency" unicode="&#xa4;" horiz-adv-x="1175" 
d="M584 188q-162 0 -263 33l-162 -162l-141 122l152 152q-76 129 -76 305q0 173 74 302l-150 151l141 121l159 -159q102 34 266 34q162 0 264 -34l159 159l141 -121l-150 -151q75 -130 75 -304q0 -176 -76 -304l151 -151l-141 -122l-162 162q-101 -33 -261 -33zM584 381
q86 0 129 50.5t43 206t-43 206.5t-129 51t-129.5 -51t-43.5 -206.5t43.5 -206t129.5 -50.5z" />
    <glyph glyph-name="yen" unicode="&#xa5;" horiz-adv-x="1159" 
d="M153 450v175h175l-310 725h346l215 -637l213 637h346l-309 -725h174v-175h-248l-16 -37v-51h264v-175h-264v-187h-321v187h-265v175h265v51l-15 37h-250z" />
    <glyph glyph-name="brokenbar" unicode="&#xa6;" horiz-adv-x="356" 
d="M43 -156v660h261v-660h-261zM43 764v658h261v-658h-261z" />
    <glyph glyph-name="section" unicode="&#xa7;" horiz-adv-x="1066" 
d="M532 -278q-154 0 -247 37.5t-134.5 100t-41.5 135.5v65h256v-60q0 -59 45 -83t119 -24q76 0 124 26t42 80q-2 46 -51.5 84.5t-126.5 75.5t-162 81q-80 39 -152.5 86.5t-117.5 109t-45 142.5q0 88 38.5 141t87 81t77.5 42q-45 32 -91 95.5t-43 156.5q2 70 46.5 130.5
t135.5 98t233 37.5q150 0 243.5 -38.5t137.5 -100.5t44 -134v-65h-258v60q0 62 -46.5 84.5t-116.5 22.5q-76 0 -123 -23t-43 -83q2 -46 49 -84t121 -75t156 -81q82 -40 157.5 -89.5t123.5 -113.5t48 -146q0 -62 -23 -106t-56.5 -74t-64.5 -49.5t-47 -32.5q18 -14 49 -47
t54.5 -81.5t18.5 -109.5q-3 -67 -47.5 -129.5t-135 -102.5t-233.5 -40zM676 317q28 23 65 65t37 99q0 47 -52 86.5t-126 73.5q-48 29 -104.5 58t-105.5 57q-38 -22 -72.5 -59t-34.5 -96q0 -46 42.5 -84.5t108.5 -71.5q50 -35 115 -66.5t127 -61.5z" />
    <glyph glyph-name="dieresis" unicode="&#xa8;" horiz-adv-x="749" 
d="M546 1194q-37 0 -63 26t-26 62t26 62t63 26q36 0 62 -26t26 -62t-26 -62t-62 -26zM201 1194q-36 0 -62 26t-26 62t26 62t62 26t62 -26t26 -62t-26 -62t-62 -26z" />
    <glyph glyph-name="copyright" unicode="&#xa9;" horiz-adv-x="1231" 
d="M610 -17q-161 0 -271.5 41t-177 111.5t-96.5 160.5t-30 188v375q0 96 29 185.5t95 160.5t176.5 112.5t274.5 41.5t275 -41.5t177 -112.5t94.5 -160.5t28.5 -185.5v-375q0 -98 -29.5 -188t-96 -160.5t-177 -111.5t-272.5 -41zM610 138q129 0 206 31t116 82t51.5 113
t12.5 125v357q0 65 -13 128.5t-52.5 115.5t-116.5 83t-204 31q-126 0 -202.5 -31.5t-116 -84t-53.5 -115t-14 -125.5v-353q0 -69 15 -133.5t55.5 -114.5t116.5 -79.5t199 -29.5zM608 254q-119 0 -203.5 58.5t-84.5 175.5v355q0 130 85 188.5t203 58.5q80 0 146.5 -23.5
t107 -74.5t40.5 -133v-85h-171v46q0 53 -21 87.5t-102 34.5q-83 0 -101.5 -38t-18.5 -95v-271q0 -37 6 -67.5t31 -48.5t81 -18q79 0 102 37t23 88v43h171v-91q0 -78 -41.5 -128.5t-108.5 -74.5t-144 -24z" />
    <glyph glyph-name="ordfeminine" unicode="&#xaa;" horiz-adv-x="642" 
d="M406 831l-15 25q-60 -31 -149 -31q-102 0 -149.5 38t-47.5 115q0 69 45 107t157 46q54 6 139 7q-1 62 -16 86q-15 23 -69 23q-50 0 -82 -22.5t-32 -67.5l-135 41q3 82 61.5 123.5t198.5 41.5q154 0 205 -55t51 -170v-307h-162zM386 1000v42q-54 -1 -89 -2
q-39 -3 -57 -17.5t-18 -37.5q0 -26 14.5 -36.5t51.5 -10.5q50 0 74 14.5t24 47.5z" />
    <glyph glyph-name="guillemotleft" unicode="&#xab;" horiz-adv-x="1219" 
d="M861 80l-349 414l349 414h321l-352 -414l352 -414h-321zM383 80l-349 414l349 414h321l-351 -414l351 -414h-321z" />
    <glyph glyph-name="logicalnot" unicode="&#xac;" horiz-adv-x="840" 
d="M590 194v195h-539v198h738v-393h-199z" />
    <glyph glyph-name="uni00AD" unicode="&#xad;" horiz-adv-x="545" 
d="M45 374v209h454v-209h-454z" />
    <glyph glyph-name="registered" unicode="&#xae;" horiz-adv-x="1152" 
d="M571 394q-161 0 -265.5 40.5t-163.5 107t-83 146t-24 157.5v183q0 79 24 159t83.5 146.5t163.5 107t265 40.5q157 0 260.5 -37.5t164 -101t86 -145t25.5 -169.5l-1 -183q0 -88 -25.5 -169t-86 -144.5t-164 -100.5t-259.5 -37zM571 540q146 0 225.5 36t110 105.5
t29.5 168.5l1 166q0 102 -31 173t-110 108.5t-225 37.5q-145 0 -224 -37.5t-110 -108.5t-32 -172v-164q0 -103 31.5 -173t111 -105t223.5 -35zM351 634v606h301q89 0 121.5 -42.5t32.5 -106.5v-77q0 -43 -18.5 -79.5t-51.5 -48.5l65 -252h-153l-43 237h-106v-237h-148z
M499 982h115q25 0 35 10.5t10 38.5v46q0 23 -8.5 35t-39.5 12h-112v-142z" />
    <glyph glyph-name="macron" unicode="&#xaf;" horiz-adv-x="755" 
d="M74 1296v116h578v-116h-578z" />
    <glyph glyph-name="degree" unicode="&#xb0;" horiz-adv-x="296" 
d="M151 1148q-53 0 -90.5 38.5t-37.5 93.5q0 54 37.5 92.5t90.5 38.5t90.5 -38.5t37.5 -92.5q0 -55 -37.5 -93.5t-90.5 -38.5zM151 1241q14 0 25 11t11 28q0 16 -11 27.5t-25 11.5q-16 0 -26.5 -11.5t-10.5 -27.5q0 -17 10.5 -28t26.5 -11z" />
    <glyph glyph-name="plusminus" unicode="&#xb1;" horiz-adv-x="556" 
d="M180 396v183h-153v196h153v184h204v-184h152v-196h-152v-183h-204zM58.6533 118v196h440.771v-196h-440.771z" />
    <glyph glyph-name="uni00B2" unicode="&#xb2;" horiz-adv-x="617" 
d="M39 750v89q0 61 53 110t161 100q97 45 133 70.5t36 61.5q0 46 -28.5 59t-83.5 13q-61 0 -91.5 -25.5t-30.5 -74.5h-150q0 72 47 141t224 69q178 0 221 -61.5t43 -120.5q0 -66 -54.5 -113.5t-152.5 -104.5q-91 -41 -129.5 -63t-38.5 -40h374v-110h-533z" />
    <glyph glyph-name="uni00B3" unicode="&#xb3;" horiz-adv-x="629" 
d="M311 743q-181 0 -225.5 66t-44.5 146h148q0 -57 29 -80t95 -23q64 0 92.5 21.5t28.5 75.5q0 30 -33 41.5t-123 11.5v101q88 1 122 12.5t34 41.5q0 55 -29 76t-92 21t-93.5 -23.5t-30.5 -85.5h-148q0 81 46 149.5t225 68.5q185 0 228 -55t43 -120q0 -49 -26 -90t-123 -44
q98 -2 123.5 -42.5t25.5 -88.5q0 -68 -43 -124t-229 -56z" />
    <glyph glyph-name="acute" unicode="&#xb4;" horiz-adv-x="542" 
d="M94 1206l135 202h213l-202 -202h-146z" />
    <glyph glyph-name="uni00B5" unicode="&#xb5;" horiz-adv-x="1078" 
d="M56 -442v1633h317v-646q0 -202 32 -266.5t104 -64.5q74 0 123 73q42 62 48 160v743h317v-1190h-294l-13 107q-122 -116 -309 -116h-8v-433h-317z" />
    <glyph glyph-name="paragraph" unicode="&#xb6;" horiz-adv-x="1074" 
d="M443 -156v778h-14q-183 0 -291.5 90.5t-108.5 275.5q0 172 99 267t301 95h599v-1506h-205v1298h-174v-1298h-206z" />
    <glyph glyph-name="periodcentered" unicode="&#xb7;" horiz-adv-x="437" 
d="M216 515q-72 0 -122 49.5t-50 120.5t50 120t122 49q69 0 118.5 -49t49.5 -120t-49.5 -120.5t-118.5 -49.5z" />
    <glyph glyph-name="cedilla" unicode="&#xb8;" horiz-adv-x="646" 
d="M282 -341q-37 0 -79 4.5t-79 13.5l40 132q21 -6 52.5 -11t65.5 -5q106 0 106 48q0 28 -39 28q-16 0 -32.5 -6.5t-26.5 -13.5l-113 12l39 139h125l-27 -79q21 14 51.5 23t69.5 9q62 0 98.5 -29t36.5 -85q0 -58 -42 -98t-108 -61t-138 -21z" />
    <glyph glyph-name="uni00B9" unicode="&#xb9;" horiz-adv-x="565" 
d="M44 750v110h167v371l-174 -38v116l196 49h127v-498h165v-110h-481z" />
    <glyph glyph-name="ordmasculine" unicode="&#xba;" horiz-adv-x="633" 
d="M321 827q-144 0 -219.5 51t-75.5 171v94q0 121 75 172t220 51t219.5 -50.5t74.5 -172.5v-94q0 -121 -74.5 -171.5t-219.5 -50.5zM320 955q46 0 67.5 18t21.5 68v110q0 50 -21.5 68t-67.5 18q-47 0 -68 -18t-21 -68v-110q0 -50 21 -68t68 -18z" />
    <glyph glyph-name="guillemotright" unicode="&#xbb;" horiz-adv-x="1221" 
d="M514 80l351 414l-351 414h322l348 -414l-348 -414h-322zM35 80l352 414l-352 414h321l350 -414l-350 -414h-321z" />
    <glyph glyph-name="onequarter" unicode="&#xbc;" horiz-adv-x="1621" 
d="M44 750v110h167v371l-174 -38v116l196 49h127v-498h165v-110h-481zM288 0l820 1348h162l-821 -1348h-161zM1342 0v127h-324v105l226 376h246v-376h93v-105h-93v-127h-148zM1181 232h161v272h-10z" />
    <glyph glyph-name="onehalf" unicode="&#xbd;" horiz-adv-x="1609" 
d="M44 750v110h167v371l-174 -38v116l196 49h127v-498h165v-110h-481zM288 0l820 1348h162l-821 -1348h-161zM1031 0v89q0 61 53 110t161 100q97 45 133 70.5t36 61.5q0 46 -28.5 59t-83.5 13q-61 0 -91.5 -25.5t-30.5 -74.5h-150q0 72 47 141t224 69q178 0 221 -61.5
t43 -120.5q0 -66 -54.5 -113.5t-152.5 -104.5q-91 -41 -129.5 -63t-38.5 -40h374v-110h-533z" />
    <glyph glyph-name="threequarters" unicode="&#xbe;" horiz-adv-x="1686" 
d="M311 743q-181 0 -225.5 66t-44.5 146h148q0 -57 29 -80t95 -23q64 0 92.5 21.5t28.5 75.5q0 30 -33 41.5t-123 11.5v101q88 1 122 12.5t34 41.5q0 55 -29 76t-92 21t-93.5 -23.5t-30.5 -85.5h-148q0 81 46 149.5t225 68.5q185 0 228 -55t43 -120q0 -49 -26 -90t-123 -44
q98 -2 123.5 -42.5t25.5 -88.5q0 -68 -43 -124t-229 -56zM352 0l820 1348h162l-821 -1348h-161zM1406 0v127h-324v105l226 376h246v-376h93v-105h-93v-127h-148zM1245 232h161v272h-10z" />
    <glyph glyph-name="questiondown" unicode="&#xbf;" horiz-adv-x="1009" 
d="M635 967q0 -149 -41 -237t-119 -158q-58 -56 -97 -106.5t-39 -120.5q0 -80 32.5 -117t114.5 -37q87 0 126 53.5t39 186.5h309q0 -256 -113.5 -348.5t-356.5 -92.5q-260 0 -362 81t-102 239q0 121 52 202t119 144q80 78 102.5 152.5t23.5 158.5h312zM473 1380
q71 0 121 -49.5t50 -120.5t-50 -120t-121 -49q-69 0 -118.5 49t-49.5 120t49.5 120.5t118.5 49.5z" />
    <glyph glyph-name="Agrave" unicode="&#xc0;" horiz-adv-x="1180" 
d="M43 0l302 1351h489l304 -1351h-329l-61 332h-315l-62 -332h-328zM471 550h239l-114 601h-10zM617 1394l-203 202h214l135 -202h-146z" />
    <glyph glyph-name="Aacute" unicode="&#xc1;" horiz-adv-x="1180" 
d="M43 0l302 1351h489l304 -1351h-329l-61 332h-315l-62 -332h-328zM471 550h239l-114 601h-10zM415 1389l135 202h213l-202 -202h-146z" />
    <glyph glyph-name="Acircumflex" unicode="&#xc2;" horiz-adv-x="1180" 
d="M43 0l302 1351h489l304 -1351h-329l-61 332h-315l-62 -332h-328zM471 550h239l-114 601h-10zM310 1400l178 201h202l178 -201h-172l-107 135l-108 -135h-171z" />
    <glyph glyph-name="Atilde" unicode="&#xc3;" horiz-adv-x="1180" 
d="M43 0l302 1351h489l304 -1351h-329l-61 332h-315l-62 -332h-328zM471 550h239l-114 601h-10zM708 1407q-51 0 -85 18.5t-62 37t-57 18.5q-38 0 -51 -23t-14 -42h-151q1 31 14.5 75t54 77t122.5 33q49 0 82.5 -18t60.5 -35.5t59 -17.5q33 0 48 23t16 41h150
q-1 -30 -14.5 -74.5t-53 -78.5t-119.5 -34z" />
    <glyph glyph-name="Adieresis" unicode="&#xc4;" horiz-adv-x="1180" 
d="M43 0l302 1351h489l304 -1351h-329l-61 332h-315l-62 -332h-328zM471 550h239l-114 601h-10zM760 1407q-37 0 -63 26t-26 62t26 62t63 26q36 0 62 -26t26 -62t-26 -62t-62 -26zM415 1407q-36 0 -62 26t-26 62t26 62t62 26t62 -26t26 -62t-26 -62t-62 -26z" />
    <glyph glyph-name="Aring" unicode="&#xc5;" horiz-adv-x="1180" 
d="M43 0l302 1351h489l304 -1351h-329l-61 332h-315l-62 -332h-328zM471 550h239l-114 601h-10zM589 1389q-68 0 -113 46.5t-45 114.5q0 67 45 113.5t113 46.5t113 -46.5t45 -113.5q0 -68 -45 -114.5t-113 -46.5zM589 1502q19 0 32 13.5t13 34.5q0 20 -13 33.5t-32 13.5
q-18 0 -31.5 -13.5t-13.5 -33.5q0 -21 13.5 -34.5t31.5 -13.5z" />
    <glyph glyph-name="AE" unicode="&#xc6;" horiz-adv-x="1610" 
d="M43 0l495 1350h1005v-223h-466v-336h435v-214h-435v-354h466v-223h-787v255h-286l-90 -255h-337zM546 471h210v594z" />
    <glyph glyph-name="Ccedilla" unicode="&#xc7;" horiz-adv-x="1110" 
d="M549 -8q-337 0 -426.5 174.5t-89.5 512.5t89.5 510t425.5 172q339 0 420 -167t81 -398h-323q0 230 -44.5 286t-133.5 56q-92 0 -142 -62.5t-50 -396.5q0 -337 50.5 -400.5t141.5 -63.5q88 0 133 57.5t45 282.5h323q0 -223 -81 -393t-419 -170zM554 -341q-37 0 -79 4.5
t-79 13.5l40 132q21 -6 52.5 -11t65.5 -5q106 0 106 48q0 28 -39 28q-16 0 -32.5 -6.5t-26.5 -13.5l-113 12l39 139h125l-27 -79q21 14 51.5 23t69.5 9q62 0 98.5 -29t36.5 -85q0 -58 -42 -98t-108 -61t-138 -21z" />
    <glyph glyph-name="Egrave" unicode="&#xc8;" horiz-adv-x="909" 
d="M54 0v1350h788v-223h-467v-336h436v-214h-436v-354h467v-223h-788zM475 1394l-203 202h214l135 -202h-146z" />
    <glyph glyph-name="Eacute" unicode="&#xc9;" horiz-adv-x="909" 
d="M54 0v1350h788v-223h-467v-336h436v-214h-436v-354h467v-223h-788zM274 1389l135 202h213l-202 -202h-146z" />
    <glyph glyph-name="Ecircumflex" unicode="&#xca;" horiz-adv-x="909" 
d="M54 0v1350h788v-223h-467v-336h436v-214h-436v-354h467v-223h-788zM169 1400l178 201h202l178 -201h-172l-107 135l-108 -135h-171z" />
    <glyph glyph-name="Edieresis" unicode="&#xcb;" horiz-adv-x="909" 
d="M54 0v1350h788v-223h-467v-336h436v-214h-436v-354h467v-223h-788zM619 1407q-37 0 -63 26t-26 62t26 62t63 26q36 0 62 -26t26 -62t-26 -62t-62 -26zM274 1407q-36 0 -62 26t-26 62t26 62t62 26t62 -26t26 -62t-26 -62t-62 -26z" />
    <glyph glyph-name="Igrave" unicode="&#xcc;" horiz-adv-x="518" 
d="M91 0v1350h321v-1350h-321zM279 1394l-203 202h214l135 -202h-146z" />
    <glyph glyph-name="Iacute" unicode="&#xcd;" horiz-adv-x="518" 
d="M91 0v1350h321v-1350h-321zM78 1389l135 202h213l-202 -202h-146z" />
    <glyph glyph-name="Icircumflex" unicode="&#xce;" horiz-adv-x="518" 
d="M91 0v1350h321v-1350h-321zM-27 1400l178 201h202l178 -201h-172l-107 135l-108 -135h-171z" />
    <glyph glyph-name="Idieresis" unicode="&#xcf;" horiz-adv-x="518" 
d="M91 0v1350h321v-1350h-321zM422 1407q-37 0 -63 26t-26 62t26 62t63 26q36 0 62 -26t26 -62t-26 -62t-62 -26zM77 1407q-36 0 -62 26t-26 62t26 62t62 26t62 -26t26 -62t-26 -62t-62 -26z" />
    <glyph glyph-name="Eth" unicode="&#xd0;" horiz-adv-x="1141" 
d="M-9 572v209h110v569h589q254 0 328.5 -147t74.5 -527.5t-74.5 -528t-328.5 -147.5h-589v572h-110zM421 223h175q95 0 135.5 62.5t40.5 390.5q0 326 -40.5 388.5t-135.5 62.5h-175v-346h133v-209h-133v-349z" />
    <glyph glyph-name="Ntilde" unicode="&#xd1;" horiz-adv-x="1312" 
d="M58 0v1350h512l336 -1072l3 1072h319v-1350h-511l-341 1096v-1096h-318zM770 1407q-51 0 -85 18.5t-62 37t-57 18.5q-38 0 -51 -23t-14 -42h-151q1 31 14.5 75t54 77t122.5 33q49 0 82.5 -18t60.5 -35.5t59 -17.5q33 0 48 23t16 41h150q-1 -30 -14.5 -74.5t-53 -78.5
t-119.5 -34z" />
    <glyph glyph-name="Ograve" unicode="&#xd2;" 
d="M568 -10q-337 0 -431 160t-94 525t94 525.5t431 160.5t431.5 -160.5t94.5 -525.5t-94.5 -525t-431.5 -160zM568 213q99 0 153 66.5t54 395.5q0 335 -54 399t-153 64q-98 0 -152 -64t-54 -399q0 -329 54 -395.5t152 -66.5zM598 1394l-203 202h214l135 -202h-146z" />
    <glyph glyph-name="Oacute" unicode="&#xd3;" 
d="M568 -10q-337 0 -431 160t-94 525t94 525.5t431 160.5t431.5 -160.5t94.5 -525.5t-94.5 -525t-431.5 -160zM568 213q99 0 153 66.5t54 395.5q0 335 -54 399t-153 64q-98 0 -152 -64t-54 -399q0 -329 54 -395.5t152 -66.5zM396 1389l135 202h213l-202 -202h-146z" />
    <glyph glyph-name="Ocircumflex" unicode="&#xd4;" 
d="M568 -10q-337 0 -431 160t-94 525t94 525.5t431 160.5t431.5 -160.5t94.5 -525.5t-94.5 -525t-431.5 -160zM568 213q99 0 153 66.5t54 395.5q0 335 -54 399t-153 64q-98 0 -152 -64t-54 -399q0 -329 54 -395.5t152 -66.5zM292 1400l178 201h202l178 -201h-172l-107 135
l-108 -135h-171z" />
    <glyph glyph-name="Otilde" unicode="&#xd5;" 
d="M568 -10q-337 0 -431 160t-94 525t94 525.5t431 160.5t431.5 -160.5t94.5 -525.5t-94.5 -525t-431.5 -160zM568 213q99 0 153 66.5t54 395.5q0 335 -54 399t-153 64q-98 0 -152 -64t-54 -399q0 -329 54 -395.5t152 -66.5zM689 1407q-51 0 -85 18.5t-62 37t-57 18.5
q-38 0 -51 -23t-14 -42h-151q1 31 14.5 75t54 77t122.5 33q49 0 82.5 -18t60.5 -35.5t59 -17.5q33 0 48 23t16 41h150q-1 -30 -14.5 -74.5t-53 -78.5t-119.5 -34z" />
    <glyph glyph-name="Odieresis" unicode="&#xd6;" 
d="M568 -10q-337 0 -431 160t-94 525t94 525.5t431 160.5t431.5 -160.5t94.5 -525.5t-94.5 -525t-431.5 -160zM568 213q99 0 153 66.5t54 395.5q0 335 -54 399t-153 64q-98 0 -152 -64t-54 -399q0 -329 54 -395.5t152 -66.5zM741 1407q-37 0 -63 26t-26 62t26 62t63 26
q36 0 62 -26t26 -62t-26 -62t-62 -26zM396 1407q-36 0 -62 26t-26 62t26 62t62 26t62 -26t26 -62t-26 -62t-62 -26z" />
    <glyph glyph-name="multiply" unicode="&#xd7;" horiz-adv-x="567" 
d="M410 212l-122 126l-122 -126l-139 139l124 128l-124 127l139 137l122 -125l122 125l138 -137l-124 -127l125 -128z" />
    <glyph glyph-name="Oslash" unicode="&#xd8;" horiz-adv-x="1099" 
d="M23 0l109 159q-89 161 -89 516q0 365 94 525.5t431 160.5q222 0 339 -70l38 57h140l-93 -136q4 -6 7 -12q95 -160 95 -525t-94.5 -525t-431.5 -160q-239 0 -355 80l-48 -70h-142zM568 213q99 0 153 66.5t54 395.5q0 122 -7 208l-377 -551q11 -35 25 -53q54 -66 152 -66z
M366 502l371 542q-7 19 -16 30q-54 64 -153 64q-98 0 -152 -64t-54 -399q0 -98 4 -173z" />
    <glyph glyph-name="Ugrave" unicode="&#xd9;" horiz-adv-x="1144" 
d="M565 -9q-258 0 -381 89t-123 300v970h321v-934q0 -108 43 -155t139.5 -47t139.5 46.5t43 155.5v934h321v-970q0 -211 -123 -300t-380 -89zM597 1394l-203 202h214l135 -202h-146z" />
    <glyph glyph-name="Uacute" unicode="&#xda;" horiz-adv-x="1144" 
d="M565 -9q-258 0 -381 89t-123 300v970h321v-934q0 -108 43 -155t139.5 -47t139.5 46.5t43 155.5v934h321v-970q0 -211 -123 -300t-380 -89zM396 1389l135 202h213l-202 -202h-146z" />
    <glyph glyph-name="Ucircumflex" unicode="&#xdb;" horiz-adv-x="1144" 
d="M565 -9q-258 0 -381 89t-123 300v970h321v-934q0 -108 43 -155t139.5 -47t139.5 46.5t43 155.5v934h321v-970q0 -211 -123 -300t-380 -89zM291 1400l178 201h202l178 -201h-172l-107 135l-108 -135h-171z" />
    <glyph glyph-name="Udieresis" unicode="&#xdc;" horiz-adv-x="1144" 
d="M565 -9q-258 0 -381 89t-123 300v970h321v-934q0 -108 43 -155t139.5 -47t139.5 46.5t43 155.5v934h321v-970q0 -211 -123 -300t-380 -89zM741 1407q-37 0 -63 26t-26 62t26 62t63 26q36 0 62 -26t26 -62t-26 -62t-62 -26zM396 1407q-36 0 -62 26t-26 62t26 62t62 26
t62 -26t26 -62t-26 -62t-62 -26z" />
    <glyph glyph-name="Yacute" unicode="&#xdd;" horiz-adv-x="1159" 
d="M418 0v413l-400 937h346l215 -637l213 637h346l-399 -937v-413h-321zM404 1389l135 202h213l-202 -202h-146z" />
    <glyph glyph-name="Thorn" unicode="&#xde;" horiz-adv-x="1059" 
d="M54 0v1350h318v-218h360q138 0 201.5 -75t63.5 -220v-313q0 -154 -60.5 -225t-204.5 -71h-360v-228h-318zM372 435h234q43 0 58 32t15 98v237q0 60 -14.5 91t-58.5 31h-234v-489z" />
    <glyph glyph-name="germandbls" unicode="&#xdf;" horiz-adv-x="1151" 
d="M58 0v979q0 147 51 256.5t161.5 169.5t288.5 60q162 0 267 -47t156 -126t51 -176q0 -92 -26 -152t-51.5 -105t-25.5 -93q0 -35 24.5 -69.5t56.5 -76.5t56.5 -99.5t24.5 -138.5q0 -209 -148.5 -295.5t-464.5 -86.5v220q147 0 208.5 45.5t61.5 140.5q0 51 -20 93.5t-46 83
t-46 84.5t-20 98q0 73 23.5 128t47.5 103t24 103q0 67 -34 107.5t-116 40.5q-98 0 -141.5 -64t-43.5 -178v-1005h-319z" />
    <glyph glyph-name="agrave" unicode="&#xe0;" horiz-adv-x="1099" 
d="M756 0l-25 80q-5 -5 -11 -10q-94 -82 -291 -82q-182 0 -283 76.5t-101 289.5q0 197 97.5 277.5t317.5 80.5h245v39q0 127 -41.5 179t-117.5 52q-68 0 -113 -46.5t-55 -159.5l-316 63q20 193 133.5 278t342.5 85q320 0 403.5 -151t83.5 -415v-636h-269zM705 334v180h-153
q-108 0 -144.5 -38t-36.5 -118t32.5 -120t111.5 -40q84 0 137 38t53 98zM568 1234l-203 202h214l135 -202h-146z" />
    <glyph glyph-name="aacute" unicode="&#xe1;" horiz-adv-x="1099" 
d="M756 0l-25 80q-5 -5 -11 -10q-94 -82 -291 -82q-182 0 -283 76.5t-101 289.5q0 197 97.5 277.5t317.5 80.5h245v39q0 127 -41.5 179t-117.5 52q-68 0 -113 -46.5t-55 -159.5l-316 63q20 193 133.5 278t342.5 85q320 0 403.5 -151t83.5 -415v-636h-269zM705 334v180h-153
q-108 0 -144.5 -38t-36.5 -118t32.5 -120t111.5 -40q84 0 137 38t53 98zM367 1229l135 202h213l-202 -202h-146z" />
    <glyph glyph-name="acircumflex" unicode="&#xe2;" horiz-adv-x="1099" 
d="M756 0l-25 80q-5 -5 -11 -10q-94 -82 -291 -82q-182 0 -283 76.5t-101 289.5q0 197 97.5 277.5t317.5 80.5h245v39q0 127 -41.5 179t-117.5 52q-68 0 -113 -46.5t-55 -159.5l-316 63q20 193 133.5 278t342.5 85q320 0 403.5 -151t83.5 -415v-636h-269zM705 334v180h-153
q-108 0 -144.5 -38t-36.5 -118t32.5 -120t111.5 -40q84 0 137 38t53 98zM262 1240l178 201h202l178 -201h-172l-107 135l-108 -135h-171z" />
    <glyph glyph-name="atilde" unicode="&#xe3;" horiz-adv-x="1099" 
d="M756 0l-25 80q-5 -5 -11 -10q-94 -82 -291 -82q-182 0 -283 76.5t-101 289.5q0 197 97.5 277.5t317.5 80.5h245v39q0 127 -41.5 179t-117.5 52q-68 0 -113 -46.5t-55 -159.5l-316 63q20 193 133.5 278t342.5 85q320 0 403.5 -151t83.5 -415v-636h-269zM705 334v180h-153
q-108 0 -144.5 -38t-36.5 -118t32.5 -120t111.5 -40q84 0 137 38t53 98zM659 1247q-51 0 -85 18.5t-62 37t-57 18.5q-38 0 -51 -23t-14 -42h-151q1 31 14.5 75t54 77t122.5 33q49 0 82.5 -18t60.5 -35.5t59 -17.5q33 0 48 23t16 41h150q-1 -30 -14.5 -74.5t-53 -78.5
t-119.5 -34z" />
    <glyph glyph-name="adieresis" unicode="&#xe4;" horiz-adv-x="1099" 
d="M756 0l-25 80q-5 -5 -11 -10q-94 -82 -291 -82q-182 0 -283 76.5t-101 289.5q0 197 97.5 277.5t317.5 80.5h245v39q0 127 -41.5 179t-117.5 52q-68 0 -113 -46.5t-55 -159.5l-316 63q20 193 133.5 278t342.5 85q320 0 403.5 -151t83.5 -415v-636h-269zM705 334v180h-153
q-108 0 -144.5 -38t-36.5 -118t32.5 -120t111.5 -40q84 0 137 38t53 98zM711 1247q-37 0 -63 26t-26 62t26 62t63 26q36 0 62 -26t26 -62t-26 -62t-62 -26zM366 1247q-36 0 -62 26t-26 62t26 62t62 26t62 -26t26 -62t-26 -62t-62 -26z" />
    <glyph glyph-name="aring" unicode="&#xe5;" horiz-adv-x="1099" 
d="M756 0l-25 80q-5 -5 -11 -10q-94 -82 -291 -82q-182 0 -283 76.5t-101 289.5q0 197 97.5 277.5t317.5 80.5h245v39q0 127 -41.5 179t-117.5 52q-68 0 -113 -46.5t-55 -159.5l-316 63q20 193 133.5 278t342.5 85q320 0 403.5 -151t83.5 -415v-636h-269zM705 334v180h-153
q-108 0 -144.5 -38t-36.5 -118t32.5 -120t111.5 -40q84 0 137 38t53 98zM540 1229q-68 0 -113 46.5t-45 114.5q0 67 45 113.5t113 46.5t113 -46.5t45 -113.5q0 -68 -45 -114.5t-113 -46.5zM540 1342q19 0 32 13.5t13 34.5q0 20 -13 33.5t-32 13.5q-18 0 -31.5 -13.5
t-13.5 -33.5q0 -21 13.5 -34.5t31.5 -13.5z" />
    <glyph glyph-name="ae" unicode="&#xe6;" horiz-adv-x="1754" 
d="M414 -12q-171 0 -270 81.5t-99 261.5q0 203 99 270t280 67h278v4v83q0 135 -39.5 188t-117.5 53q-75 0 -112.5 -47t-53.5 -210l-309 64q29 169 101 283.5t373 114.5q225 0 326 -75q111 76 329 76q323 0 409.5 -163t86.5 -441q0 -57 -4 -102h-677q8 -159 47 -217
q51 -75 142 -75q65 0 114 49t60 160l293 -68q-20 -200 -142 -278t-326 -78q-283 0 -387 127q-22 -27 -51 -48q-113 -80 -350 -80zM1013 695h366q-4 163 -46 226q-46 68 -134 68t-138 -73q-39 -56 -48 -221zM702 379v100h-167q-96 0 -127.5 -33t-31.5 -119q0 -62 27.5 -102
t115.5 -40q89 0 137 46q40 38 46 148z" />
    <glyph glyph-name="ccedilla" unicode="&#xe7;" horiz-adv-x="1051" 
d="M530 -11q-319 0 -407 162t-88 441q0 290 88 449.5t407 159.5q294 0 371 -141t89 -305l-293 -71q-5 163 -47 228t-120 65t-125.5 -70.5t-47.5 -314.5q0 -230 47.5 -305t125.5 -75t120 69.5t47 219.5l293 -74q-12 -149 -89 -293.5t-371 -144.5zM542 -341q-37 0 -79 4.5
t-79 13.5l40 132q21 -6 52.5 -11t65.5 -5q106 0 106 48q0 28 -39 28q-16 0 -32.5 -6.5t-26.5 -13.5l-113 12l39 139h125l-27 -79q21 14 51.5 23t69.5 9q62 0 98.5 -29t36.5 -85q0 -58 -42 -98t-108 -61t-138 -21z" />
    <glyph glyph-name="egrave" unicode="&#xe8;" horiz-adv-x="1096" 
d="M545 -11q-322 0 -412 163t-90 440q0 287 90.5 448.5t407.5 161.5q323 0 409.5 -163t86.5 -441q0 -57 -4 -102h-677q9 -159 48 -217q50 -75 141 -75q65 0 114 49t60 160l294 -68q-21 -200 -143 -278t-325 -78zM355 695h366q-3 163 -46 226q-46 68 -134 68q-87 0 -138 -73
q-39 -56 -48 -221zM570 1234l-203 202h214l135 -202h-146z" />
    <glyph glyph-name="eacute" unicode="&#xe9;" horiz-adv-x="1096" 
d="M545 -11q-322 0 -412 163t-90 440q0 287 90.5 448.5t407.5 161.5q323 0 409.5 -163t86.5 -441q0 -57 -4 -102h-677q9 -159 48 -217q50 -75 141 -75q65 0 114 49t60 160l294 -68q-21 -200 -143 -278t-325 -78zM355 695h366q-3 163 -46 226q-46 68 -134 68q-87 0 -138 -73
q-39 -56 -48 -221zM368 1229l135 202h213l-202 -202h-146z" />
    <glyph glyph-name="ecircumflex" unicode="&#xea;" horiz-adv-x="1096" 
d="M545 -11q-322 0 -412 163t-90 440q0 287 90.5 448.5t407.5 161.5q323 0 409.5 -163t86.5 -441q0 -57 -4 -102h-677q9 -159 48 -217q50 -75 141 -75q65 0 114 49t60 160l294 -68q-21 -200 -143 -278t-325 -78zM355 695h366q-3 163 -46 226q-46 68 -134 68q-87 0 -138 -73
q-39 -56 -48 -221zM263 1240l178 201h202l178 -201h-172l-107 135l-108 -135h-171z" />
    <glyph glyph-name="edieresis" unicode="&#xeb;" horiz-adv-x="1096" 
d="M545 -11q-322 0 -412 163t-90 440q0 287 90.5 448.5t407.5 161.5q323 0 409.5 -163t86.5 -441q0 -57 -4 -102h-677q9 -159 48 -217q50 -75 141 -75q65 0 114 49t60 160l294 -68q-21 -200 -143 -278t-325 -78zM355 695h366q-3 163 -46 226q-46 68 -134 68q-87 0 -138 -73
q-39 -56 -48 -221zM713 1247q-37 0 -63 26t-26 62t26 62t63 26q36 0 62 -26t26 -62t-26 -62t-62 -26zM368 1247q-36 0 -62 26t-26 62t26 62t62 26t62 -26t26 -62t-26 -62t-62 -26z" />
    <glyph glyph-name="igrave" unicode="&#xec;" horiz-adv-x="477" 
d="M68 0v1191h320v-1191h-320zM256 1234l-203 202h214l135 -202h-146z" />
    <glyph glyph-name="iacute" unicode="&#xed;" horiz-adv-x="477" 
d="M68 0v1191h320v-1191h-320zM55 1229l135 202h213l-202 -202h-146z" />
    <glyph glyph-name="icircumflex" unicode="&#xee;" horiz-adv-x="477" 
d="M68 0v1191h320v-1191h-320zM-50 1240l178 201h202l178 -201h-172l-107 135l-108 -135h-171z" />
    <glyph glyph-name="idieresis" unicode="&#xef;" horiz-adv-x="477" 
d="M68 0v1191h320v-1191h-320zM399 1247q-37 0 -63 26t-26 62t26 62t63 26q36 0 62 -26t26 -62t-26 -62t-62 -26zM54 1247q-36 0 -62 26t-26 62t26 62t62 26t62 -26t26 -62t-26 -62t-62 -26z" />
    <glyph glyph-name="eth" unicode="&#xf0;" horiz-adv-x="1095" 
d="M538 -9q-322 0 -407.5 168t-85.5 437.5t80.5 436.5t402.5 167q86 0 155 -15q-49 95 -143 143l-35 -67l-160 34l41 79q-68 11 -159 12l63 191q103 -5 190 -25l35 66l158 -35l-44 -84q108 -54 184.5 -150.5t111.5 -245.5q37 -47 60.5 -116.5t35 -148t11.5 -151.5l-4 2
q4 -44 4 -90q0 -273 -86 -440.5t-408 -167.5zM538 214q90 0 133.5 73.5t43.5 309.5t-43.5 310.5t-133 74.5t-133 -75t-43.5 -310.5t43.5 -309t132.5 -73.5z" />
    <glyph glyph-name="ntilde" unicode="&#xf1;" horiz-adv-x="1077" 
d="M63 0v1190h294l11 -102q121 112 304 112q206 0 265.5 -154.5t59.5 -388.5v-657h-316v646q0 202 -32.5 266.5t-103.5 64.5q-75 0 -124 -73q-30 -44 -41 -107v-797h-317zM654 1247q-51 0 -85 18.5t-62 37t-57 18.5q-38 0 -51 -23t-14 -42h-151q1 31 14.5 75t54 77t122.5 33
q49 0 82.5 -18t60.5 -35.5t59 -17.5q33 0 48 23t16 41h150q-1 -30 -14.5 -74.5t-53 -78.5t-119.5 -34z" />
    <glyph glyph-name="ograve" unicode="&#xf2;" horiz-adv-x="1098" 
d="M542 -9q-316 0 -408 155.5t-92 451.5q0 298 92 451.5t408 153.5q315 0 407 -153.5t92 -451.5q0 -296 -92 -451.5t-407 -155.5zM542 211q85 0 133.5 71t48.5 315q0 245 -48.5 315.5t-133.5 70.5q-86 0 -134.5 -70.5t-48.5 -315.5q0 -244 48.5 -315t134.5 -71zM569 1235
l-203 202h214l135 -202h-146z" />
    <glyph glyph-name="oacute" unicode="&#xf3;" horiz-adv-x="1098" 
d="M542 -9q-316 0 -408 155.5t-92 451.5q0 298 92 451.5t408 153.5q315 0 407 -153.5t92 -451.5q0 -296 -92 -451.5t-407 -155.5zM542 211q85 0 133.5 71t48.5 315q0 245 -48.5 315.5t-133.5 70.5q-86 0 -134.5 -70.5t-48.5 -315.5q0 -244 48.5 -315t134.5 -71zM368 1230
l135 202h213l-202 -202h-146z" />
    <glyph glyph-name="ocircumflex" unicode="&#xf4;" horiz-adv-x="1098" 
d="M542 -9q-316 0 -408 155.5t-92 451.5q0 298 92 451.5t408 153.5q315 0 407 -153.5t92 -451.5q0 -296 -92 -451.5t-407 -155.5zM542 211q85 0 133.5 71t48.5 315q0 245 -48.5 315.5t-133.5 70.5q-86 0 -134.5 -70.5t-48.5 -315.5q0 -244 48.5 -315t134.5 -71zM263 1240
l178 201h202l178 -201h-172l-107 135l-108 -135h-171z" />
    <glyph glyph-name="otilde" unicode="&#xf5;" horiz-adv-x="1098" 
d="M542 -9q-316 0 -408 155.5t-92 451.5q0 298 92 451.5t408 153.5q315 0 407 -153.5t92 -451.5q0 -296 -92 -451.5t-407 -155.5zM542 211q85 0 133.5 71t48.5 315q0 245 -48.5 315.5t-133.5 70.5q-86 0 -134.5 -70.5t-48.5 -315.5q0 -244 48.5 -315t134.5 -71zM661 1248
q-51 0 -85 18.5t-62 37t-57 18.5q-38 0 -51 -23t-14 -42h-151q1 31 14.5 75t54 77t122.5 33q49 0 82.5 -18t60.5 -35.5t59 -17.5q33 0 48 23t16 41h150q-1 -30 -14.5 -74.5t-53 -78.5t-119.5 -34z" />
    <glyph glyph-name="odieresis" unicode="&#xf6;" horiz-adv-x="1098" 
d="M542 -9q-316 0 -408 155.5t-92 451.5q0 298 92 451.5t408 153.5q315 0 407 -153.5t92 -451.5q0 -296 -92 -451.5t-407 -155.5zM542 211q85 0 133.5 71t48.5 315q0 245 -48.5 315.5t-133.5 70.5q-86 0 -134.5 -70.5t-48.5 -315.5q0 -244 48.5 -315t134.5 -71zM713 1248
q-37 0 -63 26t-26 62t26 62t63 26q36 0 62 -26t26 -62t-26 -62t-62 -26zM368 1248q-36 0 -62 26t-26 62t26 62t62 26t62 -26t26 -62t-26 -62t-62 -26z" />
    <glyph glyph-name="divide" unicode="&#xf7;" horiz-adv-x="543" 
d="M29 382v193h488v-193h-488zM280 30q-47 0 -77 30.5t-30 75.5q0 42 30 72t77 30q41 0 70 -30t29 -72q0 -45 -28.5 -75.5t-70.5 -30.5zM280 719q-47 0 -77 31t-30 76q0 41 30 71t77 30q42 0 70.5 -30t28.5 -71q0 -45 -28.5 -76t-70.5 -31z" />
    <glyph glyph-name="oslash" unicode="&#xf8;" horiz-adv-x="1095" 
d="M-14 8l132 167q-76 153 -76 423q0 298 92 451.5t408 153.5q221 0 332 -75l103 130l103 -66l-123 -156q84 -153 84 -438q0 -296 -92 -451.5t-407 -155.5q-236 0 -347 86l-112 -141zM542 211q85 0 133.5 71t48.5 315q0 79 -5 140l-330 -416q8 -24 19 -39q48 -71 134 -71z
M362 482l325 410q-5 12 -12 21q-48 70 -133 70q-86 0 -134.5 -70.5t-48.5 -315.5q0 -63 3 -115z" />
    <glyph glyph-name="ugrave" unicode="&#xf9;" horiz-adv-x="1079" 
d="M703 0l-13 107q-122 -116 -309 -116q-206 0 -265.5 154.5t-59.5 388.5v657h317v-646q0 -202 32 -266.5t104 -64.5q74 0 123 73q42 62 48 160v743h317v-1190h-294zM560 1234l-203 202h214l135 -202h-146z" />
    <glyph glyph-name="uacute" unicode="&#xfa;" horiz-adv-x="1079" 
d="M703 0l-13 107q-122 -116 -309 -116q-206 0 -265.5 154.5t-59.5 388.5v657h317v-646q0 -202 32 -266.5t104 -64.5q74 0 123 73q42 62 48 160v743h317v-1190h-294zM359 1229l135 202h213l-202 -202h-146z" />
    <glyph glyph-name="ucircumflex" unicode="&#xfb;" horiz-adv-x="1079" 
d="M703 0l-13 107q-122 -116 -309 -116q-206 0 -265.5 154.5t-59.5 388.5v657h317v-646q0 -202 32 -266.5t104 -64.5q74 0 123 73q42 62 48 160v743h317v-1190h-294zM254 1240l178 201h202l178 -201h-172l-107 135l-108 -135h-171z" />
    <glyph glyph-name="udieresis" unicode="&#xfc;" horiz-adv-x="1079" 
d="M703 0l-13 107q-122 -116 -309 -116q-206 0 -265.5 154.5t-59.5 388.5v657h317v-646q0 -202 32 -266.5t104 -64.5q74 0 123 73q42 62 48 160v743h317v-1190h-294zM704 1247q-37 0 -63 26t-26 62t26 62t63 26q36 0 62 -26t26 -62t-26 -62t-62 -26zM359 1247q-36 0 -62 26
t-26 62t26 62t62 26t62 -26t26 -62t-26 -62t-62 -26z" />
    <glyph glyph-name="yacute" unicode="&#xfd;" horiz-adv-x="1059" 
d="M270 0l-251 1190h331l174 -913l173 913h330l-252 -1190q-56 -250 -222 -357t-459 -107v224q162 0 262 56q99 57 128 184h-214zM347 1229l135 202h213l-202 -202h-146z" />
    <glyph glyph-name="thorn" unicode="&#xfe;" horiz-adv-x="1099" 
d="M63 -400v1323h4v647h317v-451q129 81 295 81q218 0 290.5 -165.5t72.5 -436.5t-72.5 -438t-290.5 -167q-170 0 -301 84v-477h-315zM384 777v-362q5 -88 51 -142q52 -59 127 -59q80 0 120.5 68t40.5 315q0 242 -40.5 311.5t-120.5 69.5q-75 0 -127 -61q-46 -54 -51 -140z
" />
    <glyph glyph-name="ydieresis" unicode="&#xff;" horiz-adv-x="1059" 
d="M270 0l-251 1190h331l174 -913l173 913h330l-252 -1190q-56 -250 -222 -357t-459 -107v224q162 0 262 56q99 57 128 184h-214zM692 1247q-37 0 -63 26t-26 62t26 62t63 26q36 0 62 -26t26 -62t-26 -62t-62 -26zM347 1247q-36 0 -62 26t-26 62t26 62t62 26t62 -26t26 -62
t-26 -62t-62 -26z" />
    <glyph glyph-name="Amacron" unicode="&#x100;" horiz-adv-x="1180" 
d="M43 0l302 1351h489l304 -1351h-329l-61 332h-315l-62 -332h-328zM471 550h239l-114 601h-10zM300 1431v116h578v-116h-578z" />
    <glyph glyph-name="amacron" unicode="&#x101;" horiz-adv-x="1099" 
d="M756 0l-25 80q-5 -5 -11 -10q-94 -82 -291 -82q-182 0 -283 76.5t-101 289.5q0 197 97.5 277.5t317.5 80.5h245v39q0 127 -41.5 179t-117.5 52q-68 0 -113 -46.5t-55 -159.5l-316 63q20 193 133.5 278t342.5 85q320 0 403.5 -151t83.5 -415v-636h-269zM705 334v180h-153
q-108 0 -144.5 -38t-36.5 -118t32.5 -120t111.5 -40q84 0 137 38t53 98zM251 1271v116h578v-116h-578z" />
    <glyph glyph-name="Abreve" unicode="&#x102;" horiz-adv-x="1180" 
d="M43 0l302 1351h489l304 -1351h-329l-61 332h-315l-62 -332h-328zM471 550h239l-114 601h-10zM590 1393q-104 0 -162 54.5t-58 132.5h149q0 -80 71 -80q38 0 54 20.5t16 59.5h149q0 -78 -57 -132.5t-162 -54.5z" />
    <glyph glyph-name="abreve" unicode="&#x103;" horiz-adv-x="1099" 
d="M756 0l-25 80q-5 -5 -11 -10q-94 -82 -291 -82q-182 0 -283 76.5t-101 289.5q0 197 97.5 277.5t317.5 80.5h245v39q0 127 -41.5 179t-117.5 52q-68 0 -113 -46.5t-55 -159.5l-316 63q20 193 133.5 278t342.5 85q320 0 403.5 -151t83.5 -415v-636h-269zM705 334v180h-153
q-108 0 -144.5 -38t-36.5 -118t32.5 -120t111.5 -40q84 0 137 38t53 98zM541 1234q-104 0 -162 54.5t-58 132.5h149q0 -80 71 -80q38 0 54 20.5t16 59.5h149q0 -78 -57 -132.5t-162 -54.5z" />
    <glyph glyph-name="Aogonek" unicode="&#x104;" horiz-adv-x="1180" 
d="M43 0l302 1351h489l304 -1351h-329l-61 332h-315l-62 -332h-328zM471 550h239l-114 601h-10zM954 -305q-53 0 -113 11t-102.5 41.5t-42.5 89.5q0 50 25 85t54 55t41 23h159q-5 -3 -21.5 -18t-31 -35.5t-14.5 -42.5q0 -25 23 -35t58 -10q36 0 75.5 6.5t52.5 13.5l18 -165
q-9 -3 -64 -11t-117 -8z" />
    <glyph glyph-name="aogonek" unicode="&#x105;" horiz-adv-x="1099" 
d="M756 0l-25 80q-5 -5 -11 -10q-94 -82 -291 -82q-182 0 -283 76.5t-101 289.5q0 197 97.5 277.5t317.5 80.5h245v39q0 127 -41.5 179t-117.5 52q-68 0 -113 -46.5t-55 -159.5l-316 63q20 193 133.5 278t342.5 85q320 0 403.5 -151t83.5 -415v-636h-269zM705 334v180h-153
q-108 0 -144.5 -38t-36.5 -118t32.5 -120t111.5 -40q84 0 137 38t53 98zM900 -305q-53 0 -113 11t-102.5 41.5t-42.5 89.5q0 50 25 85t54 55t41 23h159q-5 -3 -21.5 -18t-31 -35.5t-14.5 -42.5q0 -25 23 -35t58 -10q36 0 75.5 6.5t52.5 13.5l18 -165q-9 -3 -64 -11t-117 -8z
" />
    <glyph glyph-name="Cacute" unicode="&#x106;" horiz-adv-x="1110" 
d="M549 -8q-337 0 -426.5 174.5t-89.5 512.5t89.5 510t425.5 172q339 0 420 -167t81 -398h-323q0 230 -44.5 286t-133.5 56q-92 0 -142 -62.5t-50 -396.5q0 -337 50.5 -400.5t141.5 -63.5q88 0 133 57.5t45 282.5h323q0 -223 -81 -393t-419 -170zM372 1389l135 202h213
l-202 -202h-146z" />
    <glyph glyph-name="cacute" unicode="&#x107;" horiz-adv-x="1051" 
d="M530 -11q-319 0 -407 162t-88 441q0 290 88 449.5t407 159.5q294 0 371 -141t89 -305l-293 -71q-5 163 -47 228t-120 65t-125.5 -70.5t-47.5 -314.5q0 -230 47.5 -305t125.5 -75t120 69.5t47 219.5l293 -74q-12 -149 -89 -293.5t-371 -144.5zM356 1229l135 202h213
l-202 -202h-146z" />
    <glyph glyph-name="Ccircumflex" unicode="&#x108;" horiz-adv-x="1110" 
d="M549 -8q-337 0 -426.5 174.5t-89.5 512.5t89.5 510t425.5 172q339 0 420 -167t81 -398h-323q0 230 -44.5 286t-133.5 56q-92 0 -142 -62.5t-50 -396.5q0 -337 50.5 -400.5t141.5 -63.5q88 0 133 57.5t45 282.5h323q0 -223 -81 -393t-419 -170zM267 1400l178 201h202
l178 -201h-172l-107 135l-108 -135h-171z" />
    <glyph glyph-name="ccircumflex" unicode="&#x109;" horiz-adv-x="1051" 
d="M530 -11q-319 0 -407 162t-88 441q0 290 88 449.5t407 159.5q294 0 371 -141t89 -305l-293 -71q-5 163 -47 228t-120 65t-125.5 -70.5t-47.5 -314.5q0 -230 47.5 -305t125.5 -75t120 69.5t47 219.5l293 -74q-12 -149 -89 -293.5t-371 -144.5zM251 1240l178 201h202
l178 -201h-172l-107 135l-108 -135h-171z" />
    <glyph glyph-name="Cdotaccent" unicode="&#x10a;" horiz-adv-x="1110" 
d="M549 -8q-337 0 -426.5 174.5t-89.5 512.5t89.5 510t425.5 172q339 0 420 -167t81 -398h-323q0 230 -44.5 286t-133.5 56q-92 0 -142 -62.5t-50 -396.5q0 -337 50.5 -400.5t141.5 -63.5q88 0 133 57.5t45 282.5h323q0 -223 -81 -393t-419 -170zM546 1397q-39 0 -66 27
t-27 66t27 66t66 27q38 0 65.5 -27t27.5 -66t-27 -66t-66 -27z" />
    <glyph glyph-name="cdotaccent" unicode="&#x10b;" horiz-adv-x="1051" 
d="M530 -11q-319 0 -407 162t-88 441q0 290 88 449.5t407 159.5q294 0 371 -141t89 -305l-293 -71q-5 163 -47 228t-120 65t-125.5 -70.5t-47.5 -314.5q0 -230 47.5 -305t125.5 -75t120 69.5t47 219.5l293 -74q-12 -149 -89 -293.5t-371 -144.5zM530 1237q-39 0 -66 27
t-27 66t27 66t66 27q38 0 65.5 -27t27.5 -66t-27 -66t-66 -27z" />
    <glyph glyph-name="Ccaron" unicode="&#x10c;" horiz-adv-x="1110" 
d="M549 -8q-337 0 -426.5 174.5t-89.5 512.5t89.5 510t425.5 172q339 0 420 -167t81 -398h-323q0 230 -44.5 286t-133.5 56q-92 0 -142 -62.5t-50 -396.5q0 -337 50.5 -400.5t141.5 -63.5q88 0 133 57.5t45 282.5h323q0 -223 -81 -393t-419 -170zM445 1392l-178 201h171
l108 -135l107 135h172l-178 -201h-202z" />
    <glyph glyph-name="ccaron" unicode="&#x10d;" horiz-adv-x="1051" 
d="M530 -11q-319 0 -407 162t-88 441q0 290 88 449.5t407 159.5q294 0 371 -141t89 -305l-293 -71q-5 163 -47 228t-120 65t-125.5 -70.5t-47.5 -314.5q0 -230 47.5 -305t125.5 -75t120 69.5t47 219.5l293 -74q-12 -149 -89 -293.5t-371 -144.5zM429 1232l-178 201h171
l108 -135l107 135h172l-178 -201h-202z" />
    <glyph glyph-name="Dcaron" unicode="&#x10e;" horiz-adv-x="1099" 
d="M58 0v1350h589q254 0 328.5 -147t74.5 -527.5t-74.5 -528t-328.5 -147.5h-589zM378 223h176q94 0 135 62.5t41 390.5q0 326 -41 388.5t-135 62.5h-176v-904zM445 1392l-178 201h171l108 -135l107 135h172l-178 -201h-202z" />
    <glyph glyph-name="dcaron" unicode="&#x10f;" horiz-adv-x="1335" 
d="M730 0l-15 83q-2 -1 -3 -2q-133 -88 -308 -88q-217 0 -289.5 167t-72.5 438t72.5 436.5t289.5 165.5q167 0 296 -81v451h316v-1570h-286zM700 416v361q-5 86 -52 140q-51 61 -126 61q-80 0 -120.5 -69.5t-40.5 -311.5q0 -245 40.5 -314t120.5 -69q75 0 126 60
q47 54 52 142zM1082 1232l48 338h206l-60 -338h-194z" />
    <glyph glyph-name="Dcroat" unicode="&#x110;" horiz-adv-x="1141" 
d="M-9 572v209h110v569h589q254 0 328.5 -147t74.5 -527.5t-74.5 -528t-328.5 -147.5h-589v572h-110zM421 223h175q95 0 135.5 62.5t40.5 390.5q0 326 -40.5 388.5t-135.5 62.5h-175v-346h133v-209h-133v-349z" />
    <glyph glyph-name="dcroat" unicode="&#x111;" horiz-adv-x="1097" 
d="M427 1311v157h273v102h316v-102h96v-157h-96v-1311h-286l-15 83q-2 -1 -3 -2q-133 -88 -308 -88q-217 0 -289.5 167t-72.5 438t72.5 436.5t289.5 165.5q167 0 296 -81v192h-273zM700 416v361q-5 86 -52 140q-51 61 -126 61q-80 0 -120.5 -69.5t-40.5 -311.5
q0 -245 40.5 -314t120.5 -69q75 0 126 60q47 54 52 142z" />
    <glyph glyph-name="Emacron" unicode="&#x112;" horiz-adv-x="909" 
d="M54 0v1350h788v-223h-467v-336h436v-214h-436v-354h467v-223h-788zM158 1431v116h578v-116h-578z" />
    <glyph glyph-name="emacron" unicode="&#x113;" horiz-adv-x="1096" 
d="M545 -11q-322 0 -412 163t-90 440q0 287 90.5 448.5t407.5 161.5q323 0 409.5 -163t86.5 -441q0 -57 -4 -102h-677q9 -159 48 -217q50 -75 141 -75q65 0 114 49t60 160l294 -68q-21 -200 -143 -278t-325 -78zM355 695h366q-3 163 -46 226q-46 68 -134 68q-87 0 -138 -73
q-39 -56 -48 -221zM253 1271v116h578v-116h-578z" />
    <glyph glyph-name="Ebreve" unicode="&#x114;" horiz-adv-x="909" 
d="M54 0v1350h788v-223h-467v-336h436v-214h-436v-354h467v-223h-788zM449 1393q-104 0 -162 54.5t-58 132.5h149q0 -80 71 -80q38 0 54 20.5t16 59.5h149q0 -78 -57 -132.5t-162 -54.5z" />
    <glyph glyph-name="ebreve" unicode="&#x115;" horiz-adv-x="1096" 
d="M545 -11q-322 0 -412 163t-90 440q0 287 90.5 448.5t407.5 161.5q323 0 409.5 -163t86.5 -441q0 -57 -4 -102h-677q9 -159 48 -217q50 -75 141 -75q65 0 114 49t60 160l294 -68q-21 -200 -143 -278t-325 -78zM355 695h366q-3 163 -46 226q-46 68 -134 68q-87 0 -138 -73
q-39 -56 -48 -221zM543 1234q-104 0 -162 54.5t-58 132.5h149q0 -80 71 -80q38 0 54 20.5t16 59.5h149q0 -78 -57 -132.5t-162 -54.5z" />
    <glyph glyph-name="Edotaccent" unicode="&#x116;" horiz-adv-x="909" 
d="M54 0v1350h788v-223h-467v-336h436v-214h-436v-354h467v-223h-788zM448 1397q-39 0 -66 27t-27 66t27 66t66 27q38 0 65.5 -27t27.5 -66t-27 -66t-66 -27z" />
    <glyph glyph-name="edotaccent" unicode="&#x117;" horiz-adv-x="1096" 
d="M545 -11q-322 0 -412 163t-90 440q0 287 90.5 448.5t407.5 161.5q323 0 409.5 -163t86.5 -441q0 -57 -4 -102h-677q9 -159 48 -217q50 -75 141 -75q65 0 114 49t60 160l294 -68q-21 -200 -143 -278t-325 -78zM355 695h366q-3 163 -46 226q-46 68 -134 68q-87 0 -138 -73
q-39 -56 -48 -221zM542 1237q-39 0 -66 27t-27 66t27 66t66 27q38 0 65.5 -27t27.5 -66t-27 -66t-66 -27z" />
    <glyph glyph-name="Eogonek" unicode="&#x118;" horiz-adv-x="909" 
d="M54 0v1350h788v-223h-467v-336h436v-214h-436v-354h467v-223h-788zM715 -305q-53 0 -113 11t-102.5 41.5t-42.5 89.5q0 50 25 85t54 55t41 23h159q-5 -3 -21.5 -18t-31 -35.5t-14.5 -42.5q0 -25 23 -35t58 -10q36 0 75.5 6.5t52.5 13.5l18 -165q-9 -3 -64 -11t-117 -8z
" />
    <glyph glyph-name="eogonek" unicode="&#x119;" horiz-adv-x="1096" 
d="M545 -11q-322 0 -412 163t-90 440q0 287 90.5 448.5t407.5 161.5q323 0 409.5 -163t86.5 -441q0 -57 -4 -102h-677q9 -159 48 -217q50 -75 141 -75q65 0 114 49t60 160l294 -68q-21 -200 -143 -278t-325 -78zM355 695h366q-3 163 -46 226q-46 68 -134 68q-87 0 -138 -73
q-39 -56 -48 -221zM625 -305q-53 0 -113 11t-102.5 41.5t-42.5 89.5q0 50 25 85t54 55t41 23h159q-5 -3 -21.5 -18t-31 -35.5t-14.5 -42.5q0 -25 23 -35t58 -10q36 0 75.5 6.5t52.5 13.5l18 -165q-9 -3 -64 -11t-117 -8z" />
    <glyph glyph-name="Ecaron" unicode="&#x11a;" horiz-adv-x="909" 
d="M54 0v1350h788v-223h-467v-336h436v-214h-436v-354h467v-223h-788zM347 1392l-178 201h171l108 -135l107 135h172l-178 -201h-202z" />
    <glyph glyph-name="ecaron" unicode="&#x11b;" horiz-adv-x="1096" 
d="M545 -11q-322 0 -412 163t-90 440q0 287 90.5 448.5t407.5 161.5q323 0 409.5 -163t86.5 -441q0 -57 -4 -102h-677q9 -159 48 -217q50 -75 141 -75q65 0 114 49t60 160l294 -68q-21 -200 -143 -278t-325 -78zM355 695h366q-3 163 -46 226q-46 68 -134 68q-87 0 -138 -73
q-39 -56 -48 -221zM441 1232l-178 201h171l108 -135l107 135h172l-178 -201h-202z" />
    <glyph glyph-name="Gcircumflex" unicode="&#x11c;" horiz-adv-x="1140" 
d="M521 -8q-307 0 -392.5 175.5t-85.5 512.5q0 343 88 512t425 169q322 0 411 -159t89 -352h-322q-2 181 -44 235t-133 54q-96 0 -144 -63.5t-48 -410.5q0 -292 48.5 -371t145.5 -79q89 0 130 41t45 185v54h-161v197h483v-692h-193l-16 109q-89 -117 -326 -117zM278 1400
l178 201h202l178 -201h-172l-107 135l-108 -135h-171z" />
    <glyph glyph-name="gcircumflex" unicode="&#x11d;" horiz-adv-x="1102" 
d="M524 -464q-247 0 -356 91.5t-109 307.5h312q0 -102 42.5 -145.5t111.5 -43.5q46 0 86 24.5t64.5 88t24.5 179.5v36q-129 -81 -296 -81q-217 0 -289.5 167t-72.5 438t72.5 436.5t289.5 165.5q175 0 308 -89l2 -2l8 81h297v-1146q0 -197 -56.5 -307.5t-166.5 -155.5
t-272 -45zM700 764q-2 95 -52 153q-51 61 -126 61q-80 0 -120.5 -69.5t-40.5 -311.5q0 -245 40.5 -314t120.5 -69q75 0 126 60q50 58 52 155v335zM262 1240l178 201h202l178 -201h-172l-107 135l-108 -135h-171z" />
    <glyph glyph-name="Gbreve" unicode="&#x11e;" horiz-adv-x="1140" 
d="M521 -8q-307 0 -392.5 175.5t-85.5 512.5q0 343 88 512t425 169q322 0 411 -159t89 -352h-322q-2 181 -44 235t-133 54q-96 0 -144 -63.5t-48 -410.5q0 -292 48.5 -371t145.5 -79q89 0 130 41t45 185v54h-161v197h483v-692h-193l-16 109q-89 -117 -326 -117zM558 1393
q-104 0 -162 54.5t-58 132.5h149q0 -80 71 -80q38 0 54 20.5t16 59.5h149q0 -78 -57 -132.5t-162 -54.5z" />
    <glyph glyph-name="gbreve" unicode="&#x11f;" horiz-adv-x="1102" 
d="M524 -464q-247 0 -356 91.5t-109 307.5h312q0 -102 42.5 -145.5t111.5 -43.5q46 0 86 24.5t64.5 88t24.5 179.5v36q-129 -81 -296 -81q-217 0 -289.5 167t-72.5 438t72.5 436.5t289.5 165.5q175 0 308 -89l2 -2l8 81h297v-1146q0 -197 -56.5 -307.5t-166.5 -155.5
t-272 -45zM700 764q-2 95 -52 153q-51 61 -126 61q-80 0 -120.5 -69.5t-40.5 -311.5q0 -245 40.5 -314t120.5 -69q75 0 126 60q50 58 52 155v335zM542 1234q-104 0 -162 54.5t-58 132.5h149q0 -80 71 -80q38 0 54 20.5t16 59.5h149q0 -78 -57 -132.5t-162 -54.5z" />
    <glyph glyph-name="Gdotaccent" unicode="&#x120;" horiz-adv-x="1140" 
d="M521 -8q-307 0 -392.5 175.5t-85.5 512.5q0 343 88 512t425 169q322 0 411 -159t89 -352h-322q-2 181 -44 235t-133 54q-96 0 -144 -63.5t-48 -410.5q0 -292 48.5 -371t145.5 -79q89 0 130 41t45 185v54h-161v197h483v-692h-193l-16 109q-89 -117 -326 -117zM557 1397
q-39 0 -66 27t-27 66t27 66t66 27q38 0 65.5 -27t27.5 -66t-27 -66t-66 -27z" />
    <glyph glyph-name="gdotaccent" unicode="&#x121;" horiz-adv-x="1102" 
d="M524 -464q-247 0 -356 91.5t-109 307.5h312q0 -102 42.5 -145.5t111.5 -43.5q46 0 86 24.5t64.5 88t24.5 179.5v36q-129 -81 -296 -81q-217 0 -289.5 167t-72.5 438t72.5 436.5t289.5 165.5q175 0 308 -89l2 -2l8 81h297v-1146q0 -197 -56.5 -307.5t-166.5 -155.5
t-272 -45zM700 764q-2 95 -52 153q-51 61 -126 61q-80 0 -120.5 -69.5t-40.5 -311.5q0 -245 40.5 -314t120.5 -69q75 0 126 60q50 58 52 155v335zM541 1237q-39 0 -66 27t-27 66t27 66t66 27q38 0 65.5 -27t27.5 -66t-27 -66t-66 -27z" />
    <glyph glyph-name="uni0122" unicode="&#x122;" horiz-adv-x="1140" 
d="M521 -8q-307 0 -392.5 175.5t-85.5 512.5q0 343 88 512t425 169q322 0 411 -159t89 -352h-322q-2 181 -44 235t-133 54q-96 0 -144 -63.5t-48 -410.5q0 -292 48.5 -371t145.5 -79q89 0 130 41t45 185v54h-161v197h483v-692h-193l-16 109q-89 -117 -326 -117z
M398.443 -326.863l95.3633 269.938h199.46l-185.341 -269.938h-109.482z" />
    <glyph glyph-name="uni0123" unicode="&#x123;" horiz-adv-x="1102" 
d="M524 -464q-247 0 -356 91.5t-109 307.5h312q0 -102 42.5 -145.5t111.5 -43.5q46 0 86 24.5t64.5 88t24.5 179.5v36q-129 -81 -296 -81q-217 0 -289.5 167t-72.5 438t72.5 436.5t289.5 165.5q175 0 308 -89l2 -2l8 81h297v-1146q0 -197 -56.5 -307.5t-166.5 -155.5
t-272 -45zM700 764q-2 95 -52 153q-51 61 -126 61q-80 0 -120.5 -69.5t-40.5 -311.5q0 -245 40.5 -314t120.5 -69q75 0 126 60q50 58 52 155v335zM684.114 1503.41l-86.3096 -244.526h-176.257l165.82 244.526h96.7461z" />
    <glyph glyph-name="Hcircumflex" unicode="&#x124;" horiz-adv-x="1123" 
d="M58 0v1350h321v-560h339v560h321v-1350h-321v567h-339v-567h-321zM278 1400l178 201h202l178 -201h-172l-107 135l-108 -135h-171z" />
    <glyph glyph-name="hcircumflex" unicode="&#x125;" horiz-adv-x="1081" 
d="M63 0v1570h317v-475q119 105 296 105q206 0 265.5 -154.5t59.5 -388.5v-657h-316v646q0 202 -32.5 266.5t-103.5 64.5q-75 0 -124 -73q-35 -52 -45 -129v-775h-317zM330 1566l178 201h202l178 -201h-172l-107 135l-108 -135h-171z" />
    <glyph glyph-name="Hbar" unicode="&#x126;" 
d="M18 1037v116h56v197h321v-197h339v197h321v-197h55v-116h-55v-1037h-321v567h-339v-567h-321v1037h-56zM734 1037h-339v-247h339v247z" />
    <glyph glyph-name="hbar" unicode="&#x127;" horiz-adv-x="1056" 
d="M-15 1311v157h77v102h317v-102h291v-157h-291v-216q119 105 296 105q206 0 265.5 -154.5t59.5 -388.5v-657h-316v646q0 202 -32.5 266.5t-103.5 64.5q-75 0 -124 -73q-35 -52 -45 -129v-775h-317v1311h-77z" />
    <glyph glyph-name="Itilde" unicode="&#x128;" horiz-adv-x="518" 
d="M91 0v1350h321v-1350h-321zM370 1407q-51 0 -85 18.5t-62 37t-57 18.5q-38 0 -51 -23t-14 -42h-151q1 31 14.5 75t54 77t122.5 33q49 0 82.5 -18t60.5 -35.5t59 -17.5q33 0 48 23t16 41h150q-1 -30 -14.5 -74.5t-53 -78.5t-119.5 -34z" />
    <glyph glyph-name="itilde" unicode="&#x129;" horiz-adv-x="477" 
d="M68 0v1191h320v-1191h-320zM347 1247q-51 0 -85 18.5t-62 37t-57 18.5q-38 0 -51 -23t-14 -42h-151q1 31 14.5 75t54 77t122.5 33q49 0 82.5 -18t60.5 -35.5t59 -17.5q33 0 48 23t16 41h150q-1 -30 -14.5 -74.5t-53 -78.5t-119.5 -34z" />
    <glyph glyph-name="Imacron" unicode="&#x12a;" horiz-adv-x="518" 
d="M91 0v1350h321v-1350h-321zM-38 1431v116h578v-116h-578z" />
    <glyph glyph-name="imacron" unicode="&#x12b;" horiz-adv-x="477" 
d="M68 0v1191h320v-1191h-320zM-16.8105 1271v116h540.429v-116h-540.429z" />
    <glyph glyph-name="Ibreve" unicode="&#x12c;" horiz-adv-x="518" 
d="M91 0v1350h321v-1350h-321zM252 1393q-104 0 -162 54.5t-58 132.5h149q0 -80 71 -80q38 0 54 20.5t16 59.5h149q0 -78 -57 -132.5t-162 -54.5z" />
    <glyph glyph-name="ibreve" unicode="&#x12d;" horiz-adv-x="477" 
d="M68 0v1191h320v-1191h-320zM229 1234q-104 0 -162 54.5t-58 132.5h149q0 -80 71 -80q38 0 54 20.5t16 59.5h149q0 -78 -57 -132.5t-162 -54.5z" />
    <glyph glyph-name="Iogonek" unicode="&#x12e;" horiz-adv-x="518" 
d="M91 0v1350h321v-1350h-321zM322 -305q-53 0 -113 11t-102.5 41.5t-42.5 89.5q0 50 25 85t54 55t41 23h159q-5 -3 -21.5 -18t-31 -35.5t-14.5 -42.5q0 -25 23 -35t58 -10q36 0 75.5 6.5t52.5 13.5l18 -165q-9 -3 -64 -11t-117 -8z" />
    <glyph glyph-name="iogonek" unicode="&#x12f;" horiz-adv-x="496" 
d="M77 0v1191h318v-1191h-318zM77 1542h318v-230h-318v230zM214 -305q-53 0 -113 11t-102.5 41.5t-42.5 89.5q0 50 25 85t54 55t41 23h159q-5 -3 -21.5 -18t-31 -35.5t-14.5 -42.5q0 -25 23 -35t58 -10q36 0 75.5 6.5t52.5 13.5l18 -165q-9 -3 -64 -11t-117 -8z" />
    <glyph glyph-name="Idotaccent" unicode="&#x130;" horiz-adv-x="518" 
d="M91 0v1350h321v-1350h-321zM252 1397q-39 0 -66 27t-27 66t27 66t66 27q38 0 65.5 -27t27.5 -66t-27 -66t-66 -27z" />
    <glyph glyph-name="dotlessi" unicode="&#x131;" horiz-adv-x="477" 
d="M68 0v1191h320v-1191h-320z" />
    <glyph glyph-name="Jcircumflex" unicode="&#x134;" horiz-adv-x="1094" 
d="M526 -11q-240 0 -361.5 85.5t-121.5 270.5v253h319v-205q0 -93 35 -139t128 -46q94 0 130 44.5t36 137.5v960h319v-1014q0 -177 -119.5 -262t-364.5 -85zM580 1400l178 201h202l178 -201h-172l-107 135l-108 -135h-171z" />
    <glyph glyph-name="jcircumflex" unicode="&#x135;" horiz-adv-x="521" 
d="M-103 -460v225q99 0 152 46t53 190v1190h317v-1173q0 -288 -133 -383t-389 -95zM-20 1240l178 201h202l178 -201h-172l-107 135l-108 -135h-171z" />
    <glyph glyph-name="uni0136" unicode="&#x136;" horiz-adv-x="1061" 
d="M58 0v1350h319v-584l308 584h349l-369 -676l370 -674h-349l-309 583v-583h-319zM365.443 -326.863l95.3633 269.938h199.46l-185.341 -269.938h-109.482z" />
    <glyph glyph-name="uni0137" unicode="&#x137;" horiz-adv-x="1062" 
d="M63 0v1570h317v-780l278 401h356l-293 -440l299 -751h-334l-182 520l-124 -158v-362h-317zM385.443 -326.863l95.3633 269.938h199.46l-185.341 -269.938h-109.482z" />
    <glyph glyph-name="kgreenlandic" unicode="&#x138;" horiz-adv-x="1066" 
d="M61 0v1191h318v-528l308 528h349l-362 -597l363 -594h-349l-309 527v-527h-318z" />
    <glyph glyph-name="Lacute" unicode="&#x139;" horiz-adv-x="835" 
d="M58 0v1350h321v-1129h404v-221h-725zM245 1389l135 202h213l-202 -202h-146z" />
    <glyph glyph-name="lacute" unicode="&#x13a;" horiz-adv-x="487" 
d="M81 0v1570h318v-1570h-318zM67 1609l135 202h213l-202 -202h-146z" />
    <glyph glyph-name="uni013B" unicode="&#x13b;" horiz-adv-x="835" 
d="M58 0v1350h321v-1129h404v-221h-725zM260.443 -326.863l95.3633 269.938h199.46l-185.341 -269.938h-109.482z" />
    <glyph glyph-name="uni013C" unicode="&#x13c;" horiz-adv-x="487" 
d="M81 0v1570h318v-1570h-318zM82.4434 -326.863l95.3633 269.938h199.46l-185.341 -269.938h-109.482z" />
    <glyph glyph-name="Lcaron" unicode="&#x13d;" horiz-adv-x="933" 
d="M58 0v1350h321v-1129h404v-221h-725zM688 1011l82 337h208l-95 -337h-195z" />
    <glyph glyph-name="lcaron" unicode="&#x13e;" horiz-adv-x="487" 
d="M81 0v1570h318v-1570h-318zM140 1612l-178 201h171l108 -135l107 135h172l-178 -201h-202z" />
    <glyph glyph-name="Ldot" unicode="&#x13f;" horiz-adv-x="950" 
d="M58 0v1350h321v-1129h404v-221h-725zM676 537q-72 0 -122 49.5t-50 120.5t50 120t122 49q69 0 118.5 -49t49.5 -120t-49.5 -120.5t-118.5 -49.5z" />
    <glyph glyph-name="ldot" unicode="&#x140;" horiz-adv-x="779" 
d="M81 0v1570h318v-1570h-318zM606 518q-72 0 -122 49.5t-50 120.5t50 120t122 49q69 0 118.5 -49t49.5 -120t-49.5 -120.5t-118.5 -49.5z" />
    <glyph glyph-name="Lslash" unicode="&#x141;" horiz-adv-x="927" 
d="M57 404l-80 157l163 106v683h321v-475l131 85l80 -155l-211 -137v-447h404v-221h-725v459z" />
    <glyph glyph-name="lslash" unicode="&#x142;" horiz-adv-x="548" 
d="M-3 368v247l113 69v886h317v-691l118 73v-246l-118 -73v-633h-317v438z" />
    <glyph glyph-name="Nacute" unicode="&#x143;" horiz-adv-x="1312" 
d="M58 0v1350h512l336 -1072l3 1072h319v-1350h-511l-341 1096v-1096h-318zM477 1389l135 202h213l-202 -202h-146z" />
    <glyph glyph-name="nacute" unicode="&#x144;" horiz-adv-x="1077" 
d="M63 0v1190h294l11 -102q121 112 304 112q206 0 265.5 -154.5t59.5 -388.5v-657h-316v646q0 202 -32.5 266.5t-103.5 64.5q-75 0 -124 -73q-30 -44 -41 -107v-797h-317zM361 1229l135 202h213l-202 -202h-146z" />
    <glyph glyph-name="uni0145" unicode="&#x145;" horiz-adv-x="1312" 
d="M58 0v1350h512l336 -1072l3 1072h319v-1350h-511l-341 1096v-1096h-318zM492.443 -326.863l95.3633 269.938h199.46l-185.341 -269.938h-109.482z" />
    <glyph glyph-name="uni0146" unicode="&#x146;" horiz-adv-x="1077" 
d="M63 0v1190h294l11 -102q121 112 304 112q206 0 265.5 -154.5t59.5 -388.5v-657h-316v646q0 202 -32.5 266.5t-103.5 64.5q-75 0 -124 -73q-30 -44 -41 -107v-797h-317zM376.443 -326.863l95.3633 269.938h199.46l-185.341 -269.938h-109.482z" />
    <glyph glyph-name="Ncaron" unicode="&#x147;" horiz-adv-x="1312" 
d="M58 0v1350h512l336 -1072l3 1072h319v-1350h-511l-341 1096v-1096h-318zM550 1392l-178 201h171l108 -135l107 135h172l-178 -201h-202z" />
    <glyph glyph-name="ncaron" unicode="&#x148;" horiz-adv-x="1077" 
d="M63 0v1190h294l11 -102q121 112 304 112q206 0 265.5 -154.5t59.5 -388.5v-657h-316v646q0 202 -32.5 266.5t-103.5 64.5q-75 0 -124 -73q-30 -44 -41 -107v-797h-317zM434 1232l-178 201h171l108 -135l107 135h172l-178 -201h-202z" />
    <glyph glyph-name="Eng" unicode="&#x14a;" horiz-adv-x="1314" 
d="M629 -448v214q161 0 216 59.5t55 174.5h-183l-341 1096v-1096h-318v1350h512l336 -1072l3 1072h319v-1350h1q0 -130 -48 -216.5t-131.5 -137t-191.5 -72.5t-229 -22z" />
    <glyph glyph-name="eng" unicode="&#x14b;" horiz-adv-x="1077" 
d="M484 -423v201q93 0 144 56.5t51 165.5h2v646q0 202 -32.5 266.5t-103.5 64.5q-75 0 -124 -73q-30 -44 -41 -107v-797h-317v1190h294l11 -102q121 112 304 112q206 0 265.5 -154.5t59.5 -388.5v-657h-1q0 -165 -61.5 -257t-176 -129t-274.5 -37z" />
    <glyph glyph-name="Omacron" unicode="&#x14c;" 
d="M568 -10q-337 0 -431 160t-94 525t94 525.5t431 160.5t431.5 -160.5t94.5 -525.5t-94.5 -525t-431.5 -160zM568 213q99 0 153 66.5t54 395.5q0 335 -54 399t-153 64q-98 0 -152 -64t-54 -399q0 -329 54 -395.5t152 -66.5zM281 1431v116h578v-116h-578z" />
    <glyph glyph-name="omacron" unicode="&#x14d;" horiz-adv-x="1098" 
d="M542 -9q-316 0 -408 155.5t-92 451.5q0 298 92 451.5t408 153.5q315 0 407 -153.5t92 -451.5q0 -296 -92 -451.5t-407 -155.5zM542 211q85 0 133.5 71t48.5 315q0 245 -48.5 315.5t-133.5 70.5q-86 0 -134.5 -70.5t-48.5 -315.5q0 -244 48.5 -315t134.5 -71zM252 1272
v116h578v-116h-578z" />
    <glyph glyph-name="Obreve" unicode="&#x14e;" 
d="M568 -10q-337 0 -431 160t-94 525t94 525.5t431 160.5t431.5 -160.5t94.5 -525.5t-94.5 -525t-431.5 -160zM568 213q99 0 153 66.5t54 395.5q0 335 -54 399t-153 64q-98 0 -152 -64t-54 -399q0 -329 54 -395.5t152 -66.5zM571 1393q-104 0 -162 54.5t-58 132.5h149
q0 -80 71 -80q38 0 54 20.5t16 59.5h149q0 -78 -57 -132.5t-162 -54.5z" />
    <glyph glyph-name="obreve" unicode="&#x14f;" horiz-adv-x="1098" 
d="M542 -9q-316 0 -408 155.5t-92 451.5q0 298 92 451.5t408 153.5q315 0 407 -153.5t92 -451.5q0 -296 -92 -451.5t-407 -155.5zM542 211q85 0 133.5 71t48.5 315q0 245 -48.5 315.5t-133.5 70.5q-86 0 -134.5 -70.5t-48.5 -315.5q0 -244 48.5 -315t134.5 -71zM543 1234
q-104 0 -162 54.5t-58 132.5h149q0 -80 71 -80q38 0 54 20.5t16 59.5h149q0 -78 -57 -132.5t-162 -54.5z" />
    <glyph glyph-name="Ohungarumlaut" unicode="&#x150;" 
d="M568 -10q-337 0 -431 160t-94 525t94 525.5t431 160.5t431.5 -160.5t94.5 -525.5t-94.5 -525t-431.5 -160zM568 213q99 0 153 66.5t54 395.5q0 335 -54 399t-153 64q-98 0 -152 -64t-54 -399q0 -329 54 -395.5t152 -66.5zM379 1415l145 182h238l-186 -182h-197z" />
    <glyph glyph-name="ohungarumlaut" unicode="&#x151;" horiz-adv-x="1098" 
d="M542 -9q-316 0 -408 155.5t-92 451.5q0 298 92 451.5t408 153.5q315 0 407 -153.5t92 -451.5q0 -296 -92 -451.5t-407 -155.5zM542 211q85 0 133.5 71t48.5 315q0 245 -48.5 315.5t-133.5 70.5q-86 0 -134.5 -70.5t-48.5 -315.5q0 -244 48.5 -315t134.5 -71zM351 1256
l145 182h238l-186 -182h-197z" />
    <glyph glyph-name="OE" unicode="&#x152;" horiz-adv-x="1633" 
d="M568 -10q-337 0 -431 160t-94 525t94 525.5t431 160.5t431.5 -160.5t94.5 -525.5t-94.5 -525t-431.5 -160zM568 213q99 0 153 66.5t54 395.5q0 335 -54 399t-153 64q-98 0 -152 -64t-54 -399q0 -329 54 -395.5t152 -66.5zM777 0v1350h788v-223h-467v-336h436v-214h-436
v-354h467v-223h-788z" />
    <glyph glyph-name="oe" unicode="&#x153;" horiz-adv-x="1775" 
d="M542 -9q-316 0 -408 155.5t-92 451.5q0 298 92 451.5t408 153.5q315 0 407 -153.5t92 -451.5q0 -296 -92 -451.5t-407 -155.5zM542 211q85 0 133.5 71t48.5 315q0 245 -48.5 315.5t-133.5 70.5q-86 0 -134.5 -70.5t-48.5 -315.5q0 -244 48.5 -315t134.5 -71zM1224 -11
q-322 0 -412 163t-90 440q0 287 90.5 448.5t407.5 161.5q323 0 409.5 -163t86.5 -441q0 -57 -4 -102h-677q9 -159 48 -217q50 -75 141 -75q65 0 114 49t60 160l294 -68q-21 -200 -143 -278t-325 -78zM1034 695h366q-3 163 -46 226q-46 68 -134 68q-87 0 -138 -73
q-39 -56 -48 -221z" />
    <glyph glyph-name="Racute" unicode="&#x154;" horiz-adv-x="1091" 
d="M58 0v1350h659q207 0 256.5 -126.5t49.5 -279.5q0 -151 -52 -268q-34 -75 -132 -102l200 -574h-341l-176 559h-142v-559h-322zM380 756h215q62 0 83.5 48.5t21.5 136.5t-21.5 137t-83.5 49h-215v-371zM363 1389l135 202h213l-202 -202h-146z" />
    <glyph glyph-name="racute" unicode="&#x155;" horiz-adv-x="1068" 
d="M671 603q0 242 -33.5 308.5t-99.5 66.5q-74 0 -117 -65q-36 -56 -41 -120v-793h-317v1190h297l8 -93l4 4q116 100 293 100q211 0 267 -148t56 -450h-317zM377 1229l135 202h213l-202 -202h-146z" />
    <glyph glyph-name="uni0156" unicode="&#x156;" horiz-adv-x="1091" 
d="M58 0v1350h659q207 0 256.5 -126.5t49.5 -279.5q0 -151 -52 -268q-34 -75 -132 -102l200 -574h-341l-176 559h-142v-559h-322zM380 756h215q62 0 83.5 48.5t21.5 136.5t-21.5 137t-83.5 49h-215v-371zM378.443 -326.863l95.3633 269.938h199.46l-185.341 -269.938
h-109.482z" />
    <glyph glyph-name="uni0157" unicode="&#x157;" horiz-adv-x="1068" 
d="M671 603q0 242 -33.5 308.5t-99.5 66.5q-74 0 -117 -65q-36 -56 -41 -120v-793h-317v1190h297l8 -93l4 4q116 100 293 100q211 0 267 -148t56 -450h-317zM283.443 -326.863l95.3633 269.938h199.46l-185.341 -269.938h-109.482z" />
    <glyph glyph-name="Rcaron" unicode="&#x158;" horiz-adv-x="1091" 
d="M58 0v1350h659q207 0 256.5 -126.5t49.5 -279.5q0 -151 -52 -268q-34 -75 -132 -102l200 -574h-341l-176 559h-142v-559h-322zM380 756h215q62 0 83.5 48.5t21.5 136.5t-21.5 137t-83.5 49h-215v-371zM436 1392l-178 201h171l108 -135l107 135h172l-178 -201h-202z" />
    <glyph glyph-name="rcaron" unicode="&#x159;" horiz-adv-x="1068" 
d="M671 603q0 242 -33.5 308.5t-99.5 66.5q-74 0 -117 -65q-36 -56 -41 -120v-793h-317v1190h297l8 -93l4 4q116 100 293 100q211 0 267 -148t56 -450h-317zM450 1232l-178 201h171l108 -135l107 135h172l-178 -201h-202z" />
    <glyph glyph-name="Sacute" unicode="&#x15a;" horiz-adv-x="1110" 
d="M391 1489l135 202h213l-202 -202h-146zM548 -9q-336 0 -420.5 135t-84.5 361h321q0 -190 48.5 -232t133.5 -42t133.5 36t48.5 113q0 94 -69.5 129t-208.5 70q-241 67 -323.5 141.5t-82.5 244.5q0 153 86 283.5t414 130.5q329 0 414.5 -139.5t85.5 -350.5h-321
q0 184 -50 226.5t-132 42.5q-86 0 -135 -37.5t-49 -108.5q0 -101 71.5 -134.5t212.5 -71.5q242 -65 323.5 -133.5t81.5 -238.5q0 -158 -83.5 -291.5t-414.5 -133.5z" />
    <glyph glyph-name="sacute" unicode="&#x15b;" horiz-adv-x="1085" 
d="M549 -9q-221 0 -343.5 76.5t-152.5 274.5l291 74q14 -122 67.5 -165.5t133.5 -43.5q82 0 123.5 33t41.5 95q0 81 -58.5 105t-200.5 50q-223 35 -308 108.5t-85 251.5q0 182 124.5 265.5t357.5 83.5q229 0 338 -77t137 -265l-285 -72q-14 110 -62 154.5t-132 44.5
q-79 0 -120.5 -36t-41.5 -94q0 -79 61.5 -98t197.5 -42q214 -32 304 -108t90 -250q0 -201 -121.5 -283t-356.5 -82zM368 1229l135 202h213l-202 -202h-146z" />
    <glyph glyph-name="Scircumflex" unicode="&#x15c;" horiz-adv-x="1110" 
d="M548 -9q-336 0 -420.5 135t-84.5 361h321q0 -190 48.5 -232t133.5 -42t133.5 36t48.5 113q0 94 -69.5 129t-208.5 70q-241 67 -323.5 141.5t-82.5 244.5q0 153 86 283.5t414 130.5q329 0 414.5 -139.5t85.5 -350.5h-321q0 184 -50 226.5t-132 42.5q-86 0 -135 -37.5
t-49 -108.5q0 -101 71.5 -134.5t212.5 -71.5q242 -65 323.5 -133.5t81.5 -238.5q0 -158 -83.5 -291.5t-414.5 -133.5zM273 1400l178 201h202l178 -201h-172l-107 135l-108 -135h-171z" />
    <glyph glyph-name="scircumflex" unicode="&#x15d;" horiz-adv-x="1085" 
d="M549 -9q-221 0 -343.5 76.5t-152.5 274.5l291 74q14 -122 67.5 -165.5t133.5 -43.5q82 0 123.5 33t41.5 95q0 81 -58.5 105t-200.5 50q-223 35 -308 108.5t-85 251.5q0 182 124.5 265.5t357.5 83.5q229 0 338 -77t137 -265l-285 -72q-14 110 -62 154.5t-132 44.5
q-79 0 -120.5 -36t-41.5 -94q0 -79 61.5 -98t197.5 -42q214 -32 304 -108t90 -250q0 -201 -121.5 -283t-356.5 -82zM263 1240l178 201h202l178 -201h-172l-107 135l-108 -135h-171z" />
    <glyph glyph-name="Scedilla" unicode="&#x15e;" horiz-adv-x="1111" 
d="M549 -341q-37 0 -79 4.5t-79 13.5l40 132q21 -6 52.5 -11t65.5 -5q106 0 106 48q0 28 -39 28q-16 0 -32.5 -6.5t-26.5 -13.5l-113 12l39 139h125l-27 -79q21 14 51.5 23t69.5 9q62 0 98.5 -29t36.5 -85q0 -58 -42 -98t-108 -61t-138 -21zM548 -9q-336 0 -420.5 135
t-84.5 361h321q0 -190 48.5 -232t133.5 -42t133.5 36t48.5 113q0 94 -69.5 129t-208.5 70q-241 67 -323.5 141.5t-82.5 244.5q0 153 86 283.5t414 130.5q329 0 414.5 -139.5t85.5 -350.5h-321q0 184 -50 226.5t-132 42.5q-86 0 -135 -37.5t-49 -108.5q0 -101 71.5 -134.5
t212.5 -71.5q242 -65 323.5 -133.5t81.5 -238.5q0 -158 -83.5 -291.5t-414.5 -133.5z" />
    <glyph glyph-name="scedilla" unicode="&#x15f;" horiz-adv-x="1085" 
d="M549 -9q-221 0 -343.5 76.5t-152.5 274.5l291 74q14 -122 67.5 -165.5t133.5 -43.5q82 0 123.5 33t41.5 95q0 81 -58.5 105t-200.5 50q-223 35 -308 108.5t-85 251.5q0 182 124.5 265.5t357.5 83.5q229 0 338 -77t137 -265l-285 -72q-14 110 -62 154.5t-132 44.5
q-79 0 -120.5 -36t-41.5 -94q0 -79 61.5 -98t197.5 -42q214 -32 304 -108t90 -250q0 -201 -121.5 -283t-356.5 -82zM548 -341q-37 0 -79 4.5t-79 13.5l40 132q21 -6 52.5 -11t65.5 -5q106 0 106 48q0 28 -39 28q-16 0 -32.5 -6.5t-26.5 -13.5l-113 12l39 139h125l-27 -79
q21 14 51.5 23t69.5 9q62 0 98.5 -29t36.5 -85q0 -58 -42 -98t-108 -61t-138 -21z" />
    <glyph glyph-name="Scaron" unicode="&#x160;" horiz-adv-x="1110" 
d="M442 1487l-178 201h171l108 -135l107 135h172l-178 -201h-202zM548 -9q-336 0 -420.5 135t-84.5 361h321q0 -190 48.5 -232t133.5 -42t133.5 36t48.5 113q0 94 -69.5 129t-208.5 70q-241 67 -323.5 141.5t-82.5 244.5q0 153 86 283.5t414 130.5q329 0 414.5 -139.5
t85.5 -350.5h-321q0 184 -50 226.5t-132 42.5q-86 0 -135 -37.5t-49 -108.5q0 -101 71.5 -134.5t212.5 -71.5q242 -65 323.5 -133.5t81.5 -238.5q0 -158 -83.5 -291.5t-414.5 -133.5z" />
    <glyph glyph-name="scaron" unicode="&#x161;" horiz-adv-x="1085" 
d="M549 -9q-221 0 -343.5 76.5t-152.5 274.5l291 74q14 -122 67.5 -165.5t133.5 -43.5q82 0 123.5 33t41.5 95q0 81 -58.5 105t-200.5 50q-223 35 -308 108.5t-85 251.5q0 182 124.5 265.5t357.5 83.5q229 0 338 -77t137 -265l-285 -72q-14 110 -62 154.5t-132 44.5
q-79 0 -120.5 -36t-41.5 -94q0 -79 61.5 -98t197.5 -42q214 -32 304 -108t90 -250q0 -201 -121.5 -283t-356.5 -82zM441 1232l-178 201h171l108 -135l107 135h172l-178 -201h-202z" />
    <glyph glyph-name="uni0162" unicode="&#x162;" horiz-adv-x="1027" 
d="M352 0v1127h-302v223h925v-223h-302v-1127h-321zM521 -341q-37 0 -79 4.5t-79 13.5l40 132q21 -6 52.5 -11t65.5 -5q106 0 106 48q0 28 -39 28q-16 0 -32.5 -6.5t-26.5 -13.5l-113 12l39 139h125l-27 -79q21 14 51.5 23t69.5 9q62 0 98.5 -29t36.5 -85q0 -58 -42 -98
t-108 -61t-138 -21z" />
    <glyph glyph-name="uni0163" unicode="&#x163;" horiz-adv-x="893" 
d="M541 -14q-147 0 -233 61.5t-86 229.5v690h-203v223h203v262h318v-262h273v-223h-273v-623q0 -87 27 -112.5t84 -24.5q54 0 119 13v-217q-127 -17 -229 -17zM532 -341q-37 0 -79 4.5t-79 13.5l40 132q21 -6 52.5 -11t65.5 -5q106 0 106 48q0 28 -39 28q-16 0 -32.5 -6.5
t-26.5 -13.5l-113 12l39 139h125l-27 -79q21 14 51.5 23t69.5 9q62 0 98.5 -29t36.5 -85q0 -58 -42 -98t-108 -61t-138 -21z" />
    <glyph glyph-name="Tcaron" unicode="&#x164;" horiz-adv-x="1027" 
d="M352 0v1127h-302v223h925v-223h-302v-1127h-321zM413 1392l-178 201h171l108 -135l107 135h172l-178 -201h-202z" />
    <glyph glyph-name="tcaron" unicode="&#x165;" horiz-adv-x="1036" 
d="M541 -14q-147 0 -233 61.5t-86 229.5v690h-203v223h203v262h318v-262h273v-223h-273v-623q0 -87 27 -112.5t84 -24.5q54 0 119 13v-217q-127 -17 -229 -17zM830 1195l42 256h164l-59 -256h-147z" />
    <glyph glyph-name="Tbar" unicode="&#x166;" horiz-adv-x="1027" 
d="M114 701v194h238v232h-302v223h925v-223h-302v-232h242v-194h-242v-701h-321v701h-238z" />
    <glyph glyph-name="tbar" unicode="&#x167;" horiz-adv-x="861" 
d="M64 525v182h158v260h-203v223h203v262h318v-262h273v-223h-273v-260h169v-182h-169v-181q0 -87 27 -112.5t84 -24.5q54 0 119 13v-217q-127 -17 -229 -17q-147 0 -233 61.5t-86 229.5v248h-158z" />
    <glyph glyph-name="Utilde" unicode="&#x168;" horiz-adv-x="1144" 
d="M565 -9q-258 0 -381 89t-123 300v970h321v-934q0 -108 43 -155t139.5 -47t139.5 46.5t43 155.5v934h321v-970q0 -211 -123 -300t-380 -89zM688 1407q-51 0 -85 18.5t-62 37t-57 18.5q-38 0 -51 -23t-14 -42h-151q1 31 14.5 75t54 77t122.5 33q49 0 82.5 -18t60.5 -35.5
t59 -17.5q33 0 48 23t16 41h150q-1 -30 -14.5 -74.5t-53 -78.5t-119.5 -34z" />
    <glyph glyph-name="utilde" unicode="&#x169;" horiz-adv-x="1079" 
d="M703 0l-13 107q-122 -116 -309 -116q-206 0 -265.5 154.5t-59.5 388.5v657h317v-646q0 -202 32 -266.5t104 -64.5q74 0 123 73q42 62 48 160v743h317v-1190h-294zM652 1247q-51 0 -85 18.5t-62 37t-57 18.5q-38 0 -51 -23t-14 -42h-151q1 31 14.5 75t54 77t122.5 33
q49 0 82.5 -18t60.5 -35.5t59 -17.5q33 0 48 23t16 41h150q-1 -30 -14.5 -74.5t-53 -78.5t-119.5 -34z" />
    <glyph glyph-name="Umacron" unicode="&#x16a;" horiz-adv-x="1144" 
d="M565 -9q-258 0 -381 89t-123 300v970h321v-934q0 -108 43 -155t139.5 -47t139.5 46.5t43 155.5v934h321v-970q0 -211 -123 -300t-380 -89zM280 1431v116h578v-116h-578z" />
    <glyph glyph-name="umacron" unicode="&#x16b;" horiz-adv-x="1079" 
d="M703 0l-13 107q-122 -116 -309 -116q-206 0 -265.5 154.5t-59.5 388.5v657h317v-646q0 -202 32 -266.5t104 -64.5q74 0 123 73q42 62 48 160v743h317v-1190h-294zM243 1271v116h578v-116h-578z" />
    <glyph glyph-name="Ubreve" unicode="&#x16c;" horiz-adv-x="1144" 
d="M565 -9q-258 0 -381 89t-123 300v970h321v-934q0 -108 43 -155t139.5 -47t139.5 46.5t43 155.5v934h321v-970q0 -211 -123 -300t-380 -89zM570 1393q-104 0 -162 54.5t-58 132.5h149q0 -80 71 -80q38 0 54 20.5t16 59.5h149q0 -78 -57 -132.5t-162 -54.5z" />
    <glyph glyph-name="ubreve" unicode="&#x16d;" horiz-adv-x="1079" 
d="M703 0l-13 107q-122 -116 -309 -116q-206 0 -265.5 154.5t-59.5 388.5v657h317v-646q0 -202 32 -266.5t104 -64.5q74 0 123 73q42 62 48 160v743h317v-1190h-294zM534 1234q-104 0 -162 54.5t-58 132.5h149q0 -80 71 -80q38 0 54 20.5t16 59.5h149q0 -78 -57 -132.5
t-162 -54.5z" />
    <glyph glyph-name="Uring" unicode="&#x16e;" horiz-adv-x="1144" 
d="M565 -9q-258 0 -381 89t-123 300v970h321v-934q0 -108 43 -155t139.5 -47t139.5 46.5t43 155.5v934h321v-970q0 -211 -123 -300t-380 -89zM569 1389q-68 0 -113 46.5t-45 114.5q0 67 45 113.5t113 46.5t113 -46.5t45 -113.5q0 -68 -45 -114.5t-113 -46.5zM569 1502
q19 0 32 13.5t13 34.5q0 20 -13 33.5t-32 13.5q-18 0 -31.5 -13.5t-13.5 -33.5q0 -21 13.5 -34.5t31.5 -13.5z" />
    <glyph glyph-name="uring" unicode="&#x16f;" horiz-adv-x="1079" 
d="M703 0l-13 107q-122 -116 -309 -116q-206 0 -265.5 154.5t-59.5 388.5v657h317v-646q0 -202 32 -266.5t104 -64.5q74 0 123 73q42 62 48 160v743h317v-1190h-294zM532 1229q-68 0 -113 46.5t-45 114.5q0 67 45 113.5t113 46.5t113 -46.5t45 -113.5q0 -68 -45 -114.5
t-113 -46.5zM532 1342q19 0 32 13.5t13 34.5q0 20 -13 33.5t-32 13.5q-18 0 -31.5 -13.5t-13.5 -33.5q0 -21 13.5 -34.5t31.5 -13.5z" />
    <glyph glyph-name="Uhungarumlaut" unicode="&#x170;" horiz-adv-x="1144" 
d="M565 -9q-258 0 -381 89t-123 300v970h321v-934q0 -108 43 -155t139.5 -47t139.5 46.5t43 155.5v934h321v-970q0 -211 -123 -300t-380 -89zM379 1415l145 182h238l-186 -182h-197z" />
    <glyph glyph-name="uhungarumlaut" unicode="&#x171;" horiz-adv-x="1079" 
d="M703 0l-13 107q-122 -116 -309 -116q-206 0 -265.5 154.5t-59.5 388.5v657h317v-646q0 -202 32 -266.5t104 -64.5q74 0 123 73q42 62 48 160v743h317v-1190h-294zM342 1255l145 182h238l-186 -182h-197z" />
    <glyph glyph-name="Uogonek" unicode="&#x172;" horiz-adv-x="1144" 
d="M565 -9q-258 0 -381 89t-123 300v970h321v-934q0 -108 43 -155t139.5 -47t139.5 46.5t43 155.5v934h321v-970q0 -211 -123 -300t-380 -89zM638 -305q-53 0 -113 11t-102.5 41.5t-42.5 89.5q0 50 25 85t54 55t41 23h159q-5 -3 -21.5 -18t-31 -35.5t-14.5 -42.5
q0 -25 23 -35t58 -10q36 0 75.5 6.5t52.5 13.5l18 -165q-9 -3 -64 -11t-117 -8z" />
    <glyph glyph-name="uogonek" unicode="&#x173;" horiz-adv-x="1079" 
d="M703 0l-13 107q-122 -116 -309 -116q-206 0 -265.5 154.5t-59.5 388.5v657h317v-646q0 -202 32 -266.5t104 -64.5q74 0 123 73q42 62 48 160v743h317v-1190h-294zM843 -305q-53 0 -113 11t-102.5 41.5t-42.5 89.5q0 50 25 85t54 55t41 23h159q-5 -3 -21.5 -18t-31 -35.5
t-14.5 -42.5q0 -25 23 -35t58 -10q36 0 75.5 6.5t52.5 13.5l18 -165q-9 -3 -64 -11t-117 -8z" />
    <glyph glyph-name="Wcircumflex" unicode="&#x174;" horiz-adv-x="1698" 
d="M215 0l-183 1350h342l107 -1094l161 1094h396l161 -1095l112 1095h341l-186 -1350h-485l-140 1116l-143 -1116h-483zM570 1400l178 201h202l178 -201h-172l-107 135l-108 -135h-171z" />
    <glyph glyph-name="wcircumflex" unicode="&#x175;" horiz-adv-x="1611" 
d="M225 0l-184 1190h327l91 -966l165 966h359l163 -964l90 964h326l-184 -1190h-455l-120 775l-119 -775h-459zM524 1240l178 201h202l178 -201h-172l-107 135l-108 -135h-171z" />
    <glyph glyph-name="Ycircumflex" unicode="&#x176;" horiz-adv-x="1159" 
d="M418 0v413l-400 937h346l215 -637l213 637h346l-399 -937v-413h-321zM299 1400l178 201h202l178 -201h-172l-107 135l-108 -135h-171z" />
    <glyph glyph-name="ycircumflex" unicode="&#x177;" horiz-adv-x="1059" 
d="M270 0l-251 1190h331l174 -913l173 913h330l-252 -1190q-56 -250 -222 -357t-459 -107v224q162 0 262 56q99 57 128 184h-214zM243 1240l178 201h202l178 -201h-172l-107 135l-108 -135h-171z" />
    <glyph glyph-name="Ydieresis" unicode="&#x178;" horiz-adv-x="1159" 
d="M418 0v413l-400 937h346l215 -637l213 637h346l-399 -937v-413h-321zM749 1407q-37 0 -63 26t-26 62t26 62t63 26q36 0 62 -26t26 -62t-26 -62t-62 -26zM404 1407q-36 0 -62 26t-26 62t26 62t62 26t62 -26t26 -62t-26 -62t-62 -26z" />
    <glyph glyph-name="Zacute" unicode="&#x179;" horiz-adv-x="930" 
d="M46 0v228l468 901h-456v221h792v-222l-468 -906h481v-222h-817zM292 1389l135 202h213l-202 -202h-146z" />
    <glyph glyph-name="zacute" unicode="&#x17a;" horiz-adv-x="875" 
d="M52 0v216l423 753h-419v221h750v-215l-414 -754h422v-221h-762zM261 1229l135 202h213l-202 -202h-146z" />
    <glyph glyph-name="Zdotaccent" unicode="&#x17b;" horiz-adv-x="930" 
d="M46 0v228l468 901h-456v221h792v-222l-468 -906h481v-222h-817zM466 1397q-39 0 -66 27t-27 66t27 66t66 27q38 0 65.5 -27t27.5 -66t-27 -66t-66 -27z" />
    <glyph glyph-name="zdotaccent" unicode="&#x17c;" horiz-adv-x="875" 
d="M52 0v216l423 753h-419v221h750v-215l-414 -754h422v-221h-762zM435 1237q-39 0 -66 27t-27 66t27 66t66 27q38 0 65.5 -27t27.5 -66t-27 -66t-66 -27z" />
    <glyph glyph-name="Zcaron" unicode="&#x17d;" horiz-adv-x="930" 
d="M46 0v228l468 901h-456v221h792v-222l-468 -906h481v-222h-817zM365 1392l-178 201h171l108 -135l107 135h172l-178 -201h-202z" />
    <glyph glyph-name="zcaron" unicode="&#x17e;" horiz-adv-x="875" 
d="M52 0v216l423 753h-419v221h750v-215l-414 -754h422v-221h-762zM334 1232l-178 201h171l108 -135l107 135h172l-178 -201h-202z" />
    <glyph glyph-name="uni018F" unicode="&#x18f;" horiz-adv-x="1086" 
d="M539 -10q-323 0 -409.5 170t-86.5 512q0 57 4 102h678q-6 218 -44 288q-45 84 -146 84q-65 0 -114.5 -54t-59.5 -165l-294 68q21 200 143 283t325 83q322 0 412 -171t90 -512q0 -351 -90.5 -519.5t-407.5 -168.5zM725 575h-366q2 -236 48 -302q48 -70 132 -70
q92 0 140 74q40 63 46 298z" />
    <glyph glyph-name="florin" unicode="&#x192;" horiz-adv-x="904" 
d="M-222 -423l36 210h116q147 0 165 120l149 1062h-189l34 221h190l8 58q28 163 161 243t354 80h136l-33 -210h-122q-159 0 -180 -116l-8 -55h282l-34 -221h-282l-150 -1065q-26 -165 -156 -246t-344 -81h-133z" />
    <glyph glyph-name="Ohorn" unicode="&#x1a0;" 
d="M568 -10q-337 0 -431 160t-94 525t94 525.5t431 160.5t431.5 -160.5t94.5 -525.5t-94.5 -525t-431.5 -160zM568 213q99 0 153 66.5t54 395.5q0 335 -54 399t-153 64q-98 0 -152 -64t-54 -399q0 -329 54 -395.5t152 -66.5zM956 1203q106 0 145.5 42t39.5 128h176
q0 -138 -93 -205.5t-268 -67.5v103z" />
    <glyph glyph-name="ohorn" unicode="&#x1a1;" horiz-adv-x="1289" 
d="M542 -9q-316 0 -408 155.5t-92 451.5q0 298 92 451.5t408 153.5q315 0 407 -153.5t92 -451.5q0 -296 -92 -451.5t-407 -155.5zM542 211q85 0 133.5 71t48.5 315q0 245 -48.5 315.5t-133.5 70.5q-86 0 -134.5 -70.5t-48.5 -315.5q0 -244 48.5 -315t134.5 -71zM921 1059
q106 0 145.5 42t39.5 128h176q0 -138 -93 -205.5t-268 -67.5v103z" />
    <glyph glyph-name="Uhorn" unicode="&#x1af;" horiz-adv-x="1144" 
d="M565 -9q-258 0 -381 89t-123 300v970h321v-934q0 -108 43 -155t139.5 -47t139.5 46.5t43 155.5v934h321v-970q0 -211 -123 -300t-380 -89zM1066 1241q106 0 145.5 42t39.5 128h176q0 -138 -93 -205.5t-268 -67.5v103z" />
    <glyph glyph-name="uhorn" unicode="&#x1b0;" horiz-adv-x="1356" 
d="M703 0l-13 107q-122 -116 -309 -116q-206 0 -265.5 154.5t-59.5 388.5v657h317v-646q0 -202 32 -266.5t104 -64.5q74 0 123 73q42 62 48 160v743h317v-1190h-294zM994 1191q106 0 145.5 42t39.5 128h176q0 -138 -93 -205.5t-268 -67.5v103z" />
    <glyph glyph-name="uni01C4" unicode="&#x1c4;" horiz-adv-x="2029" 
d="M58 0v1350h589q254 0 328.5 -147t74.5 -527.5t-74.5 -528t-328.5 -147.5h-589zM378 223h176q94 0 135 62.5t41 390.5q0 326 -41 388.5t-135 62.5h-176v-904zM1145 0v228l468 901h-456v221h792v-222l-468 -906h481v-222h-817zM1464 1392l-178 201h171l108 -135l107 135
h172l-178 -201h-202z" />
    <glyph glyph-name="uni01C5" unicode="&#x1c5;" horiz-adv-x="1974" 
d="M58 0v1350h589q254 0 328.5 -147t74.5 -527.5t-74.5 -528t-328.5 -147.5h-589zM378 223h176q94 0 135 62.5t41 390.5q0 326 -41 388.5t-135 62.5h-176v-904zM1151 0v216l423 753h-419v221h750v-215l-414 -754h422v-221h-762zM1433 1232l-178 201h171l108 -135l107 135
h172l-178 -201h-202z" />
    <glyph glyph-name="uni01C6" unicode="&#x1c6;" horiz-adv-x="1971" 
d="M730 0l-15 83q-2 -1 -3 -2q-133 -88 -308 -88q-217 0 -289.5 167t-72.5 438t72.5 436.5t289.5 165.5q167 0 296 -81v451h316v-1570h-286zM700 416v361q-5 86 -52 140q-51 61 -126 61q-80 0 -120.5 -69.5t-40.5 -311.5q0 -245 40.5 -314t120.5 -69q75 0 126 60
q47 54 52 142zM1148 0v216l423 753h-419v221h750v-215l-414 -754h422v-221h-762zM1430 1232l-178 201h171l108 -135l107 135h172l-178 -201h-202z" />
    <glyph glyph-name="uni01C7" unicode="&#x1c7;" horiz-adv-x="1929" 
d="M58 0v1350h321v-1129h404v-221h-725zM1361 -11q-240 0 -361.5 85.5t-121.5 270.5v253h319v-205q0 -93 35 -139t128 -46q94 0 130 44.5t36 137.5v960h319v-1014q0 -177 -119.5 -262t-364.5 -85z" />
    <glyph glyph-name="uni01C8" unicode="&#x1c8;" horiz-adv-x="1357" 
d="M58 0v1350h321v-1129h404v-221h-725zM732 -460v225q99 0 152 46t53 190v1190h317v-1173q0 -288 -133 -383t-389 -95zM937 1542h318v-230h-318v230z" />
    <glyph glyph-name="uni01C9" unicode="&#x1c9;" horiz-adv-x="1009" 
d="M81 0v1570h318v-1570h-318zM384 -460v225q99 0 152 46t53 190v1190h317v-1173q0 -288 -133 -383t-389 -95zM589 1542h318v-230h-318v230z" />
    <glyph glyph-name="uni01CA" unicode="&#x1ca;" horiz-adv-x="2406" 
d="M58 0v1350h512l336 -1072l3 1072h319v-1350h-511l-341 1096v-1096h-318zM1838 -11q-240 0 -361.5 85.5t-121.5 270.5v253h319v-205q0 -93 35 -139t128 -46q94 0 130 44.5t36 137.5v960h319v-1014q0 -177 -119.5 -262t-364.5 -85z" />
    <glyph glyph-name="uni01CB" unicode="&#x1cb;" horiz-adv-x="1834" 
d="M58 0v1350h512l336 -1072l3 1072h319v-1350h-511l-341 1096v-1096h-318zM1209 -460v225q99 0 152 46t53 190v1190h317v-1173q0 -288 -133 -383t-389 -95zM1414 1542h318v-230h-318v230z" />
    <glyph glyph-name="uni01CC" unicode="&#x1cc;" horiz-adv-x="1598" 
d="M63 0v1190h294l11 -102q121 112 304 112q206 0 265.5 -154.5t59.5 -388.5v-657h-316v646q0 202 -32.5 266.5t-103.5 64.5q-75 0 -124 -73q-30 -44 -41 -107v-797h-317zM974 -460v225q99 0 152 46t53 190v1190h317v-1173q0 -288 -133 -383t-389 -95zM1179 1542h318v-230
h-318v230z" />
    <glyph glyph-name="uni01CD" unicode="&#x1cd;" horiz-adv-x="1180" 
d="M43 0l302 1351h489l304 -1351h-329l-61 332h-315l-62 -332h-328zM471 550h239l-114 601h-10zM488 1392l-178 201h171l108 -135l107 135h172l-178 -201h-202z" />
    <glyph glyph-name="uni01CE" unicode="&#x1ce;" horiz-adv-x="1099" 
d="M756 0l-25 80q-5 -5 -11 -10q-94 -82 -291 -82q-182 0 -283 76.5t-101 289.5q0 197 97.5 277.5t317.5 80.5h245v39q0 127 -41.5 179t-117.5 52q-68 0 -113 -46.5t-55 -159.5l-316 63q20 193 133.5 278t342.5 85q320 0 403.5 -151t83.5 -415v-636h-269zM705 334v180h-153
q-108 0 -144.5 -38t-36.5 -118t32.5 -120t111.5 -40q84 0 137 38t53 98zM440 1232l-178 201h171l108 -135l107 135h172l-178 -201h-202z" />
    <glyph glyph-name="uni01CF" unicode="&#x1cf;" horiz-adv-x="518" 
d="M91 0v1350h321v-1350h-321zM151 1392l-178 201h171l108 -135l107 135h172l-178 -201h-202z" />
    <glyph glyph-name="uni01D0" unicode="&#x1d0;" horiz-adv-x="477" 
d="M68 0v1191h320v-1191h-320zM128 1232l-178 201h171l108 -135l107 135h172l-178 -201h-202z" />
    <glyph glyph-name="uni01D1" unicode="&#x1d1;" 
d="M568 -10q-337 0 -431 160t-94 525t94 525.5t431 160.5t431.5 -160.5t94.5 -525.5t-94.5 -525t-431.5 -160zM568 213q99 0 153 66.5t54 395.5q0 335 -54 399t-153 64q-98 0 -152 -64t-54 -399q0 -329 54 -395.5t152 -66.5zM470 1392l-178 201h171l108 -135l107 135h172
l-178 -201h-202z" />
    <glyph glyph-name="uni01D2" unicode="&#x1d2;" horiz-adv-x="1098" 
d="M542 -9q-316 0 -408 155.5t-92 451.5q0 298 92 451.5t408 153.5q315 0 407 -153.5t92 -451.5q0 -296 -92 -451.5t-407 -155.5zM542 211q85 0 133.5 71t48.5 315q0 245 -48.5 315.5t-133.5 70.5q-86 0 -134.5 -70.5t-48.5 -315.5q0 -244 48.5 -315t134.5 -71zM441 1233
l-178 201h171l108 -135l107 135h172l-178 -201h-202z" />
    <glyph glyph-name="uni01D3" unicode="&#x1d3;" horiz-adv-x="1144" 
d="M565 -9q-258 0 -381 89t-123 300v970h321v-934q0 -108 43 -155t139.5 -47t139.5 46.5t43 155.5v934h321v-970q0 -211 -123 -300t-380 -89zM469 1392l-178 201h171l108 -135l107 135h172l-178 -201h-202z" />
    <glyph glyph-name="uni01D4" unicode="&#x1d4;" horiz-adv-x="1079" 
d="M703 0l-13 107q-122 -116 -309 -116q-206 0 -265.5 154.5t-59.5 388.5v657h317v-646q0 -202 32 -266.5t104 -64.5q74 0 123 73q42 62 48 160v743h317v-1190h-294zM432 1232l-178 201h171l108 -135l107 135h172l-178 -201h-202z" />
    <glyph glyph-name="uni01D5" unicode="&#x1d5;" horiz-adv-x="1144" 
d="M565 -9q-258 0 -381 89t-123 300v970h321v-934q0 -108 43 -155t139.5 -47t139.5 46.5t43 155.5v934h321v-970q0 -211 -123 -300t-380 -89zM741 1407q-37 0 -63 26t-26 62t26 62t63 26q36 0 62 -26t26 -62t-26 -62t-62 -26zM396 1407q-36 0 -62 26t-26 62t26 62t62 26
t62 -26t26 -62t-26 -62t-62 -26zM277 1676v116h578v-116h-578z" />
    <glyph glyph-name="uni01D6" unicode="&#x1d6;" horiz-adv-x="1079" 
d="M703 0l-13 107q-122 -116 -309 -116q-206 0 -265.5 154.5t-59.5 388.5v657h317v-646q0 -202 32 -266.5t104 -64.5q74 0 123 73q42 62 48 160v743h317v-1190h-294zM704 1247q-37 0 -63 26t-26 62t26 62t63 26q36 0 62 -26t26 -62t-26 -62t-62 -26zM359 1247q-36 0 -62 26
t-26 62t26 62t62 26t62 -26t26 -62t-26 -62t-62 -26zM243 1506v116h578v-116h-578z" />
    <glyph glyph-name="uni01D7" unicode="&#x1d7;" horiz-adv-x="1144" 
d="M565 -9q-258 0 -381 89t-123 300v970h321v-934q0 -108 43 -155t139.5 -47t139.5 46.5t43 155.5v934h321v-970q0 -211 -123 -300t-380 -89zM741 1407q-37 0 -63 26t-26 62t26 62t63 26q36 0 62 -26t26 -62t-26 -62t-62 -26zM396 1407q-36 0 -62 26t-26 62t26 62t62 26
t62 -26t26 -62t-26 -62t-62 -26zM422 1666l135 202h213l-202 -202h-146z" />
    <glyph glyph-name="uni01D8" unicode="&#x1d8;" horiz-adv-x="1079" 
d="M703 0l-13 107q-122 -116 -309 -116q-206 0 -265.5 154.5t-59.5 388.5v657h317v-646q0 -202 32 -266.5t104 -64.5q74 0 123 73q42 62 48 160v743h317v-1190h-294zM704 1247q-37 0 -63 26t-26 62t26 62t63 26q36 0 62 -26t26 -62t-26 -62t-62 -26zM359 1247q-36 0 -62 26
t-26 62t26 62t62 26t62 -26t26 -62t-26 -62t-62 -26zM419 1436l135 202h213l-202 -202h-146z" />
    <glyph glyph-name="uni01D9" unicode="&#x1d9;" horiz-adv-x="1144" 
d="M565 -9q-258 0 -381 89t-123 300v970h321v-934q0 -108 43 -155t139.5 -47t139.5 46.5t43 155.5v934h321v-970q0 -211 -123 -300t-380 -89zM741 1407q-37 0 -63 26t-26 62t26 62t63 26q36 0 62 -26t26 -62t-26 -62t-62 -26zM396 1407q-36 0 -62 26t-26 62t26 62t62 26
t62 -26t26 -62t-26 -62t-62 -26zM472 1667l-178 201h171l108 -135l107 135h172l-178 -201h-202z" />
    <glyph glyph-name="uni01DA" unicode="&#x1da;" horiz-adv-x="1079" 
d="M703 0l-13 107q-122 -116 -309 -116q-206 0 -265.5 154.5t-59.5 388.5v657h317v-646q0 -202 32 -266.5t104 -64.5q74 0 123 73q42 62 48 160v743h317v-1190h-294zM704 1247q-37 0 -63 26t-26 62t26 62t63 26q36 0 62 -26t26 -62t-26 -62t-62 -26zM359 1247q-36 0 -62 26
t-26 62t26 62t62 26t62 -26t26 -62t-26 -62t-62 -26zM432 1467l-178 201h171l108 -135l107 135h172l-178 -201h-202z" />
    <glyph glyph-name="uni01DB" unicode="&#x1db;" horiz-adv-x="1144" 
d="M565 -9q-258 0 -381 89t-123 300v970h321v-934q0 -108 43 -155t139.5 -47t139.5 46.5t43 155.5v934h321v-970q0 -211 -123 -300t-380 -89zM741 1407q-37 0 -63 26t-26 62t26 62t63 26q36 0 62 -26t26 -62t-26 -62t-62 -26zM396 1407q-36 0 -62 26t-26 62t26 62t62 26
t62 -26t26 -62t-26 -62t-62 -26zM561 1664l-203 202h214l135 -202h-146z" />
    <glyph glyph-name="uni01DC" unicode="&#x1dc;" horiz-adv-x="1079" 
d="M703 0l-13 107q-122 -116 -309 -116q-206 0 -265.5 154.5t-59.5 388.5v657h317v-646q0 -202 32 -266.5t104 -64.5q74 0 123 73q42 62 48 160v743h317v-1190h-294zM704 1247q-37 0 -63 26t-26 62t26 62t63 26q36 0 62 -26t26 -62t-26 -62t-62 -26zM359 1247q-36 0 -62 26
t-26 62t26 62t62 26t62 -26t26 -62t-26 -62t-62 -26zM500 1440l-203 202h214l135 -202h-146z" />
    <glyph glyph-name="Gcaron" unicode="&#x1e6;" horiz-adv-x="1140" 
d="M521 -8q-307 0 -392.5 175.5t-85.5 512.5q0 343 88 512t425 169q322 0 411 -159t89 -352h-322q-2 181 -44 235t-133 54q-96 0 -144 -63.5t-48 -410.5q0 -292 48.5 -371t145.5 -79q89 0 130 41t45 185v54h-161v197h483v-692h-193l-16 109q-89 -117 -326 -117zM456 1392
l-178 201h171l108 -135l107 135h172l-178 -201h-202z" />
    <glyph glyph-name="gcaron" unicode="&#x1e7;" horiz-adv-x="1102" 
d="M524 -464q-247 0 -356 91.5t-109 307.5h312q0 -102 42.5 -145.5t111.5 -43.5q46 0 86 24.5t64.5 88t24.5 179.5v36q-129 -81 -296 -81q-217 0 -289.5 167t-72.5 438t72.5 436.5t289.5 165.5q175 0 308 -89l2 -2l8 81h297v-1146q0 -197 -56.5 -307.5t-166.5 -155.5
t-272 -45zM700 764q-2 95 -52 153q-51 61 -126 61q-80 0 -120.5 -69.5t-40.5 -311.5q0 -245 40.5 -314t120.5 -69q75 0 126 60q50 58 52 155v335zM440 1232l-178 201h171l108 -135l107 135h172l-178 -201h-202z" />
    <glyph glyph-name="uni01EA" unicode="&#x1ea;" 
d="M568 -10q-337 0 -431 160t-94 525t94 525.5t431 160.5t431.5 -160.5t94.5 -525.5t-94.5 -525t-431.5 -160zM568 213q99 0 153 66.5t54 395.5q0 335 -54 399t-153 64q-98 0 -152 -64t-54 -399q0 -329 54 -395.5t152 -66.5zM658 -305q-53 0 -113 11t-102.5 41.5t-42.5 89.5
q0 50 25 85t54 55t41 23h159q-5 -3 -21.5 -18t-31 -35.5t-14.5 -42.5q0 -25 23 -35t58 -10q36 0 75.5 6.5t52.5 13.5l18 -165q-9 -3 -64 -11t-117 -8z" />
    <glyph glyph-name="uni01EB" unicode="&#x1eb;" horiz-adv-x="1098" 
d="M542 -9q-316 0 -408 155.5t-92 451.5q0 298 92 451.5t408 153.5q315 0 407 -153.5t92 -451.5q0 -296 -92 -451.5t-407 -155.5zM542 211q85 0 133.5 71t48.5 315q0 245 -48.5 315.5t-133.5 70.5q-86 0 -134.5 -70.5t-48.5 -315.5q0 -244 48.5 -315t134.5 -71zM619 -306
q-53 0 -113 11t-102.5 41.5t-42.5 89.5q0 50 25 85t54 55t41 23h159q-5 -3 -21.5 -18t-31 -35.5t-14.5 -42.5q0 -25 23 -35t58 -10q36 0 75.5 6.5t52.5 13.5l18 -165q-9 -3 -64 -11t-117 -8z" />
    <glyph glyph-name="Aringacute" unicode="&#x1fa;" horiz-adv-x="1180" 
d="M43 0l302 1351h489l304 -1351h-329l-61 332h-315l-62 -332h-328zM471 550h239l-114 601h-10zM589 1370q-68 0 -113 46.5t-45 114.5q0 67 45 113.5t113 46.5t113 -46.5t45 -113.5q0 -68 -45 -114.5t-113 -46.5zM589 1483q19 0 32 13.5t13 34.5q0 20 -13 33.5t-32 13.5
q-18 0 -31.5 -13.5t-13.5 -33.5q0 -21 13.5 -34.5t31.5 -13.5zM415 1729l135 202h213l-202 -202h-146z" />
    <glyph glyph-name="aringacute" unicode="&#x1fb;" horiz-adv-x="1099" 
d="M756 0l-25 80q-5 -5 -11 -10q-94 -82 -291 -82q-182 0 -283 76.5t-101 289.5q0 197 97.5 277.5t317.5 80.5h245v39q0 127 -41.5 179t-117.5 52q-68 0 -113 -46.5t-55 -159.5l-316 63q20 193 133.5 278t342.5 85q320 0 403.5 -151t83.5 -415v-636h-269zM705 334v180h-153
q-108 0 -144.5 -38t-36.5 -118t32.5 -120t111.5 -40q84 0 137 38t53 98zM540 1229q-68 0 -113 46.5t-45 114.5q0 67 45 113.5t113 46.5t113 -46.5t45 -113.5q0 -68 -45 -114.5t-113 -46.5zM540 1342q19 0 32 13.5t13 34.5q0 20 -13 33.5t-32 13.5q-18 0 -31.5 -13.5
t-13.5 -33.5q0 -21 13.5 -34.5t31.5 -13.5zM367 1589l135 202h213l-202 -202h-146z" />
    <glyph glyph-name="AEacute" unicode="&#x1fc;" horiz-adv-x="1610" 
d="M43 0l495 1350h1005v-223h-466v-336h435v-214h-435v-354h466v-223h-787v255h-286l-90 -255h-337zM546 471h210v594zM621 1389l135 202h213l-202 -202h-146z" />
    <glyph glyph-name="aeacute" unicode="&#x1fd;" horiz-adv-x="1754" 
d="M414 -12q-171 0 -270 81.5t-99 261.5q0 203 99 270t280 67h278v4v83q0 135 -39.5 188t-117.5 53q-75 0 -112.5 -47t-53.5 -210l-309 64q29 169 101 283.5t373 114.5q225 0 326 -75q111 76 329 76q323 0 409.5 -163t86.5 -441q0 -57 -4 -102h-677q8 -159 47 -217
q51 -75 142 -75q65 0 114 49t60 160l293 -68q-20 -200 -142 -278t-326 -78q-283 0 -387 127q-22 -27 -51 -48q-113 -80 -350 -80zM1013 695h366q-4 163 -46 226q-46 68 -134 68t-138 -73q-39 -56 -48 -221zM702 379v100h-167q-96 0 -127.5 -33t-31.5 -119q0 -62 27.5 -102
t115.5 -40q89 0 137 46q40 38 46 148zM692 1230l135 202h213l-202 -202h-146z" />
    <glyph glyph-name="Oslashacute" unicode="&#x1fe;" horiz-adv-x="1099" 
d="M23 0l109 159q-89 161 -89 516q0 365 94 525.5t431 160.5q222 0 339 -70l38 57h140l-93 -136q4 -6 7 -12q95 -160 95 -525t-94.5 -525t-431.5 -160q-239 0 -355 80l-48 -70h-142zM568 213q99 0 153 66.5t54 395.5q0 122 -7 208l-377 -551q11 -35 25 -53q54 -66 152 -66z
M366 502l371 542q-7 19 -16 30q-54 64 -153 64q-98 0 -152 -64t-54 -399q0 -98 4 -173zM386 1389l135 202h213l-202 -202h-146z" />
    <glyph glyph-name="oslashacute" unicode="&#x1ff;" horiz-adv-x="1095" 
d="M-14 8l132 167q-76 153 -76 423q0 298 92 451.5t408 153.5q221 0 332 -75l103 130l103 -66l-123 -156q84 -153 84 -438q0 -296 -92 -451.5t-407 -155.5q-236 0 -347 86l-112 -141zM542 211q85 0 133.5 71t48.5 315q0 79 -5 140l-330 -416q8 -24 19 -39q48 -71 134 -71z
M362 482l325 410q-5 12 -12 21q-48 70 -133 70q-86 0 -134.5 -70.5t-48.5 -315.5q0 -63 3 -115zM367 1234l135 202h213l-202 -202h-146z" />
    <glyph glyph-name="uni0200" unicode="&#x200;" horiz-adv-x="1180" 
d="M43 0l302 1351h489l304 -1351h-329l-61 332h-315l-62 -332h-328zM471 550h239l-114 601h-10zM758 1411l-203 202h214l135 -202h-146zM476 1411l-203 202h214l135 -202h-146z" />
    <glyph glyph-name="uni0201" unicode="&#x201;" horiz-adv-x="1099" 
d="M756 0l-25 80q-5 -5 -11 -10q-94 -82 -291 -82q-182 0 -283 76.5t-101 289.5q0 197 97.5 277.5t317.5 80.5h245v39q0 127 -41.5 179t-117.5 52q-68 0 -113 -46.5t-55 -159.5l-316 63q20 193 133.5 278t342.5 85q320 0 403.5 -151t83.5 -415v-636h-269zM705 334v180h-153
q-108 0 -144.5 -38t-36.5 -118t32.5 -120t111.5 -40q84 0 137 38t53 98zM709 1252l-203 202h214l135 -202h-146zM427 1252l-203 202h214l135 -202h-146z" />
    <glyph glyph-name="uni0202" unicode="&#x202;" horiz-adv-x="1180" 
d="M43 0l302 1351h489l304 -1351h-329l-61 332h-315l-62 -332h-328zM471 550h239l-114 601h-10zM589 1594q104 0 162 -54.5t58 -132.5h-149q0 80 -71 80q-38 0 -54 -20.5t-16 -59.5h-149q0 78 57 132.5t162 54.5z" />
    <glyph glyph-name="uni0203" unicode="&#x203;" horiz-adv-x="1099" 
d="M756 0l-25 80q-5 -5 -11 -10q-94 -82 -291 -82q-182 0 -283 76.5t-101 289.5q0 197 97.5 277.5t317.5 80.5h245v39q0 127 -41.5 179t-117.5 52q-68 0 -113 -46.5t-55 -159.5l-316 63q20 193 133.5 278t342.5 85q320 0 403.5 -151t83.5 -415v-636h-269zM705 334v180h-153
q-108 0 -144.5 -38t-36.5 -118t32.5 -120t111.5 -40q84 0 137 38t53 98zM540 1435q104 0 162 -54.5t58 -132.5h-149q0 80 -71 80q-38 0 -54 -20.5t-16 -59.5h-149q0 78 57 132.5t162 54.5z" />
    <glyph glyph-name="uni0204" unicode="&#x204;" horiz-adv-x="909" 
d="M54 0v1350h788v-223h-467v-336h436v-214h-436v-354h467v-223h-788zM616 1411l-203 202h214l135 -202h-146zM334 1411l-203 202h214l135 -202h-146z" />
    <glyph glyph-name="uni0205" unicode="&#x205;" horiz-adv-x="1096" 
d="M545 -11q-322 0 -412 163t-90 440q0 287 90.5 448.5t407.5 161.5q323 0 409.5 -163t86.5 -441q0 -57 -4 -102h-677q9 -159 48 -217q50 -75 141 -75q65 0 114 49t60 160l294 -68q-21 -200 -143 -278t-325 -78zM355 695h366q-3 163 -46 226q-46 68 -134 68q-87 0 -138 -73
q-39 -56 -48 -221zM711 1252l-203 202h214l135 -202h-146zM429 1252l-203 202h214l135 -202h-146z" />
    <glyph glyph-name="uni0206" unicode="&#x206;" horiz-adv-x="909" 
d="M54 0v1350h788v-223h-467v-336h436v-214h-436v-354h467v-223h-788zM447 1594q104 0 162 -54.5t58 -132.5h-149q0 80 -71 80q-38 0 -54 -20.5t-16 -59.5h-149q0 78 57 132.5t162 54.5z" />
    <glyph glyph-name="uni0207" unicode="&#x207;" horiz-adv-x="1096" 
d="M545 -11q-322 0 -412 163t-90 440q0 287 90.5 448.5t407.5 161.5q323 0 409.5 -163t86.5 -441q0 -57 -4 -102h-677q9 -159 48 -217q50 -75 141 -75q65 0 114 49t60 160l294 -68q-21 -200 -143 -278t-325 -78zM355 695h366q-3 163 -46 226q-46 68 -134 68q-87 0 -138 -73
q-39 -56 -48 -221zM541 1435q104 0 162 -54.5t58 -132.5h-149q0 80 -71 80q-38 0 -54 -20.5t-16 -59.5h-149q0 78 57 132.5t162 54.5z" />
    <glyph glyph-name="uni0208" unicode="&#x208;" horiz-adv-x="518" 
d="M91 0v1350h321v-1350h-321zM420 1411l-203 202h214l135 -202h-146zM138 1411l-203 202h214l135 -202h-146z" />
    <glyph glyph-name="uni0209" unicode="&#x209;" horiz-adv-x="477" 
d="M68 0v1191h320v-1191h-320zM397 1252l-203 202h214l135 -202h-146zM115 1252l-203 202h214l135 -202h-146z" />
    <glyph glyph-name="uni020A" unicode="&#x20a;" horiz-adv-x="518" 
d="M91 0v1350h321v-1350h-321zM251 1594q104 0 162 -54.5t58 -132.5h-149q0 80 -71 80q-38 0 -54 -20.5t-16 -59.5h-149q0 78 57 132.5t162 54.5z" />
    <glyph glyph-name="uni020B" unicode="&#x20b;" horiz-adv-x="477" 
d="M68 0v1191h320v-1191h-320zM228 1435q104 0 162 -54.5t58 -132.5h-149q0 80 -71 80q-38 0 -54 -20.5t-16 -59.5h-149q0 78 57 132.5t162 54.5z" />
    <glyph glyph-name="uni020C" unicode="&#x20c;" 
d="M568 -10q-337 0 -431 160t-94 525t94 525.5t431 160.5t431.5 -160.5t94.5 -525.5t-94.5 -525t-431.5 -160zM568 213q99 0 153 66.5t54 395.5q0 335 -54 399t-153 64q-98 0 -152 -64t-54 -399q0 -329 54 -395.5t152 -66.5zM739 1411l-203 202h214l135 -202h-146zM457 1411
l-203 202h214l135 -202h-146z" />
    <glyph glyph-name="uni020D" unicode="&#x20d;" horiz-adv-x="1098" 
d="M542 -9q-316 0 -408 155.5t-92 451.5q0 298 92 451.5t408 153.5q315 0 407 -153.5t92 -451.5q0 -296 -92 -451.5t-407 -155.5zM542 211q85 0 133.5 71t48.5 315q0 245 -48.5 315.5t-133.5 70.5q-86 0 -134.5 -70.5t-48.5 -315.5q0 -244 48.5 -315t134.5 -71zM710 1252
l-203 202h214l135 -202h-146zM428 1252l-203 202h214l135 -202h-146z" />
    <glyph glyph-name="uni020E" unicode="&#x20e;" 
d="M568 -10q-337 0 -431 160t-94 525t94 525.5t431 160.5t431.5 -160.5t94.5 -525.5t-94.5 -525t-431.5 -160zM568 213q99 0 153 66.5t54 395.5q0 335 -54 399t-153 64q-98 0 -152 -64t-54 -399q0 -329 54 -395.5t152 -66.5zM570 1594q104 0 162 -54.5t58 -132.5h-149
q0 80 -71 80q-38 0 -54 -20.5t-16 -59.5h-149q0 78 57 132.5t162 54.5z" />
    <glyph glyph-name="uni020F" unicode="&#x20f;" horiz-adv-x="1098" 
d="M542 -9q-316 0 -408 155.5t-92 451.5q0 298 92 451.5t408 153.5q315 0 407 -153.5t92 -451.5q0 -296 -92 -451.5t-407 -155.5zM542 211q85 0 133.5 71t48.5 315q0 245 -48.5 315.5t-133.5 70.5q-86 0 -134.5 -70.5t-48.5 -315.5q0 -244 48.5 -315t134.5 -71zM541 1435
q104 0 162 -54.5t58 -132.5h-149q0 80 -71 80q-38 0 -54 -20.5t-16 -59.5h-149q0 78 57 132.5t162 54.5z" />
    <glyph glyph-name="uni0210" unicode="&#x210;" horiz-adv-x="1091" 
d="M58 0v1350h659q207 0 256.5 -126.5t49.5 -279.5q0 -151 -52 -268q-34 -75 -132 -102l200 -574h-341l-176 559h-142v-559h-322zM380 756h215q62 0 83.5 48.5t21.5 136.5t-21.5 137t-83.5 49h-215v-371zM706 1411l-203 202h214l135 -202h-146zM424 1411l-203 202h214
l135 -202h-146z" />
    <glyph glyph-name="uni0211" unicode="&#x211;" horiz-adv-x="1068" 
d="M671 603q0 242 -33.5 308.5t-99.5 66.5q-74 0 -117 -65q-36 -56 -41 -120v-793h-317v1190h297l8 -93l4 4q116 100 293 100q211 0 267 -148t56 -450h-317zM719 1252l-203 202h214l135 -202h-146zM437 1252l-203 202h214l135 -202h-146z" />
    <glyph glyph-name="uni0212" unicode="&#x212;" horiz-adv-x="1091" 
d="M58 0v1350h659q207 0 256.5 -126.5t49.5 -279.5q0 -151 -52 -268q-34 -75 -132 -102l200 -574h-341l-176 559h-142v-559h-322zM380 756h215q62 0 83.5 48.5t21.5 136.5t-21.5 137t-83.5 49h-215v-371zM537 1594q104 0 162 -54.5t58 -132.5h-149q0 80 -71 80
q-38 0 -54 -20.5t-16 -59.5h-149q0 78 57 132.5t162 54.5z" />
    <glyph glyph-name="uni0213" unicode="&#x213;" horiz-adv-x="1068" 
d="M671 603q0 242 -33.5 308.5t-99.5 66.5q-74 0 -117 -65q-36 -56 -41 -120v-793h-317v1190h297l8 -93l4 4q116 100 293 100q211 0 267 -148t56 -450h-317zM550 1435q104 0 162 -54.5t58 -132.5h-149q0 80 -71 80q-38 0 -54 -20.5t-16 -59.5h-149q0 78 57 132.5t162 54.5z
" />
    <glyph glyph-name="uni0214" unicode="&#x214;" horiz-adv-x="1144" 
d="M565 -9q-258 0 -381 89t-123 300v970h321v-934q0 -108 43 -155t139.5 -47t139.5 46.5t43 155.5v934h321v-970q0 -211 -123 -300t-380 -89zM738 1411l-203 202h214l135 -202h-146zM456 1411l-203 202h214l135 -202h-146z" />
    <glyph glyph-name="uni0215" unicode="&#x215;" horiz-adv-x="1079" 
d="M703 0l-13 107q-122 -116 -309 -116q-206 0 -265.5 154.5t-59.5 388.5v657h317v-646q0 -202 32 -266.5t104 -64.5q74 0 123 73q42 62 48 160v743h317v-1190h-294zM701 1252l-203 202h214l135 -202h-146zM419 1252l-203 202h214l135 -202h-146z" />
    <glyph glyph-name="uni0216" unicode="&#x216;" horiz-adv-x="1144" 
d="M565 -9q-258 0 -381 89t-123 300v970h321v-934q0 -108 43 -155t139.5 -47t139.5 46.5t43 155.5v934h321v-970q0 -211 -123 -300t-380 -89zM569 1594q104 0 162 -54.5t58 -132.5h-149q0 80 -71 80q-38 0 -54 -20.5t-16 -59.5h-149q0 78 57 132.5t162 54.5z" />
    <glyph glyph-name="uni0217" unicode="&#x217;" horiz-adv-x="1079" 
d="M703 0l-13 107q-122 -116 -309 -116q-206 0 -265.5 154.5t-59.5 388.5v657h317v-646q0 -202 32 -266.5t104 -64.5q74 0 123 73q42 62 48 160v743h317v-1190h-294zM532 1435q104 0 162 -54.5t58 -132.5h-149q0 80 -71 80q-38 0 -54 -20.5t-16 -59.5h-149q0 78 57 132.5
t162 54.5z" />
    <glyph glyph-name="uni0218" unicode="&#x218;" horiz-adv-x="1110" 
d="M381.443 -326.863l95.3633 269.938h199.46l-185.341 -269.938h-109.482zM548 -9q-336 0 -420.5 135t-84.5 361h321q0 -190 48.5 -232t133.5 -42t133.5 36t48.5 113q0 94 -69.5 129t-208.5 70q-241 67 -323.5 141.5t-82.5 244.5q0 153 86 283.5t414 130.5
q329 0 414.5 -139.5t85.5 -350.5h-321q0 184 -50 226.5t-132 42.5q-86 0 -135 -37.5t-49 -108.5q0 -101 71.5 -134.5t212.5 -71.5q242 -65 323.5 -133.5t81.5 -238.5q0 -158 -83.5 -291.5t-414.5 -133.5z" />
    <glyph glyph-name="uni0219" unicode="&#x219;" horiz-adv-x="1085" 
d="M549 -9q-221 0 -343.5 76.5t-152.5 274.5l291 74q14 -122 67.5 -165.5t133.5 -43.5q82 0 123.5 33t41.5 95q0 81 -58.5 105t-200.5 50q-223 35 -308 108.5t-85 251.5q0 182 124.5 265.5t357.5 83.5q229 0 338 -77t137 -265l-285 -72q-14 110 -62 154.5t-132 44.5
q-79 0 -120.5 -36t-41.5 -94q0 -79 61.5 -98t197.5 -42q214 -32 304 -108t90 -250q0 -201 -121.5 -283t-356.5 -82zM381.443 -326.863l95.3633 269.938h199.46l-185.341 -269.938h-109.482z" />
    <glyph glyph-name="uni021A" unicode="&#x21a;" horiz-adv-x="1027" 
d="M352 0v1127h-302v223h925v-223h-302v-1127h-321zM387.443 -326.863l95.3633 269.938h199.46l-185.341 -269.938h-109.482z" />
    <glyph glyph-name="uni021B" unicode="&#x21b;" horiz-adv-x="861" 
d="M541 -14q-147 0 -233 61.5t-86 229.5v690h-203v223h203v262h318v-262h273v-223h-273v-623q0 -87 27 -112.5t84 -24.5q54 0 119 13v-217q-127 -17 -229 -17zM377.443 -326.863l95.3633 269.938h199.46l-185.341 -269.938h-109.482z" />
    <glyph glyph-name="uni022A" unicode="&#x22a;" 
d="M568 -10q-337 0 -431 160t-94 525t94 525.5t431 160.5t431.5 -160.5t94.5 -525.5t-94.5 -525t-431.5 -160zM568 213q99 0 153 66.5t54 395.5q0 335 -54 399t-153 64q-98 0 -152 -64t-54 -399q0 -329 54 -395.5t152 -66.5zM741 1407q-37 0 -63 26t-26 62t26 62t63 26
q36 0 62 -26t26 -62t-26 -62t-62 -26zM396 1407q-36 0 -62 26t-26 62t26 62t62 26t62 -26t26 -62t-26 -62t-62 -26zM281 1665v116h578v-116h-578z" />
    <glyph glyph-name="uni022B" unicode="&#x22b;" horiz-adv-x="1098" 
d="M542 -9q-316 0 -408 155.5t-92 451.5q0 298 92 451.5t408 153.5q315 0 407 -153.5t92 -451.5q0 -296 -92 -451.5t-407 -155.5zM542 211q85 0 133.5 71t48.5 315q0 245 -48.5 315.5t-133.5 70.5q-86 0 -134.5 -70.5t-48.5 -315.5q0 -244 48.5 -315t134.5 -71zM713 1248
q-37 0 -63 26t-26 62t26 62t63 26q36 0 62 -26t26 -62t-26 -62t-62 -26zM368 1248q-36 0 -62 26t-26 62t26 62t62 26t62 -26t26 -62t-26 -62t-62 -26zM252 1506v116h578v-116h-578z" />
    <glyph glyph-name="uni022C" unicode="&#x22c;" 
d="M568 -10q-337 0 -431 160t-94 525t94 525.5t431 160.5t431.5 -160.5t94.5 -525.5t-94.5 -525t-431.5 -160zM568 213q99 0 153 66.5t54 395.5q0 335 -54 399t-153 64q-98 0 -152 -64t-54 -399q0 -329 54 -395.5t152 -66.5zM689 1407q-51 0 -85 18.5t-62 37t-57 18.5
q-38 0 -51 -23t-14 -42h-151q1 31 14.5 75t54 77t122.5 33q49 0 82.5 -18t60.5 -35.5t59 -17.5q33 0 48 23t16 41h150q-1 -30 -14.5 -74.5t-53 -78.5t-119.5 -34zM281 1678v116h578v-116h-578z" />
    <glyph glyph-name="uni022D" unicode="&#x22d;" horiz-adv-x="1098" 
d="M542 -9q-316 0 -408 155.5t-92 451.5q0 298 92 451.5t408 153.5q315 0 407 -153.5t92 -451.5q0 -296 -92 -451.5t-407 -155.5zM542 211q85 0 133.5 71t48.5 315q0 245 -48.5 315.5t-133.5 70.5q-86 0 -134.5 -70.5t-48.5 -315.5q0 -244 48.5 -315t134.5 -71zM661 1248
q-51 0 -85 18.5t-62 37t-57 18.5q-38 0 -51 -23t-14 -42h-151q1 31 14.5 75t54 77t122.5 33q49 0 82.5 -18t60.5 -35.5t59 -17.5q33 0 48 23t16 41h150q-1 -30 -14.5 -74.5t-53 -78.5t-119.5 -34zM252 1519v116h578v-116h-578z" />
    <glyph glyph-name="uni0230" unicode="&#x230;" 
d="M568 -10q-337 0 -431 160t-94 525t94 525.5t431 160.5t431.5 -160.5t94.5 -525.5t-94.5 -525t-431.5 -160zM568 213q99 0 153 66.5t54 395.5q0 335 -54 399t-153 64q-98 0 -152 -64t-54 -399q0 -329 54 -395.5t152 -66.5zM570 1397q-39 0 -66 27t-27 66t27 66t66 27
q38 0 65.5 -27t27.5 -66t-27 -66t-66 -27zM281 1664v116h578v-116h-578z" />
    <glyph glyph-name="uni0231" unicode="&#x231;" horiz-adv-x="1098" 
d="M542 -9q-316 0 -408 155.5t-92 451.5q0 298 92 451.5t408 153.5q315 0 407 -153.5t92 -451.5q0 -296 -92 -451.5t-407 -155.5zM542 211q85 0 133.5 71t48.5 315q0 245 -48.5 315.5t-133.5 70.5q-86 0 -134.5 -70.5t-48.5 -315.5q0 -244 48.5 -315t134.5 -71zM542 1238
q-39 0 -66 27t-27 66t27 66t66 27q38 0 65.5 -27t27.5 -66t-27 -66t-66 -27zM252 1505v116h578v-116h-578z" />
    <glyph glyph-name="uni0232" unicode="&#x232;" horiz-adv-x="1159" 
d="M418 0v413l-400 937h346l215 -637l213 637h346l-399 -937v-413h-321zM289 1431v116h578v-116h-578z" />
    <glyph glyph-name="uni0233" unicode="&#x233;" horiz-adv-x="1059" 
d="M270 0l-251 1190h331l174 -913l173 913h330l-252 -1190q-56 -250 -222 -357t-459 -107v224q162 0 262 56q99 57 128 184h-214zM232 1271v116h578v-116h-578z" />
    <glyph glyph-name="uni0237" unicode="&#x237;" horiz-adv-x="521" 
d="M-103 -460v225q99 0 152 46t53 190v1190h317v-1173q0 -288 -133 -383t-389 -95z" />
    <glyph glyph-name="uni0259" unicode="&#x259;" horiz-adv-x="1096" 
d="M551 1202q322 0 412 -163t90 -440q0 -287 -90.5 -448.5t-407.5 -161.5q-323 0 -409.5 163t-86.5 441q0 57 4 102h677q-9 159 -48 217q-50 75 -141 75q-65 0 -114 -49t-60 -160l-294 68q21 200 143 278t325 78zM741 496h-366q3 -163 46 -226q46 -68 134 -68q87 0 138 73
q39 56 48 221z" />
    <glyph glyph-name="uni02BC" unicode="&#x2bc;" horiz-adv-x="326" 
d="M298 1559v-246l-70 -258h-197l70 276l-30 -36v264h227z" />
    <glyph glyph-name="circumflex" unicode="&#x2c6;" horiz-adv-x="689" 
d="M52 1204l178 201h202l178 -201h-172l-107 135l-108 -135h-171z" />
    <glyph glyph-name="caron" unicode="&#x2c7;" horiz-adv-x="689" 
d="M230 1204l-178 201h171l108 -135l107 135h172l-178 -201h-202z" />
    <glyph glyph-name="uni02C9" unicode="&#x2c9;" horiz-adv-x="755" 
d="M74 1186v116h578v-116h-578z" />
    <glyph glyph-name="breve" unicode="&#x2d8;" horiz-adv-x="651" 
d="M311 1221q-104 0 -162 54.5t-58 132.5h149q0 -80 71 -80q38 0 54 20.5t16 59.5h149q0 -78 -57 -132.5t-162 -54.5z" />
    <glyph glyph-name="dotaccent" unicode="&#x2d9;" horiz-adv-x="390" 
d="M193 1196q-39 0 -66 27t-27 66t27 66t66 27q38 0 65.5 -27t27.5 -66t-27 -66t-66 -27z" />
    <glyph glyph-name="ring" unicode="&#x2da;" horiz-adv-x="413" 
d="M204 1208q-68 0 -113 46.5t-45 114.5q0 67 45 113.5t113 46.5t113 -46.5t45 -113.5q0 -68 -45 -114.5t-113 -46.5zM204 1321q19 0 32 13.5t13 34.5q0 20 -13 33.5t-32 13.5q-18 0 -31.5 -13.5t-13.5 -33.5q0 -21 13.5 -34.5t31.5 -13.5z" />
    <glyph glyph-name="ogonek" unicode="&#x2db;" horiz-adv-x="661" 
d="M366 -305q-53 0 -113 11t-102.5 41.5t-42.5 89.5q0 50 25 85t54 55t41 23h159q-5 -3 -21.5 -18t-31 -35.5t-14.5 -42.5q0 -25 23 -35t58 -10q36 0 75.5 6.5t52.5 13.5l18 -165q-9 -3 -64 -11t-117 -8z" />
    <glyph glyph-name="tilde" unicode="&#x2dc;" horiz-adv-x="681" 
d="M455 1256q-51 0 -85 18.5t-62 37t-57 18.5q-38 0 -51 -23t-14 -42h-151q1 31 14.5 75t54 77t122.5 33q49 0 82.5 -18t60.5 -35.5t59 -17.5q33 0 48 23t16 41h150q-1 -30 -14.5 -74.5t-53 -78.5t-119.5 -34z" />
    <glyph glyph-name="hungarumlaut" unicode="&#x2dd;" horiz-adv-x="885" 
d="M253 1221l145 182h238l-186 -182h-197z" />
    <glyph glyph-name="gravecomb" unicode="&#x300;" horiz-adv-x="0" 
d="M227 1116l-203 202h214l135 -202h-146z" />
    <glyph glyph-name="acutecomb" unicode="&#x301;" horiz-adv-x="0" 
d="M30 1116l135 202h213l-202 -202h-146z" />
    <glyph glyph-name="uni0302" unicode="&#x302;" horiz-adv-x="0" 
d="M21 1114l178 201h202l178 -201h-172l-107 135l-108 -135h-171z" />
    <glyph glyph-name="tildecomb" unicode="&#x303;" horiz-adv-x="0" 
d="M455 1180q-51 0 -85 18.5t-62 37t-57 18.5q-38 0 -51 -23t-14 -42h-151q1 31 14.5 75t54 77t122.5 33q49 0 82.5 -18t60.5 -35.5t59 -17.5q33 0 48 23t16 41h150q-1 -30 -14.5 -74.5t-53 -78.5t-119.5 -34z" />
    <glyph glyph-name="uni0304" unicode="&#x304;" horiz-adv-x="0" 
d="M74 1186v116h578v-116h-578z" />
    <glyph glyph-name="uni0306" unicode="&#x306;" horiz-adv-x="0" 
d="M251 1131q-104 0 -162 54.5t-58 132.5h149q0 -80 71 -80q38 0 54 20.5t16 59.5h149q0 -78 -57 -132.5t-162 -54.5z" />
    <glyph glyph-name="uni0307" unicode="&#x307;" horiz-adv-x="0" 
d="M126 1119q-39 0 -66 27t-27 66t27 66t66 27q38 0 65.5 -27t27.5 -66t-27 -66t-66 -27z" />
    <glyph glyph-name="uni0308" unicode="&#x308;" horiz-adv-x="0" 
d="M491 1129q-37 0 -63 26t-26 62t26 62t63 26q36 0 62 -26t26 -62t-26 -62t-62 -26zM146 1129q-36 0 -62 26t-26 62t26 62t62 26t62 -26t26 -62t-26 -62t-62 -26z" />
    <glyph glyph-name="hookabovecomb" unicode="&#x309;" horiz-adv-x="0" 
d="M20 1478q192 0 281 -24t89 -95q0 -42 -30.5 -67.5t-75 -37t-86.5 -11.5v-54h-113v131q71 0 113.5 6.5t42.5 23.5q0 20 -48 24.5t-173 4.5v99z" />
    <glyph glyph-name="uni030A" unicode="&#x30a;" horiz-adv-x="0" 
d="M179 1124q-68 0 -113 46.5t-45 114.5q0 67 45 113.5t113 46.5t113 -46.5t45 -113.5q0 -68 -45 -114.5t-113 -46.5zM179 1237q19 0 32 13.5t13 34.5q0 20 -13 33.5t-32 13.5q-18 0 -31.5 -13.5t-13.5 -33.5q0 -21 13.5 -34.5t31.5 -13.5z" />
    <glyph glyph-name="uni030B" unicode="&#x30b;" horiz-adv-x="0" 
d="M155 1137l145 182h238l-186 -182h-197z" />
    <glyph glyph-name="uni030C" unicode="&#x30c;" horiz-adv-x="0" 
d="M199 1114l-178 201h171l108 -135l107 135h172l-178 -201h-202z" />
    <glyph glyph-name="uni030F" unicode="&#x30f;" horiz-adv-x="0" 
d="M496 1206l-203 202h214l135 -202h-146zM214 1206l-203 202h214l135 -202h-146z" />
    <glyph glyph-name="uni0311" unicode="&#x311;" horiz-adv-x="0" 
d="M292 1339q104 0 162 -54.5t58 -132.5h-149q0 80 -71 80q-38 0 -54 -20.5t-16 -59.5h-149q0 78 57 132.5t162 54.5z" />
    <glyph glyph-name="uni0312" unicode="&#x312;" horiz-adv-x="0" 
d="M439.437 1463.57l-108.021 -306.036h-220.594l207.532 306.036h121.083z" />
    <glyph glyph-name="uni031B" unicode="&#x31b;" horiz-adv-x="0" 
d="M20 1241q106 0 145.5 42t39.5 128h176q0 -138 -93 -205.5t-268 -67.5v103z" />
    <glyph glyph-name="dotbelowcomb" unicode="&#x323;" horiz-adv-x="0" 
d="M193 -313q-39 0 -66 27t-27 66t27 66t66 27q38 0 65.5 -27t27.5 -66t-27 -66t-66 -27z" />
    <glyph glyph-name="uni0324" unicode="&#x324;" horiz-adv-x="0" 
d="M488 -257q-37 0 -63 26t-26 62t26 62t63 26q36 0 62 -26t26 -62t-26 -62t-62 -26zM143 -257q-36 0 -62 26t-26 62t26 62t62 26t62 -26t26 -62t-26 -62t-62 -26z" />
    <glyph glyph-name="uni0326" unicode="&#x326;" horiz-adv-x="0" 
d="M11.4434 -326.863l95.3633 269.938h199.46l-185.341 -269.938h-109.482z" />
    <glyph glyph-name="uni0327" unicode="&#x327;" horiz-adv-x="0" 
d="M286 -341q-37 0 -79 4.5t-79 13.5l40 132q21 -6 52.5 -11t65.5 -5q106 0 106 48q0 28 -39 28q-16 0 -32.5 -6.5t-26.5 -13.5l-113 12l39 139h125l-27 -79q21 14 51.5 23t69.5 9q62 0 98.5 -29t36.5 -85q0 -58 -42 -98t-108 -61t-138 -21z" />
    <glyph glyph-name="uni0328" unicode="&#x328;" horiz-adv-x="0" 
d="M366 -305q-53 0 -113 11t-102.5 41.5t-42.5 89.5q0 50 25 85t54 55t41 23h159q-5 -3 -21.5 -18t-31 -35.5t-14.5 -42.5q0 -25 23 -35t58 -10q36 0 75.5 6.5t52.5 13.5l18 -165q-9 -3 -64 -11t-117 -8z" />
    <glyph glyph-name="uni032E" unicode="&#x32e;" horiz-adv-x="0" 
d="M255 -294q-104 0 -162 54.5t-58 132.5h149q0 -80 71 -80q38 0 54 20.5t16 59.5h149q0 -78 -57 -132.5t-162 -54.5z" />
    <glyph glyph-name="uni0331" unicode="&#x331;" horiz-adv-x="0" 
d="M-2 -227v116h578v-116h-578z" />
    <glyph glyph-name="uni0335" unicode="&#x335;" horiz-adv-x="0" 
d="M45 1346v209h643v-209h-643z" />
    <glyph glyph-name="uni0336" unicode="&#x336;" horiz-adv-x="0" 
d="M74 1186v116h578v-116h-578z" />
    <glyph glyph-name="uni0337" unicode="&#x337;" horiz-adv-x="0" 
d="M99 0l339 972h154l-340 -972h-153z" />
    <glyph glyph-name="uni0338" unicode="&#x338;" horiz-adv-x="0" 
d="M16 0l483 1348h269l-484 -1348h-268z" />
    <glyph glyph-name="uni1E08" unicode="&#x1e08;" horiz-adv-x="1110" 
d="M549 -8q-337 0 -426.5 174.5t-89.5 512.5t89.5 510t425.5 172q339 0 420 -167t81 -398h-323q0 230 -44.5 286t-133.5 56q-92 0 -142 -62.5t-50 -396.5q0 -337 50.5 -400.5t141.5 -63.5q88 0 133 57.5t45 282.5h323q0 -223 -81 -393t-419 -170zM554 -341q-37 0 -79 4.5
t-79 13.5l40 132q21 -6 52.5 -11t65.5 -5q106 0 106 48q0 28 -39 28q-16 0 -32.5 -6.5t-26.5 -13.5l-113 12l39 139h125l-27 -79q21 14 51.5 23t69.5 9q62 0 98.5 -29t36.5 -85q0 -58 -42 -98t-108 -61t-138 -21zM372 1389l135 202h213l-202 -202h-146z" />
    <glyph glyph-name="uni1E09" unicode="&#x1e09;" horiz-adv-x="1051" 
d="M530 -11q-319 0 -407 162t-88 441q0 290 88 449.5t407 159.5q294 0 371 -141t89 -305l-293 -71q-5 163 -47 228t-120 65t-125.5 -70.5t-47.5 -314.5q0 -230 47.5 -305t125.5 -75t120 69.5t47 219.5l293 -74q-12 -149 -89 -293.5t-371 -144.5zM542 -341q-37 0 -79 4.5
t-79 13.5l40 132q21 -6 52.5 -11t65.5 -5q106 0 106 48q0 28 -39 28q-16 0 -32.5 -6.5t-26.5 -13.5l-113 12l39 139h125l-27 -79q21 14 51.5 23t69.5 9q62 0 98.5 -29t36.5 -85q0 -58 -42 -98t-108 -61t-138 -21zM356 1229l135 202h213l-202 -202h-146z" />
    <glyph glyph-name="uni1E0C" unicode="&#x1e0c;" horiz-adv-x="1099" 
d="M58 0v1350h589q254 0 328.5 -147t74.5 -527.5t-74.5 -528t-328.5 -147.5h-589zM378 223h176q94 0 135 62.5t41 390.5q0 326 -41 388.5t-135 62.5h-176v-904zM550 -270q-39 0 -66 27t-27 66t27 66t66 27q38 0 65.5 -27t27.5 -66t-27 -66t-66 -27z" />
    <glyph glyph-name="uni1E0D" unicode="&#x1e0d;" horiz-adv-x="1096" 
d="M730 0l-15 83q-2 -1 -3 -2q-133 -88 -308 -88q-217 0 -289.5 167t-72.5 438t72.5 436.5t289.5 165.5q167 0 296 -81v451h316v-1570h-286zM700 416v361q-5 86 -52 140q-51 61 -126 61q-80 0 -120.5 -69.5t-40.5 -311.5q0 -245 40.5 -314t120.5 -69q75 0 126 60
q47 54 52 142zM555 -313q-39 0 -66 27t-27 66t27 66t66 27q38 0 65.5 -27t27.5 -66t-27 -66t-66 -27z" />
    <glyph glyph-name="uni1E0E" unicode="&#x1e0e;" horiz-adv-x="1099" 
d="M58 0v1350h589q254 0 328.5 -147t74.5 -527.5t-74.5 -528t-328.5 -147.5h-589zM378 223h176q94 0 135 62.5t41 390.5q0 326 -41 388.5t-135 62.5h-176v-904zM260 -227v116h578v-116h-578z" />
    <glyph glyph-name="uni1E0F" unicode="&#x1e0f;" horiz-adv-x="1096" 
d="M730 0l-15 83q-2 -1 -3 -2q-133 -88 -308 -88q-217 0 -289.5 167t-72.5 438t72.5 436.5t289.5 165.5q167 0 296 -81v451h316v-1570h-286zM700 416v361q-5 86 -52 140q-51 61 -126 61q-80 0 -120.5 -69.5t-40.5 -311.5q0 -245 40.5 -314t120.5 -69q75 0 126 60
q47 54 52 142zM265 -227v116h578v-116h-578z" />
    <glyph glyph-name="uni1E14" unicode="&#x1e14;" horiz-adv-x="909" 
d="M54 0v1350h788v-223h-467v-336h436v-214h-436v-354h467v-223h-788zM158 1431v116h578v-116h-578zM475 1600l-203 202h214l135 -202h-146z" />
    <glyph glyph-name="uni1E15" unicode="&#x1e15;" horiz-adv-x="1096" 
d="M545 -11q-322 0 -412 163t-90 440q0 287 90.5 448.5t407.5 161.5q323 0 409.5 -163t86.5 -441q0 -57 -4 -102h-677q9 -159 48 -217q50 -75 141 -75q65 0 114 49t60 160l294 -68q-21 -200 -143 -278t-325 -78zM355 695h366q-3 163 -46 226q-46 68 -134 68q-87 0 -138 -73
q-39 -56 -48 -221zM253 1271v116h578v-116h-578zM570 1431l-203 202h214l135 -202h-146z" />
    <glyph glyph-name="uni1E16" unicode="&#x1e16;" horiz-adv-x="909" 
d="M54 0v1350h788v-223h-467v-336h436v-214h-436v-354h467v-223h-788zM158 1431v116h578v-116h-578zM274 1586l135 202h213l-202 -202h-146z" />
    <glyph glyph-name="uni1E17" unicode="&#x1e17;" horiz-adv-x="1096" 
d="M545 -11q-322 0 -412 163t-90 440q0 287 90.5 448.5t407.5 161.5q323 0 409.5 -163t86.5 -441q0 -57 -4 -102h-677q9 -159 48 -217q50 -75 141 -75q65 0 114 49t60 160l294 -68q-21 -200 -143 -278t-325 -78zM355 695h366q-3 163 -46 226q-46 68 -134 68q-87 0 -138 -73
q-39 -56 -48 -221zM253 1271v116h578v-116h-578zM368 1426l135 202h213l-202 -202h-146z" />
    <glyph glyph-name="uni1E1C" unicode="&#x1e1c;" horiz-adv-x="909" 
d="M54 0v1350h788v-223h-467v-336h436v-214h-436v-354h467v-223h-788zM456 -341q-37 0 -79 4.5t-79 13.5l40 132q21 -6 52.5 -11t65.5 -5q106 0 106 48q0 28 -39 28q-16 0 -32.5 -6.5t-26.5 -13.5l-113 12l39 139h125l-27 -79q21 14 51.5 23t69.5 9q62 0 98.5 -29t36.5 -85
q0 -58 -42 -98t-108 -61t-138 -21zM449 1393q-104 0 -162 54.5t-58 132.5h149q0 -80 71 -80q38 0 54 20.5t16 59.5h149q0 -78 -57 -132.5t-162 -54.5z" />
    <glyph glyph-name="uni1E1D" unicode="&#x1e1d;" horiz-adv-x="1096" 
d="M545 -11q-322 0 -412 163t-90 440q0 287 90.5 448.5t407.5 161.5q323 0 409.5 -163t86.5 -441q0 -57 -4 -102h-677q9 -159 48 -217q50 -75 141 -75q65 0 114 49t60 160l294 -68q-21 -200 -143 -278t-325 -78zM355 695h366q-3 163 -46 226q-46 68 -134 68q-87 0 -138 -73
q-39 -56 -48 -221zM554 -341q-37 0 -79 4.5t-79 13.5l40 132q21 -6 52.5 -11t65.5 -5q106 0 106 48q0 28 -39 28q-16 0 -32.5 -6.5t-26.5 -13.5l-113 12l39 139h125l-27 -79q21 14 51.5 23t69.5 9q62 0 98.5 -29t36.5 -85q0 -58 -42 -98t-108 -61t-138 -21zM543 1234
q-104 0 -162 54.5t-58 132.5h149q0 -80 71 -80q38 0 54 20.5t16 59.5h149q0 -78 -57 -132.5t-162 -54.5z" />
    <glyph glyph-name="uni1E20" unicode="&#x1e20;" horiz-adv-x="1140" 
d="M521 -8q-307 0 -392.5 175.5t-85.5 512.5q0 343 88 512t425 169q322 0 411 -159t89 -352h-322q-2 181 -44 235t-133 54q-96 0 -144 -63.5t-48 -410.5q0 -292 48.5 -371t145.5 -79q89 0 130 41t45 185v54h-161v197h483v-692h-193l-16 109q-89 -117 -326 -117zM268 1431
v116h578v-116h-578z" />
    <glyph glyph-name="uni1E21" unicode="&#x1e21;" horiz-adv-x="1102" 
d="M524 -464q-247 0 -356 91.5t-109 307.5h312q0 -102 42.5 -145.5t111.5 -43.5q46 0 86 24.5t64.5 88t24.5 179.5v36q-129 -81 -296 -81q-217 0 -289.5 167t-72.5 438t72.5 436.5t289.5 165.5q175 0 308 -89l2 -2l8 81h297v-1146q0 -197 -56.5 -307.5t-166.5 -155.5
t-272 -45zM700 764q-2 95 -52 153q-51 61 -126 61q-80 0 -120.5 -69.5t-40.5 -311.5q0 -245 40.5 -314t120.5 -69q75 0 126 60q50 58 52 155v335zM252 1271v116h578v-116h-578z" />
    <glyph glyph-name="uni1E24" unicode="&#x1e24;" horiz-adv-x="1123" 
d="M58 0v1350h321v-560h339v560h321v-1350h-321v567h-339v-567h-321zM557 -270q-39 0 -66 27t-27 66t27 66t66 27q38 0 65.5 -27t27.5 -66t-27 -66t-66 -27z" />
    <glyph glyph-name="uni1E25" unicode="&#x1e25;" horiz-adv-x="1081" 
d="M63 0v1570h317v-475q119 105 296 105q206 0 265.5 -154.5t59.5 -388.5v-657h-316v646q0 202 -32.5 266.5t-103.5 64.5q-75 0 -124 -73q-35 -52 -45 -129v-775h-317zM540 -313q-39 0 -66 27t-27 66t27 66t66 27q38 0 65.5 -27t27.5 -66t-27 -66t-66 -27z" />
    <glyph glyph-name="uni1E2A" unicode="&#x1e2a;" horiz-adv-x="1123" 
d="M58 0v1350h321v-560h339v560h321v-1350h-321v567h-339v-567h-321zM558 -294q-104 0 -162 54.5t-58 132.5h149q0 -80 71 -80q38 0 54 20.5t16 59.5h149q0 -78 -57 -132.5t-162 -54.5z" />
    <glyph glyph-name="uni1E2B" unicode="&#x1e2b;" horiz-adv-x="1081" 
d="M63 0v1570h317v-475q119 105 296 105q206 0 265.5 -154.5t59.5 -388.5v-657h-316v646q0 202 -32.5 266.5t-103.5 64.5q-75 0 -124 -73q-35 -52 -45 -129v-775h-317zM541 -294q-104 0 -162 54.5t-58 132.5h149q0 -80 71 -80q38 0 54 20.5t16 59.5h149q0 -78 -57 -132.5
t-162 -54.5z" />
    <glyph glyph-name="uni1E2E" unicode="&#x1e2e;" horiz-adv-x="518" 
d="M91 0v1350h321v-1350h-321zM422 1407q-37 0 -63 26t-26 62t26 62t63 26q36 0 62 -26t26 -62t-26 -62t-62 -26zM77 1407q-36 0 -62 26t-26 62t26 62t62 26t62 -26t26 -62t-26 -62t-62 -26zM78 1623l135 202h213l-202 -202h-146z" />
    <glyph glyph-name="uni1E2F" unicode="&#x1e2f;" horiz-adv-x="477" 
d="M68 0v1191h320v-1191h-320zM399 1247q-37 0 -63 26t-26 62t26 62t63 26q36 0 62 -26t26 -62t-26 -62t-62 -26zM54 1247q-36 0 -62 26t-26 62t26 62t62 26t62 -26t26 -62t-26 -62t-62 -26zM55 1464l135 202h213l-202 -202h-146z" />
    <glyph glyph-name="uni1E36" unicode="&#x1e36;" horiz-adv-x="835" 
d="M58 0v1350h321v-1129h404v-221h-725zM419 -270q-39 0 -66 27t-27 66t27 66t66 27q38 0 65.5 -27t27.5 -66t-27 -66t-66 -27z" />
    <glyph glyph-name="uni1E37" unicode="&#x1e37;" horiz-adv-x="487" 
d="M81 0v1570h318v-1570h-318zM241 -313q-39 0 -66 27t-27 66t27 66t66 27q38 0 65.5 -27t27.5 -66t-27 -66t-66 -27z" />
    <glyph glyph-name="uni1E3A" unicode="&#x1e3a;" horiz-adv-x="835" 
d="M58 0v1350h321v-1129h404v-221h-725zM129 -227v116h578v-116h-578z" />
    <glyph glyph-name="uni1E3B" unicode="&#x1e3b;" horiz-adv-x="487" 
d="M81 0v1570h318v-1570h-318zM-49 -227v116h578v-116h-578z" />
    <glyph glyph-name="uni1E42" unicode="&#x1e42;" horiz-adv-x="1547" 
d="M58 0v1350h516l187 -1087l187 1087h515v-1350h-316v1125h-4l-199 -1092h-367l-198 1092h-4v-1125h-317zM763 -270q-39 0 -66 27t-27 66t27 66t66 27q38 0 65.5 -27t27.5 -66t-27 -66t-66 -27z" />
    <glyph glyph-name="uni1E43" unicode="&#x1e43;" horiz-adv-x="1601" 
d="M63 0v1190h294l14 -100q113 110 265 110q211 0 263 -142q3 -7 5 -13l12 14q121 141 293 141q210 0 261 -142t51 -321v-737h-316v690q0 164 -24.5 225.5t-86.5 61.5q-65 0 -104 -69q-33 -56 -38 -170v-1v-737h-317v690q0 164 -25.5 225.5t-87.5 61.5q-65 0 -105 -69
q-30 -53 -37 -161v-747h-317zM821 -313q-39 0 -66 27t-27 66t27 66t66 27q38 0 65.5 -27t27.5 -66t-27 -66t-66 -27z" />
    <glyph glyph-name="uni1E44" unicode="&#x1e44;" horiz-adv-x="1312" 
d="M58 0v1350h512l336 -1072l3 1072h319v-1350h-511l-341 1096v-1096h-318zM651 1397q-39 0 -66 27t-27 66t27 66t66 27q38 0 65.5 -27t27.5 -66t-27 -66t-66 -27z" />
    <glyph glyph-name="uni1E45" unicode="&#x1e45;" horiz-adv-x="1077" 
d="M63 0v1190h294l11 -102q121 112 304 112q206 0 265.5 -154.5t59.5 -388.5v-657h-316v646q0 202 -32.5 266.5t-103.5 64.5q-75 0 -124 -73q-30 -44 -41 -107v-797h-317zM535 1237q-39 0 -66 27t-27 66t27 66t66 27q38 0 65.5 -27t27.5 -66t-27 -66t-66 -27z" />
    <glyph glyph-name="uni1E46" unicode="&#x1e46;" horiz-adv-x="1312" 
d="M58 0v1350h512l336 -1072l3 1072h319v-1350h-511l-341 1096v-1096h-318zM651 -270q-39 0 -66 27t-27 66t27 66t66 27q38 0 65.5 -27t27.5 -66t-27 -66t-66 -27z" />
    <glyph glyph-name="uni1E47" unicode="&#x1e47;" horiz-adv-x="1077" 
d="M63 0v1190h294l11 -102q121 112 304 112q206 0 265.5 -154.5t59.5 -388.5v-657h-316v646q0 202 -32.5 266.5t-103.5 64.5q-75 0 -124 -73q-30 -44 -41 -107v-797h-317zM535 -313q-39 0 -66 27t-27 66t27 66t66 27q38 0 65.5 -27t27.5 -66t-27 -66t-66 -27z" />
    <glyph glyph-name="uni1E48" unicode="&#x1e48;" horiz-adv-x="1312" 
d="M58 0v1350h512l336 -1072l3 1072h319v-1350h-511l-341 1096v-1096h-318zM361 -227v116h578v-116h-578z" />
    <glyph glyph-name="uni1E49" unicode="&#x1e49;" horiz-adv-x="1077" 
d="M63 0v1190h294l11 -102q121 112 304 112q206 0 265.5 -154.5t59.5 -388.5v-657h-316v646q0 202 -32.5 266.5t-103.5 64.5q-75 0 -124 -73q-30 -44 -41 -107v-797h-317zM245 -227v116h578v-116h-578z" />
    <glyph glyph-name="uni1E4C" unicode="&#x1e4c;" 
d="M568 -10q-337 0 -431 160t-94 525t94 525.5t431 160.5t431.5 -160.5t94.5 -525.5t-94.5 -525t-431.5 -160zM568 213q99 0 153 66.5t54 395.5q0 335 -54 399t-153 64q-98 0 -152 -64t-54 -399q0 -329 54 -395.5t152 -66.5zM689 1407q-51 0 -85 18.5t-62 37t-57 18.5
q-38 0 -51 -23t-14 -42h-151q1 31 14.5 75t54 77t122.5 33q49 0 82.5 -18t60.5 -35.5t59 -17.5q33 0 48 23t16 41h150q-1 -30 -14.5 -74.5t-53 -78.5t-119.5 -34zM396 1636l135 202h213l-202 -202h-146z" />
    <glyph glyph-name="uni1E4D" unicode="&#x1e4d;" horiz-adv-x="1098" 
d="M542 -9q-316 0 -408 155.5t-92 451.5q0 298 92 451.5t408 153.5q315 0 407 -153.5t92 -451.5q0 -296 -92 -451.5t-407 -155.5zM542 211q85 0 133.5 71t48.5 315q0 245 -48.5 315.5t-133.5 70.5q-86 0 -134.5 -70.5t-48.5 -315.5q0 -244 48.5 -315t134.5 -71zM661 1248
q-51 0 -85 18.5t-62 37t-57 18.5q-38 0 -51 -23t-14 -42h-151q1 31 14.5 75t54 77t122.5 33q49 0 82.5 -18t60.5 -35.5t59 -17.5q33 0 48 23t16 41h150q-1 -30 -14.5 -74.5t-53 -78.5t-119.5 -34zM368 1477l135 202h213l-202 -202h-146z" />
    <glyph glyph-name="uni1E4E" unicode="&#x1e4e;" 
d="M568 -10q-337 0 -431 160t-94 525t94 525.5t431 160.5t431.5 -160.5t94.5 -525.5t-94.5 -525t-431.5 -160zM568 213q99 0 153 66.5t54 395.5q0 335 -54 399t-153 64q-98 0 -152 -64t-54 -399q0 -329 54 -395.5t152 -66.5zM689 1407q-51 0 -85 18.5t-62 37t-57 18.5
q-38 0 -51 -23t-14 -42h-151q1 31 14.5 75t54 77t122.5 33q49 0 82.5 -18t60.5 -35.5t59 -17.5q33 0 48 23t16 41h150q-1 -30 -14.5 -74.5t-53 -78.5t-119.5 -34zM741 1654q-37 0 -63 26t-26 62t26 62t63 26q36 0 62 -26t26 -62t-26 -62t-62 -26zM396 1654q-36 0 -62 26
t-26 62t26 62t62 26t62 -26t26 -62t-26 -62t-62 -26z" />
    <glyph glyph-name="uni1E4F" unicode="&#x1e4f;" horiz-adv-x="1098" 
d="M542 -9q-316 0 -408 155.5t-92 451.5q0 298 92 451.5t408 153.5q315 0 407 -153.5t92 -451.5q0 -296 -92 -451.5t-407 -155.5zM542 211q85 0 133.5 71t48.5 315q0 245 -48.5 315.5t-133.5 70.5q-86 0 -134.5 -70.5t-48.5 -315.5q0 -244 48.5 -315t134.5 -71zM661 1248
q-51 0 -85 18.5t-62 37t-57 18.5q-38 0 -51 -23t-14 -42h-151q1 31 14.5 75t54 77t122.5 33q49 0 82.5 -18t60.5 -35.5t59 -17.5q33 0 48 23t16 41h150q-1 -30 -14.5 -74.5t-53 -78.5t-119.5 -34zM713 1495q-37 0 -63 26t-26 62t26 62t63 26q36 0 62 -26t26 -62t-26 -62
t-62 -26zM368 1495q-36 0 -62 26t-26 62t26 62t62 26t62 -26t26 -62t-26 -62t-62 -26z" />
    <glyph glyph-name="uni1E50" unicode="&#x1e50;" 
d="M568 -10q-337 0 -431 160t-94 525t94 525.5t431 160.5t431.5 -160.5t94.5 -525.5t-94.5 -525t-431.5 -160zM568 213q99 0 153 66.5t54 395.5q0 335 -54 399t-153 64q-98 0 -152 -64t-54 -399q0 -329 54 -395.5t152 -66.5zM281 1431v116h578v-116h-578zM598 1600l-203 202
h214l135 -202h-146z" />
    <glyph glyph-name="uni1E51" unicode="&#x1e51;" horiz-adv-x="1098" 
d="M542 -9q-316 0 -408 155.5t-92 451.5q0 298 92 451.5t408 153.5q315 0 407 -153.5t92 -451.5q0 -296 -92 -451.5t-407 -155.5zM542 211q85 0 133.5 71t48.5 315q0 245 -48.5 315.5t-133.5 70.5q-86 0 -134.5 -70.5t-48.5 -315.5q0 -244 48.5 -315t134.5 -71zM252 1272
v116h578v-116h-578zM569 1432l-203 202h214l135 -202h-146z" />
    <glyph glyph-name="uni1E52" unicode="&#x1e52;" 
d="M568 -10q-337 0 -431 160t-94 525t94 525.5t431 160.5t431.5 -160.5t94.5 -525.5t-94.5 -525t-431.5 -160zM568 213q99 0 153 66.5t54 395.5q0 335 -54 399t-153 64q-98 0 -152 -64t-54 -399q0 -329 54 -395.5t152 -66.5zM281 1431v116h578v-116h-578zM396 1586l135 202
h213l-202 -202h-146z" />
    <glyph glyph-name="uni1E53" unicode="&#x1e53;" horiz-adv-x="1098" 
d="M542 -9q-316 0 -408 155.5t-92 451.5q0 298 92 451.5t408 153.5q315 0 407 -153.5t92 -451.5q0 -296 -92 -451.5t-407 -155.5zM542 211q85 0 133.5 71t48.5 315q0 245 -48.5 315.5t-133.5 70.5q-86 0 -134.5 -70.5t-48.5 -315.5q0 -244 48.5 -315t134.5 -71zM252 1272
v116h578v-116h-578zM368 1427l135 202h213l-202 -202h-146z" />
    <glyph glyph-name="uni1E5A" unicode="&#x1e5a;" horiz-adv-x="1091" 
d="M58 0v1350h659q207 0 256.5 -126.5t49.5 -279.5q0 -151 -52 -268q-34 -75 -132 -102l200 -574h-341l-176 559h-142v-559h-322zM380 756h215q62 0 83.5 48.5t21.5 136.5t-21.5 137t-83.5 49h-215v-371zM537 -270q-39 0 -66 27t-27 66t27 66t66 27q38 0 65.5 -27t27.5 -66
t-27 -66t-66 -27z" />
    <glyph glyph-name="uni1E5B" unicode="&#x1e5b;" horiz-adv-x="1068" 
d="M671 603q0 242 -33.5 308.5t-99.5 66.5q-74 0 -117 -65q-36 -56 -41 -120v-793h-317v1190h297l8 -93l4 4q116 100 293 100q211 0 267 -148t56 -450h-317zM540 -313q-39 0 -66 27t-27 66t27 66t66 27q38 0 65.5 -27t27.5 -66t-27 -66t-66 -27z" />
    <glyph glyph-name="uni1E5E" unicode="&#x1e5e;" horiz-adv-x="1091" 
d="M58 0v1350h659q207 0 256.5 -126.5t49.5 -279.5q0 -151 -52 -268q-34 -75 -132 -102l200 -574h-341l-176 559h-142v-559h-322zM380 756h215q62 0 83.5 48.5t21.5 136.5t-21.5 137t-83.5 49h-215v-371zM247 -227v116h578v-116h-578z" />
    <glyph glyph-name="uni1E5F" unicode="&#x1e5f;" horiz-adv-x="1068" 
d="M671 603q0 242 -33.5 308.5t-99.5 66.5q-74 0 -117 -65q-36 -56 -41 -120v-793h-317v1190h297l8 -93l4 4q116 100 293 100q211 0 267 -148t56 -450h-317zM251 -227v116h578v-116h-578z" />
    <glyph glyph-name="uni1E60" unicode="&#x1e60;" horiz-adv-x="1110" 
d="M548 -9q-336 0 -420.5 135t-84.5 361h321q0 -190 48.5 -232t133.5 -42t133.5 36t48.5 113q0 94 -69.5 129t-208.5 70q-241 67 -323.5 141.5t-82.5 244.5q0 153 86 283.5t414 130.5q329 0 414.5 -139.5t85.5 -350.5h-321q0 184 -50 226.5t-132 42.5q-86 0 -135 -37.5
t-49 -108.5q0 -101 71.5 -134.5t212.5 -71.5q242 -65 323.5 -133.5t81.5 -238.5q0 -158 -83.5 -291.5t-414.5 -133.5zM552 1397q-39 0 -66 27t-27 66t27 66t66 27q38 0 65.5 -27t27.5 -66t-27 -66t-66 -27z" />
    <glyph glyph-name="uni1E61" unicode="&#x1e61;" horiz-adv-x="1085" 
d="M549 -9q-221 0 -343.5 76.5t-152.5 274.5l291 74q14 -122 67.5 -165.5t133.5 -43.5q82 0 123.5 33t41.5 95q0 81 -58.5 105t-200.5 50q-223 35 -308 108.5t-85 251.5q0 182 124.5 265.5t357.5 83.5q229 0 338 -77t137 -265l-285 -72q-14 110 -62 154.5t-132 44.5
q-79 0 -120.5 -36t-41.5 -94q0 -79 61.5 -98t197.5 -42q214 -32 304 -108t90 -250q0 -201 -121.5 -283t-356.5 -82zM542 1237q-39 0 -66 27t-27 66t27 66t66 27q38 0 65.5 -27t27.5 -66t-27 -66t-66 -27z" />
    <glyph glyph-name="uni1E62" unicode="&#x1e62;" horiz-adv-x="1110" 
d="M548 -9q-336 0 -420.5 135t-84.5 361h321q0 -190 48.5 -232t133.5 -42t133.5 36t48.5 113q0 94 -69.5 129t-208.5 70q-241 67 -323.5 141.5t-82.5 244.5q0 153 86 283.5t414 130.5q329 0 414.5 -139.5t85.5 -350.5h-321q0 184 -50 226.5t-132 42.5q-86 0 -135 -37.5
t-49 -108.5q0 -101 71.5 -134.5t212.5 -71.5q242 -65 323.5 -133.5t81.5 -238.5q0 -158 -83.5 -291.5t-414.5 -133.5zM551 -270q-39 0 -66 27t-27 66t27 66t66 27q38 0 65.5 -27t27.5 -66t-27 -66t-66 -27z" />
    <glyph glyph-name="uni1E63" unicode="&#x1e63;" horiz-adv-x="1085" 
d="M549 -9q-221 0 -343.5 76.5t-152.5 274.5l291 74q14 -122 67.5 -165.5t133.5 -43.5q82 0 123.5 33t41.5 95q0 81 -58.5 105t-200.5 50q-223 35 -308 108.5t-85 251.5q0 182 124.5 265.5t357.5 83.5q229 0 338 -77t137 -265l-285 -72q-14 110 -62 154.5t-132 44.5
q-79 0 -120.5 -36t-41.5 -94q0 -79 61.5 -98t197.5 -42q214 -32 304 -108t90 -250q0 -201 -121.5 -283t-356.5 -82zM540 -313q-39 0 -66 27t-27 66t27 66t66 27q38 0 65.5 -27t27.5 -66t-27 -66t-66 -27z" />
    <glyph glyph-name="uni1E64" unicode="&#x1e64;" horiz-adv-x="1110" 
d="M548 -9q-336 0 -420.5 135t-84.5 361h321q0 -190 48.5 -232t133.5 -42t133.5 36t48.5 113q0 94 -69.5 129t-208.5 70q-241 67 -323.5 141.5t-82.5 244.5q0 153 86 283.5t414 130.5q329 0 414.5 -139.5t85.5 -350.5h-321q0 184 -50 226.5t-132 42.5q-86 0 -135 -37.5
t-49 -108.5q0 -101 71.5 -134.5t212.5 -71.5q242 -65 323.5 -133.5t81.5 -238.5q0 -158 -83.5 -291.5t-414.5 -133.5zM378 1389l135 202h213l-202 -202h-146zM552 1638q-39 0 -66 27t-27 66t27 66t66 27q38 0 65.5 -27t27.5 -66t-27 -66t-66 -27z" />
    <glyph glyph-name="uni1E65" unicode="&#x1e65;" horiz-adv-x="1085" 
d="M549 -9q-221 0 -343.5 76.5t-152.5 274.5l291 74q14 -122 67.5 -165.5t133.5 -43.5q82 0 123.5 33t41.5 95q0 81 -58.5 105t-200.5 50q-223 35 -308 108.5t-85 251.5q0 182 124.5 265.5t357.5 83.5q229 0 338 -77t137 -265l-285 -72q-14 110 -62 154.5t-132 44.5
q-79 0 -120.5 -36t-41.5 -94q0 -79 61.5 -98t197.5 -42q214 -32 304 -108t90 -250q0 -201 -121.5 -283t-356.5 -82zM368 1229l135 202h213l-202 -202h-146zM542 1478q-39 0 -66 27t-27 66t27 66t66 27q38 0 65.5 -27t27.5 -66t-27 -66t-66 -27z" />
    <glyph glyph-name="uni1E66" unicode="&#x1e66;" horiz-adv-x="1110" 
d="M548 -9q-336 0 -420.5 135t-84.5 361h321q0 -190 48.5 -232t133.5 -42t133.5 36t48.5 113q0 94 -69.5 129t-208.5 70q-241 67 -323.5 141.5t-82.5 244.5q0 153 86 283.5t414 130.5q329 0 414.5 -139.5t85.5 -350.5h-321q0 184 -50 226.5t-132 42.5q-86 0 -135 -37.5
t-49 -108.5q0 -101 71.5 -134.5t212.5 -71.5q242 -65 323.5 -133.5t81.5 -238.5q0 -158 -83.5 -291.5t-414.5 -133.5zM451 1392l-178 201h171l108 -135l107 135h172l-178 -201h-202zM552 1640q-39 0 -66 27t-27 66t27 66t66 27q38 0 65.5 -27t27.5 -66t-27 -66t-66 -27z" />
    <glyph glyph-name="uni1E67" unicode="&#x1e67;" horiz-adv-x="1085" 
d="M549 -9q-221 0 -343.5 76.5t-152.5 274.5l291 74q14 -122 67.5 -165.5t133.5 -43.5q82 0 123.5 33t41.5 95q0 81 -58.5 105t-200.5 50q-223 35 -308 108.5t-85 251.5q0 182 124.5 265.5t357.5 83.5q229 0 338 -77t137 -265l-285 -72q-14 110 -62 154.5t-132 44.5
q-79 0 -120.5 -36t-41.5 -94q0 -79 61.5 -98t197.5 -42q214 -32 304 -108t90 -250q0 -201 -121.5 -283t-356.5 -82zM441 1232l-178 201h171l108 -135l107 135h172l-178 -201h-202zM542 1480q-39 0 -66 27t-27 66t27 66t66 27q38 0 65.5 -27t27.5 -66t-27 -66t-66 -27z" />
    <glyph glyph-name="uni1E68" unicode="&#x1e68;" horiz-adv-x="1110" 
d="M548 -9q-336 0 -420.5 135t-84.5 361h321q0 -190 48.5 -232t133.5 -42t133.5 36t48.5 113q0 94 -69.5 129t-208.5 70q-241 67 -323.5 141.5t-82.5 244.5q0 153 86 283.5t414 130.5q329 0 414.5 -139.5t85.5 -350.5h-321q0 184 -50 226.5t-132 42.5q-86 0 -135 -37.5
t-49 -108.5q0 -101 71.5 -134.5t212.5 -71.5q242 -65 323.5 -133.5t81.5 -238.5q0 -158 -83.5 -291.5t-414.5 -133.5zM551 -270q-39 0 -66 27t-27 66t27 66t66 27q38 0 65.5 -27t27.5 -66t-27 -66t-66 -27zM552 1397q-39 0 -66 27t-27 66t27 66t66 27q38 0 65.5 -27
t27.5 -66t-27 -66t-66 -27z" />
    <glyph glyph-name="uni1E69" unicode="&#x1e69;" horiz-adv-x="1085" 
d="M549 -9q-221 0 -343.5 76.5t-152.5 274.5l291 74q14 -122 67.5 -165.5t133.5 -43.5q82 0 123.5 33t41.5 95q0 81 -58.5 105t-200.5 50q-223 35 -308 108.5t-85 251.5q0 182 124.5 265.5t357.5 83.5q229 0 338 -77t137 -265l-285 -72q-14 110 -62 154.5t-132 44.5
q-79 0 -120.5 -36t-41.5 -94q0 -79 61.5 -98t197.5 -42q214 -32 304 -108t90 -250q0 -201 -121.5 -283t-356.5 -82zM540 -313q-39 0 -66 27t-27 66t27 66t66 27q38 0 65.5 -27t27.5 -66t-27 -66t-66 -27zM542 1237q-39 0 -66 27t-27 66t27 66t66 27q38 0 65.5 -27t27.5 -66
t-27 -66t-66 -27z" />
    <glyph glyph-name="uni1E6C" unicode="&#x1e6c;" horiz-adv-x="1027" 
d="M352 0v1127h-302v223h925v-223h-302v-1127h-321zM513 -270q-39 0 -66 27t-27 66t27 66t66 27q38 0 65.5 -27t27.5 -66t-27 -66t-66 -27z" />
    <glyph glyph-name="uni1E6D" unicode="&#x1e6d;" horiz-adv-x="861" 
d="M541 -14q-147 0 -233 61.5t-86 229.5v690h-203v223h203v262h318v-262h273v-223h-273v-623q0 -87 27 -112.5t84 -24.5q54 0 119 13v-217q-127 -17 -229 -17zM536 -313q-39 0 -66 27t-27 66t27 66t66 27q38 0 65.5 -27t27.5 -66t-27 -66t-66 -27z" />
    <glyph glyph-name="uni1E6E" unicode="&#x1e6e;" horiz-adv-x="1027" 
d="M352 0v1127h-302v223h925v-223h-302v-1127h-321zM223 -227v116h578v-116h-578z" />
    <glyph glyph-name="uni1E6F" unicode="&#x1e6f;" horiz-adv-x="861" 
d="M541 -14q-147 0 -233 61.5t-86 229.5v690h-203v223h203v262h318v-262h273v-223h-273v-623q0 -87 27 -112.5t84 -24.5q54 0 119 13v-217q-127 -17 -229 -17zM247 -227v116h578v-116h-578z" />
    <glyph glyph-name="uni1E78" unicode="&#x1e78;" horiz-adv-x="1144" 
d="M565 -9q-258 0 -381 89t-123 300v970h321v-934q0 -108 43 -155t139.5 -47t139.5 46.5t43 155.5v934h321v-970q0 -211 -123 -300t-380 -89zM688 1407q-51 0 -85 18.5t-62 37t-57 18.5q-38 0 -51 -23t-14 -42h-151q1 31 14.5 75t54 77t122.5 33q49 0 82.5 -18t60.5 -35.5
t59 -17.5q33 0 48 23t16 41h150q-1 -30 -14.5 -74.5t-53 -78.5t-119.5 -34zM396 1636l135 202h213l-202 -202h-146z" />
    <glyph glyph-name="uni1E79" unicode="&#x1e79;" horiz-adv-x="1079" 
d="M703 0l-13 107q-122 -116 -309 -116q-206 0 -265.5 154.5t-59.5 388.5v657h317v-646q0 -202 32 -266.5t104 -64.5q74 0 123 73q42 62 48 160v743h317v-1190h-294zM652 1247q-51 0 -85 18.5t-62 37t-57 18.5q-38 0 -51 -23t-14 -42h-151q1 31 14.5 75t54 77t122.5 33
q49 0 82.5 -18t60.5 -35.5t59 -17.5q33 0 48 23t16 41h150q-1 -30 -14.5 -74.5t-53 -78.5t-119.5 -34zM359 1477l135 202h213l-202 -202h-146z" />
    <glyph glyph-name="uni1E7A" unicode="&#x1e7a;" horiz-adv-x="1144" 
d="M565 -9q-258 0 -381 89t-123 300v970h321v-934q0 -108 43 -155t139.5 -47t139.5 46.5t43 155.5v934h321v-970q0 -211 -123 -300t-380 -89zM280 1431v116h578v-116h-578zM741 1604q-37 0 -63 26t-26 62t26 62t63 26q36 0 62 -26t26 -62t-26 -62t-62 -26zM396 1604
q-36 0 -62 26t-26 62t26 62t62 26t62 -26t26 -62t-26 -62t-62 -26z" />
    <glyph glyph-name="uni1E7B" unicode="&#x1e7b;" horiz-adv-x="1079" 
d="M703 0l-13 107q-122 -116 -309 -116q-206 0 -265.5 154.5t-59.5 388.5v657h317v-646q0 -202 32 -266.5t104 -64.5q74 0 123 73q42 62 48 160v743h317v-1190h-294zM243 1271v116h578v-116h-578zM704 1444q-37 0 -63 26t-26 62t26 62t63 26q36 0 62 -26t26 -62t-26 -62
t-62 -26zM359 1444q-36 0 -62 26t-26 62t26 62t62 26t62 -26t26 -62t-26 -62t-62 -26z" />
    <glyph glyph-name="Wgrave" unicode="&#x1e80;" horiz-adv-x="1698" 
d="M215 0l-183 1350h342l107 -1094l161 1094h396l161 -1095l112 1095h341l-186 -1350h-485l-140 1116l-143 -1116h-483zM877 1394l-203 202h214l135 -202h-146z" />
    <glyph glyph-name="wgrave" unicode="&#x1e81;" horiz-adv-x="1611" 
d="M225 0l-184 1190h327l91 -966l165 966h359l163 -964l90 964h326l-184 -1190h-455l-120 775l-119 -775h-459zM830 1234l-203 202h214l135 -202h-146z" />
    <glyph glyph-name="Wacute" unicode="&#x1e82;" horiz-adv-x="1698" 
d="M215 0l-183 1350h342l107 -1094l161 1094h396l161 -1095l112 1095h341l-186 -1350h-485l-140 1116l-143 -1116h-483zM675 1389l135 202h213l-202 -202h-146z" />
    <glyph glyph-name="wacute" unicode="&#x1e83;" horiz-adv-x="1611" 
d="M225 0l-184 1190h327l91 -966l165 966h359l163 -964l90 964h326l-184 -1190h-455l-120 775l-119 -775h-459zM629 1229l135 202h213l-202 -202h-146z" />
    <glyph glyph-name="Wdieresis" unicode="&#x1e84;" horiz-adv-x="1698" 
d="M215 0l-183 1350h342l107 -1094l161 1094h396l161 -1095l112 1095h341l-186 -1350h-485l-140 1116l-143 -1116h-483zM1020 1407q-37 0 -63 26t-26 62t26 62t63 26q36 0 62 -26t26 -62t-26 -62t-62 -26zM675 1407q-36 0 -62 26t-26 62t26 62t62 26t62 -26t26 -62t-26 -62
t-62 -26z" />
    <glyph glyph-name="wdieresis" unicode="&#x1e85;" horiz-adv-x="1611" 
d="M225 0l-184 1190h327l91 -966l165 966h359l163 -964l90 964h326l-184 -1190h-455l-120 775l-119 -775h-459zM974 1247q-37 0 -63 26t-26 62t26 62t63 26q36 0 62 -26t26 -62t-26 -62t-62 -26zM629 1247q-36 0 -62 26t-26 62t26 62t62 26t62 -26t26 -62t-26 -62t-62 -26z
" />
    <glyph glyph-name="uni1E8E" unicode="&#x1e8e;" horiz-adv-x="1159" 
d="M418 0v413l-400 937h346l215 -637l213 637h346l-399 -937v-413h-321zM578 1397q-39 0 -66 27t-27 66t27 66t66 27q38 0 65.5 -27t27.5 -66t-27 -66t-66 -27z" />
    <glyph glyph-name="uni1E8F" unicode="&#x1e8f;" horiz-adv-x="1059" 
d="M270 0l-251 1190h331l174 -913l173 913h330l-252 -1190q-56 -250 -222 -357t-459 -107v224q162 0 262 56q99 57 128 184h-214zM521 1237q-39 0 -66 27t-27 66t27 66t66 27q38 0 65.5 -27t27.5 -66t-27 -66t-66 -27z" />
    <glyph glyph-name="uni1E92" unicode="&#x1e92;" horiz-adv-x="930" 
d="M46 0v228l468 901h-456v221h792v-222l-468 -906h481v-222h-817zM465 -270q-39 0 -66 27t-27 66t27 66t66 27q38 0 65.5 -27t27.5 -66t-27 -66t-66 -27z" />
    <glyph glyph-name="uni1E93" unicode="&#x1e93;" horiz-adv-x="875" 
d="M52 0v216l423 753h-419v221h750v-215l-414 -754h422v-221h-762zM436 -313q-39 0 -66 27t-27 66t27 66t66 27q38 0 65.5 -27t27.5 -66t-27 -66t-66 -27z" />
    <glyph glyph-name="uni1E97" unicode="&#x1e97;" horiz-adv-x="861" 
d="M541 -14q-147 0 -233 61.5t-86 229.5v690h-203v223h203v262h318v-262h273v-223h-273v-623q0 -87 27 -112.5t84 -24.5q54 0 119 13v-217q-127 -17 -229 -17zM557 1507q-37 0 -63 26t-26 62t26 62t63 26q36 0 62 -26t26 -62t-26 -62t-62 -26zM212 1507q-36 0 -62 26t-26 62
t26 62t62 26t62 -26t26 -62t-26 -62t-62 -26z" />
    <glyph glyph-name="uni1E9E" unicode="&#x1e9e;" horiz-adv-x="1088" 
d="M58 0v1350h929v-206l-241 -398q149 -30 213.5 -116t64.5 -228q0 -99 -21.5 -175t-80.5 -127t-168 -76t-284 -24v219q125 -3 176 36.5t51 148.5q0 104 -62 152t-166 64v203l168 299h-258v-1122h-321z" />
    <glyph glyph-name="uni1EA0" unicode="&#x1ea0;" horiz-adv-x="1180" 
d="M43 0l302 1351h489l304 -1351h-329l-61 332h-315l-62 -332h-328zM471 550h239l-114 601h-10zM589 -313q-39 0 -66 27t-27 66t27 66t66 27q38 0 65.5 -27t27.5 -66t-27 -66t-66 -27z" />
    <glyph glyph-name="uni1EA1" unicode="&#x1ea1;" horiz-adv-x="1099" 
d="M756 0l-25 80q-5 -5 -11 -10q-94 -82 -291 -82q-182 0 -283 76.5t-101 289.5q0 197 97.5 277.5t317.5 80.5h245v39q0 127 -41.5 179t-117.5 52q-68 0 -113 -46.5t-55 -159.5l-316 63q20 193 133.5 278t342.5 85q320 0 403.5 -151t83.5 -415v-636h-269zM705 334v180h-153
q-108 0 -144.5 -38t-36.5 -118t32.5 -120t111.5 -40q84 0 137 38t53 98zM549 -313q-39 0 -66 27t-27 66t27 66t66 27q38 0 65.5 -27t27.5 -66t-27 -66t-66 -27z" />
    <glyph glyph-name="uni1EA2" unicode="&#x1ea2;" horiz-adv-x="1180" 
d="M43 0l302 1351h489l304 -1351h-329l-61 332h-315l-62 -332h-328zM471 550h239l-114 601h-10zM458 1692q192 0 281 -24t89 -95q0 -42 -30.5 -67.5t-75 -37t-86.5 -11.5v-54h-113v131q71 0 113.5 6.5t42.5 23.5q0 20 -48 24.5t-173 4.5v99z" />
    <glyph glyph-name="uni1EA3" unicode="&#x1ea3;" horiz-adv-x="1099" 
d="M756 0l-25 80q-5 -5 -11 -10q-94 -82 -291 -82q-182 0 -283 76.5t-101 289.5q0 197 97.5 277.5t317.5 80.5h245v39q0 127 -41.5 179t-117.5 52q-68 0 -113 -46.5t-55 -159.5l-316 63q20 193 133.5 278t342.5 85q320 0 403.5 -151t83.5 -415v-636h-269zM705 334v180h-153
q-108 0 -144.5 -38t-36.5 -118t32.5 -120t111.5 -40q84 0 137 38t53 98zM409 1532q192 0 281 -24t89 -95q0 -42 -30.5 -67.5t-75 -37t-86.5 -11.5v-54h-113v131q71 0 113.5 6.5t42.5 23.5q0 20 -48 24.5t-173 4.5v99z" />
    <glyph glyph-name="uni1EA4" unicode="&#x1ea4;" horiz-adv-x="1180" 
d="M43 0l302 1351h489l304 -1351h-329l-61 332h-315l-62 -332h-328zM471 550h239l-114 601h-10zM310 1400l178 201h202l178 -201h-172l-107 135l-108 -135h-171zM415 1639l135 202h213l-202 -202h-146z" />
    <glyph glyph-name="uni1EA5" unicode="&#x1ea5;" horiz-adv-x="1099" 
d="M756 0l-25 80q-5 -5 -11 -10q-94 -82 -291 -82q-182 0 -283 76.5t-101 289.5q0 197 97.5 277.5t317.5 80.5h245v39q0 127 -41.5 179t-117.5 52q-68 0 -113 -46.5t-55 -159.5l-316 63q20 193 133.5 278t342.5 85q320 0 403.5 -151t83.5 -415v-636h-269zM705 334v180h-153
q-108 0 -144.5 -38t-36.5 -118t32.5 -120t111.5 -40q84 0 137 38t53 98zM262 1240l178 201h202l178 -201h-172l-107 135l-108 -135h-171zM367 1480l135 202h213l-202 -202h-146z" />
    <glyph glyph-name="uni1EA6" unicode="&#x1ea6;" horiz-adv-x="1180" 
d="M43 0l302 1351h489l304 -1351h-329l-61 332h-315l-62 -332h-328zM471 550h239l-114 601h-10zM310 1400l178 201h202l178 -201h-172l-107 135l-108 -135h-171zM617 1644l-203 202h214l135 -202h-146z" />
    <glyph glyph-name="uni1EA7" unicode="&#x1ea7;" horiz-adv-x="1099" 
d="M756 0l-25 80q-5 -5 -11 -10q-94 -82 -291 -82q-182 0 -283 76.5t-101 289.5q0 197 97.5 277.5t317.5 80.5h245v39q0 127 -41.5 179t-117.5 52q-68 0 -113 -46.5t-55 -159.5l-316 63q20 193 133.5 278t342.5 85q320 0 403.5 -151t83.5 -415v-636h-269zM705 334v180h-153
q-108 0 -144.5 -38t-36.5 -118t32.5 -120t111.5 -40q84 0 137 38t53 98zM262 1240l178 201h202l178 -201h-172l-107 135l-108 -135h-171zM568 1485l-203 202h214l135 -202h-146z" />
    <glyph glyph-name="uni1EA8" unicode="&#x1ea8;" horiz-adv-x="1180" 
d="M43 0l302 1351h489l304 -1351h-329l-61 332h-315l-62 -332h-328zM471 550h239l-114 601h-10zM310 1400l178 201h202l178 -201h-172l-107 135l-108 -135h-171zM458 1942q192 0 281 -24t89 -95q0 -42 -30.5 -67.5t-75 -37t-86.5 -11.5v-54h-113v131q71 0 113.5 6.5
t42.5 23.5q0 20 -48 24.5t-173 4.5v99z" />
    <glyph glyph-name="uni1EA9" unicode="&#x1ea9;" horiz-adv-x="1099" 
d="M756 0l-25 80q-5 -5 -11 -10q-94 -82 -291 -82q-182 0 -283 76.5t-101 289.5q0 197 97.5 277.5t317.5 80.5h245v39q0 127 -41.5 179t-117.5 52q-68 0 -113 -46.5t-55 -159.5l-316 63q20 193 133.5 278t342.5 85q320 0 403.5 -151t83.5 -415v-636h-269zM705 334v180h-153
q-108 0 -144.5 -38t-36.5 -118t32.5 -120t111.5 -40q84 0 137 38t53 98zM262 1240l178 201h202l178 -201h-172l-107 135l-108 -135h-171zM409 1782q192 0 281 -24t89 -95q0 -42 -30.5 -67.5t-75 -37t-86.5 -11.5v-54h-113v131q71 0 113.5 6.5t42.5 23.5q0 20 -48 24.5
t-173 4.5v99z" />
    <glyph glyph-name="uni1EAA" unicode="&#x1eaa;" horiz-adv-x="1180" 
d="M43 0l302 1351h489l304 -1351h-329l-61 332h-315l-62 -332h-328zM471 550h239l-114 601h-10zM310 1400l178 201h202l178 -201h-172l-107 135l-108 -135h-171zM708 1657q-51 0 -85 18.5t-62 37t-57 18.5q-38 0 -51 -23t-14 -42h-151q1 31 14.5 75t54 77t122.5 33
q49 0 82.5 -18t60.5 -35.5t59 -17.5q33 0 48 23t16 41h150q-1 -30 -14.5 -74.5t-53 -78.5t-119.5 -34z" />
    <glyph glyph-name="uni1EAB" unicode="&#x1eab;" horiz-adv-x="1099" 
d="M756 0l-25 80q-5 -5 -11 -10q-94 -82 -291 -82q-182 0 -283 76.5t-101 289.5q0 197 97.5 277.5t317.5 80.5h245v39q0 127 -41.5 179t-117.5 52q-68 0 -113 -46.5t-55 -159.5l-316 63q20 193 133.5 278t342.5 85q320 0 403.5 -151t83.5 -415v-636h-269zM705 334v180h-153
q-108 0 -144.5 -38t-36.5 -118t32.5 -120t111.5 -40q84 0 137 38t53 98zM262 1240l178 201h202l178 -201h-172l-107 135l-108 -135h-171zM659 1498q-51 0 -85 18.5t-62 37t-57 18.5q-38 0 -51 -23t-14 -42h-151q1 31 14.5 75t54 77t122.5 33q49 0 82.5 -18t60.5 -35.5
t59 -17.5q33 0 48 23t16 41h150q-1 -30 -14.5 -74.5t-53 -78.5t-119.5 -34z" />
    <glyph glyph-name="uni1EAC" unicode="&#x1eac;" horiz-adv-x="1180" 
d="M43 0l302 1351h489l304 -1351h-329l-61 332h-315l-62 -332h-328zM471 550h239l-114 601h-10zM589 -313q-39 0 -66 27t-27 66t27 66t66 27q38 0 65.5 -27t27.5 -66t-27 -66t-66 -27zM310 1400l178 201h202l178 -201h-172l-107 135l-108 -135h-171z" />
    <glyph glyph-name="uni1EAD" unicode="&#x1ead;" horiz-adv-x="1099" 
d="M756 0l-25 80q-5 -5 -11 -10q-94 -82 -291 -82q-182 0 -283 76.5t-101 289.5q0 197 97.5 277.5t317.5 80.5h245v39q0 127 -41.5 179t-117.5 52q-68 0 -113 -46.5t-55 -159.5l-316 63q20 193 133.5 278t342.5 85q320 0 403.5 -151t83.5 -415v-636h-269zM705 334v180h-153
q-108 0 -144.5 -38t-36.5 -118t32.5 -120t111.5 -40q84 0 137 38t53 98zM549 -313q-39 0 -66 27t-27 66t27 66t66 27q38 0 65.5 -27t27.5 -66t-27 -66t-66 -27zM262 1240l178 201h202l178 -201h-172l-107 135l-108 -135h-171z" />
    <glyph glyph-name="uni1EAE" unicode="&#x1eae;" horiz-adv-x="1180" 
d="M43 0l302 1351h489l304 -1351h-329l-61 332h-315l-62 -332h-328zM471 550h239l-114 601h-10zM590 1393q-104 0 -162 54.5t-58 132.5h149q0 -80 71 -80q38 0 54 20.5t16 59.5h149q0 -78 -57 -132.5t-162 -54.5zM415 1619l135 202h213l-202 -202h-146z" />
    <glyph glyph-name="uni1EAF" unicode="&#x1eaf;" horiz-adv-x="1099" 
d="M756 0l-25 80q-5 -5 -11 -10q-94 -82 -291 -82q-182 0 -283 76.5t-101 289.5q0 197 97.5 277.5t317.5 80.5h245v39q0 127 -41.5 179t-117.5 52q-68 0 -113 -46.5t-55 -159.5l-316 63q20 193 133.5 278t342.5 85q320 0 403.5 -151t83.5 -415v-636h-269zM705 334v180h-153
q-108 0 -144.5 -38t-36.5 -118t32.5 -120t111.5 -40q84 0 137 38t53 98zM541 1234q-104 0 -162 54.5t-58 132.5h149q0 -80 71 -80q38 0 54 20.5t16 59.5h149q0 -78 -57 -132.5t-162 -54.5zM367 1460l135 202h213l-202 -202h-146z" />
    <glyph glyph-name="uni1EB0" unicode="&#x1eb0;" horiz-adv-x="1180" 
d="M43 0l302 1351h489l304 -1351h-329l-61 332h-315l-62 -332h-328zM471 550h239l-114 601h-10zM590 1393q-104 0 -162 54.5t-58 132.5h149q0 -80 71 -80q38 0 54 20.5t16 59.5h149q0 -78 -57 -132.5t-162 -54.5zM617 1624l-203 202h214l135 -202h-146z" />
    <glyph glyph-name="uni1EB1" unicode="&#x1eb1;" horiz-adv-x="1099" 
d="M756 0l-25 80q-5 -5 -11 -10q-94 -82 -291 -82q-182 0 -283 76.5t-101 289.5q0 197 97.5 277.5t317.5 80.5h245v39q0 127 -41.5 179t-117.5 52q-68 0 -113 -46.5t-55 -159.5l-316 63q20 193 133.5 278t342.5 85q320 0 403.5 -151t83.5 -415v-636h-269zM705 334v180h-153
q-108 0 -144.5 -38t-36.5 -118t32.5 -120t111.5 -40q84 0 137 38t53 98zM541 1234q-104 0 -162 54.5t-58 132.5h149q0 -80 71 -80q38 0 54 20.5t16 59.5h149q0 -78 -57 -132.5t-162 -54.5zM568 1465l-203 202h214l135 -202h-146z" />
    <glyph glyph-name="uni1EB2" unicode="&#x1eb2;" horiz-adv-x="1180" 
d="M43 0l302 1351h489l304 -1351h-329l-61 332h-315l-62 -332h-328zM471 550h239l-114 601h-10zM590 1393q-104 0 -162 54.5t-58 132.5h149q0 -80 71 -80q38 0 54 20.5t16 59.5h149q0 -78 -57 -132.5t-162 -54.5zM458 1922q192 0 281 -24t89 -95q0 -42 -30.5 -67.5t-75 -37
t-86.5 -11.5v-54h-113v131q71 0 113.5 6.5t42.5 23.5q0 20 -48 24.5t-173 4.5v99z" />
    <glyph glyph-name="uni1EB3" unicode="&#x1eb3;" horiz-adv-x="1099" 
d="M756 0l-25 80q-5 -5 -11 -10q-94 -82 -291 -82q-182 0 -283 76.5t-101 289.5q0 197 97.5 277.5t317.5 80.5h245v39q0 127 -41.5 179t-117.5 52q-68 0 -113 -46.5t-55 -159.5l-316 63q20 193 133.5 278t342.5 85q320 0 403.5 -151t83.5 -415v-636h-269zM705 334v180h-153
q-108 0 -144.5 -38t-36.5 -118t32.5 -120t111.5 -40q84 0 137 38t53 98zM541 1234q-104 0 -162 54.5t-58 132.5h149q0 -80 71 -80q38 0 54 20.5t16 59.5h149q0 -78 -57 -132.5t-162 -54.5zM409 1762q192 0 281 -24t89 -95q0 -42 -30.5 -67.5t-75 -37t-86.5 -11.5v-54h-113
v131q71 0 113.5 6.5t42.5 23.5q0 20 -48 24.5t-173 4.5v99z" />
    <glyph glyph-name="uni1EB4" unicode="&#x1eb4;" horiz-adv-x="1180" 
d="M43 0l302 1351h489l304 -1351h-329l-61 332h-315l-62 -332h-328zM471 550h239l-114 601h-10zM590 1393q-104 0 -162 54.5t-58 132.5h149q0 -80 71 -80q38 0 54 20.5t16 59.5h149q0 -78 -57 -132.5t-162 -54.5zM708 1637q-51 0 -85 18.5t-62 37t-57 18.5q-38 0 -51 -23
t-14 -42h-151q1 31 14.5 75t54 77t122.5 33q49 0 82.5 -18t60.5 -35.5t59 -17.5q33 0 48 23t16 41h150q-1 -30 -14.5 -74.5t-53 -78.5t-119.5 -34z" />
    <glyph glyph-name="uni1EB5" unicode="&#x1eb5;" horiz-adv-x="1099" 
d="M756 0l-25 80q-5 -5 -11 -10q-94 -82 -291 -82q-182 0 -283 76.5t-101 289.5q0 197 97.5 277.5t317.5 80.5h245v39q0 127 -41.5 179t-117.5 52q-68 0 -113 -46.5t-55 -159.5l-316 63q20 193 133.5 278t342.5 85q320 0 403.5 -151t83.5 -415v-636h-269zM705 334v180h-153
q-108 0 -144.5 -38t-36.5 -118t32.5 -120t111.5 -40q84 0 137 38t53 98zM541 1234q-104 0 -162 54.5t-58 132.5h149q0 -80 71 -80q38 0 54 20.5t16 59.5h149q0 -78 -57 -132.5t-162 -54.5zM659 1478q-51 0 -85 18.5t-62 37t-57 18.5q-38 0 -51 -23t-14 -42h-151
q1 31 14.5 75t54 77t122.5 33q49 0 82.5 -18t60.5 -35.5t59 -17.5q33 0 48 23t16 41h150q-1 -30 -14.5 -74.5t-53 -78.5t-119.5 -34z" />
    <glyph glyph-name="uni1EB6" unicode="&#x1eb6;" horiz-adv-x="1180" 
d="M43 0l302 1351h489l304 -1351h-329l-61 332h-315l-62 -332h-328zM471 550h239l-114 601h-10zM589 -313q-39 0 -66 27t-27 66t27 66t66 27q38 0 65.5 -27t27.5 -66t-27 -66t-66 -27zM590 1393q-104 0 -162 54.5t-58 132.5h149q0 -80 71 -80q38 0 54 20.5t16 59.5h149
q0 -78 -57 -132.5t-162 -54.5z" />
    <glyph glyph-name="uni1EB7" unicode="&#x1eb7;" horiz-adv-x="1099" 
d="M756 0l-25 80q-5 -5 -11 -10q-94 -82 -291 -82q-182 0 -283 76.5t-101 289.5q0 197 97.5 277.5t317.5 80.5h245v39q0 127 -41.5 179t-117.5 52q-68 0 -113 -46.5t-55 -159.5l-316 63q20 193 133.5 278t342.5 85q320 0 403.5 -151t83.5 -415v-636h-269zM705 334v180h-153
q-108 0 -144.5 -38t-36.5 -118t32.5 -120t111.5 -40q84 0 137 38t53 98zM549 -313q-39 0 -66 27t-27 66t27 66t66 27q38 0 65.5 -27t27.5 -66t-27 -66t-66 -27zM541 1234q-104 0 -162 54.5t-58 132.5h149q0 -80 71 -80q38 0 54 20.5t16 59.5h149q0 -78 -57 -132.5
t-162 -54.5z" />
    <glyph glyph-name="uni1EB8" unicode="&#x1eb8;" horiz-adv-x="909" 
d="M54 0v1350h788v-223h-467v-336h436v-214h-436v-354h467v-223h-788zM448 -313q-39 0 -66 27t-27 66t27 66t66 27q38 0 65.5 -27t27.5 -66t-27 -66t-66 -27z" />
    <glyph glyph-name="uni1EB9" unicode="&#x1eb9;" horiz-adv-x="1096" 
d="M545 -11q-322 0 -412 163t-90 440q0 287 90.5 448.5t407.5 161.5q323 0 409.5 -163t86.5 -441q0 -57 -4 -102h-677q9 -159 48 -217q50 -75 141 -75q65 0 114 49t60 160l294 -68q-21 -200 -143 -278t-325 -78zM355 695h366q-3 163 -46 226q-46 68 -134 68q-87 0 -138 -73
q-39 -56 -48 -221zM546 -313q-39 0 -66 27t-27 66t27 66t66 27q38 0 65.5 -27t27.5 -66t-27 -66t-66 -27z" />
    <glyph glyph-name="uni1EBA" unicode="&#x1eba;" horiz-adv-x="909" 
d="M54 0v1350h788v-223h-467v-336h436v-214h-436v-354h467v-223h-788zM316 1692q192 0 281 -24t89 -95q0 -42 -30.5 -67.5t-75 -37t-86.5 -11.5v-54h-113v131q71 0 113.5 6.5t42.5 23.5q0 20 -48 24.5t-173 4.5v99z" />
    <glyph glyph-name="uni1EBB" unicode="&#x1ebb;" horiz-adv-x="1096" 
d="M545 -11q-322 0 -412 163t-90 440q0 287 90.5 448.5t407.5 161.5q323 0 409.5 -163t86.5 -441q0 -57 -4 -102h-677q9 -159 48 -217q50 -75 141 -75q65 0 114 49t60 160l294 -68q-21 -200 -143 -278t-325 -78zM355 695h366q-3 163 -46 226q-46 68 -134 68q-87 0 -138 -73
q-39 -56 -48 -221zM410 1532q192 0 281 -24t89 -95q0 -42 -30.5 -67.5t-75 -37t-86.5 -11.5v-54h-113v131q71 0 113.5 6.5t42.5 23.5q0 20 -48 24.5t-173 4.5v99z" />
    <glyph glyph-name="uni1EBC" unicode="&#x1ebc;" horiz-adv-x="909" 
d="M54 0v1350h788v-223h-467v-336h436v-214h-436v-354h467v-223h-788zM567 1407q-51 0 -85 18.5t-62 37t-57 18.5q-38 0 -51 -23t-14 -42h-151q1 31 14.5 75t54 77t122.5 33q49 0 82.5 -18t60.5 -35.5t59 -17.5q33 0 48 23t16 41h150q-1 -30 -14.5 -74.5t-53 -78.5
t-119.5 -34z" />
    <glyph glyph-name="uni1EBD" unicode="&#x1ebd;" horiz-adv-x="1096" 
d="M545 -11q-322 0 -412 163t-90 440q0 287 90.5 448.5t407.5 161.5q323 0 409.5 -163t86.5 -441q0 -57 -4 -102h-677q9 -159 48 -217q50 -75 141 -75q65 0 114 49t60 160l294 -68q-21 -200 -143 -278t-325 -78zM355 695h366q-3 163 -46 226q-46 68 -134 68q-87 0 -138 -73
q-39 -56 -48 -221zM661 1247q-51 0 -85 18.5t-62 37t-57 18.5q-38 0 -51 -23t-14 -42h-151q1 31 14.5 75t54 77t122.5 33q49 0 82.5 -18t60.5 -35.5t59 -17.5q33 0 48 23t16 41h150q-1 -30 -14.5 -74.5t-53 -78.5t-119.5 -34z" />
    <glyph glyph-name="uni1EBE" unicode="&#x1ebe;" horiz-adv-x="909" 
d="M54 0v1350h788v-223h-467v-336h436v-214h-436v-354h467v-223h-788zM169 1400l178 201h202l178 -201h-172l-107 135l-108 -135h-171zM274 1639l135 202h213l-202 -202h-146z" />
    <glyph glyph-name="uni1EBF" unicode="&#x1ebf;" horiz-adv-x="1096" 
d="M545 -11q-322 0 -412 163t-90 440q0 287 90.5 448.5t407.5 161.5q323 0 409.5 -163t86.5 -441q0 -57 -4 -102h-677q9 -159 48 -217q50 -75 141 -75q65 0 114 49t60 160l294 -68q-21 -200 -143 -278t-325 -78zM355 695h366q-3 163 -46 226q-46 68 -134 68q-87 0 -138 -73
q-39 -56 -48 -221zM263 1240l178 201h202l178 -201h-172l-107 135l-108 -135h-171zM368 1480l135 202h213l-202 -202h-146z" />
    <glyph glyph-name="uni1EC0" unicode="&#x1ec0;" horiz-adv-x="909" 
d="M54 0v1350h788v-223h-467v-336h436v-214h-436v-354h467v-223h-788zM169 1400l178 201h202l178 -201h-172l-107 135l-108 -135h-171zM475 1644l-203 202h214l135 -202h-146z" />
    <glyph glyph-name="uni1EC1" unicode="&#x1ec1;" horiz-adv-x="1096" 
d="M545 -11q-322 0 -412 163t-90 440q0 287 90.5 448.5t407.5 161.5q323 0 409.5 -163t86.5 -441q0 -57 -4 -102h-677q9 -159 48 -217q50 -75 141 -75q65 0 114 49t60 160l294 -68q-21 -200 -143 -278t-325 -78zM355 695h366q-3 163 -46 226q-46 68 -134 68q-87 0 -138 -73
q-39 -56 -48 -221zM263 1240l178 201h202l178 -201h-172l-107 135l-108 -135h-171zM570 1485l-203 202h214l135 -202h-146z" />
    <glyph glyph-name="uni1EC2" unicode="&#x1ec2;" horiz-adv-x="909" 
d="M54 0v1350h788v-223h-467v-336h436v-214h-436v-354h467v-223h-788zM169 1400l178 201h202l178 -201h-172l-107 135l-108 -135h-171zM316 1942q192 0 281 -24t89 -95q0 -42 -30.5 -67.5t-75 -37t-86.5 -11.5v-54h-113v131q71 0 113.5 6.5t42.5 23.5q0 20 -48 24.5
t-173 4.5v99z" />
    <glyph glyph-name="uni1EC3" unicode="&#x1ec3;" horiz-adv-x="1096" 
d="M545 -11q-322 0 -412 163t-90 440q0 287 90.5 448.5t407.5 161.5q323 0 409.5 -163t86.5 -441q0 -57 -4 -102h-677q9 -159 48 -217q50 -75 141 -75q65 0 114 49t60 160l294 -68q-21 -200 -143 -278t-325 -78zM355 695h366q-3 163 -46 226q-46 68 -134 68q-87 0 -138 -73
q-39 -56 -48 -221zM263 1240l178 201h202l178 -201h-172l-107 135l-108 -135h-171zM410 1782q192 0 281 -24t89 -95q0 -42 -30.5 -67.5t-75 -37t-86.5 -11.5v-54h-113v131q71 0 113.5 6.5t42.5 23.5q0 20 -48 24.5t-173 4.5v99z" />
    <glyph glyph-name="uni1EC4" unicode="&#x1ec4;" horiz-adv-x="909" 
d="M54 0v1350h788v-223h-467v-336h436v-214h-436v-354h467v-223h-788zM169 1400l178 201h202l178 -201h-172l-107 135l-108 -135h-171zM567 1657q-51 0 -85 18.5t-62 37t-57 18.5q-38 0 -51 -23t-14 -42h-151q1 31 14.5 75t54 77t122.5 33q49 0 82.5 -18t60.5 -35.5
t59 -17.5q33 0 48 23t16 41h150q-1 -30 -14.5 -74.5t-53 -78.5t-119.5 -34z" />
    <glyph glyph-name="uni1EC5" unicode="&#x1ec5;" horiz-adv-x="1096" 
d="M545 -11q-322 0 -412 163t-90 440q0 287 90.5 448.5t407.5 161.5q323 0 409.5 -163t86.5 -441q0 -57 -4 -102h-677q9 -159 48 -217q50 -75 141 -75q65 0 114 49t60 160l294 -68q-21 -200 -143 -278t-325 -78zM355 695h366q-3 163 -46 226q-46 68 -134 68q-87 0 -138 -73
q-39 -56 -48 -221zM263 1240l178 201h202l178 -201h-172l-107 135l-108 -135h-171zM661 1498q-51 0 -85 18.5t-62 37t-57 18.5q-38 0 -51 -23t-14 -42h-151q1 31 14.5 75t54 77t122.5 33q49 0 82.5 -18t60.5 -35.5t59 -17.5q33 0 48 23t16 41h150q-1 -30 -14.5 -74.5
t-53 -78.5t-119.5 -34z" />
    <glyph glyph-name="uni1EC6" unicode="&#x1ec6;" horiz-adv-x="909" 
d="M54 0v1350h788v-223h-467v-336h436v-214h-436v-354h467v-223h-788zM448 -313q-39 0 -66 27t-27 66t27 66t66 27q38 0 65.5 -27t27.5 -66t-27 -66t-66 -27zM169 1400l178 201h202l178 -201h-172l-107 135l-108 -135h-171z" />
    <glyph glyph-name="uni1EC7" unicode="&#x1ec7;" horiz-adv-x="1096" 
d="M545 -11q-322 0 -412 163t-90 440q0 287 90.5 448.5t407.5 161.5q323 0 409.5 -163t86.5 -441q0 -57 -4 -102h-677q9 -159 48 -217q50 -75 141 -75q65 0 114 49t60 160l294 -68q-21 -200 -143 -278t-325 -78zM355 695h366q-3 163 -46 226q-46 68 -134 68q-87 0 -138 -73
q-39 -56 -48 -221zM546 -313q-39 0 -66 27t-27 66t27 66t66 27q38 0 65.5 -27t27.5 -66t-27 -66t-66 -27zM263 1240l178 201h202l178 -201h-172l-107 135l-108 -135h-171z" />
    <glyph glyph-name="uni1EC8" unicode="&#x1ec8;" horiz-adv-x="518" 
d="M91 0v1350h321v-1350h-321zM120 1692q192 0 281 -24t89 -95q0 -42 -30.5 -67.5t-75 -37t-86.5 -11.5v-54h-113v131q71 0 113.5 6.5t42.5 23.5q0 20 -48 24.5t-173 4.5v99z" />
    <glyph glyph-name="uni1EC9" unicode="&#x1ec9;" horiz-adv-x="477" 
d="M68 0v1191h320v-1191h-320zM97 1532q192 0 281 -24t89 -95q0 -42 -30.5 -67.5t-75 -37t-86.5 -11.5v-54h-113v131q71 0 113.5 6.5t42.5 23.5q0 20 -48 24.5t-173 4.5v99z" />
    <glyph glyph-name="uni1ECA" unicode="&#x1eca;" horiz-adv-x="518" 
d="M91 0v1350h321v-1350h-321zM252 -313q-39 0 -66 27t-27 66t27 66t66 27q38 0 65.5 -27t27.5 -66t-27 -66t-66 -27z" />
    <glyph glyph-name="uni1ECB" unicode="&#x1ecb;" horiz-adv-x="496" 
d="M77 0v1191h318v-1191h-318zM77 1542h318v-230h-318v230zM246 -313q-39 0 -66 27t-27 66t27 66t66 27q38 0 65.5 -27t27.5 -66t-27 -66t-66 -27z" />
    <glyph glyph-name="uni1ECC" unicode="&#x1ecc;" 
d="M568 -10q-337 0 -431 160t-94 525t94 525.5t431 160.5t431.5 -160.5t94.5 -525.5t-94.5 -525t-431.5 -160zM568 213q99 0 153 66.5t54 395.5q0 335 -54 399t-153 64q-98 0 -152 -64t-54 -399q0 -329 54 -395.5t152 -66.5zM570 -313q-39 0 -66 27t-27 66t27 66t66 27
q38 0 65.5 -27t27.5 -66t-27 -66t-66 -27z" />
    <glyph glyph-name="uni1ECD" unicode="&#x1ecd;" horiz-adv-x="1098" 
d="M542 -9q-316 0 -408 155.5t-92 451.5q0 298 92 451.5t408 153.5q315 0 407 -153.5t92 -451.5q0 -296 -92 -451.5t-407 -155.5zM542 211q85 0 133.5 71t48.5 315q0 245 -48.5 315.5t-133.5 70.5q-86 0 -134.5 -70.5t-48.5 -315.5q0 -244 48.5 -315t134.5 -71zM546 -313
q-39 0 -66 27t-27 66t27 66t66 27q38 0 65.5 -27t27.5 -66t-27 -66t-66 -27z" />
    <glyph glyph-name="uni1ECE" unicode="&#x1ece;" 
d="M568 -10q-337 0 -431 160t-94 525t94 525.5t431 160.5t431.5 -160.5t94.5 -525.5t-94.5 -525t-431.5 -160zM568 213q99 0 153 66.5t54 395.5q0 335 -54 399t-153 64q-98 0 -152 -64t-54 -399q0 -329 54 -395.5t152 -66.5zM439 1692q192 0 281 -24t89 -95
q0 -42 -30.5 -67.5t-75 -37t-86.5 -11.5v-54h-113v131q71 0 113.5 6.5t42.5 23.5q0 20 -48 24.5t-173 4.5v99z" />
    <glyph glyph-name="uni1ECF" unicode="&#x1ecf;" horiz-adv-x="1098" 
d="M542 -9q-316 0 -408 155.5t-92 451.5q0 298 92 451.5t408 153.5q315 0 407 -153.5t92 -451.5q0 -296 -92 -451.5t-407 -155.5zM542 211q85 0 133.5 71t48.5 315q0 245 -48.5 315.5t-133.5 70.5q-86 0 -134.5 -70.5t-48.5 -315.5q0 -244 48.5 -315t134.5 -71zM410 1532
q192 0 281 -24t89 -95q0 -42 -30.5 -67.5t-75 -37t-86.5 -11.5v-54h-113v131q71 0 113.5 6.5t42.5 23.5q0 20 -48 24.5t-173 4.5v99z" />
    <glyph glyph-name="uni1ED0" unicode="&#x1ed0;" 
d="M568 -10q-337 0 -431 160t-94 525t94 525.5t431 160.5t431.5 -160.5t94.5 -525.5t-94.5 -525t-431.5 -160zM568 213q99 0 153 66.5t54 395.5q0 335 -54 399t-153 64q-98 0 -152 -64t-54 -399q0 -329 54 -395.5t152 -66.5zM292 1400l178 201h202l178 -201h-172l-107 135
l-108 -135h-171zM396 1639l135 202h213l-202 -202h-146z" />
    <glyph glyph-name="uni1ED1" unicode="&#x1ed1;" horiz-adv-x="1098" 
d="M542 -9q-316 0 -408 155.5t-92 451.5q0 298 92 451.5t408 153.5q315 0 407 -153.5t92 -451.5q0 -296 -92 -451.5t-407 -155.5zM542 211q85 0 133.5 71t48.5 315q0 245 -48.5 315.5t-133.5 70.5q-86 0 -134.5 -70.5t-48.5 -315.5q0 -244 48.5 -315t134.5 -71zM263 1240
l178 201h202l178 -201h-172l-107 135l-108 -135h-171zM368 1480l135 202h213l-202 -202h-146z" />
    <glyph glyph-name="uni1ED2" unicode="&#x1ed2;" 
d="M568 -10q-337 0 -431 160t-94 525t94 525.5t431 160.5t431.5 -160.5t94.5 -525.5t-94.5 -525t-431.5 -160zM568 213q99 0 153 66.5t54 395.5q0 335 -54 399t-153 64q-98 0 -152 -64t-54 -399q0 -329 54 -395.5t152 -66.5zM292 1400l178 201h202l178 -201h-172l-107 135
l-108 -135h-171zM598 1644l-203 202h214l135 -202h-146z" />
    <glyph glyph-name="uni1ED3" unicode="&#x1ed3;" horiz-adv-x="1098" 
d="M542 -9q-316 0 -408 155.5t-92 451.5q0 298 92 451.5t408 153.5q315 0 407 -153.5t92 -451.5q0 -296 -92 -451.5t-407 -155.5zM542 211q85 0 133.5 71t48.5 315q0 245 -48.5 315.5t-133.5 70.5q-86 0 -134.5 -70.5t-48.5 -315.5q0 -244 48.5 -315t134.5 -71zM263 1240
l178 201h202l178 -201h-172l-107 135l-108 -135h-171zM569 1485l-203 202h214l135 -202h-146z" />
    <glyph glyph-name="uni1ED4" unicode="&#x1ed4;" 
d="M568 -10q-337 0 -431 160t-94 525t94 525.5t431 160.5t431.5 -160.5t94.5 -525.5t-94.5 -525t-431.5 -160zM568 213q99 0 153 66.5t54 395.5q0 335 -54 399t-153 64q-98 0 -152 -64t-54 -399q0 -329 54 -395.5t152 -66.5zM292 1400l178 201h202l178 -201h-172l-107 135
l-108 -135h-171zM439 1942q192 0 281 -24t89 -95q0 -42 -30.5 -67.5t-75 -37t-86.5 -11.5v-54h-113v131q71 0 113.5 6.5t42.5 23.5q0 20 -48 24.5t-173 4.5v99z" />
    <glyph glyph-name="uni1ED5" unicode="&#x1ed5;" horiz-adv-x="1098" 
d="M542 -9q-316 0 -408 155.5t-92 451.5q0 298 92 451.5t408 153.5q315 0 407 -153.5t92 -451.5q0 -296 -92 -451.5t-407 -155.5zM542 211q85 0 133.5 71t48.5 315q0 245 -48.5 315.5t-133.5 70.5q-86 0 -134.5 -70.5t-48.5 -315.5q0 -244 48.5 -315t134.5 -71zM263 1240
l178 201h202l178 -201h-172l-107 135l-108 -135h-171zM410 1783q192 0 281 -24t89 -95q0 -42 -30.5 -67.5t-75 -37t-86.5 -11.5v-54h-113v131q71 0 113.5 6.5t42.5 23.5q0 20 -48 24.5t-173 4.5v99z" />
    <glyph glyph-name="uni1ED6" unicode="&#x1ed6;" 
d="M568 -10q-337 0 -431 160t-94 525t94 525.5t431 160.5t431.5 -160.5t94.5 -525.5t-94.5 -525t-431.5 -160zM568 213q99 0 153 66.5t54 395.5q0 335 -54 399t-153 64q-98 0 -152 -64t-54 -399q0 -329 54 -395.5t152 -66.5zM292 1400l178 201h202l178 -201h-172l-107 135
l-108 -135h-171zM689 1657q-51 0 -85 18.5t-62 37t-57 18.5q-38 0 -51 -23t-14 -42h-151q1 31 14.5 75t54 77t122.5 33q49 0 82.5 -18t60.5 -35.5t59 -17.5q33 0 48 23t16 41h150q-1 -30 -14.5 -74.5t-53 -78.5t-119.5 -34z" />
    <glyph glyph-name="uni1ED7" unicode="&#x1ed7;" horiz-adv-x="1098" 
d="M542 -9q-316 0 -408 155.5t-92 451.5q0 298 92 451.5t408 153.5q315 0 407 -153.5t92 -451.5q0 -296 -92 -451.5t-407 -155.5zM542 211q85 0 133.5 71t48.5 315q0 245 -48.5 315.5t-133.5 70.5q-86 0 -134.5 -70.5t-48.5 -315.5q0 -244 48.5 -315t134.5 -71zM263 1240
l178 201h202l178 -201h-172l-107 135l-108 -135h-171zM661 1498q-51 0 -85 18.5t-62 37t-57 18.5q-38 0 -51 -23t-14 -42h-151q1 31 14.5 75t54 77t122.5 33q49 0 82.5 -18t60.5 -35.5t59 -17.5q33 0 48 23t16 41h150q-1 -30 -14.5 -74.5t-53 -78.5t-119.5 -34z" />
    <glyph glyph-name="uni1ED8" unicode="&#x1ed8;" 
d="M568 -10q-337 0 -431 160t-94 525t94 525.5t431 160.5t431.5 -160.5t94.5 -525.5t-94.5 -525t-431.5 -160zM568 213q99 0 153 66.5t54 395.5q0 335 -54 399t-153 64q-98 0 -152 -64t-54 -399q0 -329 54 -395.5t152 -66.5zM570 -313q-39 0 -66 27t-27 66t27 66t66 27
q38 0 65.5 -27t27.5 -66t-27 -66t-66 -27zM292 1400l178 201h202l178 -201h-172l-107 135l-108 -135h-171z" />
    <glyph glyph-name="uni1ED9" unicode="&#x1ed9;" horiz-adv-x="1098" 
d="M542 -9q-316 0 -408 155.5t-92 451.5q0 298 92 451.5t408 153.5q315 0 407 -153.5t92 -451.5q0 -296 -92 -451.5t-407 -155.5zM542 211q85 0 133.5 71t48.5 315q0 245 -48.5 315.5t-133.5 70.5q-86 0 -134.5 -70.5t-48.5 -315.5q0 -244 48.5 -315t134.5 -71zM546 -313
q-39 0 -66 27t-27 66t27 66t66 27q38 0 65.5 -27t27.5 -66t-27 -66t-66 -27zM263 1240l178 201h202l178 -201h-172l-107 135l-108 -135h-171z" />
    <glyph glyph-name="uni1EDA" unicode="&#x1eda;" 
d="M568 -10q-337 0 -431 160t-94 525t94 525.5t431 160.5t431.5 -160.5t94.5 -525.5t-94.5 -525t-431.5 -160zM568 213q99 0 153 66.5t54 395.5q0 335 -54 399t-153 64q-98 0 -152 -64t-54 -399q0 -329 54 -395.5t152 -66.5zM956 1203q106 0 145.5 42t39.5 128h176
q0 -138 -93 -205.5t-268 -67.5v103zM396 1389l135 202h213l-202 -202h-146z" />
    <glyph glyph-name="uni1EDB" unicode="&#x1edb;" horiz-adv-x="1289" 
d="M542 -9q-316 0 -408 155.5t-92 451.5q0 298 92 451.5t408 153.5q315 0 407 -153.5t92 -451.5q0 -296 -92 -451.5t-407 -155.5zM542 211q85 0 133.5 71t48.5 315q0 245 -48.5 315.5t-133.5 70.5q-86 0 -134.5 -70.5t-48.5 -315.5q0 -244 48.5 -315t134.5 -71zM921 1059
q106 0 145.5 42t39.5 128h176q0 -138 -93 -205.5t-268 -67.5v103zM368 1230l135 202h213l-202 -202h-146z" />
    <glyph glyph-name="uni1EDC" unicode="&#x1edc;" 
d="M568 -10q-337 0 -431 160t-94 525t94 525.5t431 160.5t431.5 -160.5t94.5 -525.5t-94.5 -525t-431.5 -160zM568 213q99 0 153 66.5t54 395.5q0 335 -54 399t-153 64q-98 0 -152 -64t-54 -399q0 -329 54 -395.5t152 -66.5zM956 1203q106 0 145.5 42t39.5 128h176
q0 -138 -93 -205.5t-268 -67.5v103zM598 1394l-203 202h214l135 -202h-146z" />
    <glyph glyph-name="uni1EDD" unicode="&#x1edd;" horiz-adv-x="1289" 
d="M542 -9q-316 0 -408 155.5t-92 451.5q0 298 92 451.5t408 153.5q315 0 407 -153.5t92 -451.5q0 -296 -92 -451.5t-407 -155.5zM542 211q85 0 133.5 71t48.5 315q0 245 -48.5 315.5t-133.5 70.5q-86 0 -134.5 -70.5t-48.5 -315.5q0 -244 48.5 -315t134.5 -71zM921 1059
q106 0 145.5 42t39.5 128h176q0 -138 -93 -205.5t-268 -67.5v103zM569 1235l-203 202h214l135 -202h-146z" />
    <glyph glyph-name="uni1EDE" unicode="&#x1ede;" 
d="M568 -10q-337 0 -431 160t-94 525t94 525.5t431 160.5t431.5 -160.5t94.5 -525.5t-94.5 -525t-431.5 -160zM568 213q99 0 153 66.5t54 395.5q0 335 -54 399t-153 64q-98 0 -152 -64t-54 -399q0 -329 54 -395.5t152 -66.5zM956 1203q106 0 145.5 42t39.5 128h176
q0 -138 -93 -205.5t-268 -67.5v103zM439 1692q192 0 281 -24t89 -95q0 -42 -30.5 -67.5t-75 -37t-86.5 -11.5v-54h-113v131q71 0 113.5 6.5t42.5 23.5q0 20 -48 24.5t-173 4.5v99z" />
    <glyph glyph-name="uni1EDF" unicode="&#x1edf;" horiz-adv-x="1289" 
d="M542 -9q-316 0 -408 155.5t-92 451.5q0 298 92 451.5t408 153.5q315 0 407 -153.5t92 -451.5q0 -296 -92 -451.5t-407 -155.5zM542 211q85 0 133.5 71t48.5 315q0 245 -48.5 315.5t-133.5 70.5q-86 0 -134.5 -70.5t-48.5 -315.5q0 -244 48.5 -315t134.5 -71zM921 1059
q106 0 145.5 42t39.5 128h176q0 -138 -93 -205.5t-268 -67.5v103zM410 1532q192 0 281 -24t89 -95q0 -42 -30.5 -67.5t-75 -37t-86.5 -11.5v-54h-113v131q71 0 113.5 6.5t42.5 23.5q0 20 -48 24.5t-173 4.5v99z" />
    <glyph glyph-name="uni1EE0" unicode="&#x1ee0;" 
d="M568 -10q-337 0 -431 160t-94 525t94 525.5t431 160.5t431.5 -160.5t94.5 -525.5t-94.5 -525t-431.5 -160zM568 213q99 0 153 66.5t54 395.5q0 335 -54 399t-153 64q-98 0 -152 -64t-54 -399q0 -329 54 -395.5t152 -66.5zM956 1203q106 0 145.5 42t39.5 128h176
q0 -138 -93 -205.5t-268 -67.5v103zM689 1407q-51 0 -85 18.5t-62 37t-57 18.5q-38 0 -51 -23t-14 -42h-151q1 31 14.5 75t54 77t122.5 33q49 0 82.5 -18t60.5 -35.5t59 -17.5q33 0 48 23t16 41h150q-1 -30 -14.5 -74.5t-53 -78.5t-119.5 -34z" />
    <glyph glyph-name="uni1EE1" unicode="&#x1ee1;" horiz-adv-x="1289" 
d="M542 -9q-316 0 -408 155.5t-92 451.5q0 298 92 451.5t408 153.5q315 0 407 -153.5t92 -451.5q0 -296 -92 -451.5t-407 -155.5zM542 211q85 0 133.5 71t48.5 315q0 245 -48.5 315.5t-133.5 70.5q-86 0 -134.5 -70.5t-48.5 -315.5q0 -244 48.5 -315t134.5 -71zM921 1059
q106 0 145.5 42t39.5 128h176q0 -138 -93 -205.5t-268 -67.5v103zM661 1248q-51 0 -85 18.5t-62 37t-57 18.5q-38 0 -51 -23t-14 -42h-151q1 31 14.5 75t54 77t122.5 33q49 0 82.5 -18t60.5 -35.5t59 -17.5q33 0 48 23t16 41h150q-1 -30 -14.5 -74.5t-53 -78.5t-119.5 -34z
" />
    <glyph glyph-name="uni1EE2" unicode="&#x1ee2;" 
d="M568 -10q-337 0 -431 160t-94 525t94 525.5t431 160.5t431.5 -160.5t94.5 -525.5t-94.5 -525t-431.5 -160zM568 213q99 0 153 66.5t54 395.5q0 335 -54 399t-153 64q-98 0 -152 -64t-54 -399q0 -329 54 -395.5t152 -66.5zM956 1203q106 0 145.5 42t39.5 128h176
q0 -138 -93 -205.5t-268 -67.5v103zM570 -313q-39 0 -66 27t-27 66t27 66t66 27q38 0 65.5 -27t27.5 -66t-27 -66t-66 -27z" />
    <glyph glyph-name="uni1EE3" unicode="&#x1ee3;" horiz-adv-x="1289" 
d="M542 -9q-316 0 -408 155.5t-92 451.5q0 298 92 451.5t408 153.5q315 0 407 -153.5t92 -451.5q0 -296 -92 -451.5t-407 -155.5zM542 211q85 0 133.5 71t48.5 315q0 245 -48.5 315.5t-133.5 70.5q-86 0 -134.5 -70.5t-48.5 -315.5q0 -244 48.5 -315t134.5 -71zM921 1059
q106 0 145.5 42t39.5 128h176q0 -138 -93 -205.5t-268 -67.5v103zM546 -313q-39 0 -66 27t-27 66t27 66t66 27q38 0 65.5 -27t27.5 -66t-27 -66t-66 -27z" />
    <glyph glyph-name="uni1EE4" unicode="&#x1ee4;" horiz-adv-x="1144" 
d="M565 -9q-258 0 -381 89t-123 300v970h321v-934q0 -108 43 -155t139.5 -47t139.5 46.5t43 155.5v934h321v-970q0 -211 -123 -300t-380 -89zM570 -313q-39 0 -66 27t-27 66t27 66t66 27q38 0 65.5 -27t27.5 -66t-27 -66t-66 -27z" />
    <glyph glyph-name="uni1EE5" unicode="&#x1ee5;" horiz-adv-x="1079" 
d="M703 0l-13 107q-122 -116 -309 -116q-206 0 -265.5 154.5t-59.5 388.5v657h317v-646q0 -202 32 -266.5t104 -64.5q74 0 123 73q42 62 48 160v743h317v-1190h-294zM535 -313q-39 0 -66 27t-27 66t27 66t66 27q38 0 65.5 -27t27.5 -66t-27 -66t-66 -27z" />
    <glyph glyph-name="uni1EE6" unicode="&#x1ee6;" horiz-adv-x="1144" 
d="M565 -9q-258 0 -381 89t-123 300v970h321v-934q0 -108 43 -155t139.5 -47t139.5 46.5t43 155.5v934h321v-970q0 -211 -123 -300t-380 -89zM438 1692q192 0 281 -24t89 -95q0 -42 -30.5 -67.5t-75 -37t-86.5 -11.5v-54h-113v131q71 0 113.5 6.5t42.5 23.5q0 20 -48 24.5
t-173 4.5v99z" />
    <glyph glyph-name="uni1EE7" unicode="&#x1ee7;" horiz-adv-x="1079" 
d="M703 0l-13 107q-122 -116 -309 -116q-206 0 -265.5 154.5t-59.5 388.5v657h317v-646q0 -202 32 -266.5t104 -64.5q74 0 123 73q42 62 48 160v743h317v-1190h-294zM401 1532q192 0 281 -24t89 -95q0 -42 -30.5 -67.5t-75 -37t-86.5 -11.5v-54h-113v131q71 0 113.5 6.5
t42.5 23.5q0 20 -48 24.5t-173 4.5v99z" />
    <glyph glyph-name="uni1EE8" unicode="&#x1ee8;" horiz-adv-x="1144" 
d="M565 -9q-258 0 -381 89t-123 300v970h321v-934q0 -108 43 -155t139.5 -47t139.5 46.5t43 155.5v934h321v-970q0 -211 -123 -300t-380 -89zM1066 1241q106 0 145.5 42t39.5 128h176q0 -138 -93 -205.5t-268 -67.5v103zM396 1389l135 202h213l-202 -202h-146z" />
    <glyph glyph-name="uni1EE9" unicode="&#x1ee9;" horiz-adv-x="1356" 
d="M703 0l-13 107q-122 -116 -309 -116q-206 0 -265.5 154.5t-59.5 388.5v657h317v-646q0 -202 32 -266.5t104 -64.5q74 0 123 73q42 62 48 160v743h317v-1190h-294zM994 1191q106 0 145.5 42t39.5 128h176q0 -138 -93 -205.5t-268 -67.5v103zM359 1229l135 202h213
l-202 -202h-146z" />
    <glyph glyph-name="uni1EEA" unicode="&#x1eea;" horiz-adv-x="1144" 
d="M565 -9q-258 0 -381 89t-123 300v970h321v-934q0 -108 43 -155t139.5 -47t139.5 46.5t43 155.5v934h321v-970q0 -211 -123 -300t-380 -89zM1066 1241q106 0 145.5 42t39.5 128h176q0 -138 -93 -205.5t-268 -67.5v103zM597 1394l-203 202h214l135 -202h-146z" />
    <glyph glyph-name="uni1EEB" unicode="&#x1eeb;" horiz-adv-x="1356" 
d="M703 0l-13 107q-122 -116 -309 -116q-206 0 -265.5 154.5t-59.5 388.5v657h317v-646q0 -202 32 -266.5t104 -64.5q74 0 123 73q42 62 48 160v743h317v-1190h-294zM994 1191q106 0 145.5 42t39.5 128h176q0 -138 -93 -205.5t-268 -67.5v103zM560 1234l-203 202h214
l135 -202h-146z" />
    <glyph glyph-name="uni1EEC" unicode="&#x1eec;" horiz-adv-x="1144" 
d="M565 -9q-258 0 -381 89t-123 300v970h321v-934q0 -108 43 -155t139.5 -47t139.5 46.5t43 155.5v934h321v-970q0 -211 -123 -300t-380 -89zM1066 1241q106 0 145.5 42t39.5 128h176q0 -138 -93 -205.5t-268 -67.5v103zM438 1692q192 0 281 -24t89 -95q0 -42 -30.5 -67.5
t-75 -37t-86.5 -11.5v-54h-113v131q71 0 113.5 6.5t42.5 23.5q0 20 -48 24.5t-173 4.5v99z" />
    <glyph glyph-name="uni1EED" unicode="&#x1eed;" horiz-adv-x="1356" 
d="M703 0l-13 107q-122 -116 -309 -116q-206 0 -265.5 154.5t-59.5 388.5v657h317v-646q0 -202 32 -266.5t104 -64.5q74 0 123 73q42 62 48 160v743h317v-1190h-294zM994 1191q106 0 145.5 42t39.5 128h176q0 -138 -93 -205.5t-268 -67.5v103zM401 1532q192 0 281 -24
t89 -95q0 -42 -30.5 -67.5t-75 -37t-86.5 -11.5v-54h-113v131q71 0 113.5 6.5t42.5 23.5q0 20 -48 24.5t-173 4.5v99z" />
    <glyph glyph-name="uni1EEE" unicode="&#x1eee;" horiz-adv-x="1144" 
d="M565 -9q-258 0 -381 89t-123 300v970h321v-934q0 -108 43 -155t139.5 -47t139.5 46.5t43 155.5v934h321v-970q0 -211 -123 -300t-380 -89zM1066 1241q106 0 145.5 42t39.5 128h176q0 -138 -93 -205.5t-268 -67.5v103zM688 1407q-51 0 -85 18.5t-62 37t-57 18.5
q-38 0 -51 -23t-14 -42h-151q1 31 14.5 75t54 77t122.5 33q49 0 82.5 -18t60.5 -35.5t59 -17.5q33 0 48 23t16 41h150q-1 -30 -14.5 -74.5t-53 -78.5t-119.5 -34z" />
    <glyph glyph-name="uni1EEF" unicode="&#x1eef;" horiz-adv-x="1356" 
d="M703 0l-13 107q-122 -116 -309 -116q-206 0 -265.5 154.5t-59.5 388.5v657h317v-646q0 -202 32 -266.5t104 -64.5q74 0 123 73q42 62 48 160v743h317v-1190h-294zM994 1191q106 0 145.5 42t39.5 128h176q0 -138 -93 -205.5t-268 -67.5v103zM652 1247q-51 0 -85 18.5
t-62 37t-57 18.5q-38 0 -51 -23t-14 -42h-151q1 31 14.5 75t54 77t122.5 33q49 0 82.5 -18t60.5 -35.5t59 -17.5q33 0 48 23t16 41h150q-1 -30 -14.5 -74.5t-53 -78.5t-119.5 -34z" />
    <glyph glyph-name="uni1EF0" unicode="&#x1ef0;" horiz-adv-x="1144" 
d="M565 -9q-258 0 -381 89t-123 300v970h321v-934q0 -108 43 -155t139.5 -47t139.5 46.5t43 155.5v934h321v-970q0 -211 -123 -300t-380 -89zM1066 1241q106 0 145.5 42t39.5 128h176q0 -138 -93 -205.5t-268 -67.5v103zM570 -313q-39 0 -66 27t-27 66t27 66t66 27
q38 0 65.5 -27t27.5 -66t-27 -66t-66 -27z" />
    <glyph glyph-name="uni1EF1" unicode="&#x1ef1;" horiz-adv-x="1356" 
d="M703 0l-13 107q-122 -116 -309 -116q-206 0 -265.5 154.5t-59.5 388.5v657h317v-646q0 -202 32 -266.5t104 -64.5q74 0 123 73q42 62 48 160v743h317v-1190h-294zM994 1191q106 0 145.5 42t39.5 128h176q0 -138 -93 -205.5t-268 -67.5v103zM535 -313q-39 0 -66 27t-27 66
t27 66t66 27q38 0 65.5 -27t27.5 -66t-27 -66t-66 -27z" />
    <glyph glyph-name="Ygrave" unicode="&#x1ef2;" horiz-adv-x="1159" 
d="M418 0v413l-400 937h346l215 -637l213 637h346l-399 -937v-413h-321zM606 1394l-203 202h214l135 -202h-146z" />
    <glyph glyph-name="ygrave" unicode="&#x1ef3;" horiz-adv-x="1059" 
d="M270 0l-251 1190h331l174 -913l173 913h330l-252 -1190q-56 -250 -222 -357t-459 -107v224q162 0 262 56q99 57 128 184h-214zM549 1234l-203 202h214l135 -202h-146z" />
    <glyph glyph-name="uni1EF4" unicode="&#x1ef4;" horiz-adv-x="1159" 
d="M418 0v413l-400 937h346l215 -637l213 637h346l-399 -937v-413h-321zM581 -313q-39 0 -66 27t-27 66t27 66t66 27q38 0 65.5 -27t27.5 -66t-27 -66t-66 -27z" />
    <glyph glyph-name="uni1EF5" unicode="&#x1ef5;" horiz-adv-x="1059" 
d="M270 0l-251 1190h331l174 -913l173 913h330l-252 -1190q-56 -250 -222 -357t-459 -107v224q162 0 262 56q99 57 128 184h-214zM787 -538q-39 0 -66 27t-27 66t27 66t66 27q38 0 65.5 -27t27.5 -66t-27 -66t-66 -27z" />
    <glyph glyph-name="uni1EF6" unicode="&#x1ef6;" horiz-adv-x="1159" 
d="M418 0v413l-400 937h346l215 -637l213 637h346l-399 -937v-413h-321zM446 1692q192 0 281 -24t89 -95q0 -42 -30.5 -67.5t-75 -37t-86.5 -11.5v-54h-113v131q71 0 113.5 6.5t42.5 23.5q0 20 -48 24.5t-173 4.5v99z" />
    <glyph glyph-name="uni1EF7" unicode="&#x1ef7;" horiz-adv-x="1059" 
d="M270 0l-251 1190h331l174 -913l173 913h330l-252 -1190q-56 -250 -222 -357t-459 -107v224q162 0 262 56q99 57 128 184h-214zM390 1532q192 0 281 -24t89 -95q0 -42 -30.5 -67.5t-75 -37t-86.5 -11.5v-54h-113v131q71 0 113.5 6.5t42.5 23.5q0 20 -48 24.5t-173 4.5v99z
" />
    <glyph glyph-name="uni1EF8" unicode="&#x1ef8;" horiz-adv-x="1159" 
d="M418 0v413l-400 937h346l215 -637l213 637h346l-399 -937v-413h-321zM697 1407q-51 0 -85 18.5t-62 37t-57 18.5q-38 0 -51 -23t-14 -42h-151q1 31 14.5 75t54 77t122.5 33q49 0 82.5 -18t60.5 -35.5t59 -17.5q33 0 48 23t16 41h150q-1 -30 -14.5 -74.5t-53 -78.5
t-119.5 -34z" />
    <glyph glyph-name="uni1EF9" unicode="&#x1ef9;" horiz-adv-x="1059" 
d="M270 0l-251 1190h331l174 -913l173 913h330l-252 -1190q-56 -250 -222 -357t-459 -107v224q162 0 262 56q99 57 128 184h-214zM640 1247q-51 0 -85 18.5t-62 37t-57 18.5q-38 0 -51 -23t-14 -42h-151q1 31 14.5 75t54 77t122.5 33q49 0 82.5 -18t60.5 -35.5t59 -17.5
q33 0 48 23t16 41h150q-1 -30 -14.5 -74.5t-53 -78.5t-119.5 -34z" />
    <glyph glyph-name="uni2007" unicode="&#x2007;" horiz-adv-x="1083" 
 />
    <glyph glyph-name="uni2008" unicode="&#x2008;" horiz-adv-x="430" 
 />
    <glyph glyph-name="uni2009" unicode="&#x2009;" horiz-adv-x="400" 
 />
    <glyph glyph-name="uni200A" unicode="&#x200a;" horiz-adv-x="286" 
 />
    <glyph glyph-name="uni200B" unicode="&#x200b;" horiz-adv-x="0" 
 />
    <glyph glyph-name="endash" unicode="&#x2013;" horiz-adv-x="842" 
d="M41 374v209h747v-209h-747z" />
    <glyph glyph-name="emdash" unicode="&#x2014;" horiz-adv-x="1002" 
d="M41 374v209h906v-209h-906z" />
    <glyph glyph-name="quoteleft" unicode="&#x2018;" horiz-adv-x="344" 
d="M40 846v246l70 258h197l-70 -276l30 36v-264h-227z" />
    <glyph glyph-name="quoteright" unicode="&#x2019;" horiz-adv-x="344" 
d="M298 1350v-246l-70 -258h-197l70 276l-30 -36v264h227z" />
    <glyph glyph-name="quotesinglbase" unicode="&#x201a;" horiz-adv-x="287" 
d="M43 -448v478h234v-478h-234z" />
    <glyph glyph-name="quotedblleft" unicode="&#x201c;" horiz-adv-x="614" 
d="M328 846v246l70 258h197l-70 -276l30 36v-264h-227zM33 846v246l70 258h197l-70 -276l30 36v-264h-227z" />
    <glyph glyph-name="quotedblright" unicode="&#x201d;" horiz-adv-x="614" 
d="M297 1350v-246l-70 -258h-197l70 276l-30 -36v264h227zM592 1350v-246l-70 -258h-197l70 276l-30 -36v264h227z" />
    <glyph glyph-name="quotedblbase" unicode="&#x201e;" horiz-adv-x="570" 
d="M146 -470v500h233v-500h-233z" />
    <glyph glyph-name="dagger" unicode="&#x2020;" horiz-adv-x="820" 
d="M273 -180v945h-237v207h237v376h261v-376h240v-207h-240v-945h-261z" />
    <glyph glyph-name="daggerdbl" unicode="&#x2021;" horiz-adv-x="823" 
d="M40 212v206h233v347h-237v207h237v376h261v-376h240v-207h-240v-347h244v-206h-244v-392h-261v392h-233z" />
    <glyph glyph-name="bullet" unicode="&#x2022;" horiz-adv-x="490" 
d="M239 472q-52 0 -96 27t-71 70.5t-27 94.5t27 95t71 71t96 27q51 0 95.5 -27t72 -71t27.5 -95t-27.5 -95t-71.5 -70.5t-96 -26.5z" />
    <glyph glyph-name="ellipsis" unicode="&#x2026;" horiz-adv-x="1291" 
d="M211 -20q-72 0 -122 49.5t-50 120.5t50 120t122 49q69 0 118.5 -49t49.5 -120t-49.5 -120.5t-118.5 -49.5zM643 -20q-72 0 -122 49.5t-50 120.5t50 120t122 49q69 0 118.5 -49t49.5 -120t-49.5 -120.5t-118.5 -49.5zM1069 -20q-72 0 -122 49.5t-50 120.5t50 120t122 49
q69 0 118.5 -49t49.5 -120t-49.5 -120.5t-118.5 -49.5z" />
    <glyph glyph-name="perthousand" unicode="&#x2030;" horiz-adv-x="1321" 
d="M1000 -10q-144 0 -219.5 51t-75.5 172v94q0 121 75 171.5t220 50.5t219.5 -50.5t74.5 -171.5v-94q0 -122 -74.5 -172.5t-219.5 -50.5zM380 827q-144 0 -219.5 51t-75.5 171v94q0 121 75 172t220 51t219.5 -50.5t74.5 -172.5v-94q0 -121 -74.5 -171.5t-219.5 -50.5z
M380 -10q-144 0 -219.5 51t-75.5 171v94q0 121 75 172t220 51t219.5 -50.5t74.5 -172.5v-94q0 -121 -74.5 -171.5t-219.5 -50.5zM63 549l-29 129l1233 239l28 -131zM999 119q46 0 67.5 18t21.5 68v110q0 49 -21.5 67t-67.5 18q-47 0 -68 -18t-21 -67v-110q0 -50 21 -68
t68 -18zM379 955q46 0 67.5 18t21.5 68v110q0 50 -21.5 68t-67.5 18q-47 0 -68 -18t-21 -68v-110q0 -50 21 -68t68 -18zM379 118q46 0 67.5 18t21.5 68v110q0 50 -21.5 68t-67.5 18q-47 0 -68 -18t-21 -68v-110q0 -50 21 -68t68 -18z" />
    <glyph glyph-name="guilsinglleft" unicode="&#x2039;" horiz-adv-x="741" 
d="M383 80l-349 414l349 414h321l-351 -414l351 -414h-321z" />
    <glyph glyph-name="guilsinglright" unicode="&#x203a;" horiz-adv-x="742" 
d="M35 80l351 414l-351 414h320l350 -414l-350 -414h-320z" />
    <glyph glyph-name="fraction" unicode="&#x2044;" horiz-adv-x="427" 
d="M-277 0l820 1348h162l-821 -1348h-161z" />
    <glyph glyph-name="uni2070" unicode="&#x2070;" horiz-adv-x="610" 
d="M301 743q-135 0 -200 38.5t-65 121.5v300q0 83 65 121.5t200 38.5t200 -38.5t65 -121.5v-300q0 -83 -65 -121.5t-200 -38.5zM301 853q60 0 87 14t27 46v280q0 33 -27 46.5t-87 13.5q-62 0 -88 -14t-26 -46v-280q0 -32 26.5 -46t87.5 -14z" />
    <glyph glyph-name="uni2074" unicode="&#x2074;" horiz-adv-x="629" 
d="M350 750v127h-324v105l226 376h246v-376h93v-105h-93v-127h-148zM189 982h161v272h-10z" />
    <glyph glyph-name="uni2075" unicode="&#x2075;" horiz-adv-x="612" 
d="M292 744q-166 0 -212.5 62.5t-46.5 132.5h150q0 -49 27.5 -68t87.5 -19q59 0 88 21t29 90q0 55 -28 76t-81 21q-58 0 -90 -19.5t-33 -41.5h-1v0h-149v359h517v-110h-368v-126q77 41 182 41q121 0 162 -57.5t41 -140.5q0 -92 -48.5 -156.5t-226.5 -64.5z" />
    <glyph glyph-name="uni2076" unicode="&#x2076;" horiz-adv-x="617" 
d="M299 744q-181 0 -222.5 78t-41.5 222q0 154 46 236.5t231 82.5q172 0 210.5 -64.5t38.5 -115.5h-149q-2 27 -23.5 50t-77.5 23q-61 0 -94 -33q-20 -21 -28 -104q70 40 177 40q126 0 165.5 -56t39.5 -139q0 -85 -43 -152.5t-229 -67.5zM185 995q2 -103 29 -122
q29 -21 92 -21t89 22t26 80q0 63 -26 84t-84 21t-91 -22q-30 -20 -35 -42z" />
    <glyph glyph-name="uni2077" unicode="&#x2077;" horiz-adv-x="561" 
d="M157 750q1 130 54.5 261.5t166.5 235.5l1 1h-355v110h513v-110q-113 -113 -165.5 -241.5t-52.5 -256.5h-162z" />
    <glyph glyph-name="uni2078" unicode="&#x2078;" horiz-adv-x="611" 
d="M304 743q-177 0 -223 66.5t-46 141.5q0 79 70 119q3 1 5 3q-65 34 -65 112q0 57 43.5 117.5t214.5 60.5q168 0 213.5 -60.5t45.5 -117.5q0 -77 -66 -112v0q3 -2 6 -3q69 -41 69 -119q0 -75 -48 -141.5t-219 -66.5zM303 852q61 0 89.5 21.5t28.5 64.5q0 46 -29.5 66
t-88.5 20t-89 -20t-30 -66q0 -43 29 -64.5t90 -21.5zM303 1121q58 0 85 19t27 54q0 28 -27 45t-85 17q-59 0 -86 -17t-27 -45q0 -35 27.5 -54t85.5 -19z" />
    <glyph glyph-name="uni2079" unicode="&#x2079;" horiz-adv-x="611" 
d="M299 744q-179 0 -215.5 66.5t-36.5 108.5h149q1 -36 23 -52t80 -16q60 0 92 31q21 21 28 105q-70 -39 -177 -39q-126 0 -166 63t-40 146q0 80 43.5 143t232.5 63q178 0 219.5 -83.5t41.5 -217.5q0 -144 -46 -231t-228 -87zM423 1112q-2 99 -28 120q-28 22 -91 22
q-62 0 -90 -22t-28 -78q0 -63 26.5 -84t85.5 -21t91 21q30 19 34 42z" />
    <glyph glyph-name="colonmonetary" unicode="&#x20a1;" horiz-adv-x="1110" 
d="M287 -147l33 166q-144 42 -198 147q-89 175 -89 513t89 510q89 171 421 172l23 128h147l-24 -137q50 -6 93 -19l29 156h147l-43 -225q34 -30 53 -70q81 -167 81 -398h-323q0 230 -44.5 286t-133.5 56q-92 0 -142 -62.5t-50 -396.5q0 -337 50.5 -400.5t141.5 -63.5
q88 0 133 57.5t45 282.5h323q0 -223 -81 -393q-60 -125 -259 -158l-30 -151h-148l28 139h-10q-45 0 -86 3l-28 -142h-148z" />
    <glyph glyph-name="franc" unicode="&#x20a3;" horiz-adv-x="846" 
d="M-59 395h109v955h752v-223h-431v-407h398v-214h-398v-111h187v-158h-187v-237h-321v237h-109v158z" />
    <glyph glyph-name="lira" unicode="&#x20a4;" horiz-adv-x="1080" 
d="M214 -26l-115 186q13 7 48 35.5t65.5 80t30.5 128.5q0 45 -4 87h-183v123h163q-6 26 -13 50.5t-14 48.5h-136v123h105q-5 31 -8.5 65t-3.5 73q0 97 39.5 186.5t135 146.5t265.5 57q113 0 191 -27.5t128 -70.5t77.5 -89.5t39.5 -83.5l-262 -88q-19 63 -58 107t-114 44
q-134 0 -134 -183q0 -37 3 -71t7 -66h286v-123h-264q5 -24 10 -48.5t9 -50.5h245v-123h-229q2 -36 2 -72q0 -60 -22 -114.5t-54 -96.5q24 7 49 11.5t49 4.5q53 0 91.5 -9.5t73 -18.5t77.5 -9q55 0 89.5 5.5t59.5 16.5l88 -205q-12 -5 -81 -15t-160 -10q-66 0 -109.5 12
t-90.5 23.5t-124 12.5q-89 0 -156 -17.5t-92 -35.5z" />
    <glyph glyph-name="uni20A6" unicode="&#x20a6;" horiz-adv-x="1304" 
d="M-32 765h90v585h512l183 -585h154l2 585h319v-585h91v-180h-91v-585h-511l-182 585h-159v-585h-318v585h-90v180zM376 765h103l-103 331v-331zM810 585l96 -307l1 307h-97z" />
    <glyph glyph-name="peseta" unicode="&#x20a7;" horiz-adv-x="1061" 
d="M-29 923h87v427h616q233 0 286 -150q44 -124 52 -277h81v-130h-81q-7 -158 -52 -284q-53 -150 -286 -150h-295v-359h-321v793h-87v130zM379 582h192q70 0 97 62q20 49 25 149h-314v-211zM379 923h314q-5 94 -25 141q-27 63 -97 63h-192v-204z" />
    <glyph glyph-name="uni20A9" unicode="&#x20a9;" horiz-adv-x="1702" 
d="M2 765h109l-79 585h342l57 -585h125l86 585h396l86 -585h127l60 585h341l-80 -585h114v-180h-139l-81 -585h-485l-73 585h-135l-75 -585h-483l-79 585h-134v180zM796 765h89l-44 351zM1151 585l48 -330l34 330h-82zM530 585h-81l32 -329z" />
    <glyph glyph-name="dong" unicode="&#x20ab;" horiz-adv-x="1096" 
d="M730 130l-15 83q-2 -1 -3 -2q-133 -88 -308 -88q-217 0 -289.5 167t-72.5 438t72.5 436.5t289.5 165.5q167 0 296 -81v140h-287v105h287v76h316v-76h111v-105h-111v-1259h-286zM700 546v361q-5 86 -52 140q-51 61 -126 61q-80 0 -120.5 -69.5t-40.5 -311.5
q0 -245 40.5 -314t120.5 -69q75 0 126 60q47 54 52 142zM48 59h969v-107h-969v107z" />
    </font>
</defs>
</svg>
