<?xml version="1.0" standalone="no"?>
<!DOCTYPE svg PUBLIC "-//W3C//DTD SVG 1.1//EN" "http://www.w3.org/Graphics/SVG/1.1/DTD/svg11.dtd" >
<svg xmlns="http://www.w3.org/2000/svg" xmlns:xlink="http://www.w3.org/1999/xlink" version="1.1">
<metadata>
Created by FontForge 20170731 at Wed Apr 22 05:53:22 2020
 By Aleksey,,,
Copyright 2020 The Anybody Project Authors (https://github.com/Etcetera-Type-Co/Anybody)
</metadata>
<defs>
<font id="Anybody-Regular" horiz-adv-x="0" >
  <font-face 
    font-family="Anybody"
    font-weight="400"
    font-stretch="normal"
    units-per-em="2000"
    panose-1="0 0 0 0 0 0 0 0 0 0"
    ascent="1600"
    descent="-400"
    x-height="1190"
    cap-height="1350"
    bbox="-224 -494 1867 1862"
    underline-thickness="83"
    underline-position="-333"
    unicode-range="U+000D-FB02"
  />
<missing-glyph horiz-adv-x="621" 
d="M100 146v1042h348v-1042h-348zM126 172h296v990h-296v-990zM202 564l-20 20l75 76l-75 76l20 20l75 -76l75 76l20 -20l-75 -76l75 -76l-20 -20l-75 76zM202 902l-20 20l75 76l-75 76l20 20l75 -76l75 76l20 -20l-75 -76l75 -76l-20 -20l-75 76zM202 226l-20 20l75 76
l-75 76l20 20l75 -76l75 76l20 -20l-75 -76l75 -76l-20 -20l-75 76z" />
    <glyph glyph-name="fi" unicode="fi" horiz-adv-x="1085" 
d="M207 0v1068h-183v122h184l-1 104q0 140 105.5 210.5t326.5 70.5h42v-118h-33q-146 0 -209 -38t-63 -127v-102h255v-122h-255v-1068h-169zM793 0v1191h171v-1191h-171zM793 1500h171v-165h-171v165z" />
    <glyph glyph-name="fl" unicode="fl" horiz-adv-x="1076" 
d="M207 0v1068h-183v122h184l-1 104q0 140 105.5 210.5t326.5 70.5h42v-118h-33q-146 0 -209 -38t-63 -127v-102h255v-122h-255v-1068h-169zM803 0v1570h170v-1570h-170z" />
    <glyph glyph-name="f_f" unicode="ff" horiz-adv-x="1405" 
d="M207 0v1068h-183v122h184l-1 104q0 140 105.5 210.5t326.5 70.5h42v-118h-33q-146 0 -209 -38t-63 -127v-102h255v-122h-255v-1068h-169zM893 0v1068h-183v122h184l-1 104q0 140 105.5 210.5t326.5 70.5h42v-118h-33q-146 0 -209 -38t-63 -127v-102h255v-122h-255v-1068
h-169z" />
    <glyph glyph-name="f_f_i" unicode="ffi" horiz-adv-x="1771" 
d="M207 0v1068h-183v122h184l-1 104q0 140 105.5 210.5t326.5 70.5h42v-118h-33q-146 0 -209 -38t-63 -127v-102h255v-122h-255v-1068h-169zM893 0v1068h-183v122h184l-1 104q0 140 105.5 210.5t326.5 70.5h42v-118h-33q-146 0 -209 -38t-63 -127v-102h255v-122h-255v-1068
h-169zM1479 0v1191h171v-1191h-171zM1479 1500h171v-165h-171v165z" />
    <glyph glyph-name="f_f_l" unicode="ffl" horiz-adv-x="1762" 
d="M207 0v1068h-183v122h184l-1 104q0 140 105.5 210.5t326.5 70.5h42v-118h-33q-146 0 -209 -38t-63 -127v-102h255v-122h-255v-1068h-169zM893 0v1068h-183v122h184l-1 104q0 140 105.5 210.5t326.5 70.5h42v-118h-33q-146 0 -209 -38t-63 -127v-102h255v-122h-255v-1068
h-169zM1489 0v1570h170v-1570h-170z" />
    <glyph glyph-name=".notdef" horiz-adv-x="621" 
d="M100 146v1042h348v-1042h-348zM126 172h296v990h-296v-990zM202 564l-20 20l75 76l-75 76l20 20l75 -76l75 76l20 -20l-75 -76l75 -76l-20 -20l-75 76zM202 902l-20 20l75 76l-75 76l20 20l75 -76l75 76l20 -20l-75 -76l75 -76l-20 -20l-75 76zM202 226l-20 20l75 76
l-75 76l20 20l75 -76l75 76l20 -20l-75 -76l75 -76l-20 -20l-75 76z" />
    <glyph glyph-name=".null" 
 />
    <glyph glyph-name="nonmarkingreturn" horiz-adv-x="666" 
 />
    <glyph glyph-name="NULL" 
 />
    <glyph glyph-name="NULL" 
 />
    <glyph glyph-name="CR" unicode="&#xd;" horiz-adv-x="309" 
 />
    <glyph glyph-name="space" unicode=" " horiz-adv-x="380" 
 />
    <glyph glyph-name="exclam" unicode="!" horiz-adv-x="335" 
d="M91 297l-12 1053h187l-12 -1053h-163zM159 -26q-46 0 -78 32t-32 77q0 46 32 77.5t78 31.5q45 0 77 -31.5t32 -77.5q0 -45 -32 -77t-77 -32z" />
    <glyph glyph-name="quotedbl" unicode="&#x22;" horiz-adv-x="355" 
d="M84 955v395h167v-395h-167z" />
    <glyph glyph-name="numbersign" unicode="#" horiz-adv-x="1043" 
d="M573 0l51 368h-314l-51 -368h-132l51 368h-144v107h159l55 396h-182v108h197l52 371h132l-52 -371h314l52 371h133l-52 -371h145v-108h-160l-55 -396h183v-107h-198l-51 -368h-133zM325 475h314l55 396h-314z" />
    <glyph glyph-name="dollar" unicode="$" horiz-adv-x="854" 
d="M376 -20v106q-132 12 -209 75q-95 78 -110 302l158 36q7 -176 65.5 -237.5t160.5 -61.5q111 0 158.5 46t47.5 138q0 117 -59 160t-198 77q-179 41 -253.5 104.5t-74.5 228.5q0 150 94 232q77 68 218 80v105h105v-104q156 -8 231 -81q86 -83 99 -286l-154 -35
q-7 155 -59.5 221t-159.5 66q-105 0 -154.5 -56t-49.5 -142q0 -108 61 -143.5t194 -68.5q180 -42 255 -112.5t75 -237.5q0 -164 -90 -237q-81 -65 -245 -71v-104h-106z" />
    <glyph glyph-name="percent" unicode="%" horiz-adv-x="1013" 
d="M290 826q-125 0 -186.5 49.5t-61.5 167.5v103q0 120 61.5 168.5t186.5 48.5q126 0 187.5 -48.5t61.5 -168.5v-103q0 -119 -61.5 -168t-187.5 -49zM748 -8q-125 0 -187 49.5t-62 167.5v103q0 120 62 168.5t187 48.5q126 0 187 -48.5t61 -168.5v-103q0 -119 -61 -168
t-187 -49zM69 0l751 1348h116l-751 -1348h-116zM290 902q70 0 102.5 30t32.5 108v109q0 79 -32.5 108.5t-102.5 29.5t-102.5 -29.5t-32.5 -108.5v-109q0 -78 32.5 -108t102.5 -30zM747 68q71 0 103 30t32 108v109q0 79 -32 108.5t-103 29.5q-70 0 -102 -29.5t-32 -108.5
v-109q0 -78 32 -108t102 -30z" />
    <glyph glyph-name="ampersand" unicode="&#x26;" horiz-adv-x="1115" 
d="M460 -11q-212 0 -321.5 90t-109.5 259q0 163 124 271q82 71 157 126q-37 49 -77 108q-62 93 -62 219q0 153 85.5 226.5t213.5 73.5q138 0 222 -74t84 -226q0 -134 -94 -217q-74 -67 -165 -130l308 -403q73 128 73 359h150q0 -317 -132 -479l147 -192h-187l-71 93
q-150 -104 -345 -104zM722 200l-331 431q-66 -46 -116 -97q-79 -79 -79 -187q0 -113 67 -173t208 -60q138 0 251 86zM435 818q70 45 118 93q63 62 63 151q0 94 -39 137.5t-106 43.5q-63 0 -101 -43t-38 -138q0 -90 41 -156q28 -45 62 -88z" />
    <glyph glyph-name="quotesingle" unicode="'" horiz-adv-x="224" 
d="M45 966v384h129v-384h-129z" />
    <glyph glyph-name="parenleft" unicode="(" horiz-adv-x="467" 
d="M286 -398q-26 32 -67.5 103t-83.5 186t-70.5 279.5t-28.5 383.5q0 220 28.5 385t70.5 281t83.5 187.5t67.5 103.5l129 -75q-25 -34 -63 -102.5t-75.5 -176t-62.5 -257.5t-25 -346q0 -195 25 -344t62.5 -256.5t75.5 -175.5t63 -102z" />
    <glyph glyph-name="parenright" unicode=")" horiz-adv-x="462" 
d="M165 -398l-129 74q25 34 63 102t75.5 175.5t62.5 256.5t25 344q0 196 -25 346t-62.5 257.5t-75.5 176t-63 102.5l129 75q26 -32 67.5 -103.5t83.5 -187.5t70.5 -281t28.5 -385q0 -219 -28.5 -383.5t-70.5 -279.5t-83.5 -186t-67.5 -103z" />
    <glyph glyph-name="asterisk" unicode="*" horiz-adv-x="408" 
d="M240 1050l-72 86l-37 -57l-65 33l48 73l-44 21l34 51l62 -30v134h64v-118l113 35l20 -62l-132 -41l63 -73z" />
    <glyph glyph-name="plus" unicode="+" horiz-adv-x="481" 
d="M184 224v201h-154v110h154v202h113v-202h152v-110h-152v-201h-113z" />
    <glyph glyph-name="comma" unicode="," horiz-adv-x="406" 
d="M28 -201l92 301h191l-180 -301h-103z" />
    <glyph glyph-name="hyphen" unicode="-" horiz-adv-x="650" 
d="M53 421v115h521v-115h-521z" />
    <glyph glyph-name="period" unicode="." horiz-adv-x="325" 
d="M155 -16q-46 0 -77.5 31.5t-31.5 76.5t31.5 76.5t77.5 31.5q44 0 75.5 -31.5t31.5 -76.5t-31.5 -76.5t-75.5 -31.5z" />
    <glyph glyph-name="slash" unicode="/" horiz-adv-x="566" 
d="M12 0l397 1348h145l-398 -1348h-144z" />
    <glyph glyph-name="zero" unicode="0" horiz-adv-x="805" 
d="M397 -12q-176 0 -260 72.5t-84 228.5v770q0 156 84 228.5t259 72.5t259 -73t84 -228v-770q0 -156 -83.5 -228.5t-258.5 -72.5zM397 110q90 0 130.5 45.5t40.5 145.5v746q0 100 -40.5 145t-131.5 45q-92 0 -132 -45t-40 -145v-746q0 -100 40.5 -145.5t132.5 -45.5z" />
    <glyph glyph-name="one" unicode="1" horiz-adv-x="747" 
d="M64 0v123h227v1088l-236 -64v130l261 75h144v-1229h225v-123h-621z" />
    <glyph glyph-name="two" unicode="2" horiz-adv-x="813" 
d="M57 0v101q0 108 68 231t217 254q134 128 185 228t51 233q0 115 -43 152.5t-126 37.5q-93 0 -138 -68.5t-45 -282.5h-170q0 224 64.5 349t287.5 125q217 0 279 -90t62 -224q0 -165 -75.5 -291.5t-201.5 -257.5q-129 -124 -182 -216.5t-53 -157.5h511v-123h-691z" />
    <glyph glyph-name="three" unicode="3" horiz-adv-x="835" 
d="M413 -12q-229 0 -291 114.5t-62 342.5h170q0 -213 42.5 -274.5t141.5 -61.5q98 0 140 59.5t42 236.5q0 117 -48.5 162.5t-178.5 48.5v114q130 4 178.5 52t48.5 163q0 173 -42.5 233.5t-139.5 60.5q-95 0 -139.5 -64t-44.5 -302h-170q0 248 64 367.5t289 119.5
q232 0 292 -105t60 -280q0 -134 -52.5 -214t-179.5 -86q129 -4 180.5 -82t51.5 -212q0 -185 -59.5 -289t-292.5 -104z" />
    <glyph glyph-name="four" unicode="4" horiz-adv-x="830" 
d="M473 0v331h-435v116l337 903h267v-902h130v-117h-130v-331h-169zM208 448h265v771z" />
    <glyph glyph-name="five" unicode="5" horiz-adv-x="809" 
d="M386 -11q-210 0 -273 116t-63 302h169q1 -174 42 -236t132 -62q89 0 133 65t44 306q0 214 -42 274t-123 60q-85 0 -134.5 -57.5t-51.5 -154.5v0v0h-169v748h669v-122h-500v-390q4 4 9 7q98 83 242 83q157 0 214 -105t57 -341q0 -260 -66.5 -376.5t-288.5 -116.5z" />
    <glyph glyph-name="six" unicode="6" horiz-adv-x="816" 
d="M395 -11q-227 0 -284.5 138.5t-57.5 491.5q0 441 64 591t295 150q215 0 268 -118t53 -245h-169q-2 111 -34.5 177.5t-117.5 66.5q-93 0 -141 -92q-34 -66 -44 -317q2 2 5 4q93 89 240 89q165 0 220.5 -104t55.5 -346q0 -240 -59.5 -363t-293.5 -123zM223 612v-17
q0 -328 43 -407.5t138 -79.5t133.5 70.5t38.5 286.5q0 228 -38.5 288t-125.5 60t-136 -63q-47 -58 -53 -138z" />
    <glyph glyph-name="seven" unicode="7" horiz-adv-x="746" 
d="M225 0q0 328 72.5 630t231.5 595l1 3h-492v122h671v-123q-160 -303 -230.5 -600t-70.5 -627h-183z" />
    <glyph glyph-name="eight" unicode="8" horiz-adv-x="807" 
d="M400 -13q-221 0 -285 119t-64 306q0 182 88 265q28 26 63 44q-31 16 -55 38q-83 76 -83 252q0 145 60.5 247t275.5 102q210 0 272 -102t62 -247q0 -175 -82 -252q-24 -22 -55 -38q36 -18 63 -44q87 -83 87 -265q0 -187 -66 -306t-281 -119zM399 108q92 0 135.5 66
t43.5 226q0 155 -41.5 210t-137.5 55q-95 0 -137 -55t-42 -210q0 -160 44 -226t135 -66zM399 775q93 0 131 53t38 192q0 114 -40.5 167t-128.5 53t-128.5 -53t-40.5 -167q0 -139 38.5 -192t130.5 -53z" />
    <glyph glyph-name="nine" unicode="9" horiz-adv-x="806" 
d="M394 -11q-224 0 -275 120t-51 242h170q1 -111 34 -177t122 -66t137 87q34 62 43 322l-5 -5q-93 -89 -240 -89q-165 0 -220.5 111t-55.5 352q0 235 59.5 354.5t296.5 119.5q225 0 282 -144t57 -487q0 -439 -64 -589.5t-290 -150.5zM578 733v20q0 331 -41.5 408.5
t-136.5 77.5q-96 0 -136.5 -70t-40.5 -286q0 -226 40 -286t127 -60q86 0 136 62q46 57 52 134z" />
    <glyph glyph-name="colon" unicode=":" horiz-adv-x="330" 
d="M155 -16q-46 0 -77.5 31.5t-31.5 76.5t31.5 76.5t77.5 31.5q44 0 75.5 -31.5t31.5 -76.5t-31.5 -76.5t-75.5 -31.5zM155 983q-46 0 -77.5 31.5t-31.5 76.5t31.5 76.5t77.5 31.5q44 0 75.5 -31.5t31.5 -76.5t-31.5 -76.5t-75.5 -31.5z" />
    <glyph glyph-name="semicolon" unicode=";" horiz-adv-x="378" 
d="M178 982q-46 0 -77.5 31.5t-31.5 76.5t31.5 76.5t77.5 31.5q44 0 75.5 -31.5t31.5 -76.5t-31.5 -76.5t-75.5 -31.5zM5 -118l92 301h191l-180 -301h-103z" />
    <glyph glyph-name="less" unicode="&#x3c;" horiz-adv-x="598" 
d="M544 -2l-511 421v134l511 422v-163l-429 -326l429 -325v-163z" />
    <glyph glyph-name="equal" unicode="=" horiz-adv-x="506" 
d="M27 627v108h431v-108h-431zM27 238v107h431v-107h-431z" />
    <glyph glyph-name="greater" unicode="&#x3e;" horiz-adv-x="597" 
d="M42 -2v163l429 325l-429 326v163l511 -422v-134z" />
    <glyph glyph-name="question" unicode="?" horiz-adv-x="797" 
d="M307 285q0 151 37 248.5t103 175.5q47 62 84.5 133t37.5 178q0 113 -37.5 170.5t-135.5 57.5q-94 0 -138.5 -66t-44.5 -227h-166q0 236 86 320.5t261 84.5q192 0 267 -79t75 -243q0 -139 -45.5 -228t-99.5 -154q-63 -77 -90 -167.5t-27 -203.5h-167zM393 -21
q-45 0 -77 31.5t-32 76.5t32 76.5t77 31.5q44 0 75.5 -31.5t31.5 -76.5t-31.5 -76.5t-75.5 -31.5z" />
    <glyph glyph-name="at" unicode="@" horiz-adv-x="1369" 
d="M610 -9q-153 0 -279 60t-200 195t-70 361q3 258 87 420t235 237.5t354 75.5q271 0 408 -140t133 -421q-3 -172 -49.5 -283.5t-121 -165.5t-161.5 -54q-71 0 -114.5 38.5t-37.5 92.5q-13 -45 -62.5 -75t-122.5 -30q-85 0 -145.5 85.5t-57.5 240.5q2 132 39.5 224
t96.5 140.5t126 48.5q70 0 106 -40.5t38 -70.5l9 94h82l-48 -562q-5 -56 23 -79.5t74 -23.5q80 0 130.5 103t53.5 312q4 241 -99 352.5t-317 111.5q-151 0 -267 -62t-182 -198t-68 -360q-3 -192 52 -307.5t150 -166.5t214 -51q95 0 157 24t94.5 51t38.5 36l93 -77
q-16 -20 -65 -52t-130.5 -58t-196.5 -26zM636 379q54 0 92 37t45 88l26 321q1 61 -35.5 95.5t-81.5 34.5q-41 0 -80.5 -40.5t-65 -112t-26.5 -163.5q-1 -110 34 -185t92 -75z" />
    <glyph glyph-name="A" unicode="A" horiz-adv-x="999" 
d="M48 0l316 1351h268l316 -1351h-176l-84 385h-379l-84 -385h-177zM331 505h336l-164 737h-8z" />
    <glyph glyph-name="B" unicode="B" horiz-adv-x="942" 
d="M63 0v1350h529q168 0 205.5 -96.5t37.5 -207.5q0 -118 -36 -210t-129 -97q97 -6 139.5 -106.5t42.5 -241.5q0 -164 -38.5 -277.5t-204.5 -113.5h-546zM235 123h327q70 0 94.5 73.5t24.5 208.5q0 123 -30.5 199t-116.5 76h-299v-557zM235 793h291q81 0 109 66.5t28 166.5
q0 92 -23 147.5t-98 55.5h-307v-436z" />
    <glyph glyph-name="C" unicode="C" horiz-adv-x="953" 
d="M464 -8q-253 0 -336 154t-83 532q0 377 82.5 529.5t335.5 152.5q252 0 327.5 -145t75.5 -406h-173q0 256 -55.5 342t-174.5 86q-122 0 -183.5 -94t-61.5 -465q0 -373 62 -468.5t183 -95.5q118 0 174 89t56 340h173q0 -254 -75.5 -402.5t-326.5 -148.5z" />
    <glyph glyph-name="D" unicode="D" horiz-adv-x="923" 
d="M63 0v1350h435q211 0 284.5 -140.5t73.5 -534.5t-73.5 -534.5t-284.5 -140.5h-435zM234 123h215q124 0 180 94t56 458q0 363 -56 458t-180 95h-215v-1105z" />
    <glyph glyph-name="E" unicode="E" horiz-adv-x="809" 
d="M64 0v1350h662v-122h-491v-477h465v-119h-465v-509h491v-123h-662z" />
    <glyph glyph-name="F" unicode="F" horiz-adv-x="764" 
d="M66 0v1350h636v-122h-464v-531h429v-119h-429v-578h-172z" />
    <glyph glyph-name="G" unicode="G" horiz-adv-x="971" 
d="M450 -8q-238 0 -317 156.5t-79 531.5q0 378 80 529t336 151q245 0 323 -145.5t78 -371.5h-172q-2 215 -54 304.5t-175 89.5q-126 0 -184.5 -94t-58.5 -470q0 -349 58.5 -454t183.5 -105q116 0 171 55t57 224v137h-212v111h386v-641h-107l-8 147q-64 -155 -306 -155z" />
    <glyph glyph-name="H" unicode="H" horiz-adv-x="937" 
d="M63 0v1350h172v-587h430v587h171v-1350h-171v640h-430v-640h-172z" />
    <glyph glyph-name="I" unicode="I" horiz-adv-x="409" 
d="M104 0v1350h171v-1350h-171z" />
    <glyph glyph-name="J" unicode="J" horiz-adv-x="912" 
d="M428 -11q-189 0 -282.5 80t-93.5 255v281h171v-255q0 -126 47 -183t158 -57q110 0 157.5 58t47.5 187v995h171v-1023q0 -175 -92.5 -256.5t-283.5 -81.5z" />
    <glyph glyph-name="K" unicode="K" horiz-adv-x="865" 
d="M63 0v1350h171v-627l393 627h190l-427 -676l429 -674h-190l-395 625v-625h-171z" />
    <glyph glyph-name="L" unicode="L" horiz-adv-x="731" 
d="M63 0v1350h172v-1228h431v-122h-603z" />
    <glyph glyph-name="M" unicode="M" horiz-adv-x="1252" 
d="M63 0v1350h281l263 -1149h2l262 1149h281v-1350h-170v1227h-4l-268 -1149h-205l-268 1149h-4v-1227h-170z" />
    <glyph glyph-name="N" unicode="N" horiz-adv-x="1063" 
d="M63 0v1350h279l448 -1213l2 1213h170v-1350h-278l-451 1224v-1224h-170z" />
    <glyph glyph-name="O" unicode="O" horiz-adv-x="992" 
d="M489 -9q-253 0 -344 150.5t-91 533.5q0 382 90.5 533.5t345 151.5t345 -151.5t90.5 -533.5q0 -383 -90.5 -533.5t-345.5 -150.5zM489 114q127 0 196 100t69 461q0 363 -69 462.5t-196 99.5q-126 0 -195 -99.5t-69 -462.5q0 -361 69 -461t195 -100z" />
    <glyph glyph-name="P" unicode="P" horiz-adv-x="884" 
d="M63 0v1350h458q188 0 239.5 -142t51.5 -338t-51.5 -337.5t-239.5 -141.5h-286v-391h-172zM235 513h231q102 0 138.5 93.5t36.5 263.5t-36.5 264t-138.5 94h-231v-715z" />
    <glyph glyph-name="Q" unicode="Q" horiz-adv-x="1007" 
d="M800 -187l-137 201q-74 -23 -174 -23q-253 0 -344 150.5t-91 533.5q0 382 90.5 533.5t345 151.5t345 -151.5t90.5 -533.5q0 -383 -91 -534q-21 -34 -50 -61l137 -202zM489 114q127 0 196 100t69 461q0 363 -69 462.5t-196 99.5q-126 0 -195 -99.5t-69 -462.5
q0 -361 69 -461t195 -100z" />
    <glyph glyph-name="R" unicode="R" horiz-adv-x="904" 
d="M63 0v1350h505q163 0 209 -114.5t46 -263.5q0 -148 -47 -258q-34 -79 -129 -101l175 -613h-182l-165 604h-240v-604h-172zM235 714h271q84 0 114.5 70.5t30.5 186.5q0 114 -30.5 185.5t-114.5 71.5h-271v-514z" />
    <glyph glyph-name="S" unicode="S" horiz-adv-x="929" 
d="M450 -9q-252 0 -326.5 120t-74.5 398h172q0 -257 55.5 -327t172.5 -70t173.5 62t56.5 162q0 130 -69 183.5t-212 96.5q-196 63 -272 138t-76 241q0 137 77 251t322 114q249 0 324.5 -124t75.5 -387h-172q0 248 -57.5 318.5t-171.5 70.5q-116 0 -173 -63.5t-57 -156.5
q0 -125 70 -179t211 -98q199 -63 275 -134t76 -244q0 -143 -76 -257.5t-324 -114.5z" />
    <glyph glyph-name="T" unicode="T" horiz-adv-x="880" 
d="M352 0v1228h-302v122h775v-122h-302v-1228h-171z" />
    <glyph glyph-name="U" unicode="U" horiz-adv-x="981" 
d="M478 -9q-200 0 -301.5 79.5t-101.5 273.5v1006h172v-984q0 -141 57.5 -197t174 -56t174 56t57.5 197v984h172v-1006q0 -194 -101.5 -273.5t-302.5 -79.5z" />
    <glyph glyph-name="V" unicode="V" horiz-adv-x="947" 
d="M330 0l-290 1350h175l249 -1242h1l250 1242h175l-291 -1350h-269z" />
    <glyph glyph-name="W" unicode="W" horiz-adv-x="1416" 
d="M240 0l-193 1350h183l153 -1220l206 1220h218l205 -1221l157 1221h182l-196 -1350h-262l-195 1230l-196 -1230h-262z" />
    <glyph glyph-name="X" unicode="X" horiz-adv-x="954" 
d="M27 0l302 668l-292 682h193l236 -609l236 609h193l-294 -682l303 -668h-192l-246 595l-246 -595h-193z" />
    <glyph glyph-name="Y" unicode="Y" horiz-adv-x="960" 
d="M388 0v474l-355 876h186l255 -708l253 708h186l-354 -877v-473h-171z" />
    <glyph glyph-name="Z" unicode="Z" horiz-adv-x="820" 
d="M53 0v126l485 1102h-477v122h658v-122l-485 -1106h507v-122h-688z" />
    <glyph glyph-name="bracketleft" unicode="[" horiz-adv-x="473" 
d="M49 -319v1756h359v-116h-218v-1523h218v-117h-359z" />
    <glyph glyph-name="backslash" unicode="\" horiz-adv-x="570" 
d="M381 0l-347 1348h152l348 -1348h-153z" />
    <glyph glyph-name="bracketright" unicode="]" horiz-adv-x="474" 
d="M48 -319v117h217v1523h-217v116h359v-1756h-359z" />
    <glyph glyph-name="asciicircum" unicode="^" horiz-adv-x="607" 
d="M48 1235l191 211h131l189 -209h-110l-145 165l-144 -167h-112z" />
    <glyph glyph-name="underscore" unicode="_" horiz-adv-x="929" 
d="M-2 -156v114h932v-114h-932z" />
    <glyph glyph-name="grave" unicode="`" horiz-adv-x="465" 
d="M239 1213l-152 156h124l114 -156h-86z" />
    <glyph glyph-name="a" unicode="a" horiz-adv-x="912" 
d="M678 0l-17 89q-16 -17 -36 -33q-85 -66 -247 -66t-241 91t-79 273q0 176 78 259t277 83h238v51q0 169 -48.5 251t-153.5 82q-91 0 -148 -73.5t-62 -218.5l-170 31q10 197 104 289.5t271 92.5q237 0 307.5 -136t70.5 -374v-691h-144zM651 248v338h-193q-131 0 -178 -56.5
t-47 -172.5q0 -112 43.5 -181.5t145.5 -69.5q101 0 165 44t64 98z" />
    <glyph glyph-name="b" unicode="b" horiz-adv-x="921" 
d="M77 0v1570h170v-480q13 13 28 25q105 86 254 86q175 0 246 -148t71 -456q0 -307 -71 -455.5t-246 -148.5q-149 0 -254 85q-19 15 -34 31l-13 -109h-151zM247 852v-511q5 -86 64 -153q65 -74 158 -74q99 0 152.5 96.5t53.5 386.5q0 288 -53.5 385t-152.5 97
q-93 0 -158 -74q-59 -68 -64 -153z" />
    <glyph glyph-name="c" unicode="c" horiz-adv-x="889" 
d="M440 -9q-235 0 -315 159.5t-80 443.5q0 308 80 457.5t315 149.5q220 0 289.5 -136t75.5 -310l-158 -36q-2 170 -53 264.5t-154 94.5q-106 0 -164.5 -102t-58.5 -382q0 -254 59 -367.5t164 -113.5q103 0 154 106t53 249l158 -37q-6 -147 -75.5 -293.5t-289.5 -146.5z" />
    <glyph glyph-name="d" unicode="d" horiz-adv-x="909" 
d="M667 0l-10 109q-15 -16 -34 -31q-105 -85 -254 -85q-175 0 -246 148.5t-71 455.5q0 308 71 456t246 148q149 0 254 -86q15 -12 28 -25v480h170v-1570h-154zM651 341v511q-5 85 -64 153q-65 74 -158 74q-99 0 -152.5 -97t-53.5 -385q0 -289 53.5 -386t152.5 -97
q93 0 158 74q59 68 64 153z" />
    <glyph glyph-name="e" unicode="e" horiz-adv-x="920" 
d="M450 -9q-236 0 -316 162t-80 442q0 307 82 456.5t313 149.5q236 0 313.5 -148t77.5 -453q0 -32 -2 -58h-616q5 -217 57 -319q58 -114 172 -114q89 0 150.5 77t66.5 236l158 -34q-10 -212 -109.5 -304.5t-266.5 -92.5zM222 653h449q-2 237 -56 332q-56 98 -166 98
q-108 0 -168 -101q-54 -91 -59 -329z" />
    <glyph glyph-name="f" unicode="f" horiz-adv-x="719" 
d="M207 0v1068h-183v122h184l-1 104q0 140 105.5 210.5t326.5 70.5h42v-118h-33q-146 0 -209 -38t-63 -127v-102h255v-122h-255v-1068h-169z" />
    <glyph glyph-name="g" unicode="g" horiz-adv-x="918" 
d="M435 -461q-189 0 -277.5 86.5t-88.5 288.5h167q0 -137 54.5 -198.5t144.5 -61.5q60 0 109 31t78.5 103.5t29.5 198.5v117q-14 -13 -29 -26q-105 -85 -254 -85q-175 0 -246 148.5t-71 455.5q0 308 71 456t246 148q149 0 254 -86q19 -15 34 -31l6 106h159v-1201
q0 -171 -45 -269.5t-131.5 -139.5t-210.5 -41zM652 847q-4 88 -65 158q-65 74 -158 74q-99 0 -152.5 -97t-53.5 -385q0 -289 53.5 -386t152.5 -97q93 0 158 74q61 70 65 159v500z" />
    <glyph glyph-name="h" unicode="h" horiz-adv-x="896" 
d="M77 0v1570h170v-497q7 9 16 19q99 109 259 109q170 0 228.5 -132t58.5 -356v-713h-169v711q0 202 -44.5 285t-137.5 83q-92 0 -153 -81q-49 -66 -58 -156v-842h-170z" />
    <glyph glyph-name="i" unicode="i" horiz-adv-x="389" 
d="M97 0v1191h171v-1191h-171zM97 1500h171v-165h-171v165z" />
    <glyph glyph-name="j" unicode="j" horiz-adv-x="405" 
d="M-95 -459v122q101 0 155 55.5t54 213.5v1259h169v-1252q0 -234 -96 -316t-282 -82zM114 1500h170v-165h-170v165z" />
    <glyph glyph-name="k" unicode="k" horiz-adv-x="871" 
d="M77 0v1570h170v-908l370 529h192l-298 -433l309 -758h-179l-246 629l-148 -202v-427h-170z" />
    <glyph glyph-name="l" unicode="l" horiz-adv-x="369" 
d="M96 0v1570h170v-1570h-170z" />
    <glyph glyph-name="m" unicode="m" horiz-adv-x="1345" 
d="M77 0v1190h158l9 -123q5 8 12 16q93 117 235 117q166 0 214 -123q10 -25 18 -52q17 29 39 57q93 118 235 118q166 0 213.5 -123t47.5 -295v-782h-170v762q0 158 -32.5 237t-117.5 79q-83 0 -134 -85q-47 -76 -51 -198v-13v-782h-170v762q0 158 -33 237t-118 79
q-83 0 -135 -85q-44 -74 -50 -191v-802h-170z" />
    <glyph glyph-name="n" unicode="n" horiz-adv-x="894" 
d="M77 0v1190h158l7 -121q9 12 19 23q99 109 259 109q170 0 228.5 -132t58.5 -356v-713h-169v711q0 202 -44.5 285t-137.5 83q-92 0 -153 -81q-45 -60 -57 -141v-857h-169z" />
    <glyph glyph-name="o" unicode="o" horiz-adv-x="923" 
d="M450 -9q-233 0 -315.5 144.5t-82.5 461.5q0 318 82.5 461.5t315.5 143.5t315.5 -143.5t82.5 -461.5q0 -317 -82.5 -461.5t-315.5 -144.5zM450 113q109 0 168.5 98t59.5 385q0 288 -59.5 386.5t-168.5 98.5t-168.5 -98.5t-59.5 -386.5q0 -287 59.5 -385t168.5 -98z" />
    <glyph glyph-name="p" unicode="p" horiz-adv-x="921" 
d="M77 -441v1631h159l6 -105q15 15 33 30q105 86 254 86q175 0 246 -148t71 -456q0 -307 -71 -455.5t-246 -148.5q-149 0 -254 85q-15 13 -29 26v-545h-169zM246 346q4 -89 65 -158q65 -74 158 -74q99 0 152.5 96.5t53.5 386.5q0 288 -53.5 385t-152.5 97q-93 0 -158 -74
q-61 -70 -65 -158v-501z" />
    <glyph glyph-name="q" unicode="q" horiz-adv-x="918" 
d="M650 -441v544q-12 -13 -27 -25q-105 -85 -254 -85q-175 0 -246 148.5t-71 455.5q0 308 71 456t246 148q149 0 254 -86q17 -14 32 -29l5 104h160v-1631h-170zM650 864q-8 78 -63 141q-65 74 -158 74q-99 0 -152.5 -97t-53.5 -385q0 -289 53.5 -386t152.5 -97q93 0 158 74
q55 63 63 141v535z" />
    <glyph glyph-name="r" unicode="r" horiz-adv-x="869" 
d="M613 637q0 260 -39.5 350.5t-125.5 90.5q-95 0 -148 -77q-49 -70 -54 -149v-852h-169v1190h159l6 -115q13 18 29 34q91 92 241 92q166 0 218 -135.5t52 -428.5h-169z" />
    <glyph glyph-name="s" unicode="s" horiz-adv-x="899" 
d="M449 -9q-182 0 -276.5 80t-110.5 307l158 37q7 -179 66 -241.5t160 -62.5q112 0 159 47t47 140q0 119 -59 163t-198 79q-179 42 -253.5 106.5t-74.5 232.5q0 153 93.5 237t282.5 84q187 0 272.5 -84.5t99.5 -290.5l-155 -36q-7 158 -59.5 225t-159.5 67
q-105 0 -154.5 -57t-49.5 -145q0 -110 61.5 -146t193.5 -69q180 -43 255 -115t75 -242q0 -168 -90 -242t-283 -74z" />
    <glyph glyph-name="t" unicode="t" horiz-adv-x="740" 
d="M463 -12q-109 0 -173 48.5t-64 189.5v841h-205v123h205v260h170v-260h287v-123h-287v-801q0 -97 31 -127t92 -30q53 0 110 12v-119q-88 -14 -166 -14z" />
    <glyph glyph-name="u" unicode="u" horiz-adv-x="901" 
d="M645 0l-8 124q-10 -13 -21 -25q-99 -110 -260 -110q-169 0 -228 132.5t-59 355.5v714h170v-711q0 -202 44 -285t138 -83q92 0 152 81q55 73 60 176v821h170v-1190h-158z" />
    <glyph glyph-name="v" unicode="v" horiz-adv-x="878" 
d="M307 0l-271 1191h179l218 -1079h1l218 1079h177l-270 -1191h-252z" />
    <glyph glyph-name="w" unicode="w" horiz-adv-x="1294" 
d="M231 0l-178 1190h176l129 -1070l186 1070h197l187 -1069l127 1069h175l-176 -1190h-248l-163 985l-162 -985h-250z" />
    <glyph glyph-name="x" unicode="x" horiz-adv-x="892" 
d="M25 0l286 595l-277 595h189l217 -525l215 525h188l-277 -595l285 -595h-190l-226 525l-222 -525h-188z" />
    <glyph glyph-name="y" unicode="y" horiz-adv-x="847" 
d="M283 0l-253 1190h178l211 -1038l211 1038h178l-254 -1190q-57 -261 -174.5 -361t-315.5 -100v123q128 0 209 72q82 72 124 266h-114z" />
    <glyph glyph-name="z" unicode="z" horiz-adv-x="743" 
d="M52 0v121l438 947h-430v122h605v-122l-433 -946h442v-122h-622z" />
    <glyph glyph-name="braceleft" unicode="{" horiz-adv-x="529" 
d="M456 -321q-68 0 -133.5 25.5t-108.5 89t-43 175.5v320q0 67 -22.5 107.5t-54.5 58t-60 17.5v119q28 0 60 17.5t54.5 58.5t22.5 108v341q0 116 44.5 179t110.5 87.5t130 24.5v-115q-24 0 -58 -14.5t-59.5 -57t-25.5 -125.5v-355q0 -64 -19.5 -103t-46.5 -60.5t-51 -30.5
t-34 -13q10 -5 34 -14.5t51 -31t46.5 -60.5t19.5 -103v-333q0 -84 25.5 -126t59.5 -56.5t58 -14.5v-115z" />
    <glyph glyph-name="bar" unicode="|" horiz-adv-x="261" 
d="M51 -226v1648h142v-1648h-142z" />
    <glyph glyph-name="braceright" unicode="}" horiz-adv-x="520" 
d="M47 -321v115q25 0 58.5 14.5t59.5 56.5t26 126v333q0 64 19.5 103t46.5 60.5t51 31t34 14.5q-10 4 -34 13t-51 30.5t-46.5 60.5t-19.5 103v355q0 83 -26 125.5t-59.5 57t-58.5 14.5v115q65 0 131 -24.5t110 -87.5t44 -179v-341q0 -67 22.5 -108t54.5 -58.5t60 -17.5v-119
q-28 0 -60 -17.5t-54.5 -58t-22.5 -107.5v-320q0 -112 -43 -175.5t-108.5 -89t-133.5 -25.5z" />
    <glyph glyph-name="asciitilde" unicode="~" horiz-adv-x="637" 
d="M445 596q-55 0 -88.5 19.5t-63 39t-72.5 19.5q-38 0 -67 -19.5t-41 -33.5l-83 84q19 22 67.5 52.5t112.5 30.5q51 0 83.5 -18.5t63 -37t77.5 -18.5q40 0 57 13t22 20l83 -86q-8 -13 -50 -39t-101 -26z" />
    <glyph glyph-name="uni00A0" unicode="&#xa0;" horiz-adv-x="309" 
 />
    <glyph glyph-name="exclamdown" unicode="&#xa1;" horiz-adv-x="318" 
d="M72 0l12 1053h163l13 -1053h-188zM164 1148q-48 0 -82 34t-34 82q0 47 34 81t82 34q47 0 81 -34t34 -81q0 -48 -34 -82t-81 -34z" />
    <glyph glyph-name="cent" unicode="&#xa2;" horiz-adv-x="880" 
d="M379 -20v107q-177 20 -245 152q-81 157 -81 434q0 302 81 448q68 124 245 143v106h120v-105q178 -14 239 -131q70 -132 76 -303l-158 -35q-2 166 -53 258.5t-155 92.5q-106 0 -164 -99.5t-58 -374.5q0 -248 58.5 -359t163.5 -111q104 0 155 103.5t53 244.5l158 -37
q-6 -144 -76 -287q-61 -127 -239 -142v-105h-120z" />
    <glyph glyph-name="sterling" unicode="&#xa3;" horiz-adv-x="898" 
d="M182 -22l-67 102q12 7 42.5 36.5t56.5 86t26 145.5q0 79 -9.5 142.5t-23.5 119.5h-151v113h121q-17 63 -30.5 131t-13.5 153q0 153 83 255t262 102q104 0 171.5 -32t106.5 -80.5t58 -99.5l-141 -50q-22 64 -66.5 105.5t-127.5 41.5q-84 0 -132 -64.5t-48 -180.5
q0 -80 12.5 -147.5t28.5 -133.5h287v-113h-261q12 -55 20 -117.5t8 -136.5q0 -80 -27.5 -144t-61.5 -107q28 9 59 15.5t60 6.5q73 0 117.5 -16t99.5 -16q46 -1 77.5 4.5t48.5 13.5l49 -113q-14 -6 -64 -13.5t-114 -6.5q-49 0 -85 9t-75.5 18.5t-98.5 9.5q-78 0 -128 -13
t-69 -26z" />
    <glyph glyph-name="currency" unicode="&#xa4;" horiz-adv-x="895" 
d="M437 190q-133 0 -212 38l-121 -122l-80 70l118 118q-6 8 -11 17q-67 120 -67 326q0 205 67 326q5 9 10 17l-117 117l80 70l120 -120q80 38 213 38t213 -38l120 120l79 -70l-117 -117q6 -8 11 -17q67 -122 67 -327q0 -206 -67 -326q-5 -9 -11 -17l117 -117l-79 -70
l-121 121q-80 -37 -212 -37zM437 298q111 0 157 75.5t46 263t-46 264t-156.5 76.5t-157 -76.5t-46.5 -264t46.5 -263t156.5 -75.5z" />
    <glyph glyph-name="yen" unicode="&#xa5;" horiz-adv-x="960" 
d="M159 456v99h196l-322 795h186l255 -708l253 708h186l-321 -795h196v-99h-229v-119h229v-99h-229v-238h-171v238h-229v99h229v119h-229z" />
    <glyph glyph-name="brokenbar" unicode="&#xa6;" horiz-adv-x="260" 
d="M51 -156v660h141v-660h-141zM51 764v658h141v-658h-141z" />
    <glyph glyph-name="section" unicode="&#xa7;" horiz-adv-x="904" 
d="M446 -278q-162 0 -246 70.5t-84 203.5v80h139v-78q0 -100 55 -139.5t135 -39.5q85 0 140.5 39t52.5 126q-1 66 -46.5 112t-119 87.5t-159.5 91.5q-71 36 -132 81t-98.5 104.5t-37.5 139.5q0 83 31.5 139t73 90.5t71.5 54.5q-32 31 -72 85.5t-38 130.5q1 117 89.5 188.5
t240.5 71.5q158 0 244 -73.5t86 -200.5v-80h-139v78q0 100 -54 140t-135 40q-85 0 -141 -42t-54 -127q1 -63 45 -107.5t113.5 -83.5t147.5 -87q73 -35 138.5 -81.5t107 -109t41.5 -144.5q0 -83 -34 -139t-75 -90.5t-62 -50.5q18 -18 44 -50t45 -75.5t16 -94.5
q-2 -121 -91.5 -190.5t-237.5 -69.5zM587 252q23 16 52 47t50.5 75.5t21.5 101.5q0 77 -60 132t-144 94q-48 35 -102.5 65.5t-102.5 64.5q-40 -24 -82 -78t-42 -143q0 -78 50.5 -130.5t126.5 -90.5q54 -41 114.5 -72.5t117.5 -65.5z" />
    <glyph glyph-name="dieresis" unicode="&#xa8;" horiz-adv-x="638" 
d="M434 1220q-26 0 -44.5 18.5t-18.5 44.5t18.5 44.5t44.5 18.5t44.5 -18.5t18.5 -44.5t-18.5 -44.5t-44.5 -18.5zM181 1220q-26 0 -44.5 18.5t-18.5 44.5t18.5 44.5t44.5 18.5t44.5 -18.5t18.5 -44.5t-18.5 -44.5t-44.5 -18.5z" />
    <glyph glyph-name="copyright" unicode="&#xa9;" horiz-adv-x="999" 
d="M490 -16q-156 0 -255.5 59t-147.5 163.5t-48 239.5v453q0 135 47 239t146.5 163.5t257.5 59.5t258 -60t147 -164t47 -238v-453q0 -135 -48 -239t-147.5 -163.5t-256.5 -59.5zM490 73q130 0 205.5 48.5t108 134t32.5 195.5v440q0 111 -32.5 197t-108.5 135t-205 49
q-128 0 -203.5 -49t-108.5 -135t-33 -196v-438q0 -173 78 -277t267 -104zM490 248q-111 0 -172.5 60.5t-61.5 176.5v367q0 122 61.5 183t172.5 61q114 0 175 -55.5t61 -169.5v-72h-97v54q0 42 -8.5 78t-38 58t-92.5 22q-61 0 -91 -24t-39 -63.5t-9 -87.5v-328q0 -47 9 -86.5
t38 -63.5t91 -24t92 24t39 61.5t9 78.5v51h97v-75q0 -111 -62 -168.5t-174 -57.5z" />
    <glyph glyph-name="ordfeminine" unicode="&#xaa;" horiz-adv-x="582" 
d="M401 831l-10 32v2q-54 -39 -150 -39q-99 0 -141 35.5t-42 105.5q0 62 37.5 104t145.5 50q66 5 150 6v2q0 87 -23 126t-95 39q-69 0 -99 -37t-30 -104l-78 20q1 88 45.5 139t166.5 51q131 0 173 -59.5t42 -174.5v-298h-92zM391 978v89q-64 0 -123 -3q-66 -4 -88 -30.5
t-22 -62.5q0 -41 24 -59t82 -18q65 0 96 21.5t31 62.5z" />
    <glyph glyph-name="guillemotleft" unicode="&#xab;" horiz-adv-x="938" 
d="M392 80l-354 414l354 414h175l-357 -414l357 -414h-175zM715 80l-354 414l354 414h176l-357 -414l357 -414h-176z" />
    <glyph glyph-name="logicalnot" unicode="&#xac;" horiz-adv-x="717" 
d="M553 255v174h-499v110h610v-284h-111z" />
    <glyph glyph-name="uni00AD" unicode="&#xad;" horiz-adv-x="460" 
d="M52 421v115h351v-115h-351z" />
    <glyph glyph-name="registered" unicode="&#xae;" horiz-adv-x="895" 
d="M438 491q-209 0 -306 106.5t-96 287.5v191q1 182 97 288.5t305 106.5q205 0 304 -102t99 -293l-1 -191q-1 -190 -99.5 -292t-302.5 -102zM438 575q150 0 228 69t78 246l1 178q0 179 -78.5 249t-228.5 70q-149 0 -227 -70t-79 -249v-177q-1 -180 77.5 -248t228.5 -68z
M277 681v606h216q70 0 98 -34t28 -99v-79q0 -48 -17.5 -83t-51.5 -44l73 -267h-89l-62 259h-110v-259h-85zM362 1007h115q26 0 41.5 15t15.5 68v51q0 41 -10.5 58.5t-54.5 17.5h-107v-210z" />
    <glyph glyph-name="macron" unicode="&#xaf;" horiz-adv-x="695" 
d="M97 1300v68h464v-68h-464z" />
    <glyph glyph-name="degree" unicode="&#xb0;" horiz-adv-x="260" 
d="M127 1184q-42 0 -71.5 30.5t-29.5 73.5q0 42 29.5 72t71.5 30t72 -30t30 -72q0 -43 -30 -73.5t-72 -30.5zM127 1242q18 0 31 13.5t13 32.5t-13 31.5t-31 12.5t-30.5 -12.5t-12.5 -31.5t12.5 -32.5t30.5 -13.5z" />
    <glyph glyph-name="plusminus" unicode="&#xb1;" horiz-adv-x="484" 
d="M184 414v201h-154v110h154v202h113v-202h152v-110h-152v-201h-113zM57.7676 166v110h355.154v-110h-355.154z" />
    <glyph glyph-name="uni00B2" unicode="&#xb2;" horiz-adv-x="525" 
d="M41 750v55q0 51 44 105t143 111q88 55 126 96.5t38 94.5q0 51 -33.5 67t-95.5 16q-69 0 -102 -32t-33 -113h-88q0 94 43 153t180 59q131 0 173.5 -45t42.5 -106q0 -71 -48 -125.5t-134 -113.5q-93 -54 -128.5 -91t-35.5 -64h346v-67h-438z" />
    <glyph glyph-name="uni00B3" unicode="&#xb3;" horiz-adv-x="545" 
d="M269 744q-143 0 -183.5 55t-40.5 153h87q0 -84 31 -112.5t106 -28.5t106 28t31 97q0 48 -35.5 66.5t-129.5 19.5v62q94 2 129.5 21t35.5 66q0 69 -31.5 97t-105.5 28q-71 0 -104 -30t-33 -122h-87q0 104 42.5 161t181.5 57q144 0 184 -49t40 -124q0 -58 -30 -95.5
t-115 -39.5q86 -2 115.5 -39t29.5 -93q0 -80 -39.5 -129t-184.5 -49z" />
    <glyph glyph-name="acute" unicode="&#xb4;" horiz-adv-x="462" 
d="M103 1213l115 156h123l-151 -156h-87z" />
    <glyph glyph-name="uni00B5" unicode="&#xb5;" horiz-adv-x="898" 
d="M69 -441v1632h170v-711q0 -202 44 -285t138 -83q92 0 152 81q55 73 60 176v821h170v-1190h-158l-8 124q-10 -13 -21 -25q-99 -110 -260 -110q-67 0 -117 21v-451h-170z" />
    <glyph glyph-name="paragraph" unicode="&#xb6;" horiz-adv-x="840" 
d="M376 -156v796h-15q-150 0 -239.5 86t-89.5 271q0 353 329 353h426v-1506h-114v1390h-183v-1390h-114z" />
    <glyph glyph-name="periodcentered" unicode="&#xb7;" horiz-adv-x="330" 
d="M155 583q-46 0 -77.5 31.5t-31.5 76.5t31.5 76.5t77.5 31.5q44 0 75.5 -31.5t31.5 -76.5t-31.5 -76.5t-75.5 -31.5z" />
    <glyph glyph-name="cedilla" unicode="&#xb8;" horiz-adv-x="569" 
d="M260 -279q-62 0 -118 14l25 75q16 -4 40.5 -7.5t52.5 -3.5q97 0 97 54q0 36 -44 36q-34 0 -66 -20l-66 11l34 120h73l-26 -84q16 11 40.5 18.5t54.5 7.5q44 0 73 -22t29 -67q0 -67 -61.5 -99.5t-137.5 -32.5z" />
    <glyph glyph-name="uni00B9" unicode="&#xb9;" horiz-adv-x="483" 
d="M47 750v67h151v465l-157 -31v70l170 37h74v-541h152v-67h-390z" />
    <glyph glyph-name="ordmasculine" unicode="&#xba;" horiz-adv-x="559" 
d="M278 826q-125 0 -186.5 49.5t-61.5 167.5v103q0 120 61.5 168.5t186.5 48.5q126 0 187 -48.5t61 -168.5v-103q0 -119 -61 -168t-187 -49zM278 902q70 0 102.5 30t32.5 108v109q0 79 -32.5 108.5t-102.5 29.5t-102.5 -29.5t-32.5 -108.5v-109q0 -78 32.5 -108t102.5 -30z
" />
    <glyph glyph-name="guillemotright" unicode="&#xbb;" horiz-adv-x="938" 
d="M360 80l356 414l-356 414h176l353 -414l-353 -414h-176zM36 80l357 414l-357 414h175l355 -414l-355 -414h-175z" />
    <glyph glyph-name="onequarter" unicode="&#xbc;" horiz-adv-x="1402" 
d="M47 750v67h151v465l-157 -31v70l170 37h74v-541h152v-67h-390zM259 0l732 1348h95l-731 -1348h-96zM1180 0v144h-291v64l234 400h143v-400h92v-64h-92v-144h-86zM987 208h193v337h-6z" />
    <glyph glyph-name="onehalf" unicode="&#xbd;" horiz-adv-x="1388" 
d="M47 750v67h151v465l-157 -31v70l170 37h74v-541h152v-67h-390zM259 0l732 1348h95l-731 -1348h-96zM903 0v55q0 51 44 105t143 111q88 55 126 96.5t38 94.5q0 51 -33.5 67t-95.5 16q-69 0 -102 -32t-33 -113h-88q0 94 43 153t180 59q131 0 173.5 -45t42.5 -106
q0 -71 -48 -125.5t-134 -113.5q-93 -54 -128.5 -91t-35.5 -64h346v-67h-438z" />
    <glyph glyph-name="threequarters" unicode="&#xbe;" horiz-adv-x="1464" 
d="M269 744q-143 0 -183.5 55t-40.5 153h87q0 -84 31 -112.5t106 -28.5t106 28t31 97q0 48 -35.5 66.5t-129.5 19.5v62q94 2 129.5 21t35.5 66q0 69 -31.5 97t-105.5 28q-71 0 -104 -30t-33 -122h-87q0 104 42.5 161t181.5 57q144 0 184 -49t40 -124q0 -58 -30 -95.5
t-115 -39.5q86 -2 115.5 -39t29.5 -93q0 -80 -39.5 -129t-184.5 -49zM321 0l732 1348h95l-731 -1348h-96zM1242 0v144h-291v64l234 400h143v-400h92v-64h-92v-144h-86zM1049 208h193v337h-6z" />
    <glyph glyph-name="questiondown" unicode="&#xbf;" horiz-adv-x="775" 
d="M460 1065q0 -151 -37 -248.5t-103 -175.5q-47 -62 -84.5 -133t-37.5 -178q0 -113 37.5 -170.5t135.5 -57.5q94 0 138.5 66t44.5 227h166q0 -236 -86 -320.5t-261 -84.5q-192 0 -267 79t-75 243q0 139 45.5 228t99.5 154q63 77 90 167.5t27 203.5h167zM374 1371
q45 0 77 -31.5t32 -76.5t-32 -76.5t-77 -31.5q-44 0 -75.5 31.5t-31.5 76.5t31.5 76.5t75.5 31.5z" />
    <glyph glyph-name="Agrave" unicode="&#xc0;" horiz-adv-x="999" 
d="M48 0l316 1351h268l316 -1351h-176l-84 385h-379l-84 -385h-177zM331 505h336l-164 737h-8zM530 1401l-152 156h124l114 -156h-86z" />
    <glyph glyph-name="Aacute" unicode="&#xc1;" horiz-adv-x="999" 
d="M48 0l316 1351h268l316 -1351h-176l-84 385h-379l-84 -385h-177zM331 505h336l-164 737h-8zM378 1389l115 156h123l-151 -156h-87z" />
    <glyph glyph-name="Acircumflex" unicode="&#xc2;" horiz-adv-x="999" 
d="M48 0l316 1351h268l316 -1351h-176l-84 385h-379l-84 -385h-177zM331 505h336l-164 737h-8zM285 1401l156 163h113l156 -163h-101l-111 118l-112 -118h-101z" />
    <glyph glyph-name="Atilde" unicode="&#xc3;" horiz-adv-x="999" 
d="M48 0l316 1351h268l316 -1351h-176l-84 385h-379l-84 -385h-177zM331 505h336l-164 737h-8zM588 1423q-41 0 -67.5 15t-48 30.5t-49.5 15.5q-32 0 -45.5 -18t-14.5 -34h-87q1 23 13 51.5t41 49.5t82 21q40 0 64 -15t46 -30t54 -15q29 0 43.5 18t15.5 34h86
q-1 -21 -11.5 -50t-39 -51t-82.5 -22z" />
    <glyph glyph-name="Adieresis" unicode="&#xc4;" horiz-adv-x="999" 
d="M48 0l316 1351h268l316 -1351h-176l-84 385h-379l-84 -385h-177zM331 505h336l-164 737h-8zM624 1415q-26 0 -44.5 18.5t-18.5 44.5t18.5 44.5t44.5 18.5t44.5 -18.5t18.5 -44.5t-18.5 -44.5t-44.5 -18.5zM371 1415q-26 0 -44.5 18.5t-18.5 44.5t18.5 44.5t44.5 18.5
t44.5 -18.5t18.5 -44.5t-18.5 -44.5t-44.5 -18.5z" />
    <glyph glyph-name="Aring" unicode="&#xc5;" horiz-adv-x="999" 
d="M48 0l316 1351h268l316 -1351h-176l-84 385h-379l-84 -385h-177zM331 505h336l-164 737h-8zM498 1385q-47 0 -78.5 32.5t-31.5 80.5q0 46 31 78.5t79 32.5q47 0 78.5 -32.5t31.5 -78.5q0 -47 -31.5 -80t-78.5 -33zM498 1453q18 0 30 12.5t12 32.5q0 19 -12 31t-30 12
t-30.5 -12t-12.5 -31q0 -20 12.5 -32.5t30.5 -12.5z" />
    <glyph glyph-name="AE" unicode="&#xc6;" horiz-adv-x="1407" 
d="M48 0l498 1350h778v-122h-491v-477h464v-119h-464v-509h491v-123h-662v307h-322l-111 -307h-181zM383 426h279v770z" />
    <glyph glyph-name="Ccedilla" unicode="&#xc7;" horiz-adv-x="953" 
d="M464 -8q-253 0 -336 154t-83 532q0 377 82.5 529.5t335.5 152.5q252 0 327.5 -145t75.5 -406h-173q0 256 -55.5 342t-174.5 86q-122 0 -183.5 -94t-61.5 -465q0 -373 62 -468.5t183 -95.5q118 0 174 89t56 340h173q0 -254 -75.5 -402.5t-326.5 -148.5zM470 -279
q-62 0 -118 14l25 75q16 -4 40.5 -7.5t52.5 -3.5q97 0 97 54q0 36 -44 36q-34 0 -66 -20l-66 11l34 120h73l-26 -84q16 11 40.5 18.5t54.5 7.5q44 0 73 -22t29 -67q0 -67 -61.5 -99.5t-137.5 -32.5z" />
    <glyph glyph-name="Egrave" unicode="&#xc8;" horiz-adv-x="809" 
d="M64 0v1350h662v-122h-491v-477h465v-119h-465v-509h491v-123h-662zM434 1401l-152 156h124l114 -156h-86z" />
    <glyph glyph-name="Eacute" unicode="&#xc9;" horiz-adv-x="809" 
d="M64 0v1350h662v-122h-491v-477h465v-119h-465v-509h491v-123h-662zM283 1389l115 156h123l-151 -156h-87z" />
    <glyph glyph-name="Ecircumflex" unicode="&#xca;" horiz-adv-x="809" 
d="M64 0v1350h662v-122h-491v-477h465v-119h-465v-509h491v-123h-662zM189 1401l156 163h113l156 -163h-101l-111 118l-112 -118h-101z" />
    <glyph glyph-name="Edieresis" unicode="&#xcb;" horiz-adv-x="809" 
d="M64 0v1350h662v-122h-491v-477h465v-119h-465v-509h491v-123h-662zM528 1415q-26 0 -44.5 18.5t-18.5 44.5t18.5 44.5t44.5 18.5t44.5 -18.5t18.5 -44.5t-18.5 -44.5t-44.5 -18.5zM275 1415q-26 0 -44.5 18.5t-18.5 44.5t18.5 44.5t44.5 18.5t44.5 -18.5t18.5 -44.5
t-18.5 -44.5t-44.5 -18.5z" />
    <glyph glyph-name="Igrave" unicode="&#xcc;" horiz-adv-x="409" 
d="M104 0v1350h171v-1350h-171zM222 1401l-152 156h124l114 -156h-86z" />
    <glyph glyph-name="Iacute" unicode="&#xcd;" horiz-adv-x="409" 
d="M104 0v1350h171v-1350h-171zM70 1389l115 156h123l-151 -156h-87z" />
    <glyph glyph-name="Icircumflex" unicode="&#xce;" horiz-adv-x="409" 
d="M104 0v1350h171v-1350h-171zM-23 1401l156 163h113l156 -163h-101l-111 118l-112 -118h-101z" />
    <glyph glyph-name="Idieresis" unicode="&#xcf;" horiz-adv-x="409" 
d="M104 0v1350h171v-1350h-171zM316 1415q-26 0 -44.5 18.5t-18.5 44.5t18.5 44.5t44.5 18.5t44.5 -18.5t18.5 -44.5t-18.5 -44.5t-44.5 -18.5zM63 1415q-26 0 -44.5 18.5t-18.5 44.5t18.5 44.5t44.5 18.5t44.5 -18.5t18.5 -44.5t-18.5 -44.5t-44.5 -18.5z" />
    <glyph glyph-name="Eth" unicode="&#xd0;" horiz-adv-x="955" 
d="M-8 619v115h104v616h434q211 0 284.5 -140.5t73.5 -534.5t-73.5 -534.5t-284.5 -140.5h-434v619h-104zM267 123h215q123 0 179 94t56 458q0 363 -56 458t-179 95h-215v-494h152v-115h-152v-496z" />
    <glyph glyph-name="Ntilde" unicode="&#xd1;" horiz-adv-x="1063" 
d="M63 0v1350h279l448 -1213l2 1213h170v-1350h-278l-451 1224v-1224h-170zM615 1423q-41 0 -67.5 15t-48 30.5t-49.5 15.5q-32 0 -45.5 -18t-14.5 -34h-87q1 23 13 51.5t41 49.5t82 21q40 0 64 -15t46 -30t54 -15q29 0 43.5 18t15.5 34h86q-1 -21 -11.5 -50t-39 -51
t-82.5 -22z" />
    <glyph glyph-name="Ograve" unicode="&#xd2;" horiz-adv-x="992" 
d="M489 -9q-253 0 -344 150.5t-91 533.5q0 382 90.5 533.5t345 151.5t345 -151.5t90.5 -533.5q0 -383 -90.5 -533.5t-345.5 -150.5zM489 114q127 0 196 100t69 461q0 363 -69 462.5t-196 99.5q-126 0 -195 -99.5t-69 -462.5q0 -361 69 -461t195 -100zM524 1401l-152 156h124
l114 -156h-86z" />
    <glyph glyph-name="Oacute" unicode="&#xd3;" horiz-adv-x="992" 
d="M489 -9q-253 0 -344 150.5t-91 533.5q0 382 90.5 533.5t345 151.5t345 -151.5t90.5 -533.5q0 -383 -90.5 -533.5t-345.5 -150.5zM489 114q127 0 196 100t69 461q0 363 -69 462.5t-196 99.5q-126 0 -195 -99.5t-69 -462.5q0 -361 69 -461t195 -100zM373 1389l115 156h123
l-151 -156h-87z" />
    <glyph glyph-name="Ocircumflex" unicode="&#xd4;" horiz-adv-x="992" 
d="M489 -9q-253 0 -344 150.5t-91 533.5q0 382 90.5 533.5t345 151.5t345 -151.5t90.5 -533.5q0 -383 -90.5 -533.5t-345.5 -150.5zM489 114q127 0 196 100t69 461q0 363 -69 462.5t-196 99.5q-126 0 -195 -99.5t-69 -462.5q0 -361 69 -461t195 -100zM280 1401l156 163h113
l156 -163h-101l-111 118l-112 -118h-101z" />
    <glyph glyph-name="Otilde" unicode="&#xd5;" horiz-adv-x="992" 
d="M489 -9q-253 0 -344 150.5t-91 533.5q0 382 90.5 533.5t345 151.5t345 -151.5t90.5 -533.5q0 -383 -90.5 -533.5t-345.5 -150.5zM489 114q127 0 196 100t69 461q0 363 -69 462.5t-196 99.5q-126 0 -195 -99.5t-69 -462.5q0 -361 69 -461t195 -100zM583 1423
q-41 0 -67.5 15t-48 30.5t-49.5 15.5q-32 0 -45.5 -18t-14.5 -34h-87q1 23 13 51.5t41 49.5t82 21q40 0 64 -15t46 -30t54 -15q29 0 43.5 18t15.5 34h86q-1 -21 -11.5 -50t-39 -51t-82.5 -22z" />
    <glyph glyph-name="Odieresis" unicode="&#xd6;" horiz-adv-x="992" 
d="M489 -9q-253 0 -344 150.5t-91 533.5q0 382 90.5 533.5t345 151.5t345 -151.5t90.5 -533.5q0 -383 -90.5 -533.5t-345.5 -150.5zM489 114q127 0 196 100t69 461q0 363 -69 462.5t-196 99.5q-126 0 -195 -99.5t-69 -462.5q0 -361 69 -461t195 -100zM619 1415
q-26 0 -44.5 18.5t-18.5 44.5t18.5 44.5t44.5 18.5t44.5 -18.5t18.5 -44.5t-18.5 -44.5t-44.5 -18.5zM366 1415q-26 0 -44.5 18.5t-18.5 44.5t18.5 44.5t44.5 18.5t44.5 -18.5t18.5 -44.5t-18.5 -44.5t-44.5 -18.5z" />
    <glyph glyph-name="multiply" unicode="&#xd7;" horiz-adv-x="448" 
d="M339 279l-116 119l-116 -119l-79 79l118 119l-117 119l79 76l115 -117l115 117l78 -76l-116 -119l118 -119z" />
    <glyph glyph-name="Oslash" unicode="&#xd8;" horiz-adv-x="912" 
d="M46 0l89 158q-81 154 -81 517q0 382 90.5 533.5t344.5 151.5q183 0 281 -78l37 66h82l-68 -120q7 -10 13 -20q91 -151 91 -533q0 -383 -90.5 -533.5t-345.5 -150.5q-208 0 -307 102l-52 -93h-84zM489 114q127 0 196 100t69 461q0 250 -33 375l-448 -796q10 -24 21 -40
q69 -100 195 -100zM246 355l441 780q-1 1 -2 3q-69 99 -196 99q-126 0 -195 -99.5t-69 -462.5q0 -200 21 -320z" />
    <glyph glyph-name="Ugrave" unicode="&#xd9;" horiz-adv-x="981" 
d="M478 -9q-200 0 -301.5 79.5t-101.5 273.5v1006h172v-984q0 -141 57.5 -197t174 -56t174 56t57.5 197v984h172v-1006q0 -194 -101.5 -273.5t-302.5 -79.5zM515 1401l-152 156h124l114 -156h-86z" />
    <glyph glyph-name="Uacute" unicode="&#xda;" horiz-adv-x="981" 
d="M478 -9q-200 0 -301.5 79.5t-101.5 273.5v1006h172v-984q0 -141 57.5 -197t174 -56t174 56t57.5 197v984h172v-1006q0 -194 -101.5 -273.5t-302.5 -79.5zM364 1389l115 156h123l-151 -156h-87z" />
    <glyph glyph-name="Ucircumflex" unicode="&#xdb;" horiz-adv-x="981" 
d="M478 -9q-200 0 -301.5 79.5t-101.5 273.5v1006h172v-984q0 -141 57.5 -197t174 -56t174 56t57.5 197v984h172v-1006q0 -194 -101.5 -273.5t-302.5 -79.5zM270 1401l156 163h113l156 -163h-101l-111 118l-112 -118h-101z" />
    <glyph glyph-name="Udieresis" unicode="&#xdc;" horiz-adv-x="981" 
d="M478 -9q-200 0 -301.5 79.5t-101.5 273.5v1006h172v-984q0 -141 57.5 -197t174 -56t174 56t57.5 197v984h172v-1006q0 -194 -101.5 -273.5t-302.5 -79.5zM609 1415q-26 0 -44.5 18.5t-18.5 44.5t18.5 44.5t44.5 18.5t44.5 -18.5t18.5 -44.5t-18.5 -44.5t-44.5 -18.5z
M356 1415q-26 0 -44.5 18.5t-18.5 44.5t18.5 44.5t44.5 18.5t44.5 -18.5t18.5 -44.5t-18.5 -44.5t-44.5 -18.5z" />
    <glyph glyph-name="Yacute" unicode="&#xdd;" horiz-adv-x="960" 
d="M388 0v474l-355 876h186l255 -708l253 708h186l-354 -877v-473h-171zM356 1389l115 156h123l-151 -156h-87z" />
    <glyph glyph-name="Thorn" unicode="&#xde;" horiz-adv-x="878" 
d="M69 0v1350h170v-218h327q125 0 179.5 -78.5t54.5 -216.5v-315q0 -143 -52.5 -218.5t-181.5 -75.5h-327v-228h-170zM239 342h260q74 0 102 53t28 156v260q0 100 -27.5 152.5t-102.5 52.5h-260v-674z" />
    <glyph glyph-name="germandbls" unicode="&#xdf;" horiz-adv-x="951" 
d="M63 0v1031q0 222 100 329.5t292 107.5q173 0 261 -79t88 -218q0 -91 -26 -158.5t-52 -122t-26 -105.5q0 -39 26 -78t60.5 -85.5t61 -109.5t26.5 -150q0 -199 -131.5 -280.5t-388.5 -81.5v121q169 0 253 59.5t84 191.5q0 71 -24 125.5t-55.5 100t-55.5 90t-24 96.5
q0 67 25 127.5l50 121t25 129.5q0 187 -176 187q-100 0 -161 -70.5t-61 -234.5v-1044h-171z" />
    <glyph glyph-name="agrave" unicode="&#xe0;" horiz-adv-x="912" 
d="M678 0l-17 89q-16 -17 -36 -33q-85 -66 -247 -66t-241 91t-79 273q0 176 78 259t277 83h238v51q0 169 -48.5 251t-153.5 82q-91 0 -148 -73.5t-62 -218.5l-170 31q10 197 104 289.5t271 92.5q237 0 307.5 -136t70.5 -374v-691h-144zM651 248v338h-193q-131 0 -178 -56.5
t-47 -172.5q0 -112 43.5 -181.5t145.5 -69.5q101 0 165 44t64 98zM478 1241l-152 156h124l114 -156h-86z" />
    <glyph glyph-name="aacute" unicode="&#xe1;" horiz-adv-x="912" 
d="M678 0l-17 89q-16 -17 -36 -33q-85 -66 -247 -66t-241 91t-79 273q0 176 78 259t277 83h238v51q0 169 -48.5 251t-153.5 82q-91 0 -148 -73.5t-62 -218.5l-170 31q10 197 104 289.5t271 92.5q237 0 307.5 -136t70.5 -374v-691h-144zM651 248v338h-193q-131 0 -178 -56.5
t-47 -172.5q0 -112 43.5 -181.5t145.5 -69.5q101 0 165 44t64 98zM326 1229l115 156h123l-151 -156h-87z" />
    <glyph glyph-name="acircumflex" unicode="&#xe2;" horiz-adv-x="912" 
d="M678 0l-17 89q-16 -17 -36 -33q-85 -66 -247 -66t-241 91t-79 273q0 176 78 259t277 83h238v51q0 169 -48.5 251t-153.5 82q-91 0 -148 -73.5t-62 -218.5l-170 31q10 197 104 289.5t271 92.5q237 0 307.5 -136t70.5 -374v-691h-144zM651 248v338h-193q-131 0 -178 -56.5
t-47 -172.5q0 -112 43.5 -181.5t145.5 -69.5q101 0 165 44t64 98zM233 1241l156 163h113l156 -163h-101l-111 118l-112 -118h-101z" />
    <glyph glyph-name="atilde" unicode="&#xe3;" horiz-adv-x="912" 
d="M678 0l-17 89q-16 -17 -36 -33q-85 -66 -247 -66t-241 91t-79 273q0 176 78 259t277 83h238v51q0 169 -48.5 251t-153.5 82q-91 0 -148 -73.5t-62 -218.5l-170 31q10 197 104 289.5t271 92.5q237 0 307.5 -136t70.5 -374v-691h-144zM651 248v338h-193q-131 0 -178 -56.5
t-47 -172.5q0 -112 43.5 -181.5t145.5 -69.5q101 0 165 44t64 98zM536 1263q-41 0 -67.5 15t-48 30.5t-49.5 15.5q-32 0 -45.5 -18t-14.5 -34h-87q1 23 13 51.5t41 49.5t82 21q40 0 64 -15t46 -30t54 -15q29 0 43.5 18t15.5 34h86q-1 -21 -11.5 -50t-39 -51t-82.5 -22z" />
    <glyph glyph-name="adieresis" unicode="&#xe4;" horiz-adv-x="912" 
d="M678 0l-17 89q-16 -17 -36 -33q-85 -66 -247 -66t-241 91t-79 273q0 176 78 259t277 83h238v51q0 169 -48.5 251t-153.5 82q-91 0 -148 -73.5t-62 -218.5l-170 31q10 197 104 289.5t271 92.5q237 0 307.5 -136t70.5 -374v-691h-144zM651 248v338h-193q-131 0 -178 -56.5
t-47 -172.5q0 -112 43.5 -181.5t145.5 -69.5q101 0 165 44t64 98zM572 1255q-26 0 -44.5 18.5t-18.5 44.5t18.5 44.5t44.5 18.5t44.5 -18.5t18.5 -44.5t-18.5 -44.5t-44.5 -18.5zM319 1255q-26 0 -44.5 18.5t-18.5 44.5t18.5 44.5t44.5 18.5t44.5 -18.5t18.5 -44.5
t-18.5 -44.5t-44.5 -18.5z" />
    <glyph glyph-name="aring" unicode="&#xe5;" horiz-adv-x="912" 
d="M678 0l-17 89q-16 -17 -36 -33q-85 -66 -247 -66t-241 91t-79 273q0 176 78 259t277 83h238v51q0 169 -48.5 251t-153.5 82q-91 0 -148 -73.5t-62 -218.5l-170 31q10 197 104 289.5t271 92.5q237 0 307.5 -136t70.5 -374v-691h-144zM651 248v338h-193q-131 0 -178 -56.5
t-47 -172.5q0 -112 43.5 -181.5t145.5 -69.5q101 0 165 44t64 98zM446 1225q-47 0 -78.5 32.5t-31.5 80.5q0 46 31 78.5t79 32.5q47 0 78.5 -32.5t31.5 -78.5q0 -47 -31.5 -80t-78.5 -33zM446 1293q18 0 30 12.5t12 32.5q0 19 -12 31t-30 12t-30.5 -12t-12.5 -31
q0 -20 12.5 -32.5t30.5 -12.5z" />
    <glyph glyph-name="ae" unicode="&#xe6;" horiz-adv-x="1504" 
d="M359 -10q-153 0 -227 81.5t-74 238.5q0 189 74 259.5t248 70.5h258q0 7 1 14v99q0 171 -48 252.5t-146 81.5q-103 0 -151 -76.5t-56 -262.5l-166 32q14 193 80.5 306.5t291.5 113.5q218 0 287 -124q1 -2 1 -3q86 128 300 128q236 0 314 -148t78 -453q0 -32 -2 -58h-617
q6 -217 58 -319q58 -114 171 -114q90 0 151 77t66 236l159 -34q-11 -212 -110.5 -304.5t-265.5 -92.5q-237 0 -317 162q-2 5 -5 11q-25 -62 -72 -99q-97 -75 -281 -75zM805 653h449q-2 237 -56 332q-56 98 -165 98q-108 0 -168 -101q-55 -91 -60 -329zM639 341v193h-206
q-117 0 -157.5 -47t-40.5 -179q0 -96 37.5 -152t139.5 -56q105 0 166 54q55 48 61 187z" />
    <glyph glyph-name="ccedilla" unicode="&#xe7;" horiz-adv-x="889" 
d="M440 -9q-235 0 -315 159.5t-80 443.5q0 308 80 457.5t315 149.5q220 0 289.5 -136t75.5 -310l-158 -36q-2 170 -53 264.5t-154 94.5q-106 0 -164.5 -102t-58.5 -382q0 -254 59 -367.5t164 -113.5q103 0 154 106t53 249l158 -37q-6 -147 -75.5 -293.5t-289.5 -146.5z
M459 -279q-62 0 -118 14l25 75q16 -4 40.5 -7.5t52.5 -3.5q97 0 97 54q0 36 -44 36q-34 0 -66 -20l-66 11l34 120h73l-26 -84q16 11 40.5 18.5t54.5 7.5q44 0 73 -22t29 -67q0 -67 -61.5 -99.5t-137.5 -32.5z" />
    <glyph glyph-name="egrave" unicode="&#xe8;" horiz-adv-x="920" 
d="M450 -9q-236 0 -316 162t-80 442q0 307 82 456.5t313 149.5q236 0 313.5 -148t77.5 -453q0 -32 -2 -58h-616q5 -217 57 -319q58 -114 172 -114q89 0 150.5 77t66.5 236l158 -34q-10 -212 -109.5 -304.5t-266.5 -92.5zM222 653h449q-2 237 -56 332q-56 98 -166 98
q-108 0 -168 -101q-54 -91 -59 -329zM481 1241l-152 156h124l114 -156h-86z" />
    <glyph glyph-name="eacute" unicode="&#xe9;" horiz-adv-x="920" 
d="M450 -9q-236 0 -316 162t-80 442q0 307 82 456.5t313 149.5q236 0 313.5 -148t77.5 -453q0 -32 -2 -58h-616q5 -217 57 -319q58 -114 172 -114q89 0 150.5 77t66.5 236l158 -34q-10 -212 -109.5 -304.5t-266.5 -92.5zM222 653h449q-2 237 -56 332q-56 98 -166 98
q-108 0 -168 -101q-54 -91 -59 -329zM330 1228l115 156h123l-151 -156h-87z" />
    <glyph glyph-name="ecircumflex" unicode="&#xea;" horiz-adv-x="920" 
d="M450 -9q-236 0 -316 162t-80 442q0 307 82 456.5t313 149.5q236 0 313.5 -148t77.5 -453q0 -32 -2 -58h-616q5 -217 57 -319q58 -114 172 -114q89 0 150.5 77t66.5 236l158 -34q-10 -212 -109.5 -304.5t-266.5 -92.5zM222 653h449q-2 237 -56 332q-56 98 -166 98
q-108 0 -168 -101q-54 -91 -59 -329zM237 1241l156 163h113l156 -163h-101l-111 118l-112 -118h-101z" />
    <glyph glyph-name="edieresis" unicode="&#xeb;" horiz-adv-x="920" 
d="M450 -9q-236 0 -316 162t-80 442q0 307 82 456.5t313 149.5q236 0 313.5 -148t77.5 -453q0 -32 -2 -58h-616q5 -217 57 -319q58 -114 172 -114q89 0 150.5 77t66.5 236l158 -34q-10 -212 -109.5 -304.5t-266.5 -92.5zM222 653h449q-2 237 -56 332q-56 98 -166 98
q-108 0 -168 -101q-54 -91 -59 -329zM576 1255q-26 0 -44.5 18.5t-18.5 44.5t18.5 44.5t44.5 18.5t44.5 -18.5t18.5 -44.5t-18.5 -44.5t-44.5 -18.5zM323 1255q-26 0 -44.5 18.5t-18.5 44.5t18.5 44.5t44.5 18.5t44.5 -18.5t18.5 -44.5t-18.5 -44.5t-44.5 -18.5z" />
    <glyph glyph-name="igrave" unicode="&#xec;" horiz-adv-x="359" 
d="M79 0v1191h171v-1191h-171zM197 1241l-152 156h124l114 -156h-86z" />
    <glyph glyph-name="iacute" unicode="&#xed;" horiz-adv-x="359" 
d="M79 0v1191h171v-1191h-171zM46 1228l115 156h123l-151 -156h-87z" />
    <glyph glyph-name="icircumflex" unicode="&#xee;" horiz-adv-x="359" 
d="M79 0v1191h171v-1191h-171zM-47 1241l156 163h113l156 -163h-101l-111 118l-112 -118h-101z" />
    <glyph glyph-name="idieresis" unicode="&#xef;" horiz-adv-x="359" 
d="M79 0v1191h171v-1191h-171zM292 1255q-26 0 -44.5 18.5t-18.5 44.5t18.5 44.5t44.5 18.5t44.5 -18.5t18.5 -44.5t-18.5 -44.5t-44.5 -18.5zM39 1255q-26 0 -44.5 18.5t-18.5 44.5t18.5 44.5t44.5 18.5t44.5 -18.5t18.5 -44.5t-18.5 -44.5t-44.5 -18.5z" />
    <glyph glyph-name="eth" unicode="&#xf0;" horiz-adv-x="917" 
d="M442 -9q-234 0 -308 153.5t-74 449.5t71.5 450t305.5 154q119 0 198 -47q-27 101 -73.5 161t-112.5 92l-45 -85l-89 23l49 92q-32 8 -67.5 12.5t-74.5 7.5l35 105q43 -4 83 -10.5t76 -17.5l30 56l87 -22l-34 -66q92 -48 154.5 -144t91.5 -261q41 -70 60 -168.5t19 -195.5
l-5 2q5 -64 5 -136q0 -300 -74 -452.5t-308 -152.5zM442 114q109 0 160.5 102t51.5 378t-51.5 380t-160.5 104t-160.5 -105t-51.5 -379t51.5 -377t160.5 -103z" />
    <glyph glyph-name="ntilde" unicode="&#xf1;" horiz-adv-x="894" 
d="M77 0v1190h158l7 -121q9 12 19 23q99 109 259 109q170 0 228.5 -132t58.5 -356v-713h-169v711q0 202 -44.5 285t-137.5 83q-92 0 -153 -81q-45 -60 -57 -141v-857h-169zM532 1262q-41 0 -67.5 15t-48 30.5t-49.5 15.5q-32 0 -45.5 -18t-14.5 -34h-87q1 23 13 51.5
t41 49.5t82 21q40 0 64 -15t46 -30t54 -15q29 0 43.5 18t15.5 34h86q-1 -21 -11.5 -50t-39 -51t-82.5 -22z" />
    <glyph glyph-name="ograve" unicode="&#xf2;" horiz-adv-x="923" 
d="M450 -9q-233 0 -315.5 144.5t-82.5 461.5q0 318 82.5 461.5t315.5 143.5t315.5 -143.5t82.5 -461.5q0 -317 -82.5 -461.5t-315.5 -144.5zM450 113q109 0 168.5 98t59.5 385q0 288 -59.5 386.5t-168.5 98.5t-168.5 -98.5t-59.5 -386.5q0 -287 59.5 -385t168.5 -98z
M482 1242l-152 156h124l114 -156h-86z" />
    <glyph glyph-name="oacute" unicode="&#xf3;" horiz-adv-x="923" 
d="M450 -9q-233 0 -315.5 144.5t-82.5 461.5q0 318 82.5 461.5t315.5 143.5t315.5 -143.5t82.5 -461.5q0 -317 -82.5 -461.5t-315.5 -144.5zM450 113q109 0 168.5 98t59.5 385q0 288 -59.5 386.5t-168.5 98.5t-168.5 -98.5t-59.5 -386.5q0 -287 59.5 -385t168.5 -98z
M331 1229l115 156h123l-151 -156h-87z" />
    <glyph glyph-name="ocircumflex" unicode="&#xf4;" horiz-adv-x="923" 
d="M450 -9q-233 0 -315.5 144.5t-82.5 461.5q0 318 82.5 461.5t315.5 143.5t315.5 -143.5t82.5 -461.5q0 -317 -82.5 -461.5t-315.5 -144.5zM450 113q109 0 168.5 98t59.5 385q0 288 -59.5 386.5t-168.5 98.5t-168.5 -98.5t-59.5 -386.5q0 -287 59.5 -385t168.5 -98z
M238 1242l156 163h113l156 -163h-101l-111 118l-112 -118h-101z" />
    <glyph glyph-name="otilde" unicode="&#xf5;" horiz-adv-x="923" 
d="M450 -9q-233 0 -315.5 144.5t-82.5 461.5q0 318 82.5 461.5t315.5 143.5t315.5 -143.5t82.5 -461.5q0 -317 -82.5 -461.5t-315.5 -144.5zM450 113q109 0 168.5 98t59.5 385q0 288 -59.5 386.5t-168.5 98.5t-168.5 -98.5t-59.5 -386.5q0 -287 59.5 -385t168.5 -98z
M541 1263q-41 0 -67.5 15t-48 30.5t-49.5 15.5q-32 0 -45.5 -18t-14.5 -34h-87q1 23 13 51.5t41 49.5t82 21q40 0 64 -15t46 -30t54 -15q29 0 43.5 18t15.5 34h86q-1 -21 -11.5 -50t-39 -51t-82.5 -22z" />
    <glyph glyph-name="odieresis" unicode="&#xf6;" horiz-adv-x="923" 
d="M450 -9q-233 0 -315.5 144.5t-82.5 461.5q0 318 82.5 461.5t315.5 143.5t315.5 -143.5t82.5 -461.5q0 -317 -82.5 -461.5t-315.5 -144.5zM450 113q109 0 168.5 98t59.5 385q0 288 -59.5 386.5t-168.5 98.5t-168.5 -98.5t-59.5 -386.5q0 -287 59.5 -385t168.5 -98z
M577 1256q-26 0 -44.5 18.5t-18.5 44.5t18.5 44.5t44.5 18.5t44.5 -18.5t18.5 -44.5t-18.5 -44.5t-44.5 -18.5zM324 1256q-26 0 -44.5 18.5t-18.5 44.5t18.5 44.5t44.5 18.5t44.5 -18.5t18.5 -44.5t-18.5 -44.5t-44.5 -18.5z" />
    <glyph glyph-name="divide" unicode="&#xf7;" horiz-adv-x="429" 
d="M31 424v108h359v-108h-359zM214 92q-31 0 -51.5 20.5t-20.5 51.5q0 28 20.5 48.5t51.5 20.5q28 0 48 -20.5t20 -48.5q0 -31 -19.5 -51.5t-48.5 -20.5zM214 729q-31 0 -51.5 20.5t-20.5 51.5q0 28 20.5 48t51.5 20q29 0 48.5 -20t19.5 -48q0 -31 -19.5 -51.5t-48.5 -20.5z
" />
    <glyph glyph-name="oslash" unicode="&#xf8;" horiz-adv-x="916" 
d="M6 -5l112 173q-66 145 -66 429q0 318 82.5 461.5t315.5 143.5q189 0 279 -94l84 130l61 -37l-101 -156q75 -145 75 -448q0 -317 -82.5 -461.5t-315.5 -144.5q-203 0 -291 109l-95 -145zM450 113q109 0 168.5 98t59.5 385q0 168 -21 272l-396 -611q9 -27 21 -46
q59 -98 168 -98zM238 352l393 605q-6 14 -13 26q-59 98 -168 98t-168.5 -98.5t-59.5 -386.5q0 -147 16 -244z" />
    <glyph glyph-name="ugrave" unicode="&#xf9;" horiz-adv-x="901" 
d="M645 0l-8 124q-10 -13 -21 -25q-99 -110 -260 -110q-169 0 -228 132.5t-59 355.5v714h170v-711q0 -202 44 -285t138 -83q92 0 152 81q55 73 60 176v821h170v-1190h-158zM472 1241l-152 156h124l114 -156h-86z" />
    <glyph glyph-name="uacute" unicode="&#xfa;" horiz-adv-x="901" 
d="M645 0l-8 124q-10 -13 -21 -25q-99 -110 -260 -110q-169 0 -228 132.5t-59 355.5v714h170v-711q0 -202 44 -285t138 -83q92 0 152 81q55 73 60 176v821h170v-1190h-158zM320 1228l115 156h123l-151 -156h-87z" />
    <glyph glyph-name="ucircumflex" unicode="&#xfb;" horiz-adv-x="901" 
d="M645 0l-8 124q-10 -13 -21 -25q-99 -110 -260 -110q-169 0 -228 132.5t-59 355.5v714h170v-711q0 -202 44 -285t138 -83q92 0 152 81q55 73 60 176v821h170v-1190h-158zM227 1241l156 163h113l156 -163h-101l-111 118l-112 -118h-101z" />
    <glyph glyph-name="udieresis" unicode="&#xfc;" horiz-adv-x="901" 
d="M645 0l-8 124q-10 -13 -21 -25q-99 -110 -260 -110q-169 0 -228 132.5t-59 355.5v714h170v-711q0 -202 44 -285t138 -83q92 0 152 81q55 73 60 176v821h170v-1190h-158zM566 1255q-26 0 -44.5 18.5t-18.5 44.5t18.5 44.5t44.5 18.5t44.5 -18.5t18.5 -44.5t-18.5 -44.5
t-44.5 -18.5zM313 1255q-26 0 -44.5 18.5t-18.5 44.5t18.5 44.5t44.5 18.5t44.5 -18.5t18.5 -44.5t-18.5 -44.5t-44.5 -18.5z" />
    <glyph glyph-name="yacute" unicode="&#xfd;" horiz-adv-x="847" 
d="M283 0l-253 1190h178l211 -1038l211 1038h178l-254 -1190q-57 -261 -174.5 -361t-315.5 -100v123q128 0 209 72q82 72 124 266h-114zM299 1228l115 156h123l-151 -156h-87z" />
    <glyph glyph-name="thorn" unicode="&#xfe;" horiz-adv-x="926" 
d="M78 -400v1311h4v659h170v-480q13 13 29 25q104 86 253 86q176 0 246.5 -148t70.5 -456q0 -307 -70.5 -455.5t-246.5 -148.5q-149 0 -253 85q-19 15 -34 31v-509h-169zM252 852v-511q5 -86 65 -153q65 -74 158 -74q98 0 151.5 96.5t53.5 386.5q0 288 -53.5 385t-151.5 97
q-93 0 -158 -74q-60 -68 -65 -153z" />
    <glyph glyph-name="ydieresis" unicode="&#xff;" horiz-adv-x="847" 
d="M283 0l-253 1190h178l211 -1038l211 1038h178l-254 -1190q-57 -261 -174.5 -361t-315.5 -100v123q128 0 209 72q82 72 124 266h-114zM545 1255q-26 0 -44.5 18.5t-18.5 44.5t18.5 44.5t44.5 18.5t44.5 -18.5t18.5 -44.5t-18.5 -44.5t-44.5 -18.5zM292 1255
q-26 0 -44.5 18.5t-18.5 44.5t18.5 44.5t44.5 18.5t44.5 -18.5t18.5 -44.5t-18.5 -44.5t-44.5 -18.5z" />
    <glyph glyph-name="Amacron" unicode="&#x100;" horiz-adv-x="999" 
d="M48 0l316 1351h268l316 -1351h-176l-84 385h-379l-84 -385h-177zM331 505h336l-164 737h-8zM266 1438v68h464v-68h-464z" />
    <glyph glyph-name="amacron" unicode="&#x101;" horiz-adv-x="912" 
d="M678 0l-17 89q-16 -17 -36 -33q-85 -66 -247 -66t-241 91t-79 273q0 176 78 259t277 83h238v51q0 169 -48.5 251t-153.5 82q-91 0 -148 -73.5t-62 -218.5l-170 31q10 197 104 289.5t271 92.5q237 0 307.5 -136t70.5 -374v-691h-144zM651 248v338h-193q-131 0 -178 -56.5
t-47 -172.5q0 -112 43.5 -181.5t145.5 -69.5q101 0 165 44t64 98zM214 1278v68h464v-68h-464z" />
    <glyph glyph-name="Abreve" unicode="&#x102;" horiz-adv-x="999" 
d="M48 0l316 1351h268l316 -1351h-176l-84 385h-379l-84 -385h-177zM331 505h336l-164 737h-8zM497 1398q-76 0 -117.5 42.5t-41.5 101.5h86q0 -81 73 -81q42 0 58 22t16 59h87q0 -59 -41 -101.5t-120 -42.5z" />
    <glyph glyph-name="abreve" unicode="&#x103;" horiz-adv-x="912" 
d="M678 0l-17 89q-16 -17 -36 -33q-85 -66 -247 -66t-241 91t-79 273q0 176 78 259t277 83h238v51q0 169 -48.5 251t-153.5 82q-91 0 -148 -73.5t-62 -218.5l-170 31q10 197 104 289.5t271 92.5q237 0 307.5 -136t70.5 -374v-691h-144zM651 248v338h-193q-131 0 -178 -56.5
t-47 -172.5q0 -112 43.5 -181.5t145.5 -69.5q101 0 165 44t64 98zM445 1238q-76 0 -117.5 42.5t-41.5 101.5h86q0 -81 73 -81q42 0 58 22t16 59h87q0 -59 -41 -101.5t-120 -42.5z" />
    <glyph glyph-name="Aogonek" unicode="&#x104;" horiz-adv-x="999" 
d="M48 0l316 1351h268l316 -1351h-176l-84 385h-379l-84 -385h-177zM331 505h336l-164 737h-8zM872 -251q-37 0 -77 8.5t-68 31.5t-28 67q0 39 18.5 70.5t39.5 51t29 22.5h90q-4 -4 -18.5 -21.5t-27.5 -42t-13 -47.5q0 -26 22.5 -36t53.5 -10q26 0 54 4.5t39 9.5l13 -93
q-9 -3 -47 -9t-80 -6z" />
    <glyph glyph-name="aogonek" unicode="&#x105;" horiz-adv-x="912" 
d="M678 0l-17 89q-16 -17 -36 -33q-85 -66 -247 -66t-241 91t-79 273q0 176 78 259t277 83h238v51q0 169 -48.5 251t-153.5 82q-91 0 -148 -73.5t-62 -218.5l-170 31q10 197 104 289.5t271 92.5q237 0 307.5 -136t70.5 -374v-691h-144zM651 248v338h-193q-131 0 -178 -56.5
t-47 -172.5q0 -112 43.5 -181.5t145.5 -69.5q101 0 165 44t64 98zM766 -251q-37 0 -77 8.5t-68 31.5t-28 67q0 39 18.5 70.5t39.5 51t29 22.5h90q-4 -4 -18.5 -21.5t-27.5 -42t-13 -47.5q0 -26 22.5 -36t53.5 -10q26 0 54 4.5t39 9.5l13 -93q-9 -3 -47 -9t-80 -6z" />
    <glyph glyph-name="Cacute" unicode="&#x106;" horiz-adv-x="953" 
d="M464 -8q-253 0 -336 154t-83 532q0 377 82.5 529.5t335.5 152.5q252 0 327.5 -145t75.5 -406h-173q0 256 -55.5 342t-174.5 86q-122 0 -183.5 -94t-61.5 -465q0 -373 62 -468.5t183 -95.5q118 0 174 89t56 340h173q0 -254 -75.5 -402.5t-326.5 -148.5zM340 1389l115 156
h123l-151 -156h-87z" />
    <glyph glyph-name="cacute" unicode="&#x107;" horiz-adv-x="889" 
d="M440 -9q-235 0 -315 159.5t-80 443.5q0 308 80 457.5t315 149.5q220 0 289.5 -136t75.5 -310l-158 -36q-2 170 -53 264.5t-154 94.5q-106 0 -164.5 -102t-58.5 -382q0 -254 59 -367.5t164 -113.5q103 0 154 106t53 249l158 -37q-6 -147 -75.5 -293.5t-289.5 -146.5z
M321 1228l115 156h123l-151 -156h-87z" />
    <glyph glyph-name="Ccircumflex" unicode="&#x108;" horiz-adv-x="953" 
d="M464 -8q-253 0 -336 154t-83 532q0 377 82.5 529.5t335.5 152.5q252 0 327.5 -145t75.5 -406h-173q0 256 -55.5 342t-174.5 86q-122 0 -183.5 -94t-61.5 -465q0 -373 62 -468.5t183 -95.5q118 0 174 89t56 340h173q0 -254 -75.5 -402.5t-326.5 -148.5zM246 1401l156 163
h113l156 -163h-101l-111 118l-112 -118h-101z" />
    <glyph glyph-name="ccircumflex" unicode="&#x109;" horiz-adv-x="889" 
d="M440 -9q-235 0 -315 159.5t-80 443.5q0 308 80 457.5t315 149.5q220 0 289.5 -136t75.5 -310l-158 -36q-2 170 -53 264.5t-154 94.5q-106 0 -164.5 -102t-58.5 -382q0 -254 59 -367.5t164 -113.5q103 0 154 106t53 249l158 -37q-6 -147 -75.5 -293.5t-289.5 -146.5z
M227 1241l156 163h113l156 -163h-101l-111 118l-112 -118h-101z" />
    <glyph glyph-name="Cdotaccent" unicode="&#x10a;" horiz-adv-x="953" 
d="M464 -8q-253 0 -336 154t-83 532q0 377 82.5 529.5t335.5 152.5q252 0 327.5 -145t75.5 -406h-173q0 256 -55.5 342t-174.5 86q-122 0 -183.5 -94t-61.5 -465q0 -373 62 -468.5t183 -95.5q118 0 174 89t56 340h173q0 -254 -75.5 -402.5t-326.5 -148.5zM460 1408
q-28 0 -47 19t-19 47q0 27 19 45.5t47 18.5q26 0 45 -18.5t19 -45.5t-19 -46.5t-45 -19.5z" />
    <glyph glyph-name="cdotaccent" unicode="&#x10b;" horiz-adv-x="889" 
d="M440 -9q-235 0 -315 159.5t-80 443.5q0 308 80 457.5t315 149.5q220 0 289.5 -136t75.5 -310l-158 -36q-2 170 -53 264.5t-154 94.5q-106 0 -164.5 -102t-58.5 -382q0 -254 59 -367.5t164 -113.5q103 0 154 106t53 249l158 -37q-6 -147 -75.5 -293.5t-289.5 -146.5z
M441 1248q-28 0 -47 19t-19 47q0 27 19 45.5t47 18.5q26 0 45 -18.5t19 -45.5t-19 -46.5t-45 -19.5z" />
    <glyph glyph-name="Ccaron" unicode="&#x10c;" horiz-adv-x="953" 
d="M464 -8q-253 0 -336 154t-83 532q0 377 82.5 529.5t335.5 152.5q252 0 327.5 -145t75.5 -406h-173q0 256 -55.5 342t-174.5 86q-122 0 -183.5 -94t-61.5 -465q0 -373 62 -468.5t183 -95.5q118 0 174 89t56 340h173q0 -254 -75.5 -402.5t-326.5 -148.5zM402 1397l-156 163
h101l112 -118l111 118h101l-156 -163h-113z" />
    <glyph glyph-name="ccaron" unicode="&#x10d;" horiz-adv-x="889" 
d="M440 -9q-235 0 -315 159.5t-80 443.5q0 308 80 457.5t315 149.5q220 0 289.5 -136t75.5 -310l-158 -36q-2 170 -53 264.5t-154 94.5q-106 0 -164.5 -102t-58.5 -382q0 -254 59 -367.5t164 -113.5q103 0 154 106t53 249l158 -37q-6 -147 -75.5 -293.5t-289.5 -146.5z
M383 1237l-156 163h101l112 -118l111 118h101l-156 -163h-113z" />
    <glyph glyph-name="Dcaron" unicode="&#x10e;" horiz-adv-x="923" 
d="M63 0v1350h435q211 0 284.5 -140.5t73.5 -534.5t-73.5 -534.5t-284.5 -140.5h-435zM234 123h215q124 0 180 94t56 458q0 363 -56 458t-180 95h-215v-1105zM386 1397l-156 163h101l112 -118l111 118h101l-156 -163h-113z" />
    <glyph glyph-name="dcaron" unicode="&#x10f;" horiz-adv-x="1032" 
d="M667 0l-10 109q-15 -16 -34 -31q-105 -85 -254 -85q-175 0 -246 148.5t-71 455.5q0 308 71 456t246 148q149 0 254 -86q15 -12 28 -25v480h170v-1570h-154zM651 341v511q-5 85 -64 153q-65 74 -158 74q-99 0 -152.5 -97t-53.5 -385q0 -289 53.5 -386t152.5 -97
q93 0 158 74q59 68 64 153zM885 1301l33 269h116l-41 -269h-108z" />
    <glyph glyph-name="Dcroat" unicode="&#x110;" horiz-adv-x="955" 
d="M-8 619v115h104v616h434q211 0 284.5 -140.5t73.5 -534.5t-73.5 -534.5t-284.5 -140.5h-434v619h-104zM267 123h215q123 0 179 94t56 458q0 363 -56 458t-179 95h-215v-494h152v-115h-152v-496z" />
    <glyph glyph-name="dcroat" unicode="&#x111;" horiz-adv-x="909" 
d="M396 1358v89h255v123h170v-123h96v-89h-96v-1358h-154l-10 109q-15 -16 -34 -31q-105 -85 -254 -85q-175 0 -246 148.5t-71 455.5q0 308 71 456t246 148q149 0 254 -86q15 -12 28 -25v268h-255zM651 341v511q-5 85 -64 153q-65 74 -158 74q-99 0 -152.5 -97t-53.5 -385
q0 -289 53.5 -386t152.5 -97q93 0 158 74q59 68 64 153z" />
    <glyph glyph-name="Emacron" unicode="&#x112;" horiz-adv-x="809" 
d="M64 0v1350h662v-122h-491v-477h465v-119h-465v-509h491v-123h-662zM170 1438v68h464v-68h-464z" />
    <glyph glyph-name="emacron" unicode="&#x113;" horiz-adv-x="920" 
d="M450 -9q-236 0 -316 162t-80 442q0 307 82 456.5t313 149.5q236 0 313.5 -148t77.5 -453q0 -32 -2 -58h-616q5 -217 57 -319q58 -114 172 -114q89 0 150.5 77t66.5 236l158 -34q-10 -212 -109.5 -304.5t-266.5 -92.5zM222 653h449q-2 237 -56 332q-56 98 -166 98
q-108 0 -168 -101q-54 -91 -59 -329zM217 1277v68h464v-68h-464z" />
    <glyph glyph-name="Ebreve" unicode="&#x114;" horiz-adv-x="809" 
d="M64 0v1350h662v-122h-491v-477h465v-119h-465v-509h491v-123h-662zM401 1398q-76 0 -117.5 42.5t-41.5 101.5h86q0 -81 73 -81q42 0 58 22t16 59h87q0 -59 -41 -101.5t-120 -42.5z" />
    <glyph glyph-name="ebreve" unicode="&#x115;" horiz-adv-x="920" 
d="M450 -9q-236 0 -316 162t-80 442q0 307 82 456.5t313 149.5q236 0 313.5 -148t77.5 -453q0 -32 -2 -58h-616q5 -217 57 -319q58 -114 172 -114q89 0 150.5 77t66.5 236l158 -34q-10 -212 -109.5 -304.5t-266.5 -92.5zM222 653h449q-2 237 -56 332q-56 98 -166 98
q-108 0 -168 -101q-54 -91 -59 -329zM449 1238q-76 0 -117.5 42.5t-41.5 101.5h86q0 -81 73 -81q42 0 58 22t16 59h87q0 -59 -41 -101.5t-120 -42.5z" />
    <glyph glyph-name="Edotaccent" unicode="&#x116;" horiz-adv-x="809" 
d="M64 0v1350h662v-122h-491v-477h465v-119h-465v-509h491v-123h-662zM403 1408q-28 0 -47 19t-19 47q0 27 19 45.5t47 18.5q26 0 45 -18.5t19 -45.5t-19 -46.5t-45 -19.5z" />
    <glyph glyph-name="edotaccent" unicode="&#x117;" horiz-adv-x="920" 
d="M450 -9q-236 0 -316 162t-80 442q0 307 82 456.5t313 149.5q236 0 313.5 -148t77.5 -453q0 -32 -2 -58h-616q5 -217 57 -319q58 -114 172 -114q89 0 150.5 77t66.5 236l158 -34q-10 -212 -109.5 -304.5t-266.5 -92.5zM222 653h449q-2 237 -56 332q-56 98 -166 98
q-108 0 -168 -101q-54 -91 -59 -329zM450 1248q-28 0 -47 19t-19 47q0 27 19 45.5t47 18.5q26 0 45 -18.5t19 -45.5t-19 -46.5t-45 -19.5z" />
    <glyph glyph-name="Eogonek" unicode="&#x118;" horiz-adv-x="809" 
d="M64 0v1350h662v-122h-491v-477h465v-119h-465v-509h491v-123h-662zM557 -251q-37 0 -77 8.5t-68 31.5t-28 67q0 39 18.5 70.5t39.5 51t29 22.5h90q-4 -4 -18.5 -21.5t-27.5 -42t-13 -47.5q0 -26 22.5 -36t53.5 -10q26 0 54 4.5t39 9.5l13 -93q-9 -3 -47 -9t-80 -6z" />
    <glyph glyph-name="eogonek" unicode="&#x119;" horiz-adv-x="920" 
d="M450 -9q-236 0 -316 162t-80 442q0 307 82 456.5t313 149.5q236 0 313.5 -148t77.5 -453q0 -32 -2 -58h-616q5 -217 57 -319q58 -114 172 -114q89 0 150.5 77t66.5 236l158 -34q-10 -212 -109.5 -304.5t-266.5 -92.5zM222 653h449q-2 237 -56 332q-56 98 -166 98
q-108 0 -168 -101q-54 -91 -59 -329zM505 -251q-37 0 -77 8.5t-68 31.5t-28 67q0 39 18.5 70.5t39.5 51t29 22.5h90q-4 -4 -18.5 -21.5t-27.5 -42t-13 -47.5q0 -26 22.5 -36t53.5 -10q26 0 54 4.5t39 9.5l13 -93q-9 -3 -47 -9t-80 -6z" />
    <glyph glyph-name="Ecaron" unicode="&#x11a;" horiz-adv-x="809" 
d="M64 0v1350h662v-122h-491v-477h465v-119h-465v-509h491v-123h-662zM345 1397l-156 163h101l112 -118l111 118h101l-156 -163h-113z" />
    <glyph glyph-name="ecaron" unicode="&#x11b;" horiz-adv-x="920" 
d="M450 -9q-236 0 -316 162t-80 442q0 307 82 456.5t313 149.5q236 0 313.5 -148t77.5 -453q0 -32 -2 -58h-616q5 -217 57 -319q58 -114 172 -114q89 0 150.5 77t66.5 236l158 -34q-10 -212 -109.5 -304.5t-266.5 -92.5zM222 653h449q-2 237 -56 332q-56 98 -166 98
q-108 0 -168 -101q-54 -91 -59 -329zM393 1237l-156 163h101l112 -118l111 118h101l-156 -163h-113z" />
    <glyph glyph-name="Gcircumflex" unicode="&#x11c;" horiz-adv-x="971" 
d="M450 -8q-238 0 -317 156.5t-79 531.5q0 378 80 529t336 151q245 0 323 -145.5t78 -371.5h-172q-2 215 -54 304.5t-175 89.5q-126 0 -184.5 -94t-58.5 -470q0 -349 58.5 -454t183.5 -105q116 0 171 55t57 224v137h-212v111h386v-641h-107l-8 147q-64 -155 -306 -155z
M264 1401l156 163h113l156 -163h-101l-111 118l-112 -118h-101z" />
    <glyph glyph-name="gcircumflex" unicode="&#x11d;" horiz-adv-x="918" 
d="M435 -461q-189 0 -277.5 86.5t-88.5 288.5h167q0 -137 54.5 -198.5t144.5 -61.5q60 0 109 31t78.5 103.5t29.5 198.5v117q-14 -13 -29 -26q-105 -85 -254 -85q-175 0 -246 148.5t-71 455.5q0 308 71 456t246 148q149 0 254 -86q19 -15 34 -31l6 106h159v-1201
q0 -171 -45 -269.5t-131.5 -139.5t-210.5 -41zM652 847q-4 88 -65 158q-65 74 -158 74q-99 0 -152.5 -97t-53.5 -385q0 -289 53.5 -386t152.5 -97q93 0 158 74q61 70 65 159v500zM237 1241l156 163h113l156 -163h-101l-111 118l-112 -118h-101z" />
    <glyph glyph-name="Gbreve" unicode="&#x11e;" horiz-adv-x="971" 
d="M450 -8q-238 0 -317 156.5t-79 531.5q0 378 80 529t336 151q245 0 323 -145.5t78 -371.5h-172q-2 215 -54 304.5t-175 89.5q-126 0 -184.5 -94t-58.5 -470q0 -349 58.5 -454t183.5 -105q116 0 171 55t57 224v137h-212v111h386v-641h-107l-8 147q-64 -155 -306 -155z
M476 1398q-76 0 -117.5 42.5t-41.5 101.5h86q0 -81 73 -81q42 0 58 22t16 59h87q0 -59 -41 -101.5t-120 -42.5z" />
    <glyph glyph-name="gbreve" unicode="&#x11f;" horiz-adv-x="918" 
d="M435 -461q-189 0 -277.5 86.5t-88.5 288.5h167q0 -137 54.5 -198.5t144.5 -61.5q60 0 109 31t78.5 103.5t29.5 198.5v117q-14 -13 -29 -26q-105 -85 -254 -85q-175 0 -246 148.5t-71 455.5q0 308 71 456t246 148q149 0 254 -86q19 -15 34 -31l6 106h159v-1201
q0 -171 -45 -269.5t-131.5 -139.5t-210.5 -41zM652 847q-4 88 -65 158q-65 74 -158 74q-99 0 -152.5 -97t-53.5 -385q0 -289 53.5 -386t152.5 -97q93 0 158 74q61 70 65 159v500zM449 1238q-76 0 -117.5 42.5t-41.5 101.5h86q0 -81 73 -81q42 0 58 22t16 59h87
q0 -59 -41 -101.5t-120 -42.5z" />
    <glyph glyph-name="Gdotaccent" unicode="&#x120;" horiz-adv-x="971" 
d="M450 -8q-238 0 -317 156.5t-79 531.5q0 378 80 529t336 151q245 0 323 -145.5t78 -371.5h-172q-2 215 -54 304.5t-175 89.5q-126 0 -184.5 -94t-58.5 -470q0 -349 58.5 -454t183.5 -105q116 0 171 55t57 224v137h-212v111h386v-641h-107l-8 147q-64 -155 -306 -155z
M477 1408q-28 0 -47 19t-19 47q0 27 19 45.5t47 18.5q26 0 45 -18.5t19 -45.5t-19 -46.5t-45 -19.5z" />
    <glyph glyph-name="gdotaccent" unicode="&#x121;" horiz-adv-x="918" 
d="M435 -461q-189 0 -277.5 86.5t-88.5 288.5h167q0 -137 54.5 -198.5t144.5 -61.5q60 0 109 31t78.5 103.5t29.5 198.5v117q-14 -13 -29 -26q-105 -85 -254 -85q-175 0 -246 148.5t-71 455.5q0 308 71 456t246 148q149 0 254 -86q19 -15 34 -31l6 106h159v-1201
q0 -171 -45 -269.5t-131.5 -139.5t-210.5 -41zM652 847q-4 88 -65 158q-65 74 -158 74q-99 0 -152.5 -97t-53.5 -385q0 -289 53.5 -386t152.5 -97q93 0 158 74q61 70 65 159v500zM451 1248q-28 0 -47 19t-19 47q0 27 19 45.5t47 18.5q26 0 45 -18.5t19 -45.5t-19 -46.5
t-45 -19.5z" />
    <glyph glyph-name="uni0122" unicode="&#x122;" horiz-adv-x="971" 
d="M450 -8q-238 0 -317 156.5t-79 531.5q0 378 80 529t336 151q245 0 323 -145.5t78 -371.5h-172q-2 215 -54 304.5t-175 89.5q-126 0 -184.5 -94t-58.5 -470q0 -349 58.5 -454t183.5 -105q116 0 171 55t57 224v137h-212v111h386v-641h-107l-8 147q-64 -155 -306 -155z
M363.17 -292.088l86.9961 224.758h128.701l-146.293 -224.758h-69.4043z" />
    <glyph glyph-name="uni0123" unicode="&#x123;" horiz-adv-x="918" 
d="M435 -461q-189 0 -277.5 86.5t-88.5 288.5h167q0 -137 54.5 -198.5t144.5 -61.5q60 0 109 31t78.5 103.5t29.5 198.5v117q-14 -13 -29 -26q-105 -85 -254 -85q-175 0 -246 148.5t-71 455.5q0 308 71 456t246 148q149 0 254 -86q19 -15 34 -31l6 106h159v-1201
q0 -171 -45 -269.5t-131.5 -139.5t-210.5 -41zM652 847q-4 88 -65 158q-65 74 -158 74q-99 0 -152.5 -97t-53.5 -385q0 -289 53.5 -386t152.5 -97q93 0 158 74q61 70 65 159v500zM566.652 1485.43l-90.1709 -244.524h-131.993l150.984 244.524h71.1797z" />
    <glyph glyph-name="Hcircumflex" unicode="&#x124;" horiz-adv-x="937" 
d="M63 0v1350h172v-587h430v587h171v-1350h-171v640h-430v-640h-172zM254 1401l156 163h113l156 -163h-101l-111 118l-112 -118h-101z" />
    <glyph glyph-name="hcircumflex" unicode="&#x125;" horiz-adv-x="896" 
d="M77 0v1570h170v-497q7 9 16 19q99 109 259 109q170 0 228.5 -132t58.5 -356v-713h-169v711q0 202 -44.5 285t-137.5 83q-92 0 -153 -81q-49 -66 -58 -156v-842h-170zM267 1561l156 163h113l156 -163h-101l-111 118l-112 -118h-101z" />
    <glyph glyph-name="Hbar" unicode="&#x126;" horiz-adv-x="927" 
d="M18 1042v69h53v239h172v-239h430v239h171v-239h53v-69h-53v-1042h-171v640h-430v-640h-172v1042h-53zM673 1042h-430v-279h430v279z" />
    <glyph glyph-name="hbar" unicode="&#x127;" horiz-adv-x="851" 
d="M-7 1358v89h82v123h169v-123h269v-89h-269v-285q8 9 16 19q100 109 260 109q169 0 228 -132t59 -356v-713h-169v711q0 202 -44.5 285t-137.5 83q-92 0 -153 -81q-50 -66 -59 -156v-842h-169v1358h-82z" />
    <glyph glyph-name="Itilde" unicode="&#x128;" horiz-adv-x="409" 
d="M104 0v1350h171v-1350h-171zM280 1423q-41 0 -67.5 15t-48 30.5t-49.5 15.5q-32 0 -45.5 -18t-14.5 -34h-87q1 23 13 51.5t41 49.5t82 21q40 0 64 -15t46 -30t54 -15q29 0 43.5 18t15.5 34h86q-1 -21 -11.5 -50t-39 -51t-82.5 -22z" />
    <glyph glyph-name="itilde" unicode="&#x129;" horiz-adv-x="359" 
d="M79 0v1191h171v-1191h-171zM256 1262q-41 0 -67.5 15t-48 30.5t-49.5 15.5q-32 0 -45.5 -18t-14.5 -34h-87q1 23 13 51.5t41 49.5t82 21q40 0 64 -15t46 -30t54 -15q29 0 43.5 18t15.5 34h86q-1 -21 -11.5 -50t-39 -51t-82.5 -22z" />
    <glyph glyph-name="Imacron" unicode="&#x12a;" horiz-adv-x="409" 
d="M104 0v1350h171v-1350h-171zM-42 1438v68h464v-68h-464z" />
    <glyph glyph-name="imacron" unicode="&#x12b;" horiz-adv-x="359" 
d="M79 0v1191h171v-1191h-171zM-11.4248 1277v68h423.7v-68h-423.7z" />
    <glyph glyph-name="Ibreve" unicode="&#x12c;" horiz-adv-x="409" 
d="M104 0v1350h171v-1350h-171zM189 1398q-76 0 -117.5 42.5t-41.5 101.5h86q0 -81 73 -81q42 0 58 22t16 59h87q0 -59 -41 -101.5t-120 -42.5z" />
    <glyph glyph-name="ibreve" unicode="&#x12d;" horiz-adv-x="359" 
d="M79 0v1191h171v-1191h-171zM164 1238q-76 0 -117.5 42.5t-41.5 101.5h86q0 -81 73 -81q42 0 58 22t16 59h87q0 -59 -41 -101.5t-120 -42.5z" />
    <glyph glyph-name="Iogonek" unicode="&#x12e;" horiz-adv-x="409" 
d="M104 0v1350h171v-1350h-171zM237 -251q-37 0 -77 8.5t-68 31.5t-28 67q0 39 18.5 70.5t39.5 51t29 22.5h90q-4 -4 -18.5 -21.5t-27.5 -42t-13 -47.5q0 -26 22.5 -36t53.5 -10q26 0 54 4.5t39 9.5l13 -93q-9 -3 -47 -9t-80 -6z" />
    <glyph glyph-name="iogonek" unicode="&#x12f;" horiz-adv-x="389" 
d="M97 0v1191h171v-1191h-171zM97 1500h171v-165h-171v165zM181 -251q-37 0 -77 8.5t-68 31.5t-28 67q0 39 18.5 70.5t39.5 51t29 22.5h90q-4 -4 -18.5 -21.5t-27.5 -42t-13 -47.5q0 -26 22.5 -36t53.5 -10q26 0 54 4.5t39 9.5l13 -93q-9 -3 -47 -9t-80 -6z" />
    <glyph glyph-name="Idotaccent" unicode="&#x130;" horiz-adv-x="409" 
d="M104 0v1350h171v-1350h-171zM190 1408q-28 0 -47 19t-19 47q0 27 19 45.5t47 18.5q26 0 45 -18.5t19 -45.5t-19 -46.5t-45 -19.5z" />
    <glyph glyph-name="dotlessi" unicode="&#x131;" horiz-adv-x="359" 
d="M79 0v1191h171v-1191h-171z" />
    <glyph glyph-name="Jcircumflex" unicode="&#x134;" horiz-adv-x="912" 
d="M428 -11q-189 0 -282.5 80t-93.5 255v281h171v-255q0 -126 47 -183t158 -57q110 0 157.5 58t47.5 187v995h171v-1023q0 -175 -92.5 -256.5t-283.5 -81.5zM510 1401l156 163h113l156 -163h-101l-111 118l-112 -118h-101z" />
    <glyph glyph-name="jcircumflex" unicode="&#x135;" horiz-adv-x="405" 
d="M-95 -459v122q101 0 155 55.5t54 213.5v1259h169v-1252q0 -234 -96 -316t-282 -82zM-13 1241l156 163h113l156 -163h-101l-111 118l-112 -118h-101z" />
    <glyph glyph-name="uni0136" unicode="&#x136;" horiz-adv-x="865" 
d="M63 0v1350h171v-627l393 627h190l-427 -676l429 -674h-190l-395 625v-625h-171zM313.17 -292.088l86.9961 224.758h128.701l-146.293 -224.758h-69.4043z" />
    <glyph glyph-name="uni0137" unicode="&#x137;" horiz-adv-x="871" 
d="M77 0v1570h170v-908l370 529h192l-298 -433l309 -758h-179l-246 629l-148 -202v-427h-170zM337.17 -292.088l86.9961 224.758h128.701l-146.293 -224.758h-69.4043z" />
    <glyph glyph-name="kgreenlandic" unicode="&#x138;" horiz-adv-x="876" 
d="M73 0v1191h171v-564l393 564h190l-424 -595l426 -596h-191l-394 565v-565h-171z" />
    <glyph glyph-name="Lacute" unicode="&#x139;" horiz-adv-x="731" 
d="M63 0v1350h172v-1228h431v-122h-603zM249 1389l115 156h123l-151 -156h-87z" />
    <glyph glyph-name="lacute" unicode="&#x13a;" horiz-adv-x="369" 
d="M96 0v1570h170v-1570h-170zM62 1609l115 156h123l-151 -156h-87z" />
    <glyph glyph-name="uni013B" unicode="&#x13b;" horiz-adv-x="731" 
d="M63 0v1350h172v-1228h431v-122h-603zM255.17 -292.088l86.9961 224.758h128.701l-146.293 -224.758h-69.4043z" />
    <glyph glyph-name="uni013C" unicode="&#x13c;" horiz-adv-x="369" 
d="M96 0v1570h170v-1570h-170zM70.1699 -292.088l86.9961 224.758h128.701l-146.293 -224.758h-69.4043z" />
    <glyph glyph-name="Lcaron" unicode="&#x13d;" horiz-adv-x="765" 
d="M63 0v1350h172v-1228h431v-122h-603zM614 1076l65 272h116l-73 -272h-108z" />
    <glyph glyph-name="lcaron" unicode="&#x13e;" horiz-adv-x="369" 
d="M96 0v1570h170v-1570h-170zM125 1617l-156 163h101l112 -118l111 118h101l-156 -163h-113z" />
    <glyph glyph-name="Ldot" unicode="&#x13f;" horiz-adv-x="800" 
d="M63 0v1350h172v-1228h431v-122h-603zM513 597q-46 0 -77.5 31.5t-31.5 76.5t31.5 76.5t77.5 31.5q44 0 75.5 -31.5t31.5 -76.5t-31.5 -76.5t-75.5 -31.5z" />
    <glyph glyph-name="ldot" unicode="&#x140;" horiz-adv-x="531" 
d="M96 0v1570h170v-1570h-170zM411 594q-46 0 -77.5 31.5t-31.5 76.5t31.5 76.5t77.5 31.5q44 0 75.5 -31.5t31.5 -76.5t-31.5 -76.5t-75.5 -31.5z" />
    <glyph glyph-name="Lslash" unicode="&#x141;" horiz-adv-x="828" 
d="M40 422l-48 85l148 129v714h171v-566l166 144l48 -85l-214 -186v-535h431v-122h-602v509z" />
    <glyph glyph-name="lslash" unicode="&#x142;" horiz-adv-x="408" 
d="M2 440v142l107 92v896h169v-751l114 98v-142l-114 -98v-677h-169v531z" />
    <glyph glyph-name="Nacute" unicode="&#x143;" horiz-adv-x="1063" 
d="M63 0v1350h279l448 -1213l2 1213h170v-1350h-278l-451 1224v-1224h-170zM406 1389l115 156h123l-151 -156h-87z" />
    <glyph glyph-name="nacute" unicode="&#x144;" horiz-adv-x="894" 
d="M77 0v1190h158l7 -121q9 12 19 23q99 109 259 109q170 0 228.5 -132t58.5 -356v-713h-169v711q0 202 -44.5 285t-137.5 83q-92 0 -153 -81q-45 -60 -57 -141v-857h-169zM322 1228l115 156h123l-151 -156h-87z" />
    <glyph glyph-name="uni0145" unicode="&#x145;" horiz-adv-x="1063" 
d="M63 0v1350h279l448 -1213l2 1213h170v-1350h-278l-451 1224v-1224h-170zM411.17 -292.088l86.9961 224.758h128.701l-146.293 -224.758h-69.4043z" />
    <glyph glyph-name="uni0146" unicode="&#x146;" horiz-adv-x="894" 
d="M77 0v1190h158l7 -121q9 12 19 23q99 109 259 109q170 0 228.5 -132t58.5 -356v-713h-169v711q0 202 -44.5 285t-137.5 83q-92 0 -153 -81q-45 -60 -57 -141v-857h-169zM328.17 -292.088l86.9961 224.758h128.701l-146.293 -224.758h-69.4043z" />
    <glyph glyph-name="Ncaron" unicode="&#x147;" horiz-adv-x="1063" 
d="M63 0v1350h279l448 -1213l2 1213h170v-1350h-278l-451 1224v-1224h-170zM468 1397l-156 163h101l112 -118l111 118h101l-156 -163h-113z" />
    <glyph glyph-name="ncaron" unicode="&#x148;" horiz-adv-x="894" 
d="M77 0v1190h158l7 -121q9 12 19 23q99 109 259 109q170 0 228.5 -132t58.5 -356v-713h-169v711q0 202 -44.5 285t-137.5 83q-92 0 -153 -81q-45 -60 -57 -141v-857h-169zM385 1237l-156 163h101l112 -118l111 118h101l-156 -163h-113z" />
    <glyph glyph-name="Eng" unicode="&#x14a;" horiz-adv-x="1066" 
d="M534 -434v118q105 0 160.5 40t75.5 111t20 165h-106l-451 1224v-1224h-170v1350h279l448 -1213l2 1213h170v-1350h4q0 -219 -116.5 -326.5t-315.5 -107.5z" />
    <glyph glyph-name="eng" unicode="&#x14b;" horiz-adv-x="895" 
d="M408 -411v111q114 0 170.5 82t56.5 218h3v711q0 202 -44.5 285t-137.5 83q-92 0 -153 -81q-45 -60 -57 -141v-857h-169v1190h158l7 -121q9 12 19 23q99 109 259 109q170 0 228.5 -132t58.5 -356v-713h-3q0 -160 -46 -249.5t-134.5 -125.5t-215.5 -36z" />
    <glyph glyph-name="Omacron" unicode="&#x14c;" horiz-adv-x="992" 
d="M489 -9q-253 0 -344 150.5t-91 533.5q0 382 90.5 533.5t345 151.5t345 -151.5t90.5 -533.5q0 -383 -90.5 -533.5t-345.5 -150.5zM489 114q127 0 196 100t69 461q0 363 -69 462.5t-196 99.5q-126 0 -195 -99.5t-69 -462.5q0 -361 69 -461t195 -100zM260 1438v68h464v-68
h-464z" />
    <glyph glyph-name="omacron" unicode="&#x14d;" horiz-adv-x="923" 
d="M450 -9q-233 0 -315.5 144.5t-82.5 461.5q0 318 82.5 461.5t315.5 143.5t315.5 -143.5t82.5 -461.5q0 -317 -82.5 -461.5t-315.5 -144.5zM450 113q109 0 168.5 98t59.5 385q0 288 -59.5 386.5t-168.5 98.5t-168.5 -98.5t-59.5 -386.5q0 -287 59.5 -385t168.5 -98z
M218 1278v68h464v-68h-464z" />
    <glyph glyph-name="Obreve" unicode="&#x14e;" horiz-adv-x="992" 
d="M489 -9q-253 0 -344 150.5t-91 533.5q0 382 90.5 533.5t345 151.5t345 -151.5t90.5 -533.5q0 -383 -90.5 -533.5t-345.5 -150.5zM489 114q127 0 196 100t69 461q0 363 -69 462.5t-196 99.5q-126 0 -195 -99.5t-69 -462.5q0 -361 69 -461t195 -100zM491 1398
q-76 0 -117.5 42.5t-41.5 101.5h86q0 -81 73 -81q42 0 58 22t16 59h87q0 -59 -41 -101.5t-120 -42.5z" />
    <glyph glyph-name="obreve" unicode="&#x14f;" horiz-adv-x="923" 
d="M450 -9q-233 0 -315.5 144.5t-82.5 461.5q0 318 82.5 461.5t315.5 143.5t315.5 -143.5t82.5 -461.5q0 -317 -82.5 -461.5t-315.5 -144.5zM450 113q109 0 168.5 98t59.5 385q0 288 -59.5 386.5t-168.5 98.5t-168.5 -98.5t-59.5 -386.5q0 -287 59.5 -385t168.5 -98z
M449 1239q-76 0 -117.5 42.5t-41.5 101.5h86q0 -81 73 -81q42 0 58 22t16 59h87q0 -59 -41 -101.5t-120 -42.5z" />
    <glyph glyph-name="Ohungarumlaut" unicode="&#x150;" horiz-adv-x="992" 
d="M489 -9q-253 0 -344 150.5t-91 533.5q0 382 90.5 533.5t345 151.5t345 -151.5t90.5 -533.5q0 -383 -90.5 -533.5t-345.5 -150.5zM489 114q127 0 196 100t69 461q0 363 -69 462.5t-196 99.5q-126 0 -195 -99.5t-69 -462.5q0 -361 69 -461t195 -100zM429 1421l75 90
l-88 -90h-86l113 139h212l-139 -139h-87z" />
    <glyph glyph-name="ohungarumlaut" unicode="&#x151;" horiz-adv-x="923" 
d="M450 -9q-233 0 -315.5 144.5t-82.5 461.5q0 318 82.5 461.5t315.5 143.5t315.5 -143.5t82.5 -461.5q0 -317 -82.5 -461.5t-315.5 -144.5zM450 113q109 0 168.5 98t59.5 385q0 288 -59.5 386.5t-168.5 98.5t-168.5 -98.5t-59.5 -386.5q0 -287 59.5 -385t168.5 -98z
M387 1262l75 90l-88 -90h-86l113 139h212l-139 -139h-87z" />
    <glyph glyph-name="OE" unicode="&#x152;" horiz-adv-x="1502" 
d="M489 -9q-253 0 -344 150.5t-91 533.5q0 382 90.5 533.5t345 151.5t345 -151.5t90.5 -533.5q0 -383 -90.5 -533.5t-345.5 -150.5zM489 114q127 0 196 100t69 461q0 363 -69 462.5t-196 99.5q-126 0 -195 -99.5t-69 -462.5q0 -361 69 -461t195 -100zM757 0v1350h662v-122
h-491v-477h465v-119h-465v-509h491v-123h-662z" />
    <glyph glyph-name="oe" unicode="&#x153;" horiz-adv-x="1535" 
d="M450 -9q-233 0 -315.5 144.5t-82.5 461.5q0 318 82.5 461.5t315.5 143.5t315.5 -143.5t82.5 -461.5q0 -317 -82.5 -461.5t-315.5 -144.5zM450 113q109 0 168.5 98t59.5 385q0 288 -59.5 386.5t-168.5 98.5t-168.5 -98.5t-59.5 -386.5q0 -287 59.5 -385t168.5 -98z
M1065 -9q-236 0 -316 162t-80 442q0 307 82 456.5t313 149.5q236 0 313.5 -148t77.5 -453q0 -32 -2 -58h-616q5 -217 57 -319q58 -114 172 -114q89 0 150.5 77t66.5 236l158 -34q-10 -212 -109.5 -304.5t-266.5 -92.5zM837 653h449q-2 237 -56 332q-56 98 -166 98
q-108 0 -168 -101q-54 -91 -59 -329z" />
    <glyph glyph-name="Racute" unicode="&#x154;" horiz-adv-x="904" 
d="M63 0v1350h505q163 0 209 -114.5t46 -263.5q0 -148 -47 -258q-34 -79 -129 -101l175 -613h-182l-165 604h-240v-604h-172zM235 714h271q84 0 114.5 70.5t30.5 186.5q0 114 -30.5 185.5t-114.5 71.5h-271v-514zM323 1389l115 156h123l-151 -156h-87z" />
    <glyph glyph-name="racute" unicode="&#x155;" horiz-adv-x="869" 
d="M613 637q0 260 -39.5 350.5t-125.5 90.5q-95 0 -148 -77q-49 -70 -54 -149v-852h-169v1190h159l6 -115q13 18 29 34q91 92 241 92q166 0 218 -135.5t52 -428.5h-169zM337 1228l115 156h123l-151 -156h-87z" />
    <glyph glyph-name="uni0156" unicode="&#x156;" horiz-adv-x="904" 
d="M63 0v1350h505q163 0 209 -114.5t46 -263.5q0 -148 -47 -258q-34 -79 -129 -101l175 -613h-182l-165 604h-240v-604h-172zM235 714h271q84 0 114.5 70.5t30.5 186.5q0 114 -30.5 185.5t-114.5 71.5h-271v-514zM329.17 -292.088l86.9961 224.758h128.701
l-146.293 -224.758h-69.4043z" />
    <glyph glyph-name="uni0157" unicode="&#x157;" horiz-adv-x="869" 
d="M613 637q0 260 -39.5 350.5t-125.5 90.5q-95 0 -148 -77q-49 -70 -54 -149v-852h-169v1190h159l6 -115q13 18 29 34q91 92 241 92q166 0 218 -135.5t52 -428.5h-169zM247.17 -292.088l86.9961 224.758h128.701l-146.293 -224.758h-69.4043z" />
    <glyph glyph-name="Rcaron" unicode="&#x158;" horiz-adv-x="904" 
d="M63 0v1350h505q163 0 209 -114.5t46 -263.5q0 -148 -47 -258q-34 -79 -129 -101l175 -613h-182l-165 604h-240v-604h-172zM235 714h271q84 0 114.5 70.5t30.5 186.5q0 114 -30.5 185.5t-114.5 71.5h-271v-514zM386 1397l-156 163h101l112 -118l111 118h101l-156 -163
h-113z" />
    <glyph glyph-name="rcaron" unicode="&#x159;" horiz-adv-x="869" 
d="M613 637q0 260 -39.5 350.5t-125.5 90.5q-95 0 -148 -77q-49 -70 -54 -149v-852h-169v1190h159l6 -115q13 18 29 34q91 92 241 92q166 0 218 -135.5t52 -428.5h-169zM400 1237l-156 163h101l112 -118l111 118h101l-156 -163h-113z" />
    <glyph glyph-name="Sacute" unicode="&#x15a;" horiz-adv-x="929" 
d="M344 1469l115 156h123l-151 -156h-87zM450 -9q-252 0 -326.5 120t-74.5 398h172q0 -257 55.5 -327t172.5 -70t173.5 62t56.5 162q0 130 -69 183.5t-212 96.5q-196 63 -272 138t-76 241q0 137 77 251t322 114q249 0 324.5 -124t75.5 -387h-172q0 248 -57.5 318.5
t-171.5 70.5q-116 0 -173 -63.5t-57 -156.5q0 -125 70 -179t211 -98q199 -63 275 -134t76 -244q0 -143 -76 -257.5t-324 -114.5z" />
    <glyph glyph-name="sacute" unicode="&#x15b;" horiz-adv-x="899" 
d="M449 -9q-182 0 -276.5 80t-110.5 307l158 37q7 -179 66 -241.5t160 -62.5q112 0 159 47t47 140q0 119 -59 163t-198 79q-179 42 -253.5 106.5t-74.5 232.5q0 153 93.5 237t282.5 84q187 0 272.5 -84.5t99.5 -290.5l-155 -36q-7 158 -59.5 225t-159.5 67
q-105 0 -154.5 -57t-49.5 -145q0 -110 61.5 -146t193.5 -69q180 -43 255 -115t75 -242q0 -168 -90 -242t-283 -74zM325 1228l115 156h123l-151 -156h-87z" />
    <glyph glyph-name="Scircumflex" unicode="&#x15c;" horiz-adv-x="929" 
d="M450 -9q-252 0 -326.5 120t-74.5 398h172q0 -257 55.5 -327t172.5 -70t173.5 62t56.5 162q0 130 -69 183.5t-212 96.5q-196 63 -272 138t-76 241q0 137 77 251t322 114q249 0 324.5 -124t75.5 -387h-172q0 248 -57.5 318.5t-171.5 70.5q-116 0 -173 -63.5t-57 -156.5
q0 -125 70 -179t211 -98q199 -63 275 -134t76 -244q0 -143 -76 -257.5t-324 -114.5zM242 1401l156 163h113l156 -163h-101l-111 118l-112 -118h-101z" />
    <glyph glyph-name="scircumflex" unicode="&#x15d;" horiz-adv-x="899" 
d="M449 -9q-182 0 -276.5 80t-110.5 307l158 37q7 -179 66 -241.5t160 -62.5q112 0 159 47t47 140q0 119 -59 163t-198 79q-179 42 -253.5 106.5t-74.5 232.5q0 153 93.5 237t282.5 84q187 0 272.5 -84.5t99.5 -290.5l-155 -36q-7 158 -59.5 225t-159.5 67
q-105 0 -154.5 -57t-49.5 -145q0 -110 61.5 -146t193.5 -69q180 -43 255 -115t75 -242q0 -168 -90 -242t-283 -74zM231 1240l156 163h113l156 -163h-101l-111 118l-112 -118h-101z" />
    <glyph glyph-name="Scedilla" unicode="&#x15e;" horiz-adv-x="930" 
d="M453 -280q-62 0 -118 14l25 75q16 -4 40.5 -7.5t52.5 -3.5q97 0 97 54q0 36 -44 36q-34 0 -66 -20l-66 11l34 120h73l-26 -84q16 11 40.5 18.5t54.5 7.5q44 0 73 -22t29 -67q0 -67 -61.5 -99.5t-137.5 -32.5zM450 -9q-252 0 -326.5 120t-74.5 398h172q0 -257 55.5 -327
t172.5 -70t173.5 62t56.5 162q0 130 -69 183.5t-212 96.5q-196 63 -272 138t-76 241q0 137 77 251t322 114q249 0 324.5 -124t75.5 -387h-172q0 248 -57.5 318.5t-171.5 70.5q-116 0 -173 -63.5t-57 -156.5q0 -125 70 -179t211 -98q199 -63 275 -134t76 -244
q0 -143 -76 -257.5t-324 -114.5z" />
    <glyph glyph-name="scedilla" unicode="&#x15f;" horiz-adv-x="899" 
d="M449 -9q-182 0 -276.5 80t-110.5 307l158 37q7 -179 66 -241.5t160 -62.5q112 0 159 47t47 140q0 119 -59 163t-198 79q-179 42 -253.5 106.5t-74.5 232.5q0 153 93.5 237t282.5 84q187 0 272.5 -84.5t99.5 -290.5l-155 -36q-7 158 -59.5 225t-159.5 67
q-105 0 -154.5 -57t-49.5 -145q0 -110 61.5 -146t193.5 -69q180 -43 255 -115t75 -242q0 -168 -90 -242t-283 -74zM455 -279q-62 0 -118 14l25 75q16 -4 40.5 -7.5t52.5 -3.5q97 0 97 54q0 36 -44 36q-34 0 -66 -20l-66 11l34 120h73l-26 -84q16 11 40.5 18.5t54.5 7.5
q44 0 73 -22t29 -67q0 -67 -61.5 -99.5t-137.5 -32.5z" />
    <glyph glyph-name="Scaron" unicode="&#x160;" horiz-adv-x="929" 
d="M389 1465l-156 163h101l112 -118l111 118h101l-156 -163h-113zM450 -9q-252 0 -326.5 120t-74.5 398h172q0 -257 55.5 -327t172.5 -70t173.5 62t56.5 162q0 130 -69 183.5t-212 96.5q-196 63 -272 138t-76 241q0 137 77 251t322 114q249 0 324.5 -124t75.5 -387h-172
q0 248 -57.5 318.5t-171.5 70.5q-116 0 -173 -63.5t-57 -156.5q0 -125 70 -179t211 -98q199 -63 275 -134t76 -244q0 -143 -76 -257.5t-324 -114.5z" />
    <glyph glyph-name="scaron" unicode="&#x161;" horiz-adv-x="899" 
d="M449 -9q-182 0 -276.5 80t-110.5 307l158 37q7 -179 66 -241.5t160 -62.5q112 0 159 47t47 140q0 119 -59 163t-198 79q-179 42 -253.5 106.5t-74.5 232.5q0 153 93.5 237t282.5 84q187 0 272.5 -84.5t99.5 -290.5l-155 -36q-7 158 -59.5 225t-159.5 67
q-105 0 -154.5 -57t-49.5 -145q0 -110 61.5 -146t193.5 -69q180 -43 255 -115t75 -242q0 -168 -90 -242t-283 -74zM387 1237l-156 163h101l112 -118l111 118h101l-156 -163h-113z" />
    <glyph glyph-name="uni0162" unicode="&#x162;" horiz-adv-x="880" 
d="M352 0v1228h-302v122h775v-122h-302v-1228h-171zM448 -279q-62 0 -118 14l25 75q16 -4 40.5 -7.5t52.5 -3.5q97 0 97 54q0 36 -44 36q-34 0 -66 -20l-66 11l34 120h73l-26 -84q16 11 40.5 18.5t54.5 7.5q44 0 73 -22t29 -67q0 -67 -61.5 -99.5t-137.5 -32.5z" />
    <glyph glyph-name="uni0163" unicode="&#x163;" horiz-adv-x="756" 
d="M463 -12q-109 0 -173 48.5t-64 189.5v841h-205v123h205v260h170v-260h287v-123h-287v-801q0 -97 31 -127t92 -30q53 0 110 12v-119q-88 -14 -166 -14zM453 -278q-62 0 -118 14l25 75q16 -4 40.5 -7.5t52.5 -3.5q97 0 97 54q0 36 -44 36q-34 0 -66 -20l-66 11l34 120h73
l-26 -84q16 11 40.5 18.5t54.5 7.5q44 0 73 -22t29 -67q0 -67 -61.5 -99.5t-137.5 -32.5z" />
    <glyph glyph-name="Tcaron" unicode="&#x164;" horiz-adv-x="880" 
d="M352 0v1228h-302v122h775v-122h-302v-1228h-171zM384 1397l-156 163h101l112 -118l111 118h101l-156 -163h-113z" />
    <glyph glyph-name="tcaron" unicode="&#x165;" horiz-adv-x="822" 
d="M463 -12q-109 0 -173 48.5t-64 189.5v841h-205v123h205v260h170v-260h287v-123h-287v-801q0 -97 31 -127t92 -30q53 0 110 12v-119q-88 -14 -166 -14zM699 1235l30 210h93l-41 -210h-82z" />
    <glyph glyph-name="Tbar" unicode="&#x166;" horiz-adv-x="880" 
d="M103 807v108h249v313h-302v122h775v-122h-302v-313h249v-108h-249v-807h-171v807h-249z" />
    <glyph glyph-name="tbar" unicode="&#x167;" horiz-adv-x="740" 
d="M56 608v102h170v357h-205v123h205v260h170v-260h287v-123h-287v-357h177v-102h-177v-342q0 -97 31 -127t92 -30q53 0 110 12v-119q-88 -14 -166 -14q-109 0 -173 48.5t-64 189.5v382h-170z" />
    <glyph glyph-name="Utilde" unicode="&#x168;" horiz-adv-x="981" 
d="M478 -9q-200 0 -301.5 79.5t-101.5 273.5v1006h172v-984q0 -141 57.5 -197t174 -56t174 56t57.5 197v984h172v-1006q0 -194 -101.5 -273.5t-302.5 -79.5zM573 1423q-41 0 -67.5 15t-48 30.5t-49.5 15.5q-32 0 -45.5 -18t-14.5 -34h-87q1 23 13 51.5t41 49.5t82 21
q40 0 64 -15t46 -30t54 -15q29 0 43.5 18t15.5 34h86q-1 -21 -11.5 -50t-39 -51t-82.5 -22z" />
    <glyph glyph-name="utilde" unicode="&#x169;" horiz-adv-x="901" 
d="M645 0l-8 124q-10 -13 -21 -25q-99 -110 -260 -110q-169 0 -228 132.5t-59 355.5v714h170v-711q0 -202 44 -285t138 -83q92 0 152 81q55 73 60 176v821h170v-1190h-158zM530 1262q-41 0 -67.5 15t-48 30.5t-49.5 15.5q-32 0 -45.5 -18t-14.5 -34h-87q1 23 13 51.5
t41 49.5t82 21q40 0 64 -15t46 -30t54 -15q29 0 43.5 18t15.5 34h86q-1 -21 -11.5 -50t-39 -51t-82.5 -22z" />
    <glyph glyph-name="Umacron" unicode="&#x16a;" horiz-adv-x="981" 
d="M478 -9q-200 0 -301.5 79.5t-101.5 273.5v1006h172v-984q0 -141 57.5 -197t174 -56t174 56t57.5 197v984h172v-1006q0 -194 -101.5 -273.5t-302.5 -79.5zM251 1438v68h464v-68h-464z" />
    <glyph glyph-name="umacron" unicode="&#x16b;" horiz-adv-x="901" 
d="M645 0l-8 124q-10 -13 -21 -25q-99 -110 -260 -110q-169 0 -228 132.5t-59 355.5v714h170v-711q0 -202 44 -285t138 -83q92 0 152 81q55 73 60 176v821h170v-1190h-158zM208 1277v68h464v-68h-464z" />
    <glyph glyph-name="Ubreve" unicode="&#x16c;" horiz-adv-x="981" 
d="M478 -9q-200 0 -301.5 79.5t-101.5 273.5v1006h172v-984q0 -141 57.5 -197t174 -56t174 56t57.5 197v984h172v-1006q0 -194 -101.5 -273.5t-302.5 -79.5zM482 1398q-76 0 -117.5 42.5t-41.5 101.5h86q0 -81 73 -81q42 0 58 22t16 59h87q0 -59 -41 -101.5t-120 -42.5z" />
    <glyph glyph-name="ubreve" unicode="&#x16d;" horiz-adv-x="901" 
d="M645 0l-8 124q-10 -13 -21 -25q-99 -110 -260 -110q-169 0 -228 132.5t-59 355.5v714h170v-711q0 -202 44 -285t138 -83q92 0 152 81q55 73 60 176v821h170v-1190h-158zM439 1238q-76 0 -117.5 42.5t-41.5 101.5h86q0 -81 73 -81q42 0 58 22t16 59h87q0 -59 -41 -101.5
t-120 -42.5z" />
    <glyph glyph-name="Uring" unicode="&#x16e;" horiz-adv-x="981" 
d="M478 -9q-200 0 -301.5 79.5t-101.5 273.5v1006h172v-984q0 -141 57.5 -197t174 -56t174 56t57.5 197v984h172v-1006q0 -194 -101.5 -273.5t-302.5 -79.5zM483 1385q-47 0 -78.5 32.5t-31.5 80.5q0 46 31 78.5t79 32.5q47 0 78.5 -32.5t31.5 -78.5q0 -47 -31.5 -80
t-78.5 -33zM483 1453q18 0 30 12.5t12 32.5q0 19 -12 31t-30 12t-30.5 -12t-12.5 -31q0 -20 12.5 -32.5t30.5 -12.5z" />
    <glyph glyph-name="uring" unicode="&#x16f;" horiz-adv-x="901" 
d="M645 0l-8 124q-10 -13 -21 -25q-99 -110 -260 -110q-169 0 -228 132.5t-59 355.5v714h170v-711q0 -202 44 -285t138 -83q92 0 152 81q55 73 60 176v821h170v-1190h-158zM440 1225q-47 0 -78.5 32.5t-31.5 80.5q0 46 31 78.5t79 32.5q47 0 78.5 -32.5t31.5 -78.5
q0 -47 -31.5 -80t-78.5 -33zM440 1293q18 0 30 12.5t12 32.5q0 19 -12 31t-30 12t-30.5 -12t-12.5 -31q0 -20 12.5 -32.5t30.5 -12.5z" />
    <glyph glyph-name="Uhungarumlaut" unicode="&#x170;" horiz-adv-x="981" 
d="M478 -9q-200 0 -301.5 79.5t-101.5 273.5v1006h172v-984q0 -141 57.5 -197t174 -56t174 56t57.5 197v984h172v-1006q0 -194 -101.5 -273.5t-302.5 -79.5zM419 1421l75 90l-88 -90h-86l113 139h212l-139 -139h-87z" />
    <glyph glyph-name="uhungarumlaut" unicode="&#x171;" horiz-adv-x="901" 
d="M645 0l-8 124q-10 -13 -21 -25q-99 -110 -260 -110q-169 0 -228 132.5t-59 355.5v714h170v-711q0 -202 44 -285t138 -83q92 0 152 81q55 73 60 176v821h170v-1190h-158zM376 1261l75 90l-88 -90h-86l113 139h212l-139 -139h-87z" />
    <glyph glyph-name="Uogonek" unicode="&#x172;" horiz-adv-x="981" 
d="M478 -9q-200 0 -301.5 79.5t-101.5 273.5v1006h172v-984q0 -141 57.5 -197t174 -56t174 56t57.5 197v984h172v-1006q0 -194 -101.5 -273.5t-302.5 -79.5zM529 -251q-37 0 -77 8.5t-68 31.5t-28 67q0 39 18.5 70.5t39.5 51t29 22.5h90q-4 -4 -18.5 -21.5t-27.5 -42
t-13 -47.5q0 -26 22.5 -36t53.5 -10q26 0 54 4.5t39 9.5l13 -93q-9 -3 -47 -9t-80 -6z" />
    <glyph glyph-name="uogonek" unicode="&#x173;" horiz-adv-x="901" 
d="M645 0l-8 124q-10 -13 -21 -25q-99 -110 -260 -110q-169 0 -228 132.5t-59 355.5v714h170v-711q0 -202 44 -285t138 -83q92 0 152 81q55 73 60 176v821h170v-1190h-158zM732 -251q-37 0 -77 8.5t-68 31.5t-28 67q0 39 18.5 70.5t39.5 51t29 22.5h90q-4 -4 -18.5 -21.5
t-27.5 -42t-13 -47.5q0 -26 22.5 -36t53.5 -10q26 0 54 4.5t39 9.5l13 -93q-9 -3 -47 -9t-80 -6z" />
    <glyph glyph-name="Wcircumflex" unicode="&#x174;" horiz-adv-x="1416" 
d="M240 0l-193 1350h183l153 -1220l206 1220h218l205 -1221l157 1221h182l-196 -1350h-262l-195 1230l-196 -1230h-262zM496 1401l156 163h113l156 -163h-101l-111 118l-112 -118h-101z" />
    <glyph glyph-name="wcircumflex" unicode="&#x175;" horiz-adv-x="1294" 
d="M231 0l-178 1190h176l129 -1070l186 1070h197l187 -1069l127 1069h175l-176 -1190h-248l-163 985l-162 -985h-250zM430 1241l156 163h113l156 -163h-101l-111 118l-112 -118h-101z" />
    <glyph glyph-name="Ycircumflex" unicode="&#x176;" horiz-adv-x="960" 
d="M388 0v474l-355 876h186l255 -708l253 708h186l-354 -877v-473h-171zM263 1401l156 163h113l156 -163h-101l-111 118l-112 -118h-101z" />
    <glyph glyph-name="ycircumflex" unicode="&#x177;" horiz-adv-x="847" 
d="M283 0l-253 1190h178l211 -1038l211 1038h178l-254 -1190q-57 -261 -174.5 -361t-315.5 -100v123q128 0 209 72q82 72 124 266h-114zM206 1241l156 163h113l156 -163h-101l-111 118l-112 -118h-101z" />
    <glyph glyph-name="Ydieresis" unicode="&#x178;" horiz-adv-x="960" 
d="M388 0v474l-355 876h186l255 -708l253 708h186l-354 -877v-473h-171zM602 1415q-26 0 -44.5 18.5t-18.5 44.5t18.5 44.5t44.5 18.5t44.5 -18.5t18.5 -44.5t-18.5 -44.5t-44.5 -18.5zM349 1415q-26 0 -44.5 18.5t-18.5 44.5t18.5 44.5t44.5 18.5t44.5 -18.5t18.5 -44.5
t-18.5 -44.5t-44.5 -18.5z" />
    <glyph glyph-name="Zacute" unicode="&#x179;" horiz-adv-x="820" 
d="M53 0v126l485 1102h-477v122h658v-122l-485 -1106h507v-122h-688zM291 1389l115 156h123l-151 -156h-87z" />
    <glyph glyph-name="zacute" unicode="&#x17a;" horiz-adv-x="743" 
d="M52 0v121l438 947h-430v122h605v-122l-433 -946h442v-122h-622zM248 1228l115 156h123l-151 -156h-87z" />
    <glyph glyph-name="Zdotaccent" unicode="&#x17b;" horiz-adv-x="820" 
d="M53 0v126l485 1102h-477v122h658v-122l-485 -1106h507v-122h-688zM411 1408q-28 0 -47 19t-19 47q0 27 19 45.5t47 18.5q26 0 45 -18.5t19 -45.5t-19 -46.5t-45 -19.5z" />
    <glyph glyph-name="zdotaccent" unicode="&#x17c;" horiz-adv-x="743" 
d="M52 0v121l438 947h-430v122h605v-122l-433 -946h442v-122h-622zM368 1248q-28 0 -47 19t-19 47q0 27 19 45.5t47 18.5q26 0 45 -18.5t19 -45.5t-19 -46.5t-45 -19.5z" />
    <glyph glyph-name="Zcaron" unicode="&#x17d;" horiz-adv-x="820" 
d="M53 0v126l485 1102h-477v122h658v-122l-485 -1106h507v-122h-688zM354 1397l-156 163h101l112 -118l111 118h101l-156 -163h-113z" />
    <glyph glyph-name="zcaron" unicode="&#x17e;" horiz-adv-x="743" 
d="M52 0v121l438 947h-430v122h605v-122l-433 -946h442v-122h-622zM311 1237l-156 163h101l112 -118l111 118h101l-156 -163h-113z" />
    <glyph glyph-name="uni018F" unicode="&#x18f;" horiz-adv-x="907" 
d="M446 -10q-236 0 -314 161t-78 520q0 32 3 59h616q-4 269 -55 384q-55 127 -174 127q-90 0 -151 -79.5t-66 -238.5l-158 34q10 212 109.5 307t265.5 95q237 0 316.5 -173.5t79.5 -509.5q0 -362 -81.5 -524t-312.5 -162zM673 619h-449q2 -298 57 -403q58 -108 165 -108
q110 0 169 111q54 102 58 400z" />
    <glyph glyph-name="florin" unicode="&#x192;" horiz-adv-x="783" 
d="M-190 -412l20 116h62q96 0 148 42.5t63 121.5l157 1200h-183l19 122h183l15 114q23 135 132 202t297 67h83l-18 -116h-78q-113 0 -174 -41.5t-73 -114.5l-15 -111h299l-19 -122h-298l-159 -1203q-20 -139 -120.5 -208t-269.5 -69h-71z" />
    <glyph glyph-name="Ohorn" unicode="&#x1a0;" horiz-adv-x="992" 
d="M489 -9q-253 0 -344 150.5t-91 533.5q0 382 90.5 533.5t345 151.5t345 -151.5t90.5 -533.5q0 -383 -90.5 -533.5t-345.5 -150.5zM489 114q127 0 196 100t69 461q0 363 -69 462.5t-196 99.5q-126 0 -195 -99.5t-69 -462.5q0 -361 69 -461t195 -100zM800 1210
q100 0 134.5 34.5t34.5 111.5h99q0 -107 -65 -157t-203 -50v61z" />
    <glyph glyph-name="ohorn" unicode="&#x1a1;" horiz-adv-x="1026" 
d="M450 -9q-233 0 -315.5 144.5t-82.5 461.5q0 318 82.5 461.5t315.5 143.5t315.5 -143.5t82.5 -461.5q0 -317 -82.5 -461.5t-315.5 -144.5zM450 113q109 0 168.5 98t59.5 385q0 288 -59.5 386.5t-168.5 98.5t-168.5 -98.5t-59.5 -386.5q0 -287 59.5 -385t168.5 -98z
M742 1073q100 0 134.5 34.5t34.5 111.5h99q0 -107 -65 -157t-203 -50v61z" />
    <glyph glyph-name="Uhorn" unicode="&#x1af;" horiz-adv-x="981" 
d="M478 -9q-200 0 -301.5 79.5t-101.5 273.5v1006h172v-984q0 -141 57.5 -197t174 -56t174 56t57.5 197v984h172v-1006q0 -194 -101.5 -273.5t-302.5 -79.5zM880 1253q100 0 134.5 34.5t34.5 111.5h99q0 -107 -65 -157t-203 -50v61z" />
    <glyph glyph-name="uhorn" unicode="&#x1b0;" horiz-adv-x="1067" 
d="M645 0l-8 124q-10 -13 -21 -25q-99 -110 -260 -110q-169 0 -228 132.5t-59 355.5v714h170v-711q0 -202 44 -285t138 -83q92 0 152 81q55 73 60 176v821h170v-1190h-158zM798 1189q100 0 134.5 34.5t34.5 111.5h99q0 -107 -65 -157t-203 -50v61z" />
    <glyph glyph-name="uni01C4" unicode="&#x1c4;" horiz-adv-x="1743" 
d="M63 0v1350h435q211 0 284.5 -140.5t73.5 -534.5t-73.5 -534.5t-284.5 -140.5h-435zM234 123h215q124 0 180 94t56 458q0 363 -56 458t-180 95h-215v-1105zM976 0v126l485 1102h-477v122h658v-122l-485 -1106h507v-122h-688zM1276 1397l-156 163h101l112 -118l111 118h101
l-156 -163h-113z" />
    <glyph glyph-name="uni01C5" unicode="&#x1c5;" horiz-adv-x="1666" 
d="M63 0v1350h435q211 0 284.5 -140.5t73.5 -534.5t-73.5 -534.5t-284.5 -140.5h-435zM234 123h215q124 0 180 94t56 458q0 363 -56 458t-180 95h-215v-1105zM975 0v121l438 947h-430v122h605v-122l-433 -946h442v-122h-622zM1234 1237l-156 163h101l112 -118l111 118h101
l-156 -163h-113z" />
    <glyph glyph-name="uni01C6" unicode="&#x1c6;" horiz-adv-x="1652" 
d="M667 0l-10 109q-15 -16 -34 -31q-105 -85 -254 -85q-175 0 -246 148.5t-71 455.5q0 308 71 456t246 148q149 0 254 -86q15 -12 28 -25v480h170v-1570h-154zM651 341v511q-5 85 -64 153q-65 74 -158 74q-99 0 -152.5 -97t-53.5 -385q0 -289 53.5 -386t152.5 -97
q93 0 158 74q59 68 64 153zM961 0v121l438 947h-430v122h605v-122l-433 -946h442v-122h-622zM1219 1237l-156 163h101l112 -118l111 118h101l-156 -163h-113z" />
    <glyph glyph-name="uni01C7" unicode="&#x1c7;" horiz-adv-x="1642" 
d="M63 0v1350h172v-1228h431v-122h-603zM1159 -11q-189 0 -282.5 80t-93.5 255v281h171v-255q0 -126 47 -183t158 -57q110 0 157.5 58t47.5 187v995h171v-1023q0 -175 -92.5 -256.5t-283.5 -81.5z" />
    <glyph glyph-name="uni01C8" unicode="&#x1c8;" horiz-adv-x="1136" 
d="M63 0v1350h172v-1228h431v-122h-603zM636 -459v122q101 0 155 55.5t54 213.5v1259h169v-1252q0 -234 -96 -316t-282 -82zM845 1500h170v-165h-170v165z" />
    <glyph glyph-name="uni01C9" unicode="&#x1c9;" horiz-adv-x="774" 
d="M96 0v1570h170v-1570h-170zM274 -459v122q101 0 155 55.5t54 213.5v1259h169v-1252q0 -234 -96 -316t-282 -82zM483 1500h170v-165h-170v165z" />
    <glyph glyph-name="uni01CA" unicode="&#x1ca;" horiz-adv-x="1975" 
d="M63 0v1350h279l448 -1213l2 1213h170v-1350h-278l-451 1224v-1224h-170zM1491 -11q-189 0 -282.5 80t-93.5 255v281h171v-255q0 -126 47 -183t158 -57q110 0 157.5 58t47.5 187v995h171v-1023q0 -175 -92.5 -256.5t-283.5 -81.5z" />
    <glyph glyph-name="uni01CB" unicode="&#x1cb;" horiz-adv-x="1468" 
d="M63 0v1350h279l448 -1213l2 1213h170v-1350h-278l-451 1224v-1224h-170zM968 -459v122q101 0 155 55.5t54 213.5v1259h169v-1252q0 -234 -96 -316t-282 -82zM1177 1500h170v-165h-170v165z" />
    <glyph glyph-name="uni01CC" unicode="&#x1cc;" horiz-adv-x="1300" 
d="M77 0v1190h158l7 -121q9 12 19 23q99 109 259 109q170 0 228.5 -132t58.5 -356v-713h-169v711q0 202 -44.5 285t-137.5 83q-92 0 -153 -81q-45 -60 -57 -141v-857h-169zM799 -459v122q101 0 155 55.5t54 213.5v1259h169v-1252q0 -234 -96 -316t-282 -82zM1008 1500h170
v-165h-170v165z" />
    <glyph glyph-name="uni01CD" unicode="&#x1cd;" horiz-adv-x="999" 
d="M48 0l316 1351h268l316 -1351h-176l-84 385h-379l-84 -385h-177zM331 505h336l-164 737h-8zM441 1397l-156 163h101l112 -118l111 118h101l-156 -163h-113z" />
    <glyph glyph-name="uni01CE" unicode="&#x1ce;" horiz-adv-x="912" 
d="M678 0l-17 89q-16 -17 -36 -33q-85 -66 -247 -66t-241 91t-79 273q0 176 78 259t277 83h238v51q0 169 -48.5 251t-153.5 82q-91 0 -148 -73.5t-62 -218.5l-170 31q10 197 104 289.5t271 92.5q237 0 307.5 -136t70.5 -374v-691h-144zM651 248v338h-193q-131 0 -178 -56.5
t-47 -172.5q0 -112 43.5 -181.5t145.5 -69.5q101 0 165 44t64 98zM389 1237l-156 163h101l112 -118l111 118h101l-156 -163h-113z" />
    <glyph glyph-name="uni01CF" unicode="&#x1cf;" horiz-adv-x="409" 
d="M104 0v1350h171v-1350h-171zM133 1397l-156 163h101l112 -118l111 118h101l-156 -163h-113z" />
    <glyph glyph-name="uni01D0" unicode="&#x1d0;" horiz-adv-x="359" 
d="M79 0v1191h171v-1191h-171zM109 1237l-156 163h101l112 -118l111 118h101l-156 -163h-113z" />
    <glyph glyph-name="uni01D1" unicode="&#x1d1;" horiz-adv-x="992" 
d="M489 -9q-253 0 -344 150.5t-91 533.5q0 382 90.5 533.5t345 151.5t345 -151.5t90.5 -533.5q0 -383 -90.5 -533.5t-345.5 -150.5zM489 114q127 0 196 100t69 461q0 363 -69 462.5t-196 99.5q-126 0 -195 -99.5t-69 -462.5q0 -361 69 -461t195 -100zM436 1397l-156 163h101
l112 -118l111 118h101l-156 -163h-113z" />
    <glyph glyph-name="uni01D2" unicode="&#x1d2;" horiz-adv-x="923" 
d="M450 -9q-233 0 -315.5 144.5t-82.5 461.5q0 318 82.5 461.5t315.5 143.5t315.5 -143.5t82.5 -461.5q0 -317 -82.5 -461.5t-315.5 -144.5zM450 113q109 0 168.5 98t59.5 385q0 288 -59.5 386.5t-168.5 98.5t-168.5 -98.5t-59.5 -386.5q0 -287 59.5 -385t168.5 -98z
M394 1238l-156 163h101l112 -118l111 118h101l-156 -163h-113z" />
    <glyph glyph-name="uni01D3" unicode="&#x1d3;" horiz-adv-x="981" 
d="M478 -9q-200 0 -301.5 79.5t-101.5 273.5v1006h172v-984q0 -141 57.5 -197t174 -56t174 56t57.5 197v984h172v-1006q0 -194 -101.5 -273.5t-302.5 -79.5zM426 1397l-156 163h101l112 -118l111 118h101l-156 -163h-113z" />
    <glyph glyph-name="uni01D4" unicode="&#x1d4;" horiz-adv-x="901" 
d="M645 0l-8 124q-10 -13 -21 -25q-99 -110 -260 -110q-169 0 -228 132.5t-59 355.5v714h170v-711q0 -202 44 -285t138 -83q92 0 152 81q55 73 60 176v821h170v-1190h-158zM383 1237l-156 163h101l112 -118l111 118h101l-156 -163h-113z" />
    <glyph glyph-name="uni01D5" unicode="&#x1d5;" horiz-adv-x="981" 
d="M478 -9q-200 0 -301.5 79.5t-101.5 273.5v1006h172v-984q0 -141 57.5 -197t174 -56t174 56t57.5 197v984h172v-1006q0 -194 -101.5 -273.5t-302.5 -79.5zM609 1415q-26 0 -44.5 18.5t-18.5 44.5t18.5 44.5t44.5 18.5t44.5 -18.5t18.5 -44.5t-18.5 -44.5t-44.5 -18.5z
M356 1415q-26 0 -44.5 18.5t-18.5 44.5t18.5 44.5t44.5 18.5t44.5 -18.5t18.5 -44.5t-18.5 -44.5t-44.5 -18.5zM245 1648v68h464v-68h-464z" />
    <glyph glyph-name="uni01D6" unicode="&#x1d6;" horiz-adv-x="901" 
d="M645 0l-8 124q-10 -13 -21 -25q-99 -110 -260 -110q-169 0 -228 132.5t-59 355.5v714h170v-711q0 -202 44 -285t138 -83q92 0 152 81q55 73 60 176v821h170v-1190h-158zM566 1255q-26 0 -44.5 18.5t-18.5 44.5t18.5 44.5t44.5 18.5t44.5 -18.5t18.5 -44.5t-18.5 -44.5
t-44.5 -18.5zM313 1255q-26 0 -44.5 18.5t-18.5 44.5t18.5 44.5t44.5 18.5t44.5 -18.5t18.5 -44.5t-18.5 -44.5t-44.5 -18.5zM208 1469v68h464v-68h-464z" />
    <glyph glyph-name="uni01D7" unicode="&#x1d7;" horiz-adv-x="981" 
d="M478 -9q-200 0 -301.5 79.5t-101.5 273.5v1006h172v-984q0 -141 57.5 -197t174 -56t174 56t57.5 197v984h172v-1006q0 -194 -101.5 -273.5t-302.5 -79.5zM609 1415q-26 0 -44.5 18.5t-18.5 44.5t18.5 44.5t44.5 18.5t44.5 -18.5t18.5 -44.5t-18.5 -44.5t-44.5 -18.5z
M356 1415q-26 0 -44.5 18.5t-18.5 44.5t18.5 44.5t44.5 18.5t44.5 -18.5t18.5 -44.5t-18.5 -44.5t-44.5 -18.5zM378 1634l115 156h123l-151 -156h-87z" />
    <glyph glyph-name="uni01D8" unicode="&#x1d8;" horiz-adv-x="901" 
d="M645 0l-8 124q-10 -13 -21 -25q-99 -110 -260 -110q-169 0 -228 132.5t-59 355.5v714h170v-711q0 -202 44 -285t138 -83q92 0 152 81q55 73 60 176v821h170v-1190h-158zM566 1255q-26 0 -44.5 18.5t-18.5 44.5t18.5 44.5t44.5 18.5t44.5 -18.5t18.5 -44.5t-18.5 -44.5
t-44.5 -18.5zM313 1255q-26 0 -44.5 18.5t-18.5 44.5t18.5 44.5t44.5 18.5t44.5 -18.5t18.5 -44.5t-18.5 -44.5t-44.5 -18.5zM355 1402l115 156h123l-151 -156h-87z" />
    <glyph glyph-name="uni01D9" unicode="&#x1d9;" horiz-adv-x="981" 
d="M478 -9q-200 0 -301.5 79.5t-101.5 273.5v1006h172v-984q0 -141 57.5 -197t174 -56t174 56t57.5 197v984h172v-1006q0 -194 -101.5 -273.5t-302.5 -79.5zM609 1415q-26 0 -44.5 18.5t-18.5 44.5t18.5 44.5t44.5 18.5t44.5 -18.5t18.5 -44.5t-18.5 -44.5t-44.5 -18.5z
M356 1415q-26 0 -44.5 18.5t-18.5 44.5t18.5 44.5t44.5 18.5t44.5 -18.5t18.5 -44.5t-18.5 -44.5t-44.5 -18.5zM428 1627l-156 163h101l112 -118l111 118h101l-156 -163h-113z" />
    <glyph glyph-name="uni01DA" unicode="&#x1da;" horiz-adv-x="901" 
d="M645 0l-8 124q-10 -13 -21 -25q-99 -110 -260 -110q-169 0 -228 132.5t-59 355.5v714h170v-711q0 -202 44 -285t138 -83q92 0 152 81q55 73 60 176v821h170v-1190h-158zM566 1255q-26 0 -44.5 18.5t-18.5 44.5t18.5 44.5t44.5 18.5t44.5 -18.5t18.5 -44.5t-18.5 -44.5
t-44.5 -18.5zM313 1255q-26 0 -44.5 18.5t-18.5 44.5t18.5 44.5t44.5 18.5t44.5 -18.5t18.5 -44.5t-18.5 -44.5t-44.5 -18.5zM383 1428l-156 163h101l112 -118l111 118h101l-156 -163h-113z" />
    <glyph glyph-name="uni01DB" unicode="&#x1db;" horiz-adv-x="981" 
d="M478 -9q-200 0 -301.5 79.5t-101.5 273.5v1006h172v-984q0 -141 57.5 -197t174 -56t174 56t57.5 197v984h172v-1006q0 -194 -101.5 -273.5t-302.5 -79.5zM609 1415q-26 0 -44.5 18.5t-18.5 44.5t18.5 44.5t44.5 18.5t44.5 -18.5t18.5 -44.5t-18.5 -44.5t-44.5 -18.5z
M356 1415q-26 0 -44.5 18.5t-18.5 44.5t18.5 44.5t44.5 18.5t44.5 -18.5t18.5 -44.5t-18.5 -44.5t-44.5 -18.5zM484 1629l-152 156h124l114 -156h-86z" />
    <glyph glyph-name="uni01DC" unicode="&#x1dc;" horiz-adv-x="901" 
d="M645 0l-8 124q-10 -13 -21 -25q-99 -110 -260 -110q-169 0 -228 132.5t-59 355.5v714h170v-711q0 -202 44 -285t138 -83q92 0 152 81q55 73 60 176v821h170v-1190h-158zM566 1255q-26 0 -44.5 18.5t-18.5 44.5t18.5 44.5t44.5 18.5t44.5 -18.5t18.5 -44.5t-18.5 -44.5
t-44.5 -18.5zM313 1255q-26 0 -44.5 18.5t-18.5 44.5t18.5 44.5t44.5 18.5t44.5 -18.5t18.5 -44.5t-18.5 -44.5t-44.5 -18.5zM439 1408l-152 156h124l114 -156h-86z" />
    <glyph glyph-name="Gcaron" unicode="&#x1e6;" horiz-adv-x="971" 
d="M450 -8q-238 0 -317 156.5t-79 531.5q0 378 80 529t336 151q245 0 323 -145.5t78 -371.5h-172q-2 215 -54 304.5t-175 89.5q-126 0 -184.5 -94t-58.5 -470q0 -349 58.5 -454t183.5 -105q116 0 171 55t57 224v137h-212v111h386v-641h-107l-8 147q-64 -155 -306 -155z
M420 1397l-156 163h101l112 -118l111 118h101l-156 -163h-113z" />
    <glyph glyph-name="gcaron" unicode="&#x1e7;" horiz-adv-x="918" 
d="M435 -461q-189 0 -277.5 86.5t-88.5 288.5h167q0 -137 54.5 -198.5t144.5 -61.5q60 0 109 31t78.5 103.5t29.5 198.5v117q-14 -13 -29 -26q-105 -85 -254 -85q-175 0 -246 148.5t-71 455.5q0 308 71 456t246 148q149 0 254 -86q19 -15 34 -31l6 106h159v-1201
q0 -171 -45 -269.5t-131.5 -139.5t-210.5 -41zM652 847q-4 88 -65 158q-65 74 -158 74q-99 0 -152.5 -97t-53.5 -385q0 -289 53.5 -386t152.5 -97q93 0 158 74q61 70 65 159v500zM393 1237l-156 163h101l112 -118l111 118h101l-156 -163h-113z" />
    <glyph glyph-name="uni01EA" unicode="&#x1ea;" horiz-adv-x="992" 
d="M489 -9q-253 0 -344 150.5t-91 533.5q0 382 90.5 533.5t345 151.5t345 -151.5t90.5 -533.5q0 -383 -90.5 -533.5t-345.5 -150.5zM489 114q127 0 196 100t69 461q0 363 -69 462.5t-196 99.5q-126 0 -195 -99.5t-69 -462.5q0 -361 69 -461t195 -100zM552 -251
q-37 0 -77 8.5t-68 31.5t-28 67q0 39 18.5 70.5t39.5 51t29 22.5h90q-4 -4 -18.5 -21.5t-27.5 -42t-13 -47.5q0 -26 22.5 -36t53.5 -10q26 0 54 4.5t39 9.5l13 -93q-9 -3 -47 -9t-80 -6z" />
    <glyph glyph-name="uni01EB" unicode="&#x1eb;" horiz-adv-x="923" 
d="M450 -9q-233 0 -315.5 144.5t-82.5 461.5q0 318 82.5 461.5t315.5 143.5t315.5 -143.5t82.5 -461.5q0 -317 -82.5 -461.5t-315.5 -144.5zM450 113q109 0 168.5 98t59.5 385q0 288 -59.5 386.5t-168.5 98.5t-168.5 -98.5t-59.5 -386.5q0 -287 59.5 -385t168.5 -98z
M502 -253q-37 0 -77 8.5t-68 31.5t-28 67q0 39 18.5 70.5t39.5 51t29 22.5h90q-4 -4 -18.5 -21.5t-27.5 -42t-13 -47.5q0 -26 22.5 -36t53.5 -10q26 0 54 4.5t39 9.5l13 -93q-9 -3 -47 -9t-80 -6z" />
    <glyph glyph-name="Aringacute" unicode="&#x1fa;" horiz-adv-x="999" 
d="M48 0l316 1351h268l316 -1351h-176l-84 385h-379l-84 -385h-177zM331 505h336l-164 737h-8zM498 1375q-47 0 -78.5 32.5t-31.5 80.5q0 46 31 78.5t79 32.5q47 0 78.5 -32.5t31.5 -78.5q0 -47 -31.5 -80t-78.5 -33zM498 1443q18 0 30 12.5t12 32.5q0 19 -12 31t-30 12
t-30.5 -12t-12.5 -31q0 -20 12.5 -32.5t30.5 -12.5zM378 1637l115 156h123l-151 -156h-87z" />
    <glyph glyph-name="aringacute" unicode="&#x1fb;" horiz-adv-x="912" 
d="M678 0l-17 89q-16 -17 -36 -33q-85 -66 -247 -66t-241 91t-79 273q0 176 78 259t277 83h238v51q0 169 -48.5 251t-153.5 82q-91 0 -148 -73.5t-62 -218.5l-170 31q10 197 104 289.5t271 92.5q237 0 307.5 -136t70.5 -374v-691h-144zM651 248v338h-193q-131 0 -178 -56.5
t-47 -172.5q0 -112 43.5 -181.5t145.5 -69.5q101 0 165 44t64 98zM446 1225q-47 0 -78.5 32.5t-31.5 80.5q0 46 31 78.5t79 32.5q47 0 78.5 -32.5t31.5 -78.5q0 -47 -31.5 -80t-78.5 -33zM446 1293q18 0 30 12.5t12 32.5q0 19 -12 31t-30 12t-30.5 -12t-12.5 -31
q0 -20 12.5 -32.5t30.5 -12.5zM326 1487l115 156h123l-151 -156h-87z" />
    <glyph glyph-name="AEacute" unicode="&#x1fc;" horiz-adv-x="1407" 
d="M48 0l498 1350h778v-122h-491v-477h464v-119h-464v-509h491v-123h-662v307h-322l-111 -307h-181zM383 426h279v770zM586 1389l115 156h123l-151 -156h-87z" />
    <glyph glyph-name="aeacute" unicode="&#x1fd;" horiz-adv-x="1504" 
d="M359 -10q-153 0 -227 81.5t-74 238.5q0 189 74 259.5t248 70.5h258q0 7 1 14v99q0 171 -48 252.5t-146 81.5q-103 0 -151 -76.5t-56 -262.5l-166 32q14 193 80.5 306.5t291.5 113.5q218 0 287 -124q1 -2 1 -3q86 128 300 128q236 0 314 -148t78 -453q0 -32 -2 -58h-617
q6 -217 58 -319q58 -114 171 -114q90 0 151 77t66 236l159 -34q-11 -212 -110.5 -304.5t-265.5 -92.5q-237 0 -317 162q-2 5 -5 11q-25 -62 -72 -99q-97 -75 -281 -75zM805 653h449q-2 237 -56 332q-56 98 -165 98q-108 0 -168 -101q-55 -91 -60 -329zM639 341v193h-206
q-117 0 -157.5 -47t-40.5 -179q0 -96 37.5 -152t139.5 -56q105 0 166 54q55 48 61 187zM613 1229l115 156h123l-151 -156h-87z" />
    <glyph glyph-name="Oslashacute" unicode="&#x1fe;" horiz-adv-x="912" 
d="M46 0l89 158q-81 154 -81 517q0 382 90.5 533.5t344.5 151.5q183 0 281 -78l37 66h82l-68 -120q7 -10 13 -20q91 -151 91 -533q0 -383 -90.5 -533.5t-345.5 -150.5q-208 0 -307 102l-52 -93h-84zM489 114q127 0 196 100t69 461q0 250 -33 375l-448 -796q10 -24 21 -40
q69 -100 195 -100zM246 355l441 780q-1 1 -2 3q-69 99 -196 99q-126 0 -195 -99.5t-69 -462.5q0 -200 21 -320zM363 1389l115 156h123l-151 -156h-87z" />
    <glyph glyph-name="oslashacute" unicode="&#x1ff;" horiz-adv-x="916" 
d="M6 -5l112 173q-66 145 -66 429q0 318 82.5 461.5t315.5 143.5q189 0 279 -94l84 130l61 -37l-101 -156q75 -145 75 -448q0 -317 -82.5 -461.5t-315.5 -144.5q-203 0 -291 109l-95 -145zM450 113q109 0 168.5 98t59.5 385q0 168 -21 272l-396 -611q9 -27 21 -46
q59 -98 168 -98zM238 352l393 605q-6 14 -13 26q-59 98 -168 98t-168.5 -98.5t-59.5 -386.5q0 -147 16 -244zM328 1233l115 156h123l-151 -156h-87z" />
    <glyph glyph-name="uni0200" unicode="&#x200;" horiz-adv-x="999" 
d="M48 0l316 1351h268l316 -1351h-176l-84 385h-379l-84 -385h-177zM331 505h336l-164 737h-8zM631 1407l-152 156h124l114 -156h-86zM429 1407l-152 156h124l114 -156h-86z" />
    <glyph glyph-name="uni0201" unicode="&#x201;" horiz-adv-x="912" 
d="M678 0l-17 89q-16 -17 -36 -33q-85 -66 -247 -66t-241 91t-79 273q0 176 78 259t277 83h238v51q0 169 -48.5 251t-153.5 82q-91 0 -148 -73.5t-62 -218.5l-170 31q10 197 104 289.5t271 92.5q237 0 307.5 -136t70.5 -374v-691h-144zM651 248v338h-193q-131 0 -178 -56.5
t-47 -172.5q0 -112 43.5 -181.5t145.5 -69.5q101 0 165 44t64 98zM579 1247l-152 156h124l114 -156h-86zM377 1247l-152 156h124l114 -156h-86z" />
    <glyph glyph-name="uni0202" unicode="&#x202;" horiz-adv-x="999" 
d="M48 0l316 1351h268l316 -1351h-176l-84 385h-379l-84 -385h-177zM331 505h336l-164 737h-8zM498 1549q76 0 117.5 -42.5t41.5 -101.5h-86q0 81 -73 81q-42 0 -58 -22t-16 -59h-87q0 59 41 101.5t120 42.5z" />
    <glyph glyph-name="uni0203" unicode="&#x203;" horiz-adv-x="912" 
d="M678 0l-17 89q-16 -17 -36 -33q-85 -66 -247 -66t-241 91t-79 273q0 176 78 259t277 83h238v51q0 169 -48.5 251t-153.5 82q-91 0 -148 -73.5t-62 -218.5l-170 31q10 197 104 289.5t271 92.5q237 0 307.5 -136t70.5 -374v-691h-144zM651 248v338h-193q-131 0 -178 -56.5
t-47 -172.5q0 -112 43.5 -181.5t145.5 -69.5q101 0 165 44t64 98zM446 1389q76 0 117.5 -42.5t41.5 -101.5h-86q0 81 -73 81q-42 0 -58 -22t-16 -59h-87q0 59 41 101.5t120 42.5z" />
    <glyph glyph-name="uni0204" unicode="&#x204;" horiz-adv-x="809" 
d="M64 0v1350h662v-122h-491v-477h465v-119h-465v-509h491v-123h-662zM535 1407l-152 156h124l114 -156h-86zM333 1407l-152 156h124l114 -156h-86z" />
    <glyph glyph-name="uni0205" unicode="&#x205;" horiz-adv-x="920" 
d="M450 -9q-236 0 -316 162t-80 442q0 307 82 456.5t313 149.5q236 0 313.5 -148t77.5 -453q0 -32 -2 -58h-616q5 -217 57 -319q58 -114 172 -114q89 0 150.5 77t66.5 236l158 -34q-10 -212 -109.5 -304.5t-266.5 -92.5zM222 653h449q-2 237 -56 332q-56 98 -166 98
q-108 0 -168 -101q-54 -91 -59 -329zM582 1247l-152 156h124l114 -156h-86zM380 1247l-152 156h124l114 -156h-86z" />
    <glyph glyph-name="uni0206" unicode="&#x206;" horiz-adv-x="809" 
d="M64 0v1350h662v-122h-491v-477h465v-119h-465v-509h491v-123h-662zM402 1549q76 0 117.5 -42.5t41.5 -101.5h-86q0 81 -73 81q-42 0 -58 -22t-16 -59h-87q0 59 41 101.5t120 42.5z" />
    <glyph glyph-name="uni0207" unicode="&#x207;" horiz-adv-x="920" 
d="M450 -9q-236 0 -316 162t-80 442q0 307 82 456.5t313 149.5q236 0 313.5 -148t77.5 -453q0 -32 -2 -58h-616q5 -217 57 -319q58 -114 172 -114q89 0 150.5 77t66.5 236l158 -34q-10 -212 -109.5 -304.5t-266.5 -92.5zM222 653h449q-2 237 -56 332q-56 98 -166 98
q-108 0 -168 -101q-54 -91 -59 -329zM450 1389q76 0 117.5 -42.5t41.5 -101.5h-86q0 81 -73 81q-42 0 -58 -22t-16 -59h-87q0 59 41 101.5t120 42.5z" />
    <glyph glyph-name="uni0208" unicode="&#x208;" horiz-adv-x="409" 
d="M104 0v1350h171v-1350h-171zM323 1407l-152 156h124l114 -156h-86zM121 1407l-152 156h124l114 -156h-86z" />
    <glyph glyph-name="uni0209" unicode="&#x209;" horiz-adv-x="359" 
d="M79 0v1191h171v-1191h-171zM298 1247l-152 156h124l114 -156h-86zM96 1247l-152 156h124l114 -156h-86z" />
    <glyph glyph-name="uni020A" unicode="&#x20a;" horiz-adv-x="409" 
d="M104 0v1350h171v-1350h-171zM190 1549q76 0 117.5 -42.5t41.5 -101.5h-86q0 81 -73 81q-42 0 -58 -22t-16 -59h-87q0 59 41 101.5t120 42.5z" />
    <glyph glyph-name="uni020B" unicode="&#x20b;" horiz-adv-x="359" 
d="M79 0v1191h171v-1191h-171zM166 1389q76 0 117.5 -42.5t41.5 -101.5h-86q0 81 -73 81q-42 0 -58 -22t-16 -59h-87q0 59 41 101.5t120 42.5z" />
    <glyph glyph-name="uni020C" unicode="&#x20c;" horiz-adv-x="992" 
d="M489 -9q-253 0 -344 150.5t-91 533.5q0 382 90.5 533.5t345 151.5t345 -151.5t90.5 -533.5q0 -383 -90.5 -533.5t-345.5 -150.5zM489 114q127 0 196 100t69 461q0 363 -69 462.5t-196 99.5q-126 0 -195 -99.5t-69 -462.5q0 -361 69 -461t195 -100zM625 1407l-152 156h124
l114 -156h-86zM423 1407l-152 156h124l114 -156h-86z" />
    <glyph glyph-name="uni020D" unicode="&#x20d;" horiz-adv-x="923" 
d="M450 -9q-233 0 -315.5 144.5t-82.5 461.5q0 318 82.5 461.5t315.5 143.5t315.5 -143.5t82.5 -461.5q0 -317 -82.5 -461.5t-315.5 -144.5zM450 113q109 0 168.5 98t59.5 385q0 288 -59.5 386.5t-168.5 98.5t-168.5 -98.5t-59.5 -386.5q0 -287 59.5 -385t168.5 -98z
M583 1248l-152 156h124l114 -156h-86zM381 1248l-152 156h124l114 -156h-86z" />
    <glyph glyph-name="uni020E" unicode="&#x20e;" horiz-adv-x="992" 
d="M489 -9q-253 0 -344 150.5t-91 533.5q0 382 90.5 533.5t345 151.5t345 -151.5t90.5 -533.5q0 -383 -90.5 -533.5t-345.5 -150.5zM489 114q127 0 196 100t69 461q0 363 -69 462.5t-196 99.5q-126 0 -195 -99.5t-69 -462.5q0 -361 69 -461t195 -100zM493 1549
q76 0 117.5 -42.5t41.5 -101.5h-86q0 81 -73 81q-42 0 -58 -22t-16 -59h-87q0 59 41 101.5t120 42.5z" />
    <glyph glyph-name="uni020F" unicode="&#x20f;" horiz-adv-x="923" 
d="M450 -9q-233 0 -315.5 144.5t-82.5 461.5q0 318 82.5 461.5t315.5 143.5t315.5 -143.5t82.5 -461.5q0 -317 -82.5 -461.5t-315.5 -144.5zM450 113q109 0 168.5 98t59.5 385q0 288 -59.5 386.5t-168.5 98.5t-168.5 -98.5t-59.5 -386.5q0 -287 59.5 -385t168.5 -98z
M451 1390q76 0 117.5 -42.5t41.5 -101.5h-86q0 81 -73 81q-42 0 -58 -22t-16 -59h-87q0 59 41 101.5t120 42.5z" />
    <glyph glyph-name="uni0210" unicode="&#x210;" horiz-adv-x="904" 
d="M63 0v1350h505q163 0 209 -114.5t46 -263.5q0 -148 -47 -258q-34 -79 -129 -101l175 -613h-182l-165 604h-240v-604h-172zM235 714h271q84 0 114.5 70.5t30.5 186.5q0 114 -30.5 185.5t-114.5 71.5h-271v-514zM575 1407l-152 156h124l114 -156h-86zM373 1407l-152 156
h124l114 -156h-86z" />
    <glyph glyph-name="uni0211" unicode="&#x211;" horiz-adv-x="869" 
d="M613 637q0 260 -39.5 350.5t-125.5 90.5q-95 0 -148 -77q-49 -70 -54 -149v-852h-169v1190h159l6 -115q13 18 29 34q91 92 241 92q166 0 218 -135.5t52 -428.5h-169zM589 1247l-152 156h124l114 -156h-86zM387 1247l-152 156h124l114 -156h-86z" />
    <glyph glyph-name="uni0212" unicode="&#x212;" horiz-adv-x="904" 
d="M63 0v1350h505q163 0 209 -114.5t46 -263.5q0 -148 -47 -258q-34 -79 -129 -101l175 -613h-182l-165 604h-240v-604h-172zM235 714h271q84 0 114.5 70.5t30.5 186.5q0 114 -30.5 185.5t-114.5 71.5h-271v-514zM443 1549q76 0 117.5 -42.5t41.5 -101.5h-86q0 81 -73 81
q-42 0 -58 -22t-16 -59h-87q0 59 41 101.5t120 42.5z" />
    <glyph glyph-name="uni0213" unicode="&#x213;" horiz-adv-x="869" 
d="M613 637q0 260 -39.5 350.5t-125.5 90.5q-95 0 -148 -77q-49 -70 -54 -149v-852h-169v1190h159l6 -115q13 18 29 34q91 92 241 92q166 0 218 -135.5t52 -428.5h-169zM457 1389q76 0 117.5 -42.5t41.5 -101.5h-86q0 81 -73 81q-42 0 -58 -22t-16 -59h-87q0 59 41 101.5
t120 42.5z" />
    <glyph glyph-name="uni0214" unicode="&#x214;" horiz-adv-x="981" 
d="M478 -9q-200 0 -301.5 79.5t-101.5 273.5v1006h172v-984q0 -141 57.5 -197t174 -56t174 56t57.5 197v984h172v-1006q0 -194 -101.5 -273.5t-302.5 -79.5zM616 1407l-152 156h124l114 -156h-86zM414 1407l-152 156h124l114 -156h-86z" />
    <glyph glyph-name="uni0215" unicode="&#x215;" horiz-adv-x="901" 
d="M645 0l-8 124q-10 -13 -21 -25q-99 -110 -260 -110q-169 0 -228 132.5t-59 355.5v714h170v-711q0 -202 44 -285t138 -83q92 0 152 81q55 73 60 176v821h170v-1190h-158zM573 1247l-152 156h124l114 -156h-86zM371 1247l-152 156h124l114 -156h-86z" />
    <glyph glyph-name="uni0216" unicode="&#x216;" horiz-adv-x="981" 
d="M478 -9q-200 0 -301.5 79.5t-101.5 273.5v1006h172v-984q0 -141 57.5 -197t174 -56t174 56t57.5 197v984h172v-1006q0 -194 -101.5 -273.5t-302.5 -79.5zM484 1549q76 0 117.5 -42.5t41.5 -101.5h-86q0 81 -73 81q-42 0 -58 -22t-16 -59h-87q0 59 41 101.5t120 42.5z" />
    <glyph glyph-name="uni0217" unicode="&#x217;" horiz-adv-x="901" 
d="M645 0l-8 124q-10 -13 -21 -25q-99 -110 -260 -110q-169 0 -228 132.5t-59 355.5v714h170v-711q0 -202 44 -285t138 -83q92 0 152 81q55 73 60 176v821h170v-1190h-158zM440 1389q76 0 117.5 -42.5t41.5 -101.5h-86q0 81 -73 81q-42 0 -58 -22t-16 -59h-87q0 59 41 101.5
t120 42.5z" />
    <glyph glyph-name="uni0218" unicode="&#x218;" horiz-adv-x="929" 
d="M326.17 -293.088l86.9961 224.758h128.701l-146.293 -224.758h-69.4043zM450 -9q-252 0 -326.5 120t-74.5 398h172q0 -257 55.5 -327t172.5 -70t173.5 62t56.5 162q0 130 -69 183.5t-212 96.5q-196 63 -272 138t-76 241q0 137 77 251t322 114q249 0 324.5 -124t75.5 -387
h-172q0 248 -57.5 318.5t-171.5 70.5q-116 0 -173 -63.5t-57 -156.5q0 -125 70 -179t211 -98q199 -63 275 -134t76 -244q0 -143 -76 -257.5t-324 -114.5z" />
    <glyph glyph-name="uni0219" unicode="&#x219;" horiz-adv-x="899" 
d="M449 -9q-182 0 -276.5 80t-110.5 307l158 37q7 -179 66 -241.5t160 -62.5q112 0 159 47t47 140q0 119 -59 163t-198 79q-179 42 -253.5 106.5t-74.5 232.5q0 153 93.5 237t282.5 84q187 0 272.5 -84.5t99.5 -290.5l-155 -36q-7 158 -59.5 225t-159.5 67
q-105 0 -154.5 -57t-49.5 -145q0 -110 61.5 -146t193.5 -69q180 -43 255 -115t75 -242q0 -168 -90 -242t-283 -74zM330.17 -292.088l86.9961 224.758h128.701l-146.293 -224.758h-69.4043z" />
    <glyph glyph-name="uni021A" unicode="&#x21a;" horiz-adv-x="880" 
d="M352 0v1228h-302v122h775v-122h-302v-1228h-171zM352.17 -292.088l86.9961 224.758h128.701l-146.293 -224.758h-69.4043z" />
    <glyph glyph-name="uni021B" unicode="&#x21b;" horiz-adv-x="740" 
d="M463 -12q-109 0 -173 48.5t-64 189.5v841h-205v123h205v260h170v-260h287v-123h-287v-801q0 -97 31 -127t92 -30q53 0 110 12v-119q-88 -14 -166 -14zM345.17 -292.088l86.9961 224.758h128.701l-146.293 -224.758h-69.4043z" />
    <glyph glyph-name="uni022A" unicode="&#x22a;" horiz-adv-x="992" 
d="M489 -9q-253 0 -344 150.5t-91 533.5q0 382 90.5 533.5t345 151.5t345 -151.5t90.5 -533.5q0 -383 -90.5 -533.5t-345.5 -150.5zM489 114q127 0 196 100t69 461q0 363 -69 462.5t-196 99.5q-126 0 -195 -99.5t-69 -462.5q0 -361 69 -461t195 -100zM619 1415
q-26 0 -44.5 18.5t-18.5 44.5t18.5 44.5t44.5 18.5t44.5 -18.5t18.5 -44.5t-18.5 -44.5t-44.5 -18.5zM366 1415q-26 0 -44.5 18.5t-18.5 44.5t18.5 44.5t44.5 18.5t44.5 -18.5t18.5 -44.5t-18.5 -44.5t-44.5 -18.5zM260 1629v68h464v-68h-464z" />
    <glyph glyph-name="uni022B" unicode="&#x22b;" horiz-adv-x="923" 
d="M450 -9q-233 0 -315.5 144.5t-82.5 461.5q0 318 82.5 461.5t315.5 143.5t315.5 -143.5t82.5 -461.5q0 -317 -82.5 -461.5t-315.5 -144.5zM450 113q109 0 168.5 98t59.5 385q0 288 -59.5 386.5t-168.5 98.5t-168.5 -98.5t-59.5 -386.5q0 -287 59.5 -385t168.5 -98z
M577 1256q-26 0 -44.5 18.5t-18.5 44.5t18.5 44.5t44.5 18.5t44.5 -18.5t18.5 -44.5t-18.5 -44.5t-44.5 -18.5zM324 1256q-26 0 -44.5 18.5t-18.5 44.5t18.5 44.5t44.5 18.5t44.5 -18.5t18.5 -44.5t-18.5 -44.5t-44.5 -18.5zM218 1470v68h464v-68h-464z" />
    <glyph glyph-name="uni022C" unicode="&#x22c;" horiz-adv-x="992" 
d="M489 -9q-253 0 -344 150.5t-91 533.5q0 382 90.5 533.5t345 151.5t345 -151.5t90.5 -533.5q0 -383 -90.5 -533.5t-345.5 -150.5zM489 114q127 0 196 100t69 461q0 363 -69 462.5t-196 99.5q-126 0 -195 -99.5t-69 -462.5q0 -361 69 -461t195 -100zM583 1423
q-41 0 -67.5 15t-48 30.5t-49.5 15.5q-32 0 -45.5 -18t-14.5 -34h-87q1 23 13 51.5t41 49.5t82 21q40 0 64 -15t46 -30t54 -15q29 0 43.5 18t15.5 34h86q-1 -21 -11.5 -50t-39 -51t-82.5 -22zM260 1639v68h464v-68h-464z" />
    <glyph glyph-name="uni022D" unicode="&#x22d;" horiz-adv-x="923" 
d="M450 -9q-233 0 -315.5 144.5t-82.5 461.5q0 318 82.5 461.5t315.5 143.5t315.5 -143.5t82.5 -461.5q0 -317 -82.5 -461.5t-315.5 -144.5zM450 113q109 0 168.5 98t59.5 385q0 288 -59.5 386.5t-168.5 98.5t-168.5 -98.5t-59.5 -386.5q0 -287 59.5 -385t168.5 -98z
M541 1263q-41 0 -67.5 15t-48 30.5t-49.5 15.5q-32 0 -45.5 -18t-14.5 -34h-87q1 23 13 51.5t41 49.5t82 21q40 0 64 -15t46 -30t54 -15q29 0 43.5 18t15.5 34h86q-1 -21 -11.5 -50t-39 -51t-82.5 -22zM218 1480v68h464v-68h-464z" />
    <glyph glyph-name="uni0230" unicode="&#x230;" horiz-adv-x="992" 
d="M489 -9q-253 0 -344 150.5t-91 533.5q0 382 90.5 533.5t345 151.5t345 -151.5t90.5 -533.5q0 -383 -90.5 -533.5t-345.5 -150.5zM489 114q127 0 196 100t69 461q0 363 -69 462.5t-196 99.5q-126 0 -195 -99.5t-69 -462.5q0 -361 69 -461t195 -100zM493 1408q-28 0 -47 19
t-19 47q0 27 19 45.5t47 18.5q26 0 45 -18.5t19 -45.5t-19 -46.5t-45 -19.5zM260 1626v68h464v-68h-464z" />
    <glyph glyph-name="uni0231" unicode="&#x231;" horiz-adv-x="923" 
d="M450 -9q-233 0 -315.5 144.5t-82.5 461.5q0 318 82.5 461.5t315.5 143.5t315.5 -143.5t82.5 -461.5q0 -317 -82.5 -461.5t-315.5 -144.5zM450 113q109 0 168.5 98t59.5 385q0 288 -59.5 386.5t-168.5 98.5t-168.5 -98.5t-59.5 -386.5q0 -287 59.5 -385t168.5 -98z
M451 1249q-28 0 -47 19t-19 47q0 27 19 45.5t47 18.5q26 0 45 -18.5t19 -45.5t-19 -46.5t-45 -19.5zM218 1467v68h464v-68h-464z" />
    <glyph glyph-name="uni0232" unicode="&#x232;" horiz-adv-x="960" 
d="M388 0v474l-355 876h186l255 -708l253 708h186l-354 -877v-473h-171zM243 1438v68h464v-68h-464z" />
    <glyph glyph-name="uni0233" unicode="&#x233;" horiz-adv-x="847" 
d="M283 0l-253 1190h178l211 -1038l211 1038h178l-254 -1190q-57 -261 -174.5 -361t-315.5 -100v123q128 0 209 72q82 72 124 266h-114zM186 1277v68h464v-68h-464z" />
    <glyph glyph-name="uni0237" unicode="&#x237;" horiz-adv-x="405" 
d="M-95 -459v122q101 0 155 55.5t54 213.5v1259h169v-1252q0 -234 -96 -316t-282 -82z" />
    <glyph glyph-name="uni0259" unicode="&#x259;" horiz-adv-x="920" 
d="M470 1200q236 0 316 -162t80 -442q0 -307 -82 -456.5t-313 -149.5q-236 0 -313.5 148t-77.5 453q0 32 2 58h616q-5 217 -57 319q-58 114 -172 114q-89 0 -150.5 -77t-66.5 -236l-158 34q10 212 109.5 304.5t266.5 92.5zM698 538h-449q2 -237 56 -332q56 -98 166 -98
q108 0 168 101q54 91 59 329z" />
    <glyph glyph-name="uni02BC" unicode="&#x2bc;" horiz-adv-x="231" 
d="M203 1559v-207l-55 -192h-113l54 204l-15 -21v216h129z" />
    <glyph glyph-name="circumflex" unicode="&#x2c6;" horiz-adv-x="593" 
d="M66 1209l156 163h113l156 -163h-101l-111 118l-112 -118h-101z" />
    <glyph glyph-name="caron" unicode="&#x2c7;" horiz-adv-x="593" 
d="M222 1209l-156 163h101l112 -118l111 118h101l-156 -163h-113z" />
    <glyph glyph-name="uni02C9" unicode="&#x2c9;" horiz-adv-x="695" 
d="M97 1207v68h464v-68h-464z" />
    <glyph glyph-name="breve" unicode="&#x2d8;" horiz-adv-x="564" 
d="M261 1225q-76 0 -117.5 42.5t-41.5 101.5h86q0 -81 73 -81q42 0 58 22t16 59h87q0 -59 -41 -101.5t-120 -42.5z" />
    <glyph glyph-name="dotaccent" unicode="&#x2d9;" horiz-adv-x="359" 
d="M171 1219q-28 0 -47 19t-19 47q0 27 19 45.5t47 18.5q26 0 45 -18.5t19 -45.5t-19 -46.5t-45 -19.5z" />
    <glyph glyph-name="ring" unicode="&#x2da;" horiz-adv-x="328" 
d="M158 1215q-47 0 -78.5 32.5t-31.5 80.5q0 46 31 78.5t79 32.5q47 0 78.5 -32.5t31.5 -78.5q0 -47 -31.5 -80t-78.5 -33zM158 1283q18 0 30 12.5t12 32.5q0 19 -12 31t-30 12t-30.5 -12t-12.5 -31q0 -20 12.5 -32.5t30.5 -12.5z" />
    <glyph glyph-name="ogonek" unicode="&#x2db;" horiz-adv-x="562" 
d="M308 -251q-37 0 -77 8.5t-68 31.5t-28 67q0 39 18.5 70.5t39.5 51t29 22.5h90q-4 -4 -18.5 -21.5t-27.5 -42t-13 -47.5q0 -26 22.5 -36t53.5 -10q26 0 54 4.5t39 9.5l13 -93q-9 -3 -47 -9t-80 -6z" />
    <glyph glyph-name="tilde" unicode="&#x2dc;" horiz-adv-x="515" 
d="M341 1269q-41 0 -67.5 15t-48 30.5t-49.5 15.5q-32 0 -45.5 -18t-14.5 -34h-87q1 23 13 51.5t41 49.5t82 21q40 0 64 -15t46 -30t54 -15q29 0 43.5 18t15.5 34h86q-1 -21 -11.5 -50t-39 -51t-82.5 -22z" />
    <glyph glyph-name="hungarumlaut" unicode="&#x2dd;" horiz-adv-x="733" 
d="M309 1227l75 90l-88 -90h-86l113 139h212l-139 -139h-87z" />
    <glyph glyph-name="gravecomb" unicode="&#x300;" 
d="M179 1123l-152 156h124l114 -156h-86z" />
    <glyph glyph-name="acutecomb" unicode="&#x301;" 
d="M32 1123l115 156h123l-151 -156h-87z" />
    <glyph glyph-name="uni0302" unicode="&#x302;" 
d="M29 1119l156 163h113l156 -163h-101l-111 118l-112 -118h-101z" />
    <glyph glyph-name="tildecomb" unicode="&#x303;" 
d="M341 1196q-41 0 -67.5 15t-48 30.5t-49.5 15.5q-32 0 -45.5 -18t-14.5 -34h-87q1 23 13 51.5t41 49.5t82 21q40 0 64 -15t46 -30t54 -15q29 0 43.5 18t15.5 34h86q-1 -21 -11.5 -50t-39 -51t-82.5 -22z" />
    <glyph glyph-name="uni0304" unicode="&#x304;" 
d="M97 1207v68h464v-68h-464z" />
    <glyph glyph-name="uni0306" unicode="&#x306;" 
d="M193 1135q-76 0 -117.5 42.5t-41.5 101.5h86q0 -81 73 -81q42 0 58 22t16 59h87q0 -59 -41 -101.5t-120 -42.5z" />
    <glyph glyph-name="uni0307" unicode="&#x307;" 
d="M101 1130q-28 0 -47 19t-19 47q0 27 19 45.5t47 18.5q26 0 45 -18.5t19 -45.5t-19 -46.5t-45 -19.5z" />
    <glyph glyph-name="uni0308" unicode="&#x308;" 
d="M369 1137q-26 0 -44.5 18.5t-18.5 44.5t18.5 44.5t44.5 18.5t44.5 -18.5t18.5 -44.5t-18.5 -44.5t-44.5 -18.5zM116 1137q-26 0 -44.5 18.5t-18.5 44.5t18.5 44.5t44.5 18.5t44.5 -18.5t18.5 -44.5t-18.5 -44.5t-44.5 -18.5z" />
    <glyph glyph-name="hookabovecomb" unicode="&#x309;" 
d="M20 1448q142 0 215 -18.5t73 -79.5q0 -36 -28 -57t-66 -29.5t-69 -8.5v-57h-68v106q59 0 102.5 9t43.5 32q0 28 -49 35.5t-154 7.5v60z" />
    <glyph glyph-name="uni030A" unicode="&#x30a;" 
d="M146 1125q-47 0 -78.5 32.5t-31.5 80.5q0 46 31 78.5t79 32.5q47 0 78.5 -32.5t31.5 -78.5q0 -47 -31.5 -80t-78.5 -33zM146 1193q18 0 30 12.5t12 32.5q0 19 -12 31t-30 12t-30.5 -12t-12.5 -31q0 -20 12.5 -32.5t30.5 -12.5z" />
    <glyph glyph-name="uni030B" unicode="&#x30b;" 
d="M197 1143l75 90l-88 -90h-86l113 139h212l-139 -139h-87z" />
    <glyph glyph-name="uni030C" unicode="&#x30c;" 
d="M185 1119l-156 163h101l112 -118l111 118h101l-156 -163h-113z" />
    <glyph glyph-name="uni030F" unicode="&#x30f;" 
d="M373 1213l-152 156h124l114 -156h-86zM171 1213l-152 156h124l114 -156h-86z" />
    <glyph glyph-name="uni0311" unicode="&#x311;" 
d="M220 1335q76 0 117.5 -42.5t41.5 -101.5h-86q0 81 -73 81q-42 0 -58 -22t-16 -59h-87q0 59 41 101.5t120 42.5z" />
    <glyph glyph-name="uni0312" unicode="&#x312;" 
d="M360.936 1401.29l-100.249 -271.852h-146.744l167.858 271.852h79.1348z" />
    <glyph glyph-name="uni031B" unicode="&#x31b;" 
d="M20 1218q100 0 134.5 34.5t34.5 111.5h99q0 -107 -65 -157t-203 -50v61z" />
    <glyph glyph-name="dotbelowcomb" unicode="&#x323;" 
d="M171 -262q-28 0 -47 19t-19 47q0 27 19 45.5t47 18.5q26 0 45 -18.5t19 -45.5t-19 -46.5t-45 -19.5z" />
    <glyph glyph-name="uni0324" unicode="&#x324;" 
d="M368 -221q-26 0 -44.5 18.5t-18.5 44.5t18.5 44.5t44.5 18.5t44.5 -18.5t18.5 -44.5t-18.5 -44.5t-44.5 -18.5zM115 -221q-26 0 -44.5 18.5t-18.5 44.5t18.5 44.5t44.5 18.5t44.5 -18.5t18.5 -44.5t-18.5 -44.5t-44.5 -18.5z" />
    <glyph glyph-name="uni0326" unicode="&#x326;" 
d="M16.1699 -292.088l86.9961 224.758h128.701l-146.293 -224.758h-69.4043z" />
    <glyph glyph-name="uni0327" unicode="&#x327;" 
d="M261 -279q-62 0 -118 14l25 75q16 -4 40.5 -7.5t52.5 -3.5q97 0 97 54q0 36 -44 36q-34 0 -66 -20l-66 11l34 120h73l-26 -84q16 11 40.5 18.5t54.5 7.5q44 0 73 -22t29 -67q0 -67 -61.5 -99.5t-137.5 -32.5z" />
    <glyph glyph-name="uni0328" unicode="&#x328;" 
d="M308 -251q-37 0 -77 8.5t-68 31.5t-28 67q0 39 18.5 70.5t39.5 51t29 22.5h90q-4 -4 -18.5 -21.5t-27.5 -42t-13 -47.5q0 -26 22.5 -36t53.5 -10q26 0 54 4.5t39 9.5l13 -93q-9 -3 -47 -9t-80 -6z" />
    <glyph glyph-name="uni032E" unicode="&#x32e;" 
d="M193 -272q-76 0 -117.5 42.5t-41.5 101.5h86q0 -81 73 -81q42 0 58 22t16 59h87q0 -59 -41 -101.5t-120 -42.5z" />
    <glyph glyph-name="uni0331" unicode="&#x331;" 
d="M15 -203v68h464v-68h-464z" />
    <glyph glyph-name="uni0335" unicode="&#x335;" 
d="M53 1393v115h521v-115h-521z" />
    <glyph glyph-name="uni0336" unicode="&#x336;" 
d="M97 1207v68h464v-68h-464z" />
    <glyph glyph-name="uni0337" unicode="&#x337;" 
d="M93 0l376 972h86l-377 -972h-85z" />
    <glyph glyph-name="uni0338" unicode="&#x338;" 
d="M12 0l397 1348h145l-398 -1348h-144z" />
    <glyph glyph-name="uni1E08" unicode="&#x1e08;" horiz-adv-x="953" 
d="M464 -8q-253 0 -336 154t-83 532q0 377 82.5 529.5t335.5 152.5q252 0 327.5 -145t75.5 -406h-173q0 256 -55.5 342t-174.5 86q-122 0 -183.5 -94t-61.5 -465q0 -373 62 -468.5t183 -95.5q118 0 174 89t56 340h173q0 -254 -75.5 -402.5t-326.5 -148.5zM470 -279
q-62 0 -118 14l25 75q16 -4 40.5 -7.5t52.5 -3.5q97 0 97 54q0 36 -44 36q-34 0 -66 -20l-66 11l34 120h73l-26 -84q16 11 40.5 18.5t54.5 7.5q44 0 73 -22t29 -67q0 -67 -61.5 -99.5t-137.5 -32.5zM340 1389l115 156h123l-151 -156h-87z" />
    <glyph glyph-name="uni1E09" unicode="&#x1e09;" horiz-adv-x="889" 
d="M440 -9q-235 0 -315 159.5t-80 443.5q0 308 80 457.5t315 149.5q220 0 289.5 -136t75.5 -310l-158 -36q-2 170 -53 264.5t-154 94.5q-106 0 -164.5 -102t-58.5 -382q0 -254 59 -367.5t164 -113.5q103 0 154 106t53 249l158 -37q-6 -147 -75.5 -293.5t-289.5 -146.5z
M459 -279q-62 0 -118 14l25 75q16 -4 40.5 -7.5t52.5 -3.5q97 0 97 54q0 36 -44 36q-34 0 -66 -20l-66 11l34 120h73l-26 -84q16 11 40.5 18.5t54.5 7.5q44 0 73 -22t29 -67q0 -67 -61.5 -99.5t-137.5 -32.5zM321 1228l115 156h123l-151 -156h-87z" />
    <glyph glyph-name="uni1E0C" unicode="&#x1e0c;" horiz-adv-x="923" 
d="M63 0v1350h435q211 0 284.5 -140.5t73.5 -534.5t-73.5 -534.5t-284.5 -140.5h-435zM234 123h215q124 0 180 94t56 458q0 363 -56 458t-180 95h-215v-1105zM453 -216q-28 0 -47 19t-19 47q0 27 19 45.5t47 18.5q26 0 45 -18.5t19 -45.5t-19 -46.5t-45 -19.5z" />
    <glyph glyph-name="uni1E0D" unicode="&#x1e0d;" horiz-adv-x="909" 
d="M667 0l-10 109q-15 -16 -34 -31q-105 -85 -254 -85q-175 0 -246 148.5t-71 455.5q0 308 71 456t246 148q149 0 254 -86q15 -12 28 -25v480h170v-1570h-154zM651 341v511q-5 85 -64 153q-65 74 -158 74q-99 0 -152.5 -97t-53.5 -385q0 -289 53.5 -386t152.5 -97
q93 0 158 74q59 68 64 153zM472 -262q-28 0 -47 19t-19 47q0 27 19 45.5t47 18.5q26 0 45 -18.5t19 -45.5t-19 -46.5t-45 -19.5z" />
    <glyph glyph-name="uni1E0E" unicode="&#x1e0e;" horiz-adv-x="923" 
d="M63 0v1350h435q211 0 284.5 -140.5t73.5 -534.5t-73.5 -534.5t-284.5 -140.5h-435zM234 123h215q124 0 180 94t56 458q0 363 -56 458t-180 95h-215v-1105zM221 -203v68h464v-68h-464z" />
    <glyph glyph-name="uni1E0F" unicode="&#x1e0f;" horiz-adv-x="909" 
d="M667 0l-10 109q-15 -16 -34 -31q-105 -85 -254 -85q-175 0 -246 148.5t-71 455.5q0 308 71 456t246 148q149 0 254 -86q15 -12 28 -25v480h170v-1570h-154zM651 341v511q-5 85 -64 153q-65 74 -158 74q-99 0 -152.5 -97t-53.5 -385q0 -289 53.5 -386t152.5 -97
q93 0 158 74q59 68 64 153zM240 -203v68h464v-68h-464z" />
    <glyph glyph-name="uni1E14" unicode="&#x1e14;" horiz-adv-x="809" 
d="M64 0v1350h662v-122h-491v-477h465v-119h-465v-509h491v-123h-662zM170 1438v68h464v-68h-464zM434 1561l-152 156h124l114 -156h-86z" />
    <glyph glyph-name="uni1E15" unicode="&#x1e15;" horiz-adv-x="920" 
d="M450 -9q-236 0 -316 162t-80 442q0 307 82 456.5t313 149.5q236 0 313.5 -148t77.5 -453q0 -32 -2 -58h-616q5 -217 57 -319q58 -114 172 -114q89 0 150.5 77t66.5 236l158 -34q-10 -212 -109.5 -304.5t-266.5 -92.5zM222 653h449q-2 237 -56 332q-56 98 -166 98
q-108 0 -168 -101q-54 -91 -59 -329zM217 1277v68h464v-68h-464zM481 1397l-152 156h124l114 -156h-86z" />
    <glyph glyph-name="uni1E16" unicode="&#x1e16;" horiz-adv-x="809" 
d="M64 0v1350h662v-122h-491v-477h465v-119h-465v-509h491v-123h-662zM170 1438v68h464v-68h-464zM283 1544l115 156h123l-151 -156h-87z" />
    <glyph glyph-name="uni1E17" unicode="&#x1e17;" horiz-adv-x="920" 
d="M450 -9q-236 0 -316 162t-80 442q0 307 82 456.5t313 149.5q236 0 313.5 -148t77.5 -453q0 -32 -2 -58h-616q5 -217 57 -319q58 -114 172 -114q89 0 150.5 77t66.5 236l158 -34q-10 -212 -109.5 -304.5t-266.5 -92.5zM222 653h449q-2 237 -56 332q-56 98 -166 98
q-108 0 -168 -101q-54 -91 -59 -329zM217 1277v68h464v-68h-464zM330 1384l115 156h123l-151 -156h-87z" />
    <glyph glyph-name="uni1E1C" unicode="&#x1e1c;" horiz-adv-x="809" 
d="M64 0v1350h662v-122h-491v-477h465v-119h-465v-509h491v-123h-662zM413 -279q-62 0 -118 14l25 75q16 -4 40.5 -7.5t52.5 -3.5q97 0 97 54q0 36 -44 36q-34 0 -66 -20l-66 11l34 120h73l-26 -84q16 11 40.5 18.5t54.5 7.5q44 0 73 -22t29 -67q0 -67 -61.5 -99.5
t-137.5 -32.5zM401 1398q-76 0 -117.5 42.5t-41.5 101.5h86q0 -81 73 -81q42 0 58 22t16 59h87q0 -59 -41 -101.5t-120 -42.5z" />
    <glyph glyph-name="uni1E1D" unicode="&#x1e1d;" horiz-adv-x="920" 
d="M450 -9q-236 0 -316 162t-80 442q0 307 82 456.5t313 149.5q236 0 313.5 -148t77.5 -453q0 -32 -2 -58h-616q5 -217 57 -319q58 -114 172 -114q89 0 150.5 77t66.5 236l158 -34q-10 -212 -109.5 -304.5t-266.5 -92.5zM222 653h449q-2 237 -56 332q-56 98 -166 98
q-108 0 -168 -101q-54 -91 -59 -329zM463 -279q-62 0 -118 14l25 75q16 -4 40.5 -7.5t52.5 -3.5q97 0 97 54q0 36 -44 36q-34 0 -66 -20l-66 11l34 120h73l-26 -84q16 11 40.5 18.5t54.5 7.5q44 0 73 -22t29 -67q0 -67 -61.5 -99.5t-137.5 -32.5zM449 1238
q-76 0 -117.5 42.5t-41.5 101.5h86q0 -81 73 -81q42 0 58 22t16 59h87q0 -59 -41 -101.5t-120 -42.5z" />
    <glyph glyph-name="uni1E20" unicode="&#x1e20;" horiz-adv-x="971" 
d="M450 -8q-238 0 -317 156.5t-79 531.5q0 378 80 529t336 151q245 0 323 -145.5t78 -371.5h-172q-2 215 -54 304.5t-175 89.5q-126 0 -184.5 -94t-58.5 -470q0 -349 58.5 -454t183.5 -105q116 0 171 55t57 224v137h-212v111h386v-641h-107l-8 147q-64 -155 -306 -155z
M245 1438v68h464v-68h-464z" />
    <glyph glyph-name="uni1E21" unicode="&#x1e21;" horiz-adv-x="918" 
d="M435 -461q-189 0 -277.5 86.5t-88.5 288.5h167q0 -137 54.5 -198.5t144.5 -61.5q60 0 109 31t78.5 103.5t29.5 198.5v117q-14 -13 -29 -26q-105 -85 -254 -85q-175 0 -246 148.5t-71 455.5q0 308 71 456t246 148q149 0 254 -86q19 -15 34 -31l6 106h159v-1201
q0 -171 -45 -269.5t-131.5 -139.5t-210.5 -41zM652 847q-4 88 -65 158q-65 74 -158 74q-99 0 -152.5 -97t-53.5 -385q0 -289 53.5 -386t152.5 -97q93 0 158 74q61 70 65 159v500zM218 1277v68h464v-68h-464z" />
    <glyph glyph-name="uni1E24" unicode="&#x1e24;" horiz-adv-x="937" 
d="M63 0v1350h172v-587h430v587h171v-1350h-171v640h-430v-640h-172zM467 -216q-28 0 -47 19t-19 47q0 27 19 45.5t47 18.5q26 0 45 -18.5t19 -45.5t-19 -46.5t-45 -19.5z" />
    <glyph glyph-name="uni1E25" unicode="&#x1e25;" horiz-adv-x="896" 
d="M77 0v1570h170v-497q7 9 16 19q99 109 259 109q170 0 228.5 -132t58.5 -356v-713h-169v711q0 202 -44.5 285t-137.5 83q-92 0 -153 -81q-49 -66 -58 -156v-842h-170zM456 -262q-28 0 -47 19t-19 47q0 27 19 45.5t47 18.5q26 0 45 -18.5t19 -45.5t-19 -46.5t-45 -19.5z
" />
    <glyph glyph-name="uni1E2A" unicode="&#x1e2a;" horiz-adv-x="937" 
d="M63 0v1350h172v-587h430v587h171v-1350h-171v640h-430v-640h-172zM465 -272q-76 0 -117.5 42.5t-41.5 101.5h86q0 -81 73 -81q42 0 58 22t16 59h87q0 -59 -41 -101.5t-120 -42.5z" />
    <glyph glyph-name="uni1E2B" unicode="&#x1e2b;" horiz-adv-x="896" 
d="M77 0v1570h170v-497q7 9 16 19q99 109 259 109q170 0 228.5 -132t58.5 -356v-713h-169v711q0 202 -44.5 285t-137.5 83q-92 0 -153 -81q-49 -66 -58 -156v-842h-170zM454 -272q-76 0 -117.5 42.5t-41.5 101.5h86q0 -81 73 -81q42 0 58 22t16 59h87q0 -59 -41 -101.5
t-120 -42.5z" />
    <glyph glyph-name="uni1E2E" unicode="&#x1e2e;" horiz-adv-x="409" 
d="M104 0v1350h171v-1350h-171zM316 1415q-26 0 -44.5 18.5t-18.5 44.5t18.5 44.5t44.5 18.5t44.5 -18.5t18.5 -44.5t-18.5 -44.5t-44.5 -18.5zM63 1415q-26 0 -44.5 18.5t-18.5 44.5t18.5 44.5t44.5 18.5t44.5 -18.5t18.5 -44.5t-18.5 -44.5t-44.5 -18.5zM70 1580l115 156
h123l-151 -156h-87z" />
    <glyph glyph-name="uni1E2F" unicode="&#x1e2f;" horiz-adv-x="359" 
d="M79 0v1191h171v-1191h-171zM292 1255q-26 0 -44.5 18.5t-18.5 44.5t18.5 44.5t44.5 18.5t44.5 -18.5t18.5 -44.5t-18.5 -44.5t-44.5 -18.5zM39 1255q-26 0 -44.5 18.5t-18.5 44.5t18.5 44.5t44.5 18.5t44.5 -18.5t18.5 -44.5t-18.5 -44.5t-44.5 -18.5zM46 1420l115 156
h123l-151 -156h-87z" />
    <glyph glyph-name="uni1E36" unicode="&#x1e36;" horiz-adv-x="731" 
d="M63 0v1350h172v-1228h431v-122h-603zM369 -216q-28 0 -47 19t-19 47q0 27 19 45.5t47 18.5q26 0 45 -18.5t19 -45.5t-19 -46.5t-45 -19.5z" />
    <glyph glyph-name="uni1E37" unicode="&#x1e37;" horiz-adv-x="369" 
d="M96 0v1570h170v-1570h-170zM184 -262q-28 0 -47 19t-19 47q0 27 19 45.5t47 18.5q26 0 45 -18.5t19 -45.5t-19 -46.5t-45 -19.5z" />
    <glyph glyph-name="uni1E3A" unicode="&#x1e3a;" horiz-adv-x="731" 
d="M63 0v1350h172v-1228h431v-122h-603zM136 -203v68h464v-68h-464z" />
    <glyph glyph-name="uni1E3B" unicode="&#x1e3b;" horiz-adv-x="369" 
d="M96 0v1570h170v-1570h-170zM-49 -203v68h464v-68h-464z" />
    <glyph glyph-name="uni1E42" unicode="&#x1e42;" horiz-adv-x="1252" 
d="M63 0v1350h281l263 -1149h2l262 1149h281v-1350h-170v1227h-4l-268 -1149h-205l-268 1149h-4v-1227h-170zM612 -216q-28 0 -47 19t-19 47q0 27 19 45.5t47 18.5q26 0 45 -18.5t19 -45.5t-19 -46.5t-45 -19.5z" />
    <glyph glyph-name="uni1E43" unicode="&#x1e43;" horiz-adv-x="1345" 
d="M77 0v1190h158l9 -123q5 8 12 16q93 117 235 117q166 0 214 -123q10 -25 18 -52q17 29 39 57q93 118 235 118q166 0 213.5 -123t47.5 -295v-782h-170v762q0 158 -32.5 237t-117.5 79q-83 0 -134 -85q-47 -76 -51 -198v-13v-782h-170v762q0 158 -33 237t-118 79
q-83 0 -135 -85q-44 -74 -50 -191v-802h-170zM684 -262q-28 0 -47 19t-19 47q0 27 19 45.5t47 18.5q26 0 45 -18.5t19 -45.5t-19 -46.5t-45 -19.5z" />
    <glyph glyph-name="uni1E44" unicode="&#x1e44;" horiz-adv-x="1063" 
d="M63 0v1350h279l448 -1213l2 1213h170v-1350h-278l-451 1224v-1224h-170zM526 1408q-28 0 -47 19t-19 47q0 27 19 45.5t47 18.5q26 0 45 -18.5t19 -45.5t-19 -46.5t-45 -19.5z" />
    <glyph glyph-name="uni1E45" unicode="&#x1e45;" horiz-adv-x="894" 
d="M77 0v1190h158l7 -121q9 12 19 23q99 109 259 109q170 0 228.5 -132t58.5 -356v-713h-169v711q0 202 -44.5 285t-137.5 83q-92 0 -153 -81q-45 -60 -57 -141v-857h-169zM442 1248q-28 0 -47 19t-19 47q0 27 19 45.5t47 18.5q26 0 45 -18.5t19 -45.5t-19 -46.5t-45 -19.5z
" />
    <glyph glyph-name="uni1E46" unicode="&#x1e46;" horiz-adv-x="1063" 
d="M63 0v1350h279l448 -1213l2 1213h170v-1350h-278l-451 1224v-1224h-170zM526 -216q-28 0 -47 19t-19 47q0 27 19 45.5t47 18.5q26 0 45 -18.5t19 -45.5t-19 -46.5t-45 -19.5z" />
    <glyph glyph-name="uni1E47" unicode="&#x1e47;" horiz-adv-x="894" 
d="M77 0v1190h158l7 -121q9 12 19 23q99 109 259 109q170 0 228.5 -132t58.5 -356v-713h-169v711q0 202 -44.5 285t-137.5 83q-92 0 -153 -81q-45 -60 -57 -141v-857h-169zM442 -262q-28 0 -47 19t-19 47q0 27 19 45.5t47 18.5q26 0 45 -18.5t19 -45.5t-19 -46.5t-45 -19.5z
" />
    <glyph glyph-name="uni1E48" unicode="&#x1e48;" horiz-adv-x="1063" 
d="M63 0v1350h279l448 -1213l2 1213h170v-1350h-278l-451 1224v-1224h-170zM293 -203v68h464v-68h-464z" />
    <glyph glyph-name="uni1E49" unicode="&#x1e49;" horiz-adv-x="894" 
d="M77 0v1190h158l7 -121q9 12 19 23q99 109 259 109q170 0 228.5 -132t58.5 -356v-713h-169v711q0 202 -44.5 285t-137.5 83q-92 0 -153 -81q-45 -60 -57 -141v-857h-169zM209 -203v68h464v-68h-464z" />
    <glyph glyph-name="uni1E4C" unicode="&#x1e4c;" horiz-adv-x="992" 
d="M489 -9q-253 0 -344 150.5t-91 533.5q0 382 90.5 533.5t345 151.5t345 -151.5t90.5 -533.5q0 -383 -90.5 -533.5t-345.5 -150.5zM489 114q127 0 196 100t69 461q0 363 -69 462.5t-196 99.5q-126 0 -195 -99.5t-69 -462.5q0 -361 69 -461t195 -100zM583 1423
q-41 0 -67.5 15t-48 30.5t-49.5 15.5q-32 0 -45.5 -18t-14.5 -34h-87q1 23 13 51.5t41 49.5t82 21q40 0 64 -15t46 -30t54 -15q29 0 43.5 18t15.5 34h86q-1 -21 -11.5 -50t-39 -51t-82.5 -22zM373 1590l115 156h123l-151 -156h-87z" />
    <glyph glyph-name="uni1E4D" unicode="&#x1e4d;" horiz-adv-x="923" 
d="M450 -9q-233 0 -315.5 144.5t-82.5 461.5q0 318 82.5 461.5t315.5 143.5t315.5 -143.5t82.5 -461.5q0 -317 -82.5 -461.5t-315.5 -144.5zM450 113q109 0 168.5 98t59.5 385q0 288 -59.5 386.5t-168.5 98.5t-168.5 -98.5t-59.5 -386.5q0 -287 59.5 -385t168.5 -98z
M541 1263q-41 0 -67.5 15t-48 30.5t-49.5 15.5q-32 0 -45.5 -18t-14.5 -34h-87q1 23 13 51.5t41 49.5t82 21q40 0 64 -15t46 -30t54 -15q29 0 43.5 18t15.5 34h86q-1 -21 -11.5 -50t-39 -51t-82.5 -22zM331 1431l115 156h123l-151 -156h-87z" />
    <glyph glyph-name="uni1E4E" unicode="&#x1e4e;" horiz-adv-x="992" 
d="M489 -9q-253 0 -344 150.5t-91 533.5q0 382 90.5 533.5t345 151.5t345 -151.5t90.5 -533.5q0 -383 -90.5 -533.5t-345.5 -150.5zM489 114q127 0 196 100t69 461q0 363 -69 462.5t-196 99.5q-126 0 -195 -99.5t-69 -462.5q0 -361 69 -461t195 -100zM583 1423
q-41 0 -67.5 15t-48 30.5t-49.5 15.5q-32 0 -45.5 -18t-14.5 -34h-87q1 23 13 51.5t41 49.5t82 21q40 0 64 -15t46 -30t54 -15q29 0 43.5 18t15.5 34h86q-1 -21 -11.5 -50t-39 -51t-82.5 -22zM619 1617q-26 0 -44.5 18.5t-18.5 44.5t18.5 44.5t44.5 18.5t44.5 -18.5
t18.5 -44.5t-18.5 -44.5t-44.5 -18.5zM366 1617q-26 0 -44.5 18.5t-18.5 44.5t18.5 44.5t44.5 18.5t44.5 -18.5t18.5 -44.5t-18.5 -44.5t-44.5 -18.5z" />
    <glyph glyph-name="uni1E4F" unicode="&#x1e4f;" horiz-adv-x="923" 
d="M450 -9q-233 0 -315.5 144.5t-82.5 461.5q0 318 82.5 461.5t315.5 143.5t315.5 -143.5t82.5 -461.5q0 -317 -82.5 -461.5t-315.5 -144.5zM450 113q109 0 168.5 98t59.5 385q0 288 -59.5 386.5t-168.5 98.5t-168.5 -98.5t-59.5 -386.5q0 -287 59.5 -385t168.5 -98z
M541 1263q-41 0 -67.5 15t-48 30.5t-49.5 15.5q-32 0 -45.5 -18t-14.5 -34h-87q1 23 13 51.5t41 49.5t82 21q40 0 64 -15t46 -30t54 -15q29 0 43.5 18t15.5 34h86q-1 -21 -11.5 -50t-39 -51t-82.5 -22zM577 1457q-26 0 -44.5 18.5t-18.5 44.5t18.5 44.5t44.5 18.5
t44.5 -18.5t18.5 -44.5t-18.5 -44.5t-44.5 -18.5zM324 1457q-26 0 -44.5 18.5t-18.5 44.5t18.5 44.5t44.5 18.5t44.5 -18.5t18.5 -44.5t-18.5 -44.5t-44.5 -18.5z" />
    <glyph glyph-name="uni1E50" unicode="&#x1e50;" horiz-adv-x="992" 
d="M489 -9q-253 0 -344 150.5t-91 533.5q0 382 90.5 533.5t345 151.5t345 -151.5t90.5 -533.5q0 -383 -90.5 -533.5t-345.5 -150.5zM489 114q127 0 196 100t69 461q0 363 -69 462.5t-196 99.5q-126 0 -195 -99.5t-69 -462.5q0 -361 69 -461t195 -100zM260 1438v68h464v-68
h-464zM524 1561l-152 156h124l114 -156h-86z" />
    <glyph glyph-name="uni1E51" unicode="&#x1e51;" horiz-adv-x="923" 
d="M450 -9q-233 0 -315.5 144.5t-82.5 461.5q0 318 82.5 461.5t315.5 143.5t315.5 -143.5t82.5 -461.5q0 -317 -82.5 -461.5t-315.5 -144.5zM450 113q109 0 168.5 98t59.5 385q0 288 -59.5 386.5t-168.5 98.5t-168.5 -98.5t-59.5 -386.5q0 -287 59.5 -385t168.5 -98z
M218 1278v68h464v-68h-464zM482 1397l-152 156h124l114 -156h-86z" />
    <glyph glyph-name="uni1E52" unicode="&#x1e52;" horiz-adv-x="992" 
d="M489 -9q-253 0 -344 150.5t-91 533.5q0 382 90.5 533.5t345 151.5t345 -151.5t90.5 -533.5q0 -383 -90.5 -533.5t-345.5 -150.5zM489 114q127 0 196 100t69 461q0 363 -69 462.5t-196 99.5q-126 0 -195 -99.5t-69 -462.5q0 -361 69 -461t195 -100zM260 1438v68h464v-68
h-464zM373 1544l115 156h123l-151 -156h-87z" />
    <glyph glyph-name="uni1E53" unicode="&#x1e53;" horiz-adv-x="923" 
d="M450 -9q-233 0 -315.5 144.5t-82.5 461.5q0 318 82.5 461.5t315.5 143.5t315.5 -143.5t82.5 -461.5q0 -317 -82.5 -461.5t-315.5 -144.5zM450 113q109 0 168.5 98t59.5 385q0 288 -59.5 386.5t-168.5 98.5t-168.5 -98.5t-59.5 -386.5q0 -287 59.5 -385t168.5 -98z
M218 1278v68h464v-68h-464zM331 1385l115 156h123l-151 -156h-87z" />
    <glyph glyph-name="uni1E5A" unicode="&#x1e5a;" horiz-adv-x="904" 
d="M63 0v1350h505q163 0 209 -114.5t46 -263.5q0 -148 -47 -258q-34 -79 -129 -101l175 -613h-182l-165 604h-240v-604h-172zM235 714h271q84 0 114.5 70.5t30.5 186.5q0 114 -30.5 185.5t-114.5 71.5h-271v-514zM443 -216q-28 0 -47 19t-19 47q0 27 19 45.5t47 18.5
q26 0 45 -18.5t19 -45.5t-19 -46.5t-45 -19.5z" />
    <glyph glyph-name="uni1E5B" unicode="&#x1e5b;" horiz-adv-x="869" 
d="M613 637q0 260 -39.5 350.5t-125.5 90.5q-95 0 -148 -77q-49 -70 -54 -149v-852h-169v1190h159l6 -115q13 18 29 34q91 92 241 92q166 0 218 -135.5t52 -428.5h-169zM450 -262q-28 0 -47 19t-19 47q0 27 19 45.5t47 18.5q26 0 45 -18.5t19 -45.5t-19 -46.5t-45 -19.5z
" />
    <glyph glyph-name="uni1E5E" unicode="&#x1e5e;" horiz-adv-x="904" 
d="M63 0v1350h505q163 0 209 -114.5t46 -263.5q0 -148 -47 -258q-34 -79 -129 -101l175 -613h-182l-165 604h-240v-604h-172zM235 714h271q84 0 114.5 70.5t30.5 186.5q0 114 -30.5 185.5t-114.5 71.5h-271v-514zM210 -203v68h464v-68h-464z" />
    <glyph glyph-name="uni1E5F" unicode="&#x1e5f;" horiz-adv-x="869" 
d="M613 637q0 260 -39.5 350.5t-125.5 90.5q-95 0 -148 -77q-49 -70 -54 -149v-852h-169v1190h159l6 -115q13 18 29 34q91 92 241 92q166 0 218 -135.5t52 -428.5h-169zM218 -203v68h464v-68h-464z" />
    <glyph glyph-name="uni1E60" unicode="&#x1e60;" horiz-adv-x="929" 
d="M450 -9q-252 0 -326.5 120t-74.5 398h172q0 -257 55.5 -327t172.5 -70t173.5 62t56.5 162q0 130 -69 183.5t-212 96.5q-196 63 -272 138t-76 241q0 137 77 251t322 114q249 0 324.5 -124t75.5 -387h-172q0 248 -57.5 318.5t-171.5 70.5q-116 0 -173 -63.5t-57 -156.5
q0 -125 70 -179t211 -98q199 -63 275 -134t76 -244q0 -143 -76 -257.5t-324 -114.5zM455 1408q-28 0 -47 19t-19 47q0 27 19 45.5t47 18.5q26 0 45 -18.5t19 -45.5t-19 -46.5t-45 -19.5z" />
    <glyph glyph-name="uni1E61" unicode="&#x1e61;" horiz-adv-x="899" 
d="M449 -9q-182 0 -276.5 80t-110.5 307l158 37q7 -179 66 -241.5t160 -62.5q112 0 159 47t47 140q0 119 -59 163t-198 79q-179 42 -253.5 106.5t-74.5 232.5q0 153 93.5 237t282.5 84q187 0 272.5 -84.5t99.5 -290.5l-155 -36q-7 158 -59.5 225t-159.5 67
q-105 0 -154.5 -57t-49.5 -145q0 -110 61.5 -146t193.5 -69q180 -43 255 -115t75 -242q0 -168 -90 -242t-283 -74zM445 1248q-28 0 -47 19t-19 47q0 27 19 45.5t47 18.5q26 0 45 -18.5t19 -45.5t-19 -46.5t-45 -19.5z" />
    <glyph glyph-name="uni1E62" unicode="&#x1e62;" horiz-adv-x="929" 
d="M450 -9q-252 0 -326.5 120t-74.5 398h172q0 -257 55.5 -327t172.5 -70t173.5 62t56.5 162q0 130 -69 183.5t-212 96.5q-196 63 -272 138t-76 241q0 137 77 251t322 114q249 0 324.5 -124t75.5 -387h-172q0 248 -57.5 318.5t-171.5 70.5q-116 0 -173 -63.5t-57 -156.5
q0 -125 70 -179t211 -98q199 -63 275 -134t76 -244q0 -143 -76 -257.5t-324 -114.5zM456 -216q-28 0 -47 19t-19 47q0 27 19 45.5t47 18.5q26 0 45 -18.5t19 -45.5t-19 -46.5t-45 -19.5z" />
    <glyph glyph-name="uni1E63" unicode="&#x1e63;" horiz-adv-x="899" 
d="M449 -9q-182 0 -276.5 80t-110.5 307l158 37q7 -179 66 -241.5t160 -62.5q112 0 159 47t47 140q0 119 -59 163t-198 79q-179 42 -253.5 106.5t-74.5 232.5q0 153 93.5 237t282.5 84q187 0 272.5 -84.5t99.5 -290.5l-155 -36q-7 158 -59.5 225t-159.5 67
q-105 0 -154.5 -57t-49.5 -145q0 -110 61.5 -146t193.5 -69q180 -43 255 -115t75 -242q0 -168 -90 -242t-283 -74zM444 -262q-28 0 -47 19t-19 47q0 27 19 45.5t47 18.5q26 0 45 -18.5t19 -45.5t-19 -46.5t-45 -19.5z" />
    <glyph glyph-name="uni1E64" unicode="&#x1e64;" horiz-adv-x="929" 
d="M450 -9q-252 0 -326.5 120t-74.5 398h172q0 -257 55.5 -327t172.5 -70t173.5 62t56.5 162q0 130 -69 183.5t-212 96.5q-196 63 -272 138t-76 241q0 137 77 251t322 114q249 0 324.5 -124t75.5 -387h-172q0 248 -57.5 318.5t-171.5 70.5q-116 0 -173 -63.5t-57 -156.5
q0 -125 70 -179t211 -98q199 -63 275 -134t76 -244q0 -143 -76 -257.5t-324 -114.5zM335 1389l115 156h123l-151 -156h-87zM455 1603q-28 0 -47 19t-19 47q0 27 19 45.5t47 18.5q26 0 45 -18.5t19 -45.5t-19 -46.5t-45 -19.5z" />
    <glyph glyph-name="uni1E65" unicode="&#x1e65;" horiz-adv-x="899" 
d="M449 -9q-182 0 -276.5 80t-110.5 307l158 37q7 -179 66 -241.5t160 -62.5q112 0 159 47t47 140q0 119 -59 163t-198 79q-179 42 -253.5 106.5t-74.5 232.5q0 153 93.5 237t282.5 84q187 0 272.5 -84.5t99.5 -290.5l-155 -36q-7 158 -59.5 225t-159.5 67
q-105 0 -154.5 -57t-49.5 -145q0 -110 61.5 -146t193.5 -69q180 -43 255 -115t75 -242q0 -168 -90 -242t-283 -74zM325 1228l115 156h123l-151 -156h-87zM445 1443q-28 0 -47 19t-19 47q0 27 19 45.5t47 18.5q26 0 45 -18.5t19 -45.5t-19 -46.5t-45 -19.5z" />
    <glyph glyph-name="uni1E66" unicode="&#x1e66;" horiz-adv-x="929" 
d="M450 -9q-252 0 -326.5 120t-74.5 398h172q0 -257 55.5 -327t172.5 -70t173.5 62t56.5 162q0 130 -69 183.5t-212 96.5q-196 63 -272 138t-76 241q0 137 77 251t322 114q249 0 324.5 -124t75.5 -387h-172q0 248 -57.5 318.5t-171.5 70.5q-116 0 -173 -63.5t-57 -156.5
q0 -125 70 -179t211 -98q199 -63 275 -134t76 -244q0 -143 -76 -257.5t-324 -114.5zM398 1397l-156 163h101l112 -118l111 118h101l-156 -163h-113zM455 1618q-28 0 -47 19t-19 47q0 27 19 45.5t47 18.5q26 0 45 -18.5t19 -45.5t-19 -46.5t-45 -19.5z" />
    <glyph glyph-name="uni1E67" unicode="&#x1e67;" horiz-adv-x="899" 
d="M449 -9q-182 0 -276.5 80t-110.5 307l158 37q7 -179 66 -241.5t160 -62.5q112 0 159 47t47 140q0 119 -59 163t-198 79q-179 42 -253.5 106.5t-74.5 232.5q0 153 93.5 237t282.5 84q187 0 272.5 -84.5t99.5 -290.5l-155 -36q-7 158 -59.5 225t-159.5 67
q-105 0 -154.5 -57t-49.5 -145q0 -110 61.5 -146t193.5 -69q180 -43 255 -115t75 -242q0 -168 -90 -242t-283 -74zM387 1237l-156 163h101l112 -118l111 118h101l-156 -163h-113zM445 1457q-28 0 -47 19t-19 47q0 27 19 45.5t47 18.5q26 0 45 -18.5t19 -45.5t-19 -46.5
t-45 -19.5z" />
    <glyph glyph-name="uni1E68" unicode="&#x1e68;" horiz-adv-x="929" 
d="M450 -9q-252 0 -326.5 120t-74.5 398h172q0 -257 55.5 -327t172.5 -70t173.5 62t56.5 162q0 130 -69 183.5t-212 96.5q-196 63 -272 138t-76 241q0 137 77 251t322 114q249 0 324.5 -124t75.5 -387h-172q0 248 -57.5 318.5t-171.5 70.5q-116 0 -173 -63.5t-57 -156.5
q0 -125 70 -179t211 -98q199 -63 275 -134t76 -244q0 -143 -76 -257.5t-324 -114.5zM456 -216q-28 0 -47 19t-19 47q0 27 19 45.5t47 18.5q26 0 45 -18.5t19 -45.5t-19 -46.5t-45 -19.5zM455 1408q-28 0 -47 19t-19 47q0 27 19 45.5t47 18.5q26 0 45 -18.5t19 -45.5
t-19 -46.5t-45 -19.5z" />
    <glyph glyph-name="uni1E69" unicode="&#x1e69;" horiz-adv-x="899" 
d="M449 -9q-182 0 -276.5 80t-110.5 307l158 37q7 -179 66 -241.5t160 -62.5q112 0 159 47t47 140q0 119 -59 163t-198 79q-179 42 -253.5 106.5t-74.5 232.5q0 153 93.5 237t282.5 84q187 0 272.5 -84.5t99.5 -290.5l-155 -36q-7 158 -59.5 225t-159.5 67
q-105 0 -154.5 -57t-49.5 -145q0 -110 61.5 -146t193.5 -69q180 -43 255 -115t75 -242q0 -168 -90 -242t-283 -74zM444 -262q-28 0 -47 19t-19 47q0 27 19 45.5t47 18.5q26 0 45 -18.5t19 -45.5t-19 -46.5t-45 -19.5zM445 1248q-28 0 -47 19t-19 47q0 27 19 45.5t47 18.5
q26 0 45 -18.5t19 -45.5t-19 -46.5t-45 -19.5z" />
    <glyph glyph-name="uni1E6C" unicode="&#x1e6c;" horiz-adv-x="880" 
d="M352 0v1228h-302v122h775v-122h-302v-1228h-171zM438 -216q-28 0 -47 19t-19 47q0 27 19 45.5t47 18.5q26 0 45 -18.5t19 -45.5t-19 -46.5t-45 -19.5z" />
    <glyph glyph-name="uni1E6D" unicode="&#x1e6d;" horiz-adv-x="740" 
d="M463 -12q-109 0 -173 48.5t-64 189.5v841h-205v123h205v260h170v-260h287v-123h-287v-801q0 -97 31 -127t92 -30q53 0 110 12v-119q-88 -14 -166 -14zM459 -262q-28 0 -47 19t-19 47q0 27 19 45.5t47 18.5q26 0 45 -18.5t19 -45.5t-19 -46.5t-45 -19.5z" />
    <glyph glyph-name="uni1E6E" unicode="&#x1e6e;" horiz-adv-x="880" 
d="M352 0v1228h-302v122h775v-122h-302v-1228h-171zM206 -203v68h464v-68h-464z" />
    <glyph glyph-name="uni1E6F" unicode="&#x1e6f;" horiz-adv-x="740" 
d="M463 -12q-109 0 -173 48.5t-64 189.5v841h-205v123h205v260h170v-260h287v-123h-287v-801q0 -97 31 -127t92 -30q53 0 110 12v-119q-88 -14 -166 -14zM226 -203v68h464v-68h-464z" />
    <glyph glyph-name="uni1E78" unicode="&#x1e78;" horiz-adv-x="981" 
d="M478 -9q-200 0 -301.5 79.5t-101.5 273.5v1006h172v-984q0 -141 57.5 -197t174 -56t174 56t57.5 197v984h172v-1006q0 -194 -101.5 -273.5t-302.5 -79.5zM573 1423q-41 0 -67.5 15t-48 30.5t-49.5 15.5q-32 0 -45.5 -18t-14.5 -34h-87q1 23 13 51.5t41 49.5t82 21
q40 0 64 -15t46 -30t54 -15q29 0 43.5 18t15.5 34h86q-1 -21 -11.5 -50t-39 -51t-82.5 -22zM364 1590l115 156h123l-151 -156h-87z" />
    <glyph glyph-name="uni1E79" unicode="&#x1e79;" horiz-adv-x="901" 
d="M645 0l-8 124q-10 -13 -21 -25q-99 -110 -260 -110q-169 0 -228 132.5t-59 355.5v714h170v-711q0 -202 44 -285t138 -83q92 0 152 81q55 73 60 176v821h170v-1190h-158zM530 1262q-41 0 -67.5 15t-48 30.5t-49.5 15.5q-32 0 -45.5 -18t-14.5 -34h-87q1 23 13 51.5
t41 49.5t82 21q40 0 64 -15t46 -30t54 -15q29 0 43.5 18t15.5 34h86q-1 -21 -11.5 -50t-39 -51t-82.5 -22zM320 1430l115 156h123l-151 -156h-87z" />
    <glyph glyph-name="uni1E7A" unicode="&#x1e7a;" horiz-adv-x="981" 
d="M478 -9q-200 0 -301.5 79.5t-101.5 273.5v1006h172v-984q0 -141 57.5 -197t174 -56t174 56t57.5 197v984h172v-1006q0 -194 -101.5 -273.5t-302.5 -79.5zM251 1438v68h464v-68h-464zM609 1571q-26 0 -44.5 18.5t-18.5 44.5t18.5 44.5t44.5 18.5t44.5 -18.5t18.5 -44.5
t-18.5 -44.5t-44.5 -18.5zM356 1571q-26 0 -44.5 18.5t-18.5 44.5t18.5 44.5t44.5 18.5t44.5 -18.5t18.5 -44.5t-18.5 -44.5t-44.5 -18.5z" />
    <glyph glyph-name="uni1E7B" unicode="&#x1e7b;" horiz-adv-x="901" 
d="M645 0l-8 124q-10 -13 -21 -25q-99 -110 -260 -110q-169 0 -228 132.5t-59 355.5v714h170v-711q0 -202 44 -285t138 -83q92 0 152 81q55 73 60 176v821h170v-1190h-158zM208 1277v68h464v-68h-464zM566 1411q-26 0 -44.5 18.5t-18.5 44.5t18.5 44.5t44.5 18.5t44.5 -18.5
t18.5 -44.5t-18.5 -44.5t-44.5 -18.5zM313 1411q-26 0 -44.5 18.5t-18.5 44.5t18.5 44.5t44.5 18.5t44.5 -18.5t18.5 -44.5t-18.5 -44.5t-44.5 -18.5z" />
    <glyph glyph-name="Wgrave" unicode="&#x1e80;" horiz-adv-x="1416" 
d="M240 0l-193 1350h183l153 -1220l206 1220h218l205 -1221l157 1221h182l-196 -1350h-262l-195 1230l-196 -1230h-262zM740 1401l-152 156h124l114 -156h-86z" />
    <glyph glyph-name="wgrave" unicode="&#x1e81;" horiz-adv-x="1294" 
d="M231 0l-178 1190h176l129 -1070l186 1070h197l187 -1069l127 1069h175l-176 -1190h-248l-163 985l-162 -985h-250zM674 1241l-152 156h124l114 -156h-86z" />
    <glyph glyph-name="Wacute" unicode="&#x1e82;" horiz-adv-x="1416" 
d="M240 0l-193 1350h183l153 -1220l206 1220h218l205 -1221l157 1221h182l-196 -1350h-262l-195 1230l-196 -1230h-262zM589 1389l115 156h123l-151 -156h-87z" />
    <glyph glyph-name="wacute" unicode="&#x1e83;" horiz-adv-x="1294" 
d="M231 0l-178 1190h176l129 -1070l186 1070h197l187 -1069l127 1069h175l-176 -1190h-248l-163 985l-162 -985h-250zM523 1228l115 156h123l-151 -156h-87z" />
    <glyph glyph-name="Wdieresis" unicode="&#x1e84;" horiz-adv-x="1416" 
d="M240 0l-193 1350h183l153 -1220l206 1220h218l205 -1221l157 1221h182l-196 -1350h-262l-195 1230l-196 -1230h-262zM835 1415q-26 0 -44.5 18.5t-18.5 44.5t18.5 44.5t44.5 18.5t44.5 -18.5t18.5 -44.5t-18.5 -44.5t-44.5 -18.5zM582 1415q-26 0 -44.5 18.5t-18.5 44.5
t18.5 44.5t44.5 18.5t44.5 -18.5t18.5 -44.5t-18.5 -44.5t-44.5 -18.5z" />
    <glyph glyph-name="wdieresis" unicode="&#x1e85;" horiz-adv-x="1294" 
d="M231 0l-178 1190h176l129 -1070l186 1070h197l187 -1069l127 1069h175l-176 -1190h-248l-163 985l-162 -985h-250zM768 1255q-26 0 -44.5 18.5t-18.5 44.5t18.5 44.5t44.5 18.5t44.5 -18.5t18.5 -44.5t-18.5 -44.5t-44.5 -18.5zM515 1255q-26 0 -44.5 18.5t-18.5 44.5
t18.5 44.5t44.5 18.5t44.5 -18.5t18.5 -44.5t-18.5 -44.5t-44.5 -18.5z" />
    <glyph glyph-name="uni1E8E" unicode="&#x1e8e;" horiz-adv-x="960" 
d="M388 0v474l-355 876h186l255 -708l253 708h186l-354 -877v-473h-171zM476 1408q-28 0 -47 19t-19 47q0 27 19 45.5t47 18.5q26 0 45 -18.5t19 -45.5t-19 -46.5t-45 -19.5z" />
    <glyph glyph-name="uni1E8F" unicode="&#x1e8f;" horiz-adv-x="847" 
d="M283 0l-253 1190h178l211 -1038l211 1038h178l-254 -1190q-57 -261 -174.5 -361t-315.5 -100v123q128 0 209 72q82 72 124 266h-114zM419 1248q-28 0 -47 19t-19 47q0 27 19 45.5t47 18.5q26 0 45 -18.5t19 -45.5t-19 -46.5t-45 -19.5z" />
    <glyph glyph-name="uni1E92" unicode="&#x1e92;" horiz-adv-x="820" 
d="M53 0v126l485 1102h-477v122h658v-122l-485 -1106h507v-122h-688zM411 -216q-28 0 -47 19t-19 47q0 27 19 45.5t47 18.5q26 0 45 -18.5t19 -45.5t-19 -46.5t-45 -19.5z" />
    <glyph glyph-name="uni1E93" unicode="&#x1e93;" horiz-adv-x="743" 
d="M52 0v121l438 947h-430v122h605v-122l-433 -946h442v-122h-622zM370 -262q-28 0 -47 19t-19 47q0 27 19 45.5t47 18.5q26 0 45 -18.5t19 -45.5t-19 -46.5t-45 -19.5z" />
    <glyph glyph-name="uni1E97" unicode="&#x1e97;" horiz-adv-x="740" 
d="M463 -12q-109 0 -173 48.5t-64 189.5v841h-205v123h205v260h170v-260h287v-123h-287v-801q0 -97 31 -127t92 -30q53 0 110 12v-119q-88 -14 -166 -14zM442 1513q-26 0 -44.5 18.5t-18.5 44.5t18.5 44.5t44.5 18.5t44.5 -18.5t18.5 -44.5t-18.5 -44.5t-44.5 -18.5z
M189 1513q-26 0 -44.5 18.5t-18.5 44.5t18.5 44.5t44.5 18.5t44.5 -18.5t18.5 -44.5t-18.5 -44.5t-44.5 -18.5z" />
    <glyph glyph-name="uni1E9E" unicode="&#x1e9e;" horiz-adv-x="900" 
d="M63 0v1350h724v-113l-296 -475q185 -33 257.5 -127.5t72.5 -256.5q0 -133 -39.5 -218.5t-143.5 -125t-296 -34.5v120q171 -7 238 51.5t67 205.5q0 144 -70.5 215.5t-235.5 98.5v113l258 422h-364v-1226h-172z" />
    <glyph glyph-name="uni1EA0" unicode="&#x1ea0;" horiz-adv-x="999" 
d="M48 0l316 1351h268l316 -1351h-176l-84 385h-379l-84 -385h-177zM331 505h336l-164 737h-8zM498 -262q-28 0 -47 19t-19 47q0 27 19 45.5t47 18.5q26 0 45 -18.5t19 -45.5t-19 -46.5t-45 -19.5z" />
    <glyph glyph-name="uni1EA1" unicode="&#x1ea1;" horiz-adv-x="912" 
d="M678 0l-17 89q-16 -17 -36 -33q-85 -66 -247 -66t-241 91t-79 273q0 176 78 259t277 83h238v51q0 169 -48.5 251t-153.5 82q-91 0 -148 -73.5t-62 -218.5l-170 31q10 197 104 289.5t271 92.5q237 0 307.5 -136t70.5 -374v-691h-144zM651 248v338h-193q-131 0 -178 -56.5
t-47 -172.5q0 -112 43.5 -181.5t145.5 -69.5q101 0 165 44t64 98zM453 -262q-28 0 -47 19t-19 47q0 27 19 45.5t47 18.5q26 0 45 -18.5t19 -45.5t-19 -46.5t-45 -19.5z" />
    <glyph glyph-name="uni1EA2" unicode="&#x1ea2;" horiz-adv-x="999" 
d="M48 0l316 1351h268l316 -1351h-176l-84 385h-379l-84 -385h-177zM331 505h336l-164 737h-8zM401 1649q142 0 215 -18.5t73 -79.5q0 -36 -28 -57t-66 -29.5t-69 -8.5v-57h-68v106q59 0 102.5 9t43.5 32q0 28 -49 35.5t-154 7.5v60z" />
    <glyph glyph-name="uni1EA3" unicode="&#x1ea3;" horiz-adv-x="912" 
d="M678 0l-17 89q-16 -17 -36 -33q-85 -66 -247 -66t-241 91t-79 273q0 176 78 259t277 83h238v51q0 169 -48.5 251t-153.5 82q-91 0 -148 -73.5t-62 -218.5l-170 31q10 197 104 289.5t271 92.5q237 0 307.5 -136t70.5 -374v-691h-144zM651 248v338h-193q-131 0 -178 -56.5
t-47 -172.5q0 -112 43.5 -181.5t145.5 -69.5q101 0 165 44t64 98zM349 1489q142 0 215 -18.5t73 -79.5q0 -36 -28 -57t-66 -29.5t-69 -8.5v-57h-68v106q59 0 102.5 9t43.5 32q0 28 -49 35.5t-154 7.5v60z" />
    <glyph glyph-name="uni1EA4" unicode="&#x1ea4;" horiz-adv-x="999" 
d="M48 0l316 1351h268l316 -1351h-176l-84 385h-379l-84 -385h-177zM331 505h336l-164 737h-8zM285 1401l156 163h113l156 -163h-101l-111 118l-112 -118h-101zM378 1602l115 156h123l-151 -156h-87z" />
    <glyph glyph-name="uni1EA5" unicode="&#x1ea5;" horiz-adv-x="912" 
d="M678 0l-17 89q-16 -17 -36 -33q-85 -66 -247 -66t-241 91t-79 273q0 176 78 259t277 83h238v51q0 169 -48.5 251t-153.5 82q-91 0 -148 -73.5t-62 -218.5l-170 31q10 197 104 289.5t271 92.5q237 0 307.5 -136t70.5 -374v-691h-144zM651 248v338h-193q-131 0 -178 -56.5
t-47 -172.5q0 -112 43.5 -181.5t145.5 -69.5q101 0 165 44t64 98zM233 1241l156 163h113l156 -163h-101l-111 118l-112 -118h-101zM326 1442l115 156h123l-151 -156h-87z" />
    <glyph glyph-name="uni1EA6" unicode="&#x1ea6;" horiz-adv-x="999" 
d="M48 0l316 1351h268l316 -1351h-176l-84 385h-379l-84 -385h-177zM331 505h336l-164 737h-8zM285 1401l156 163h113l156 -163h-101l-111 118l-112 -118h-101zM530 1614l-152 156h124l114 -156h-86z" />
    <glyph glyph-name="uni1EA7" unicode="&#x1ea7;" horiz-adv-x="912" 
d="M678 0l-17 89q-16 -17 -36 -33q-85 -66 -247 -66t-241 91t-79 273q0 176 78 259t277 83h238v51q0 169 -48.5 251t-153.5 82q-91 0 -148 -73.5t-62 -218.5l-170 31q10 197 104 289.5t271 92.5q237 0 307.5 -136t70.5 -374v-691h-144zM651 248v338h-193q-131 0 -178 -56.5
t-47 -172.5q0 -112 43.5 -181.5t145.5 -69.5q101 0 165 44t64 98zM233 1241l156 163h113l156 -163h-101l-111 118l-112 -118h-101zM478 1454l-152 156h124l114 -156h-86z" />
    <glyph glyph-name="uni1EA8" unicode="&#x1ea8;" horiz-adv-x="999" 
d="M48 0l316 1351h268l316 -1351h-176l-84 385h-379l-84 -385h-177zM331 505h336l-164 737h-8zM285 1401l156 163h113l156 -163h-101l-111 118l-112 -118h-101zM401 1862q142 0 215 -18.5t73 -79.5q0 -36 -28 -57t-66 -29.5t-69 -8.5v-57h-68v106q59 0 102.5 9t43.5 32
q0 28 -49 35.5t-154 7.5v60z" />
    <glyph glyph-name="uni1EA9" unicode="&#x1ea9;" horiz-adv-x="912" 
d="M678 0l-17 89q-16 -17 -36 -33q-85 -66 -247 -66t-241 91t-79 273q0 176 78 259t277 83h238v51q0 169 -48.5 251t-153.5 82q-91 0 -148 -73.5t-62 -218.5l-170 31q10 197 104 289.5t271 92.5q237 0 307.5 -136t70.5 -374v-691h-144zM651 248v338h-193q-131 0 -178 -56.5
t-47 -172.5q0 -112 43.5 -181.5t145.5 -69.5q101 0 165 44t64 98zM233 1241l156 163h113l156 -163h-101l-111 118l-112 -118h-101zM349 1702q142 0 215 -18.5t73 -79.5q0 -36 -28 -57t-66 -29.5t-69 -8.5v-57h-68v106q59 0 102.5 9t43.5 32q0 28 -49 35.5t-154 7.5v60z" />
    <glyph glyph-name="uni1EAA" unicode="&#x1eaa;" horiz-adv-x="999" 
d="M48 0l316 1351h268l316 -1351h-176l-84 385h-379l-84 -385h-177zM331 505h336l-164 737h-8zM285 1401l156 163h113l156 -163h-101l-111 118l-112 -118h-101zM588 1636q-41 0 -67.5 15t-48 30.5t-49.5 15.5q-32 0 -45.5 -18t-14.5 -34h-87q1 23 13 51.5t41 49.5t82 21
q40 0 64 -15t46 -30t54 -15q29 0 43.5 18t15.5 34h86q-1 -21 -11.5 -50t-39 -51t-82.5 -22z" />
    <glyph glyph-name="uni1EAB" unicode="&#x1eab;" horiz-adv-x="912" 
d="M678 0l-17 89q-16 -17 -36 -33q-85 -66 -247 -66t-241 91t-79 273q0 176 78 259t277 83h238v51q0 169 -48.5 251t-153.5 82q-91 0 -148 -73.5t-62 -218.5l-170 31q10 197 104 289.5t271 92.5q237 0 307.5 -136t70.5 -374v-691h-144zM651 248v338h-193q-131 0 -178 -56.5
t-47 -172.5q0 -112 43.5 -181.5t145.5 -69.5q101 0 165 44t64 98zM233 1241l156 163h113l156 -163h-101l-111 118l-112 -118h-101zM536 1476q-41 0 -67.5 15t-48 30.5t-49.5 15.5q-32 0 -45.5 -18t-14.5 -34h-87q1 23 13 51.5t41 49.5t82 21q40 0 64 -15t46 -30t54 -15
q29 0 43.5 18t15.5 34h86q-1 -21 -11.5 -50t-39 -51t-82.5 -22z" />
    <glyph glyph-name="uni1EAC" unicode="&#x1eac;" horiz-adv-x="999" 
d="M48 0l316 1351h268l316 -1351h-176l-84 385h-379l-84 -385h-177zM331 505h336l-164 737h-8zM498 -262q-28 0 -47 19t-19 47q0 27 19 45.5t47 18.5q26 0 45 -18.5t19 -45.5t-19 -46.5t-45 -19.5zM285 1401l156 163h113l156 -163h-101l-111 118l-112 -118h-101z" />
    <glyph glyph-name="uni1EAD" unicode="&#x1ead;" horiz-adv-x="912" 
d="M678 0l-17 89q-16 -17 -36 -33q-85 -66 -247 -66t-241 91t-79 273q0 176 78 259t277 83h238v51q0 169 -48.5 251t-153.5 82q-91 0 -148 -73.5t-62 -218.5l-170 31q10 197 104 289.5t271 92.5q237 0 307.5 -136t70.5 -374v-691h-144zM651 248v338h-193q-131 0 -178 -56.5
t-47 -172.5q0 -112 43.5 -181.5t145.5 -69.5q101 0 165 44t64 98zM453 -262q-28 0 -47 19t-19 47q0 27 19 45.5t47 18.5q26 0 45 -18.5t19 -45.5t-19 -46.5t-45 -19.5zM233 1241l156 163h113l156 -163h-101l-111 118l-112 -118h-101z" />
    <glyph glyph-name="uni1EAE" unicode="&#x1eae;" horiz-adv-x="999" 
d="M48 0l316 1351h268l316 -1351h-176l-84 385h-379l-84 -385h-177zM331 505h336l-164 737h-8zM497 1398q-76 0 -117.5 42.5t-41.5 101.5h86q0 -81 73 -81q42 0 58 22t16 59h87q0 -59 -41 -101.5t-120 -42.5zM378 1581l115 156h123l-151 -156h-87z" />
    <glyph glyph-name="uni1EAF" unicode="&#x1eaf;" horiz-adv-x="912" 
d="M678 0l-17 89q-16 -17 -36 -33q-85 -66 -247 -66t-241 91t-79 273q0 176 78 259t277 83h238v51q0 169 -48.5 251t-153.5 82q-91 0 -148 -73.5t-62 -218.5l-170 31q10 197 104 289.5t271 92.5q237 0 307.5 -136t70.5 -374v-691h-144zM651 248v338h-193q-131 0 -178 -56.5
t-47 -172.5q0 -112 43.5 -181.5t145.5 -69.5q101 0 165 44t64 98zM445 1238q-76 0 -117.5 42.5t-41.5 101.5h86q0 -81 73 -81q42 0 58 22t16 59h87q0 -59 -41 -101.5t-120 -42.5zM326 1421l115 156h123l-151 -156h-87z" />
    <glyph glyph-name="uni1EB0" unicode="&#x1eb0;" horiz-adv-x="999" 
d="M48 0l316 1351h268l316 -1351h-176l-84 385h-379l-84 -385h-177zM331 505h336l-164 737h-8zM497 1398q-76 0 -117.5 42.5t-41.5 101.5h86q0 -81 73 -81q42 0 58 22t16 59h87q0 -59 -41 -101.5t-120 -42.5zM530 1594l-152 156h124l114 -156h-86z" />
    <glyph glyph-name="uni1EB1" unicode="&#x1eb1;" horiz-adv-x="912" 
d="M678 0l-17 89q-16 -17 -36 -33q-85 -66 -247 -66t-241 91t-79 273q0 176 78 259t277 83h238v51q0 169 -48.5 251t-153.5 82q-91 0 -148 -73.5t-62 -218.5l-170 31q10 197 104 289.5t271 92.5q237 0 307.5 -136t70.5 -374v-691h-144zM651 248v338h-193q-131 0 -178 -56.5
t-47 -172.5q0 -112 43.5 -181.5t145.5 -69.5q101 0 165 44t64 98zM445 1238q-76 0 -117.5 42.5t-41.5 101.5h86q0 -81 73 -81q42 0 58 22t16 59h87q0 -59 -41 -101.5t-120 -42.5zM478 1434l-152 156h124l114 -156h-86z" />
    <glyph glyph-name="uni1EB2" unicode="&#x1eb2;" horiz-adv-x="999" 
d="M48 0l316 1351h268l316 -1351h-176l-84 385h-379l-84 -385h-177zM331 505h336l-164 737h-8zM497 1398q-76 0 -117.5 42.5t-41.5 101.5h86q0 -81 73 -81q42 0 58 22t16 59h87q0 -59 -41 -101.5t-120 -42.5zM401 1842q142 0 215 -18.5t73 -79.5q0 -36 -28 -57t-66 -29.5
t-69 -8.5v-57h-68v106q59 0 102.5 9t43.5 32q0 28 -49 35.5t-154 7.5v60z" />
    <glyph glyph-name="uni1EB3" unicode="&#x1eb3;" horiz-adv-x="912" 
d="M678 0l-17 89q-16 -17 -36 -33q-85 -66 -247 -66t-241 91t-79 273q0 176 78 259t277 83h238v51q0 169 -48.5 251t-153.5 82q-91 0 -148 -73.5t-62 -218.5l-170 31q10 197 104 289.5t271 92.5q237 0 307.5 -136t70.5 -374v-691h-144zM651 248v338h-193q-131 0 -178 -56.5
t-47 -172.5q0 -112 43.5 -181.5t145.5 -69.5q101 0 165 44t64 98zM445 1238q-76 0 -117.5 42.5t-41.5 101.5h86q0 -81 73 -81q42 0 58 22t16 59h87q0 -59 -41 -101.5t-120 -42.5zM349 1682q142 0 215 -18.5t73 -79.5q0 -36 -28 -57t-66 -29.5t-69 -8.5v-57h-68v106
q59 0 102.5 9t43.5 32q0 28 -49 35.5t-154 7.5v60z" />
    <glyph glyph-name="uni1EB4" unicode="&#x1eb4;" horiz-adv-x="999" 
d="M48 0l316 1351h268l316 -1351h-176l-84 385h-379l-84 -385h-177zM331 505h336l-164 737h-8zM497 1398q-76 0 -117.5 42.5t-41.5 101.5h86q0 -81 73 -81q42 0 58 22t16 59h87q0 -59 -41 -101.5t-120 -42.5zM588 1615q-41 0 -67.5 15t-48 30.5t-49.5 15.5q-32 0 -45.5 -18
t-14.5 -34h-87q1 23 13 51.5t41 49.5t82 21q40 0 64 -15t46 -30t54 -15q29 0 43.5 18t15.5 34h86q-1 -21 -11.5 -50t-39 -51t-82.5 -22z" />
    <glyph glyph-name="uni1EB5" unicode="&#x1eb5;" horiz-adv-x="912" 
d="M678 0l-17 89q-16 -17 -36 -33q-85 -66 -247 -66t-241 91t-79 273q0 176 78 259t277 83h238v51q0 169 -48.5 251t-153.5 82q-91 0 -148 -73.5t-62 -218.5l-170 31q10 197 104 289.5t271 92.5q237 0 307.5 -136t70.5 -374v-691h-144zM651 248v338h-193q-131 0 -178 -56.5
t-47 -172.5q0 -112 43.5 -181.5t145.5 -69.5q101 0 165 44t64 98zM445 1238q-76 0 -117.5 42.5t-41.5 101.5h86q0 -81 73 -81q42 0 58 22t16 59h87q0 -59 -41 -101.5t-120 -42.5zM536 1455q-41 0 -67.5 15t-48 30.5t-49.5 15.5q-32 0 -45.5 -18t-14.5 -34h-87q1 23 13 51.5
t41 49.5t82 21q40 0 64 -15t46 -30t54 -15q29 0 43.5 18t15.5 34h86q-1 -21 -11.5 -50t-39 -51t-82.5 -22z" />
    <glyph glyph-name="uni1EB6" unicode="&#x1eb6;" horiz-adv-x="999" 
d="M48 0l316 1351h268l316 -1351h-176l-84 385h-379l-84 -385h-177zM331 505h336l-164 737h-8zM498 -262q-28 0 -47 19t-19 47q0 27 19 45.5t47 18.5q26 0 45 -18.5t19 -45.5t-19 -46.5t-45 -19.5zM497 1398q-76 0 -117.5 42.5t-41.5 101.5h86q0 -81 73 -81q42 0 58 22
t16 59h87q0 -59 -41 -101.5t-120 -42.5z" />
    <glyph glyph-name="uni1EB7" unicode="&#x1eb7;" horiz-adv-x="912" 
d="M678 0l-17 89q-16 -17 -36 -33q-85 -66 -247 -66t-241 91t-79 273q0 176 78 259t277 83h238v51q0 169 -48.5 251t-153.5 82q-91 0 -148 -73.5t-62 -218.5l-170 31q10 197 104 289.5t271 92.5q237 0 307.5 -136t70.5 -374v-691h-144zM651 248v338h-193q-131 0 -178 -56.5
t-47 -172.5q0 -112 43.5 -181.5t145.5 -69.5q101 0 165 44t64 98zM453 -262q-28 0 -47 19t-19 47q0 27 19 45.5t47 18.5q26 0 45 -18.5t19 -45.5t-19 -46.5t-45 -19.5zM445 1238q-76 0 -117.5 42.5t-41.5 101.5h86q0 -81 73 -81q42 0 58 22t16 59h87q0 -59 -41 -101.5
t-120 -42.5z" />
    <glyph glyph-name="uni1EB8" unicode="&#x1eb8;" horiz-adv-x="809" 
d="M64 0v1350h662v-122h-491v-477h465v-119h-465v-509h491v-123h-662zM403 -262q-28 0 -47 19t-19 47q0 27 19 45.5t47 18.5q26 0 45 -18.5t19 -45.5t-19 -46.5t-45 -19.5z" />
    <glyph glyph-name="uni1EB9" unicode="&#x1eb9;" horiz-adv-x="920" 
d="M450 -9q-236 0 -316 162t-80 442q0 307 82 456.5t313 149.5q236 0 313.5 -148t77.5 -453q0 -32 -2 -58h-616q5 -217 57 -319q58 -114 172 -114q89 0 150.5 77t66.5 236l158 -34q-10 -212 -109.5 -304.5t-266.5 -92.5zM222 653h449q-2 237 -56 332q-56 98 -166 98
q-108 0 -168 -101q-54 -91 -59 -329zM453 -262q-28 0 -47 19t-19 47q0 27 19 45.5t47 18.5q26 0 45 -18.5t19 -45.5t-19 -46.5t-45 -19.5z" />
    <glyph glyph-name="uni1EBA" unicode="&#x1eba;" horiz-adv-x="809" 
d="M64 0v1350h662v-122h-491v-477h465v-119h-465v-509h491v-123h-662zM306 1649q142 0 215 -18.5t73 -79.5q0 -36 -28 -57t-66 -29.5t-69 -8.5v-57h-68v106q59 0 102.5 9t43.5 32q0 28 -49 35.5t-154 7.5v60z" />
    <glyph glyph-name="uni1EBB" unicode="&#x1ebb;" horiz-adv-x="920" 
d="M450 -9q-236 0 -316 162t-80 442q0 307 82 456.5t313 149.5q236 0 313.5 -148t77.5 -453q0 -32 -2 -58h-616q5 -217 57 -319q58 -114 172 -114q89 0 150.5 77t66.5 236l158 -34q-10 -212 -109.5 -304.5t-266.5 -92.5zM222 653h449q-2 237 -56 332q-56 98 -166 98
q-108 0 -168 -101q-54 -91 -59 -329zM353 1489q142 0 215 -18.5t73 -79.5q0 -36 -28 -57t-66 -29.5t-69 -8.5v-57h-68v106q59 0 102.5 9t43.5 32q0 28 -49 35.5t-154 7.5v60z" />
    <glyph glyph-name="uni1EBC" unicode="&#x1ebc;" horiz-adv-x="809" 
d="M64 0v1350h662v-122h-491v-477h465v-119h-465v-509h491v-123h-662zM492 1423q-41 0 -67.5 15t-48 30.5t-49.5 15.5q-32 0 -45.5 -18t-14.5 -34h-87q1 23 13 51.5t41 49.5t82 21q40 0 64 -15t46 -30t54 -15q29 0 43.5 18t15.5 34h86q-1 -21 -11.5 -50t-39 -51t-82.5 -22z
" />
    <glyph glyph-name="uni1EBD" unicode="&#x1ebd;" horiz-adv-x="920" 
d="M450 -9q-236 0 -316 162t-80 442q0 307 82 456.5t313 149.5q236 0 313.5 -148t77.5 -453q0 -32 -2 -58h-616q5 -217 57 -319q58 -114 172 -114q89 0 150.5 77t66.5 236l158 -34q-10 -212 -109.5 -304.5t-266.5 -92.5zM222 653h449q-2 237 -56 332q-56 98 -166 98
q-108 0 -168 -101q-54 -91 -59 -329zM540 1262q-41 0 -67.5 15t-48 30.5t-49.5 15.5q-32 0 -45.5 -18t-14.5 -34h-87q1 23 13 51.5t41 49.5t82 21q40 0 64 -15t46 -30t54 -15q29 0 43.5 18t15.5 34h86q-1 -21 -11.5 -50t-39 -51t-82.5 -22z" />
    <glyph glyph-name="uni1EBE" unicode="&#x1ebe;" horiz-adv-x="809" 
d="M64 0v1350h662v-122h-491v-477h465v-119h-465v-509h491v-123h-662zM189 1401l156 163h113l156 -163h-101l-111 118l-112 -118h-101zM283 1602l115 156h123l-151 -156h-87z" />
    <glyph glyph-name="uni1EBF" unicode="&#x1ebf;" horiz-adv-x="920" 
d="M450 -9q-236 0 -316 162t-80 442q0 307 82 456.5t313 149.5q236 0 313.5 -148t77.5 -453q0 -32 -2 -58h-616q5 -217 57 -319q58 -114 172 -114q89 0 150.5 77t66.5 236l158 -34q-10 -212 -109.5 -304.5t-266.5 -92.5zM222 653h449q-2 237 -56 332q-56 98 -166 98
q-108 0 -168 -101q-54 -91 -59 -329zM237 1241l156 163h113l156 -163h-101l-111 118l-112 -118h-101zM330 1442l115 156h123l-151 -156h-87z" />
    <glyph glyph-name="uni1EC0" unicode="&#x1ec0;" horiz-adv-x="809" 
d="M64 0v1350h662v-122h-491v-477h465v-119h-465v-509h491v-123h-662zM189 1401l156 163h113l156 -163h-101l-111 118l-112 -118h-101zM434 1614l-152 156h124l114 -156h-86z" />
    <glyph glyph-name="uni1EC1" unicode="&#x1ec1;" horiz-adv-x="920" 
d="M450 -9q-236 0 -316 162t-80 442q0 307 82 456.5t313 149.5q236 0 313.5 -148t77.5 -453q0 -32 -2 -58h-616q5 -217 57 -319q58 -114 172 -114q89 0 150.5 77t66.5 236l158 -34q-10 -212 -109.5 -304.5t-266.5 -92.5zM222 653h449q-2 237 -56 332q-56 98 -166 98
q-108 0 -168 -101q-54 -91 -59 -329zM237 1241l156 163h113l156 -163h-101l-111 118l-112 -118h-101zM481 1454l-152 156h124l114 -156h-86z" />
    <glyph glyph-name="uni1EC2" unicode="&#x1ec2;" horiz-adv-x="809" 
d="M64 0v1350h662v-122h-491v-477h465v-119h-465v-509h491v-123h-662zM189 1401l156 163h113l156 -163h-101l-111 118l-112 -118h-101zM306 1862q142 0 215 -18.5t73 -79.5q0 -36 -28 -57t-66 -29.5t-69 -8.5v-57h-68v106q59 0 102.5 9t43.5 32q0 28 -49 35.5t-154 7.5v60z
" />
    <glyph glyph-name="uni1EC3" unicode="&#x1ec3;" horiz-adv-x="920" 
d="M450 -9q-236 0 -316 162t-80 442q0 307 82 456.5t313 149.5q236 0 313.5 -148t77.5 -453q0 -32 -2 -58h-616q5 -217 57 -319q58 -114 172 -114q89 0 150.5 77t66.5 236l158 -34q-10 -212 -109.5 -304.5t-266.5 -92.5zM222 653h449q-2 237 -56 332q-56 98 -166 98
q-108 0 -168 -101q-54 -91 -59 -329zM237 1241l156 163h113l156 -163h-101l-111 118l-112 -118h-101zM353 1702q142 0 215 -18.5t73 -79.5q0 -36 -28 -57t-66 -29.5t-69 -8.5v-57h-68v106q59 0 102.5 9t43.5 32q0 28 -49 35.5t-154 7.5v60z" />
    <glyph glyph-name="uni1EC4" unicode="&#x1ec4;" horiz-adv-x="809" 
d="M64 0v1350h662v-122h-491v-477h465v-119h-465v-509h491v-123h-662zM189 1401l156 163h113l156 -163h-101l-111 118l-112 -118h-101zM492 1636q-41 0 -67.5 15t-48 30.5t-49.5 15.5q-32 0 -45.5 -18t-14.5 -34h-87q1 23 13 51.5t41 49.5t82 21q40 0 64 -15t46 -30t54 -15
q29 0 43.5 18t15.5 34h86q-1 -21 -11.5 -50t-39 -51t-82.5 -22z" />
    <glyph glyph-name="uni1EC5" unicode="&#x1ec5;" horiz-adv-x="920" 
d="M450 -9q-236 0 -316 162t-80 442q0 307 82 456.5t313 149.5q236 0 313.5 -148t77.5 -453q0 -32 -2 -58h-616q5 -217 57 -319q58 -114 172 -114q89 0 150.5 77t66.5 236l158 -34q-10 -212 -109.5 -304.5t-266.5 -92.5zM222 653h449q-2 237 -56 332q-56 98 -166 98
q-108 0 -168 -101q-54 -91 -59 -329zM237 1241l156 163h113l156 -163h-101l-111 118l-112 -118h-101zM540 1476q-41 0 -67.5 15t-48 30.5t-49.5 15.5q-32 0 -45.5 -18t-14.5 -34h-87q1 23 13 51.5t41 49.5t82 21q40 0 64 -15t46 -30t54 -15q29 0 43.5 18t15.5 34h86
q-1 -21 -11.5 -50t-39 -51t-82.5 -22z" />
    <glyph glyph-name="uni1EC6" unicode="&#x1ec6;" horiz-adv-x="809" 
d="M64 0v1350h662v-122h-491v-477h465v-119h-465v-509h491v-123h-662zM403 -262q-28 0 -47 19t-19 47q0 27 19 45.5t47 18.5q26 0 45 -18.5t19 -45.5t-19 -46.5t-45 -19.5zM189 1401l156 163h113l156 -163h-101l-111 118l-112 -118h-101z" />
    <glyph glyph-name="uni1EC7" unicode="&#x1ec7;" horiz-adv-x="920" 
d="M450 -9q-236 0 -316 162t-80 442q0 307 82 456.5t313 149.5q236 0 313.5 -148t77.5 -453q0 -32 -2 -58h-616q5 -217 57 -319q58 -114 172 -114q89 0 150.5 77t66.5 236l158 -34q-10 -212 -109.5 -304.5t-266.5 -92.5zM222 653h449q-2 237 -56 332q-56 98 -166 98
q-108 0 -168 -101q-54 -91 -59 -329zM453 -262q-28 0 -47 19t-19 47q0 27 19 45.5t47 18.5q26 0 45 -18.5t19 -45.5t-19 -46.5t-45 -19.5zM237 1241l156 163h113l156 -163h-101l-111 118l-112 -118h-101z" />
    <glyph glyph-name="uni1EC8" unicode="&#x1ec8;" horiz-adv-x="409" 
d="M104 0v1350h171v-1350h-171zM93 1649q142 0 215 -18.5t73 -79.5q0 -36 -28 -57t-66 -29.5t-69 -8.5v-57h-68v106q59 0 102.5 9t43.5 32q0 28 -49 35.5t-154 7.5v60z" />
    <glyph glyph-name="uni1EC9" unicode="&#x1ec9;" horiz-adv-x="359" 
d="M79 0v1191h171v-1191h-171zM69 1489q142 0 215 -18.5t73 -79.5q0 -36 -28 -57t-66 -29.5t-69 -8.5v-57h-68v106q59 0 102.5 9t43.5 32q0 28 -49 35.5t-154 7.5v60z" />
    <glyph glyph-name="uni1ECA" unicode="&#x1eca;" horiz-adv-x="409" 
d="M104 0v1350h171v-1350h-171zM191 -262q-28 0 -47 19t-19 47q0 27 19 45.5t47 18.5q26 0 45 -18.5t19 -45.5t-19 -46.5t-45 -19.5z" />
    <glyph glyph-name="uni1ECB" unicode="&#x1ecb;" horiz-adv-x="389" 
d="M97 0v1191h171v-1191h-171zM97 1500h171v-165h-171v165zM191 -262q-28 0 -47 19t-19 47q0 27 19 45.5t47 18.5q26 0 45 -18.5t19 -45.5t-19 -46.5t-45 -19.5z" />
    <glyph glyph-name="uni1ECC" unicode="&#x1ecc;" horiz-adv-x="992" 
d="M489 -9q-253 0 -344 150.5t-91 533.5q0 382 90.5 533.5t345 151.5t345 -151.5t90.5 -533.5q0 -383 -90.5 -533.5t-345.5 -150.5zM489 114q127 0 196 100t69 461q0 363 -69 462.5t-196 99.5q-126 0 -195 -99.5t-69 -462.5q0 -361 69 -461t195 -100zM493 -262q-28 0 -47 19
t-19 47q0 27 19 45.5t47 18.5q26 0 45 -18.5t19 -45.5t-19 -46.5t-45 -19.5z" />
    <glyph glyph-name="uni1ECD" unicode="&#x1ecd;" horiz-adv-x="923" 
d="M450 -9q-233 0 -315.5 144.5t-82.5 461.5q0 318 82.5 461.5t315.5 143.5t315.5 -143.5t82.5 -461.5q0 -317 -82.5 -461.5t-315.5 -144.5zM450 113q109 0 168.5 98t59.5 385q0 288 -59.5 386.5t-168.5 98.5t-168.5 -98.5t-59.5 -386.5q0 -287 59.5 -385t168.5 -98z
M455 -262q-28 0 -47 19t-19 47q0 27 19 45.5t47 18.5q26 0 45 -18.5t19 -45.5t-19 -46.5t-45 -19.5z" />
    <glyph glyph-name="uni1ECE" unicode="&#x1ece;" horiz-adv-x="992" 
d="M489 -9q-253 0 -344 150.5t-91 533.5q0 382 90.5 533.5t345 151.5t345 -151.5t90.5 -533.5q0 -383 -90.5 -533.5t-345.5 -150.5zM489 114q127 0 196 100t69 461q0 363 -69 462.5t-196 99.5q-126 0 -195 -99.5t-69 -462.5q0 -361 69 -461t195 -100zM396 1649
q142 0 215 -18.5t73 -79.5q0 -36 -28 -57t-66 -29.5t-69 -8.5v-57h-68v106q59 0 102.5 9t43.5 32q0 28 -49 35.5t-154 7.5v60z" />
    <glyph glyph-name="uni1ECF" unicode="&#x1ecf;" horiz-adv-x="923" 
d="M450 -9q-233 0 -315.5 144.5t-82.5 461.5q0 318 82.5 461.5t315.5 143.5t315.5 -143.5t82.5 -461.5q0 -317 -82.5 -461.5t-315.5 -144.5zM450 113q109 0 168.5 98t59.5 385q0 288 -59.5 386.5t-168.5 98.5t-168.5 -98.5t-59.5 -386.5q0 -287 59.5 -385t168.5 -98z
M354 1490q142 0 215 -18.5t73 -79.5q0 -36 -28 -57t-66 -29.5t-69 -8.5v-57h-68v106q59 0 102.5 9t43.5 32q0 28 -49 35.5t-154 7.5v60z" />
    <glyph glyph-name="uni1ED0" unicode="&#x1ed0;" horiz-adv-x="992" 
d="M489 -9q-253 0 -344 150.5t-91 533.5q0 382 90.5 533.5t345 151.5t345 -151.5t90.5 -533.5q0 -383 -90.5 -533.5t-345.5 -150.5zM489 114q127 0 196 100t69 461q0 363 -69 462.5t-196 99.5q-126 0 -195 -99.5t-69 -462.5q0 -361 69 -461t195 -100zM280 1401l156 163h113
l156 -163h-101l-111 118l-112 -118h-101zM373 1602l115 156h123l-151 -156h-87z" />
    <glyph glyph-name="uni1ED1" unicode="&#x1ed1;" horiz-adv-x="923" 
d="M450 -9q-233 0 -315.5 144.5t-82.5 461.5q0 318 82.5 461.5t315.5 143.5t315.5 -143.5t82.5 -461.5q0 -317 -82.5 -461.5t-315.5 -144.5zM450 113q109 0 168.5 98t59.5 385q0 288 -59.5 386.5t-168.5 98.5t-168.5 -98.5t-59.5 -386.5q0 -287 59.5 -385t168.5 -98z
M238 1242l156 163h113l156 -163h-101l-111 118l-112 -118h-101zM331 1443l115 156h123l-151 -156h-87z" />
    <glyph glyph-name="uni1ED2" unicode="&#x1ed2;" horiz-adv-x="992" 
d="M489 -9q-253 0 -344 150.5t-91 533.5q0 382 90.5 533.5t345 151.5t345 -151.5t90.5 -533.5q0 -383 -90.5 -533.5t-345.5 -150.5zM489 114q127 0 196 100t69 461q0 363 -69 462.5t-196 99.5q-126 0 -195 -99.5t-69 -462.5q0 -361 69 -461t195 -100zM280 1401l156 163h113
l156 -163h-101l-111 118l-112 -118h-101zM524 1614l-152 156h124l114 -156h-86z" />
    <glyph glyph-name="uni1ED3" unicode="&#x1ed3;" horiz-adv-x="923" 
d="M450 -9q-233 0 -315.5 144.5t-82.5 461.5q0 318 82.5 461.5t315.5 143.5t315.5 -143.5t82.5 -461.5q0 -317 -82.5 -461.5t-315.5 -144.5zM450 113q109 0 168.5 98t59.5 385q0 288 -59.5 386.5t-168.5 98.5t-168.5 -98.5t-59.5 -386.5q0 -287 59.5 -385t168.5 -98z
M238 1242l156 163h113l156 -163h-101l-111 118l-112 -118h-101zM482 1455l-152 156h124l114 -156h-86z" />
    <glyph glyph-name="uni1ED4" unicode="&#x1ed4;" horiz-adv-x="992" 
d="M489 -9q-253 0 -344 150.5t-91 533.5q0 382 90.5 533.5t345 151.5t345 -151.5t90.5 -533.5q0 -383 -90.5 -533.5t-345.5 -150.5zM489 114q127 0 196 100t69 461q0 363 -69 462.5t-196 99.5q-126 0 -195 -99.5t-69 -462.5q0 -361 69 -461t195 -100zM280 1401l156 163h113
l156 -163h-101l-111 118l-112 -118h-101zM396 1862q142 0 215 -18.5t73 -79.5q0 -36 -28 -57t-66 -29.5t-69 -8.5v-57h-68v106q59 0 102.5 9t43.5 32q0 28 -49 35.5t-154 7.5v60z" />
    <glyph glyph-name="uni1ED5" unicode="&#x1ed5;" horiz-adv-x="923" 
d="M450 -9q-233 0 -315.5 144.5t-82.5 461.5q0 318 82.5 461.5t315.5 143.5t315.5 -143.5t82.5 -461.5q0 -317 -82.5 -461.5t-315.5 -144.5zM450 113q109 0 168.5 98t59.5 385q0 288 -59.5 386.5t-168.5 98.5t-168.5 -98.5t-59.5 -386.5q0 -287 59.5 -385t168.5 -98z
M238 1242l156 163h113l156 -163h-101l-111 118l-112 -118h-101zM354 1703q142 0 215 -18.5t73 -79.5q0 -36 -28 -57t-66 -29.5t-69 -8.5v-57h-68v106q59 0 102.5 9t43.5 32q0 28 -49 35.5t-154 7.5v60z" />
    <glyph glyph-name="uni1ED6" unicode="&#x1ed6;" horiz-adv-x="992" 
d="M489 -9q-253 0 -344 150.5t-91 533.5q0 382 90.5 533.5t345 151.5t345 -151.5t90.5 -533.5q0 -383 -90.5 -533.5t-345.5 -150.5zM489 114q127 0 196 100t69 461q0 363 -69 462.5t-196 99.5q-126 0 -195 -99.5t-69 -462.5q0 -361 69 -461t195 -100zM280 1401l156 163h113
l156 -163h-101l-111 118l-112 -118h-101zM583 1636q-41 0 -67.5 15t-48 30.5t-49.5 15.5q-32 0 -45.5 -18t-14.5 -34h-87q1 23 13 51.5t41 49.5t82 21q40 0 64 -15t46 -30t54 -15q29 0 43.5 18t15.5 34h86q-1 -21 -11.5 -50t-39 -51t-82.5 -22z" />
    <glyph glyph-name="uni1ED7" unicode="&#x1ed7;" horiz-adv-x="923" 
d="M450 -9q-233 0 -315.5 144.5t-82.5 461.5q0 318 82.5 461.5t315.5 143.5t315.5 -143.5t82.5 -461.5q0 -317 -82.5 -461.5t-315.5 -144.5zM450 113q109 0 168.5 98t59.5 385q0 288 -59.5 386.5t-168.5 98.5t-168.5 -98.5t-59.5 -386.5q0 -287 59.5 -385t168.5 -98z
M238 1242l156 163h113l156 -163h-101l-111 118l-112 -118h-101zM541 1477q-41 0 -67.5 15t-48 30.5t-49.5 15.5q-32 0 -45.5 -18t-14.5 -34h-87q1 23 13 51.5t41 49.5t82 21q40 0 64 -15t46 -30t54 -15q29 0 43.5 18t15.5 34h86q-1 -21 -11.5 -50t-39 -51t-82.5 -22z" />
    <glyph glyph-name="uni1ED8" unicode="&#x1ed8;" horiz-adv-x="992" 
d="M489 -9q-253 0 -344 150.5t-91 533.5q0 382 90.5 533.5t345 151.5t345 -151.5t90.5 -533.5q0 -383 -90.5 -533.5t-345.5 -150.5zM489 114q127 0 196 100t69 461q0 363 -69 462.5t-196 99.5q-126 0 -195 -99.5t-69 -462.5q0 -361 69 -461t195 -100zM493 -262q-28 0 -47 19
t-19 47q0 27 19 45.5t47 18.5q26 0 45 -18.5t19 -45.5t-19 -46.5t-45 -19.5zM280 1401l156 163h113l156 -163h-101l-111 118l-112 -118h-101z" />
    <glyph glyph-name="uni1ED9" unicode="&#x1ed9;" horiz-adv-x="923" 
d="M450 -9q-233 0 -315.5 144.5t-82.5 461.5q0 318 82.5 461.5t315.5 143.5t315.5 -143.5t82.5 -461.5q0 -317 -82.5 -461.5t-315.5 -144.5zM450 113q109 0 168.5 98t59.5 385q0 288 -59.5 386.5t-168.5 98.5t-168.5 -98.5t-59.5 -386.5q0 -287 59.5 -385t168.5 -98z
M455 -262q-28 0 -47 19t-19 47q0 27 19 45.5t47 18.5q26 0 45 -18.5t19 -45.5t-19 -46.5t-45 -19.5zM238 1242l156 163h113l156 -163h-101l-111 118l-112 -118h-101z" />
    <glyph glyph-name="uni1EDA" unicode="&#x1eda;" horiz-adv-x="992" 
d="M489 -9q-253 0 -344 150.5t-91 533.5q0 382 90.5 533.5t345 151.5t345 -151.5t90.5 -533.5q0 -383 -90.5 -533.5t-345.5 -150.5zM489 114q127 0 196 100t69 461q0 363 -69 462.5t-196 99.5q-126 0 -195 -99.5t-69 -462.5q0 -361 69 -461t195 -100zM800 1210
q100 0 134.5 34.5t34.5 111.5h99q0 -107 -65 -157t-203 -50v61zM373 1389l115 156h123l-151 -156h-87z" />
    <glyph glyph-name="uni1EDB" unicode="&#x1edb;" horiz-adv-x="1026" 
d="M450 -9q-233 0 -315.5 144.5t-82.5 461.5q0 318 82.5 461.5t315.5 143.5t315.5 -143.5t82.5 -461.5q0 -317 -82.5 -461.5t-315.5 -144.5zM450 113q109 0 168.5 98t59.5 385q0 288 -59.5 386.5t-168.5 98.5t-168.5 -98.5t-59.5 -386.5q0 -287 59.5 -385t168.5 -98z
M742 1073q100 0 134.5 34.5t34.5 111.5h99q0 -107 -65 -157t-203 -50v61zM331 1229l115 156h123l-151 -156h-87z" />
    <glyph glyph-name="uni1EDC" unicode="&#x1edc;" horiz-adv-x="992" 
d="M489 -9q-253 0 -344 150.5t-91 533.5q0 382 90.5 533.5t345 151.5t345 -151.5t90.5 -533.5q0 -383 -90.5 -533.5t-345.5 -150.5zM489 114q127 0 196 100t69 461q0 363 -69 462.5t-196 99.5q-126 0 -195 -99.5t-69 -462.5q0 -361 69 -461t195 -100zM800 1210
q100 0 134.5 34.5t34.5 111.5h99q0 -107 -65 -157t-203 -50v61zM524 1401l-152 156h124l114 -156h-86z" />
    <glyph glyph-name="uni1EDD" unicode="&#x1edd;" horiz-adv-x="1026" 
d="M450 -9q-233 0 -315.5 144.5t-82.5 461.5q0 318 82.5 461.5t315.5 143.5t315.5 -143.5t82.5 -461.5q0 -317 -82.5 -461.5t-315.5 -144.5zM450 113q109 0 168.5 98t59.5 385q0 288 -59.5 386.5t-168.5 98.5t-168.5 -98.5t-59.5 -386.5q0 -287 59.5 -385t168.5 -98z
M742 1073q100 0 134.5 34.5t34.5 111.5h99q0 -107 -65 -157t-203 -50v61zM482 1242l-152 156h124l114 -156h-86z" />
    <glyph glyph-name="uni1EDE" unicode="&#x1ede;" horiz-adv-x="992" 
d="M489 -9q-253 0 -344 150.5t-91 533.5q0 382 90.5 533.5t345 151.5t345 -151.5t90.5 -533.5q0 -383 -90.5 -533.5t-345.5 -150.5zM489 114q127 0 196 100t69 461q0 363 -69 462.5t-196 99.5q-126 0 -195 -99.5t-69 -462.5q0 -361 69 -461t195 -100zM800 1210
q100 0 134.5 34.5t34.5 111.5h99q0 -107 -65 -157t-203 -50v61zM396 1649q142 0 215 -18.5t73 -79.5q0 -36 -28 -57t-66 -29.5t-69 -8.5v-57h-68v106q59 0 102.5 9t43.5 32q0 28 -49 35.5t-154 7.5v60z" />
    <glyph glyph-name="uni1EDF" unicode="&#x1edf;" horiz-adv-x="1026" 
d="M450 -9q-233 0 -315.5 144.5t-82.5 461.5q0 318 82.5 461.5t315.5 143.5t315.5 -143.5t82.5 -461.5q0 -317 -82.5 -461.5t-315.5 -144.5zM450 113q109 0 168.5 98t59.5 385q0 288 -59.5 386.5t-168.5 98.5t-168.5 -98.5t-59.5 -386.5q0 -287 59.5 -385t168.5 -98z
M742 1073q100 0 134.5 34.5t34.5 111.5h99q0 -107 -65 -157t-203 -50v61zM354 1490q142 0 215 -18.5t73 -79.5q0 -36 -28 -57t-66 -29.5t-69 -8.5v-57h-68v106q59 0 102.5 9t43.5 32q0 28 -49 35.5t-154 7.5v60z" />
    <glyph glyph-name="uni1EE0" unicode="&#x1ee0;" horiz-adv-x="992" 
d="M489 -9q-253 0 -344 150.5t-91 533.5q0 382 90.5 533.5t345 151.5t345 -151.5t90.5 -533.5q0 -383 -90.5 -533.5t-345.5 -150.5zM489 114q127 0 196 100t69 461q0 363 -69 462.5t-196 99.5q-126 0 -195 -99.5t-69 -462.5q0 -361 69 -461t195 -100zM800 1210
q100 0 134.5 34.5t34.5 111.5h99q0 -107 -65 -157t-203 -50v61zM583 1423q-41 0 -67.5 15t-48 30.5t-49.5 15.5q-32 0 -45.5 -18t-14.5 -34h-87q1 23 13 51.5t41 49.5t82 21q40 0 64 -15t46 -30t54 -15q29 0 43.5 18t15.5 34h86q-1 -21 -11.5 -50t-39 -51t-82.5 -22z" />
    <glyph glyph-name="uni1EE1" unicode="&#x1ee1;" horiz-adv-x="1026" 
d="M450 -9q-233 0 -315.5 144.5t-82.5 461.5q0 318 82.5 461.5t315.5 143.5t315.5 -143.5t82.5 -461.5q0 -317 -82.5 -461.5t-315.5 -144.5zM450 113q109 0 168.5 98t59.5 385q0 288 -59.5 386.5t-168.5 98.5t-168.5 -98.5t-59.5 -386.5q0 -287 59.5 -385t168.5 -98z
M742 1073q100 0 134.5 34.5t34.5 111.5h99q0 -107 -65 -157t-203 -50v61zM541 1263q-41 0 -67.5 15t-48 30.5t-49.5 15.5q-32 0 -45.5 -18t-14.5 -34h-87q1 23 13 51.5t41 49.5t82 21q40 0 64 -15t46 -30t54 -15q29 0 43.5 18t15.5 34h86q-1 -21 -11.5 -50t-39 -51
t-82.5 -22z" />
    <glyph glyph-name="uni1EE2" unicode="&#x1ee2;" horiz-adv-x="992" 
d="M489 -9q-253 0 -344 150.5t-91 533.5q0 382 90.5 533.5t345 151.5t345 -151.5t90.5 -533.5q0 -383 -90.5 -533.5t-345.5 -150.5zM489 114q127 0 196 100t69 461q0 363 -69 462.5t-196 99.5q-126 0 -195 -99.5t-69 -462.5q0 -361 69 -461t195 -100zM800 1210
q100 0 134.5 34.5t34.5 111.5h99q0 -107 -65 -157t-203 -50v61zM493 -262q-28 0 -47 19t-19 47q0 27 19 45.5t47 18.5q26 0 45 -18.5t19 -45.5t-19 -46.5t-45 -19.5z" />
    <glyph glyph-name="uni1EE3" unicode="&#x1ee3;" horiz-adv-x="1026" 
d="M450 -9q-233 0 -315.5 144.5t-82.5 461.5q0 318 82.5 461.5t315.5 143.5t315.5 -143.5t82.5 -461.5q0 -317 -82.5 -461.5t-315.5 -144.5zM450 113q109 0 168.5 98t59.5 385q0 288 -59.5 386.5t-168.5 98.5t-168.5 -98.5t-59.5 -386.5q0 -287 59.5 -385t168.5 -98z
M742 1073q100 0 134.5 34.5t34.5 111.5h99q0 -107 -65 -157t-203 -50v61zM455 -262q-28 0 -47 19t-19 47q0 27 19 45.5t47 18.5q26 0 45 -18.5t19 -45.5t-19 -46.5t-45 -19.5z" />
    <glyph glyph-name="uni1EE4" unicode="&#x1ee4;" horiz-adv-x="981" 
d="M478 -9q-200 0 -301.5 79.5t-101.5 273.5v1006h172v-984q0 -141 57.5 -197t174 -56t174 56t57.5 197v984h172v-1006q0 -194 -101.5 -273.5t-302.5 -79.5zM484 -262q-28 0 -47 19t-19 47q0 27 19 45.5t47 18.5q26 0 45 -18.5t19 -45.5t-19 -46.5t-45 -19.5z" />
    <glyph glyph-name="uni1EE5" unicode="&#x1ee5;" horiz-adv-x="901" 
d="M645 0l-8 124q-10 -13 -21 -25q-99 -110 -260 -110q-169 0 -228 132.5t-59 355.5v714h170v-711q0 -202 44 -285t138 -83q92 0 152 81q55 73 60 176v821h170v-1190h-158zM440 -262q-28 0 -47 19t-19 47q0 27 19 45.5t47 18.5q26 0 45 -18.5t19 -45.5t-19 -46.5t-45 -19.5z
" />
    <glyph glyph-name="uni1EE6" unicode="&#x1ee6;" horiz-adv-x="981" 
d="M478 -9q-200 0 -301.5 79.5t-101.5 273.5v1006h172v-984q0 -141 57.5 -197t174 -56t174 56t57.5 197v984h172v-1006q0 -194 -101.5 -273.5t-302.5 -79.5zM387 1649q142 0 215 -18.5t73 -79.5q0 -36 -28 -57t-66 -29.5t-69 -8.5v-57h-68v106q59 0 102.5 9t43.5 32
q0 28 -49 35.5t-154 7.5v60z" />
    <glyph glyph-name="uni1EE7" unicode="&#x1ee7;" horiz-adv-x="901" 
d="M645 0l-8 124q-10 -13 -21 -25q-99 -110 -260 -110q-169 0 -228 132.5t-59 355.5v714h170v-711q0 -202 44 -285t138 -83q92 0 152 81q55 73 60 176v821h170v-1190h-158zM343 1489q142 0 215 -18.5t73 -79.5q0 -36 -28 -57t-66 -29.5t-69 -8.5v-57h-68v106q59 0 102.5 9
t43.5 32q0 28 -49 35.5t-154 7.5v60z" />
    <glyph glyph-name="uni1EE8" unicode="&#x1ee8;" horiz-adv-x="981" 
d="M478 -9q-200 0 -301.5 79.5t-101.5 273.5v1006h172v-984q0 -141 57.5 -197t174 -56t174 56t57.5 197v984h172v-1006q0 -194 -101.5 -273.5t-302.5 -79.5zM880 1253q100 0 134.5 34.5t34.5 111.5h99q0 -107 -65 -157t-203 -50v61zM364 1389l115 156h123l-151 -156h-87z
" />
    <glyph glyph-name="uni1EE9" unicode="&#x1ee9;" horiz-adv-x="1067" 
d="M645 0l-8 124q-10 -13 -21 -25q-99 -110 -260 -110q-169 0 -228 132.5t-59 355.5v714h170v-711q0 -202 44 -285t138 -83q92 0 152 81q55 73 60 176v821h170v-1190h-158zM798 1189q100 0 134.5 34.5t34.5 111.5h99q0 -107 -65 -157t-203 -50v61zM320 1228l115 156h123
l-151 -156h-87z" />
    <glyph glyph-name="uni1EEA" unicode="&#x1eea;" horiz-adv-x="981" 
d="M478 -9q-200 0 -301.5 79.5t-101.5 273.5v1006h172v-984q0 -141 57.5 -197t174 -56t174 56t57.5 197v984h172v-1006q0 -194 -101.5 -273.5t-302.5 -79.5zM880 1253q100 0 134.5 34.5t34.5 111.5h99q0 -107 -65 -157t-203 -50v61zM515 1401l-152 156h124l114 -156h-86z
" />
    <glyph glyph-name="uni1EEB" unicode="&#x1eeb;" horiz-adv-x="1067" 
d="M645 0l-8 124q-10 -13 -21 -25q-99 -110 -260 -110q-169 0 -228 132.5t-59 355.5v714h170v-711q0 -202 44 -285t138 -83q92 0 152 81q55 73 60 176v821h170v-1190h-158zM798 1189q100 0 134.5 34.5t34.5 111.5h99q0 -107 -65 -157t-203 -50v61zM472 1241l-152 156h124
l114 -156h-86z" />
    <glyph glyph-name="uni1EEC" unicode="&#x1eec;" horiz-adv-x="981" 
d="M478 -9q-200 0 -301.5 79.5t-101.5 273.5v1006h172v-984q0 -141 57.5 -197t174 -56t174 56t57.5 197v984h172v-1006q0 -194 -101.5 -273.5t-302.5 -79.5zM880 1253q100 0 134.5 34.5t34.5 111.5h99q0 -107 -65 -157t-203 -50v61zM387 1649q142 0 215 -18.5t73 -79.5
q0 -36 -28 -57t-66 -29.5t-69 -8.5v-57h-68v106q59 0 102.5 9t43.5 32q0 28 -49 35.5t-154 7.5v60z" />
    <glyph glyph-name="uni1EED" unicode="&#x1eed;" horiz-adv-x="1067" 
d="M645 0l-8 124q-10 -13 -21 -25q-99 -110 -260 -110q-169 0 -228 132.5t-59 355.5v714h170v-711q0 -202 44 -285t138 -83q92 0 152 81q55 73 60 176v821h170v-1190h-158zM798 1189q100 0 134.5 34.5t34.5 111.5h99q0 -107 -65 -157t-203 -50v61zM343 1489q142 0 215 -18.5
t73 -79.5q0 -36 -28 -57t-66 -29.5t-69 -8.5v-57h-68v106q59 0 102.5 9t43.5 32q0 28 -49 35.5t-154 7.5v60z" />
    <glyph glyph-name="uni1EEE" unicode="&#x1eee;" horiz-adv-x="981" 
d="M478 -9q-200 0 -301.5 79.5t-101.5 273.5v1006h172v-984q0 -141 57.5 -197t174 -56t174 56t57.5 197v984h172v-1006q0 -194 -101.5 -273.5t-302.5 -79.5zM880 1253q100 0 134.5 34.5t34.5 111.5h99q0 -107 -65 -157t-203 -50v61zM573 1423q-41 0 -67.5 15t-48 30.5
t-49.5 15.5q-32 0 -45.5 -18t-14.5 -34h-87q1 23 13 51.5t41 49.5t82 21q40 0 64 -15t46 -30t54 -15q29 0 43.5 18t15.5 34h86q-1 -21 -11.5 -50t-39 -51t-82.5 -22z" />
    <glyph glyph-name="uni1EEF" unicode="&#x1eef;" horiz-adv-x="1067" 
d="M645 0l-8 124q-10 -13 -21 -25q-99 -110 -260 -110q-169 0 -228 132.5t-59 355.5v714h170v-711q0 -202 44 -285t138 -83q92 0 152 81q55 73 60 176v821h170v-1190h-158zM798 1189q100 0 134.5 34.5t34.5 111.5h99q0 -107 -65 -157t-203 -50v61zM530 1262q-41 0 -67.5 15
t-48 30.5t-49.5 15.5q-32 0 -45.5 -18t-14.5 -34h-87q1 23 13 51.5t41 49.5t82 21q40 0 64 -15t46 -30t54 -15q29 0 43.5 18t15.5 34h86q-1 -21 -11.5 -50t-39 -51t-82.5 -22z" />
    <glyph glyph-name="uni1EF0" unicode="&#x1ef0;" horiz-adv-x="981" 
d="M478 -9q-200 0 -301.5 79.5t-101.5 273.5v1006h172v-984q0 -141 57.5 -197t174 -56t174 56t57.5 197v984h172v-1006q0 -194 -101.5 -273.5t-302.5 -79.5zM880 1253q100 0 134.5 34.5t34.5 111.5h99q0 -107 -65 -157t-203 -50v61zM484 -262q-28 0 -47 19t-19 47
q0 27 19 45.5t47 18.5q26 0 45 -18.5t19 -45.5t-19 -46.5t-45 -19.5z" />
    <glyph glyph-name="uni1EF1" unicode="&#x1ef1;" horiz-adv-x="1067" 
d="M645 0l-8 124q-10 -13 -21 -25q-99 -110 -260 -110q-169 0 -228 132.5t-59 355.5v714h170v-711q0 -202 44 -285t138 -83q92 0 152 81q55 73 60 176v821h170v-1190h-158zM798 1189q100 0 134.5 34.5t34.5 111.5h99q0 -107 -65 -157t-203 -50v61zM440 -262q-28 0 -47 19
t-19 47q0 27 19 45.5t47 18.5q26 0 45 -18.5t19 -45.5t-19 -46.5t-45 -19.5z" />
    <glyph glyph-name="Ygrave" unicode="&#x1ef2;" horiz-adv-x="960" 
d="M388 0v474l-355 876h186l255 -708l253 708h186l-354 -877v-473h-171zM507 1401l-152 156h124l114 -156h-86z" />
    <glyph glyph-name="ygrave" unicode="&#x1ef3;" horiz-adv-x="847" 
d="M283 0l-253 1190h178l211 -1038l211 1038h178l-254 -1190q-57 -261 -174.5 -361t-315.5 -100v123q128 0 209 72q82 72 124 266h-114zM450 1241l-152 156h124l114 -156h-86z" />
    <glyph glyph-name="uni1EF4" unicode="&#x1ef4;" horiz-adv-x="960" 
d="M388 0v474l-355 876h186l255 -708l253 708h186l-354 -877v-473h-171zM485 -262q-28 0 -47 19t-19 47q0 27 19 45.5t47 18.5q26 0 45 -18.5t19 -45.5t-19 -46.5t-45 -19.5z" />
    <glyph glyph-name="uni1EF5" unicode="&#x1ef5;" horiz-adv-x="847" 
d="M283 0l-253 1190h178l211 -1038l211 1038h178l-254 -1190q-57 -261 -174.5 -361t-315.5 -100v123q128 0 209 72q82 72 124 266h-114zM566 -494q-28 0 -47 19t-19 47q0 27 19 45.5t47 18.5q26 0 45 -18.5t19 -45.5t-19 -46.5t-45 -19.5z" />
    <glyph glyph-name="uni1EF6" unicode="&#x1ef6;" horiz-adv-x="960" 
d="M388 0v474l-355 876h186l255 -708l253 708h186l-354 -877v-473h-171zM379 1649q142 0 215 -18.5t73 -79.5q0 -36 -28 -57t-66 -29.5t-69 -8.5v-57h-68v106q59 0 102.5 9t43.5 32q0 28 -49 35.5t-154 7.5v60z" />
    <glyph glyph-name="uni1EF7" unicode="&#x1ef7;" horiz-adv-x="847" 
d="M283 0l-253 1190h178l211 -1038l211 1038h178l-254 -1190q-57 -261 -174.5 -361t-315.5 -100v123q128 0 209 72q82 72 124 266h-114zM322 1489q142 0 215 -18.5t73 -79.5q0 -36 -28 -57t-66 -29.5t-69 -8.5v-57h-68v106q59 0 102.5 9t43.5 32q0 28 -49 35.5t-154 7.5v60z
" />
    <glyph glyph-name="uni1EF8" unicode="&#x1ef8;" horiz-adv-x="960" 
d="M388 0v474l-355 876h186l255 -708l253 708h186l-354 -877v-473h-171zM566 1423q-41 0 -67.5 15t-48 30.5t-49.5 15.5q-32 0 -45.5 -18t-14.5 -34h-87q1 23 13 51.5t41 49.5t82 21q40 0 64 -15t46 -30t54 -15q29 0 43.5 18t15.5 34h86q-1 -21 -11.5 -50t-39 -51t-82.5 -22
z" />
    <glyph glyph-name="uni1EF9" unicode="&#x1ef9;" horiz-adv-x="847" 
d="M283 0l-253 1190h178l211 -1038l211 1038h178l-254 -1190q-57 -261 -174.5 -361t-315.5 -100v123q128 0 209 72q82 72 124 266h-114zM509 1262q-41 0 -67.5 15t-48 30.5t-49.5 15.5q-32 0 -45.5 -18t-14.5 -34h-87q1 23 13 51.5t41 49.5t82 21q40 0 64 -15t46 -30t54 -15
q29 0 43.5 18t15.5 34h86q-1 -21 -11.5 -50t-39 -51t-82.5 -22z" />
    <glyph glyph-name="uni2007" unicode="&#x2007;" horiz-adv-x="871" 
 />
    <glyph glyph-name="uni2008" unicode="&#x2008;" horiz-adv-x="325" 
 />
    <glyph glyph-name="uni2009" unicode="&#x2009;" horiz-adv-x="400" 
 />
    <glyph glyph-name="uni200A" unicode="&#x200a;" horiz-adv-x="286" 
 />
    <glyph glyph-name="uni200B" unicode="&#x200b;" 
 />
    <glyph glyph-name="endash" unicode="&#x2013;" horiz-adv-x="728" 
d="M49 420v116h609v-116h-609z" />
    <glyph glyph-name="emdash" unicode="&#x2014;" horiz-adv-x="871" 
d="M49 420v116h752v-116h-752z" />
    <glyph glyph-name="quoteleft" unicode="&#x2018;" horiz-adv-x="261" 
d="M43 951v207l55 192h113l-54 -204l15 21v-216h-129z" />
    <glyph glyph-name="quoteright" unicode="&#x2019;" horiz-adv-x="261" 
d="M203 1350v-207l-55 -192h-113l54 204l-15 -21v216h129z" />
    <glyph glyph-name="quotesinglbase" unicode="&#x201a;" horiz-adv-x="218" 
d="M57 -354v384h129v-384h-129z" />
    <glyph glyph-name="quotedblleft" unicode="&#x201c;" horiz-adv-x="432" 
d="M233 951v207l55 192h113l-54 -204l15 21v-216h-129zM39 951v207l55 192h113l-54 -204l15 21v-216h-129z" />
    <glyph glyph-name="quotedblright" unicode="&#x201d;" horiz-adv-x="432" 
d="M196 1350v-207l-55 -192h-113l54 204l-15 -21v216h129zM390 1350v-207l-55 -192h-113l54 204l-15 -21v216h129z" />
    <glyph glyph-name="quotedblbase" unicode="&#x201e;" horiz-adv-x="406" 
d="M100 -365v395h167v-395h-167z" />
    <glyph glyph-name="dagger" unicode="&#x2020;" horiz-adv-x="675" 
d="M257 -180v1037h-213v115h213v376h142v-376h215v-115h-215v-1037h-142z" />
    <glyph glyph-name="daggerdbl" unicode="&#x2021;" horiz-adv-x="678" 
d="M48 234v114h209v509h-213v115h213v376h142v-376h215v-115h-215v-509h219v-114h-219v-414h-142v414h-209z" />
    <glyph glyph-name="bullet" unicode="&#x2022;" horiz-adv-x="371" 
d="M176 538q-50 0 -88.5 38.5t-38.5 87.5q0 50 38.5 88t88.5 38t88.5 -38t38.5 -88t-38.5 -88t-88.5 -38z" />
    <glyph glyph-name="ellipsis" unicode="&#x2026;" horiz-adv-x="937" 
d="M155 -16q-46 0 -77.5 31.5t-31.5 76.5t31.5 76.5t77.5 31.5q44 0 75.5 -31.5t31.5 -76.5t-31.5 -76.5t-75.5 -31.5zM464 -16q-46 0 -77.5 31.5t-31.5 76.5t31.5 76.5t77.5 31.5q44 0 75.5 -31.5t31.5 -76.5t-31.5 -76.5t-75.5 -31.5zM768 -16q-46 0 -77.5 31.5
t-31.5 76.5t31.5 76.5t77.5 31.5q44 0 75.5 -31.5t31.5 -76.5t-31.5 -76.5t-75.5 -31.5z" />
    <glyph glyph-name="perthousand" unicode="&#x2030;" horiz-adv-x="1143" 
d="M864 -9q-125 0 -186.5 49t-61.5 168v103q0 119 61.5 168t186.5 49q126 0 187 -48.5t61 -168.5v-103q0 -119 -61 -168t-187 -49zM333 -11q-125 0 -187 49.5t-62 167.5v103q0 120 61.5 168.5t187.5 48.5q125 0 186.5 -48.5t61.5 -168.5v-103q0 -119 -61.5 -168t-186.5 -49z
M333 826q-125 0 -187 49.5t-62 167.5v103q0 120 61.5 168.5t187.5 48.5q125 0 186.5 -48.5t61.5 -168.5v-103q0 -119 -61.5 -168t-186.5 -49zM332 902q70 0 102.5 30t32.5 108v109q0 79 -32.5 108.5t-102.5 29.5t-102 -29.5t-32 -108.5v-109q0 -78 32 -108t102 -30zM332 65
q70 0 102.5 30t32.5 108v109q0 79 -32.5 108.5t-102.5 29.5t-102 -29.5t-32 -108.5v-109q0 -78 32 -108t102 -30zM864 66q70 0 102.5 30.5t32.5 108.5v109q0 79 -32.5 108.5t-102.5 29.5t-102.5 -29.5t-32.5 -108.5v-109q0 -78 32.5 -108.5t102.5 -30.5zM55 567l-19 73
l1053 274l19 -74z" />
    <glyph glyph-name="guilsinglleft" unicode="&#x2039;" horiz-adv-x="615" 
d="M392 80l-354 414l354 414h175l-357 -414l357 -414h-175z" />
    <glyph glyph-name="guilsinglright" unicode="&#x203a;" horiz-adv-x="615" 
d="M36 80l357 414l-357 414h175l354 -414l-354 -414h-175z" />
    <glyph glyph-name="fraction" unicode="&#x2044;" horiz-adv-x="379" 
d="M-224 0l732 1348h95l-731 -1348h-96z" />
    <glyph glyph-name="uni2070" unicode="&#x2070;" horiz-adv-x="522" 
d="M257 744q-111 0 -164.5 34t-53.5 107v336q0 73 53 107t165 34q111 0 163.5 -34t52.5 -107v-336q0 -72 -52.5 -106.5t-163.5 -34.5zM257 811q67 0 98 19t31 61v324q0 42 -30.5 61t-98.5 19q-69 0 -99.5 -19.5t-30.5 -60.5v-324q0 -41 30.5 -60.5t99.5 -19.5z" />
    <glyph glyph-name="uni2074" unicode="&#x2074;" horiz-adv-x="540" 
d="M318 750v144h-291v64l234 400h143v-400h92v-64h-92v-144h-86zM125 958h193v337h-6z" />
    <glyph glyph-name="uni2075" unicode="&#x2075;" horiz-adv-x="524" 
d="M250 745q-131 0 -172.5 54t-41.5 134h87q1 -67 31 -94.5t100 -27.5q67 0 100 29t33 125q0 85 -31.5 112t-90.5 27q-66 0 -103.5 -27.5t-38.5 -63.5v0v0h-87v345h425v-67h-338v-174q7 5 15 10q62 40 158 40q101 0 140 -50t39 -150q0 -111 -44 -166.5t-181 -55.5z" />
    <glyph glyph-name="uni2076" unicode="&#x2076;" horiz-adv-x="528" 
d="M257 745q-140 0 -179 66t-39 221q0 188 43.5 259t184.5 71q133 0 168 -55.5t35 -111.5h-88q0 41 -25.5 71.5t-89.5 30.5q-69 0 -105 -41q-25 -30 -33 -140l12 8q60 41 157 41q107 0 144.5 -49.5t37.5 -151.5t-39.5 -160.5t-183.5 -58.5zM127 1014v-1q0 -137 31 -169.5
t103 -32.5t101.5 31t29.5 116q0 91 -29.5 118t-94.5 27t-103 -29q-35 -27 -38 -60z" />
    </font>
</defs>
</svg>
