<svg width="36" height="36" viewBox="0 0 36 36" fill="none" xmlns="http://www.w3.org/2000/svg">
<path d="M16.4852 5.14795C16.9373 5.15524 17.3398 5.43962 17.4958 5.86545L22.7181 20.1075L21.0221 21.8342L20.3396 19.9748H12.1642L10.2713 24.8646C10.1664 25.1354 9.95837 25.3534 9.69281 25.4707C9.42725 25.588 9.12596 25.5951 8.85522 25.4902C8.58448 25.3854 8.36646 25.1774 8.24913 24.9118C8.13181 24.6462 8.12478 24.3449 8.22959 24.0742L10.3938 18.4844L10.3981 18.4727L15.4542 5.83337C15.5367 5.62833 15.6793 5.45308 15.8634 5.33073C16.0474 5.20838 16.2642 5.14465 16.4852 5.14795ZM16.4254 9.29837L13.029 17.7859H19.5375L16.4254 9.29837Z" fill="#000131"/>
<path d="M30.113 19.0852L29.9249 18.9306L29.9205 18.9277C29.2855 18.4541 28.5013 18.2248 27.7112 18.2816C26.9211 18.3383 26.1778 18.6774 25.6169 19.2368L20.0709 24.8806C19.7267 25.2291 19.4759 25.652 19.3374 26.1129L18.4813 28.9595C17.706 29.0809 16.9163 29.0775 16.1422 28.9493C16.1341 28.948 16.1264 28.9448 16.1198 28.9401C16.1131 28.9354 16.1076 28.9292 16.1037 28.9221C16.0997 28.9149 16.0975 28.9069 16.0971 28.8988C16.0967 28.8906 16.0981 28.8825 16.1013 28.8749L16.1553 28.7583C16.2515 28.5585 16.4178 28.2027 16.4732 27.8366C16.5024 27.6324 16.5126 27.3495 16.4017 27.0491C16.2873 26.7376 16.0703 26.4742 15.7863 26.3024C15.3138 26.0108 14.7261 25.9889 14.2215 26.0181C13.7163 26.0551 13.214 26.1252 12.718 26.2281C12.0442 26.3593 11.404 26.6612 10.7653 26.9616C9.92528 27.3583 9.0882 27.752 8.18257 27.752C7.85736 27.752 7.54528 27.6995 7.25215 27.6004C7.07278 27.5406 6.8759 27.6864 6.92111 27.8701C7.00424 28.2026 7.15736 28.6533 7.49278 29.0004C7.69623 29.213 7.95517 29.3643 8.24025 29.4373C8.52532 29.5102 8.82514 29.5018 9.1057 29.4131C11.2261 28.7918 12.6349 28.4535 13.5507 28.3004C13.7432 28.2683 13.8861 28.4608 13.8278 28.6474C13.7359 28.9391 13.6047 29.4904 13.8774 30.0474C14.1719 30.6541 14.7524 30.9079 15.254 31.0099C16.9209 31.3541 18.3603 31.3089 20.119 30.8466C20.1966 30.8339 20.2732 30.8154 20.348 30.7912L20.5186 30.7372C20.768 30.6643 21.0247 30.5841 21.2901 30.4952C21.3298 30.4823 21.3687 30.4672 21.4067 30.4499L23.4294 29.7951C23.9224 29.6347 24.3672 29.3635 24.723 29.0004L30.2574 23.3712C31.4036 22.2031 31.3992 20.4035 30.2836 19.2499L30.113 19.0852Z" fill="#000131"/>
</svg>
