<svg width="36" height="36" viewBox="0 0 36 36" fill="none" xmlns="http://www.w3.org/2000/svg">
<path d="M23.8332 32.8564H6.33317C5.55962 32.8564 4.81776 32.5491 4.27078 32.0021C3.72379 31.4551 3.4165 30.7132 3.4165 29.9397V12.4397H6.33317V29.9397H23.8332V32.8564ZM29.6665 27.023H12.1665C11.393 27.023 10.6511 26.7157 10.1041 26.1688C9.55713 25.6218 9.24984 24.8799 9.24984 24.1064V6.60636C9.24984 5.83282 9.55713 5.09095 10.1041 4.54397C10.6511 3.99699 11.393 3.6897 12.1665 3.6897H29.6665C30.4401 3.6897 31.1819 3.99699 31.7289 4.54397C32.2759 5.09095 32.5832 5.83282 32.5832 6.60636V24.1064C32.5832 24.8799 32.2759 25.6218 31.7289 26.1688C31.1819 26.7157 30.4401 27.023 29.6665 27.023ZM12.1665 6.60636V24.1064H29.6665V6.60636H12.1665ZM22.3748 21.1897H19.4582V16.8147H15.0832V13.898H19.4582V9.52303H22.3748V13.898H26.7498V16.8147H22.3748V21.1897Z" fill="#000131"/>
</svg>
