<svg width="36" height="12" viewBox="0 0 36 12" fill="none" xmlns="http://www.w3.org/2000/svg">
<path d="M6.2079 9.56597L3.91478 7.27358H34.5004C34.7656 7.27358 35.02 7.16822 35.2075 6.98069C35.3951 6.79315 35.5004 6.53879 35.5004 6.27358C35.5004 6.00837 35.3951 5.75401 35.2075 5.56647C35.02 5.37894 34.7656 5.27358 34.5004 5.27358H3.91478L6.2079 2.98119L6.20796 2.98113C6.30087 2.88822 6.37458 2.77791 6.42487 2.6565C6.47515 2.5351 6.50104 2.40499 6.50104 2.27358C6.50104 2.14217 6.47515 2.01206 6.42487 1.89066C6.37458 1.76925 6.30087 1.65894 6.20796 1.56603C6.11504 1.47311 6.00473 1.3994 5.88333 1.34912C5.76193 1.29883 5.63181 1.27295 5.50041 1.27295C5.369 1.27295 5.23888 1.29883 5.11748 1.34912C4.99608 1.3994 4.88577 1.47311 4.79285 1.56603L0.793299 5.56558C0.793232 5.56565 0.793166 5.56571 0.793099 5.56578C0.700067 5.65863 0.626251 5.76891 0.575874 5.89031C0.525462 6.0118 0.499512 6.14205 0.499512 6.27358C0.499512 6.40512 0.525462 6.53536 0.575874 6.65685C0.626206 6.77814 0.699936 6.88834 0.792852 6.98113C0.79289 6.98117 0.792927 6.98121 0.792965 6.98125C0.793076 6.98136 0.793187 6.98147 0.793299 6.98158L4.79285 10.9811C4.88577 11.074 4.99608 11.1478 5.11748 11.198C5.23888 11.2483 5.369 11.2742 5.50041 11.2742C5.63181 11.2742 5.76193 11.2483 5.88333 11.198C6.00473 11.1478 6.11504 11.074 6.20796 10.9811C6.30087 10.8882 6.37458 10.7779 6.42487 10.6565C6.47515 10.5351 6.50104 10.405 6.50104 10.2736C6.50104 10.1422 6.47515 10.0121 6.42487 9.89066C6.37458 9.76925 6.30087 9.65894 6.20796 9.56603L6.2079 9.56597Z" fill="black" stroke="black"/>
</svg>
