<svg width="36" height="12" viewBox="0 0 36 12" fill="none" xmlns="http://www.w3.org/2000/svg">
<path d="M29.7921 2.98115L32.0852 5.27354L1.4996 5.27354C1.23438 5.27354 0.980027 5.37889 0.792492 5.56643C0.60495 5.75397 0.499596 6.00832 0.499596 6.27354C0.499596 6.53875 0.60495 6.7931 0.792492 6.98064C0.980027 7.16818 1.23438 7.27354 1.4996 7.27354L32.0852 7.27354L29.7921 9.56593L29.792 9.56598C29.6991 9.6589 29.6254 9.76921 29.5751 9.89061C29.5248 10.012 29.499 10.1421 29.499 10.2735C29.499 10.4049 29.5248 10.5351 29.5751 10.6565C29.6254 10.7779 29.6991 10.8882 29.792 10.9811C29.885 11.074 29.9953 11.1477 30.1167 11.198C30.2381 11.2483 30.3682 11.2742 30.4996 11.2742C30.631 11.2742 30.7611 11.2483 30.8825 11.198C31.0039 11.1477 31.1142 11.074 31.2071 10.9811L35.2067 6.98154C35.2068 6.98147 35.2068 6.98141 35.2069 6.98134C35.2999 6.88849 35.3737 6.77821 35.4241 6.65681C35.4745 6.53532 35.5005 6.40507 35.5005 6.27354C35.5005 6.142 35.4745 6.01176 35.4241 5.89027C35.3738 5.76898 35.3001 5.65878 35.2071 5.56599C35.2071 5.56595 35.2071 5.56591 35.207 5.56587C35.2069 5.56576 35.2068 5.56565 35.2067 5.56554L31.2071 1.56598C31.1142 1.47307 31.0039 1.39936 30.8825 1.34907C30.7611 1.29879 30.631 1.27291 30.4996 1.27291C30.3682 1.27291 30.2381 1.29879 30.1167 1.34907C29.9953 1.39936 29.885 1.47307 29.792 1.56598C29.6991 1.6589 29.6254 1.76921 29.5751 1.89061C29.5248 2.01201 29.499 2.14213 29.499 2.27354C29.499 2.40494 29.5248 2.53506 29.5751 2.65646C29.6254 2.77787 29.6991 2.88818 29.792 2.98109L29.7921 2.98115Z" fill="black" stroke="black"/>
</svg>
