<svg width="36" height="36" viewBox="0 0 36 36" fill="none" xmlns="http://www.w3.org/2000/svg">
<path d="M17.1386 10.5731H10.8686C10.3935 10.5731 9.93781 10.7619 9.60185 11.0978C9.26589 11.4338 9.07715 11.8894 9.07715 12.3646V24.9046C9.07715 25.3797 9.26589 25.8354 9.60185 26.1713C9.93781 26.5073 10.3935 26.696 10.8686 26.696H23.4086C23.8838 26.696 24.3394 26.5073 24.6754 26.1713C25.0113 25.8354 25.2001 25.3797 25.2001 24.9046V18.6346" stroke="#000131" stroke-width="2" stroke-linecap="round" stroke-linejoin="round"/>
<path d="M23.8565 9.2295C24.2128 8.87316 24.6961 8.67297 25.2 8.67297C25.704 8.67297 26.1873 8.87316 26.5436 9.2295C26.8999 9.58584 27.1001 10.0691 27.1001 10.5731C27.1001 11.077 26.8999 11.5603 26.5436 11.9167L18.0343 20.426L14.4514 21.3217L15.3471 17.7388L23.8565 9.2295Z" stroke="#000131" stroke-width="2" stroke-linecap="round" stroke-linejoin="round"/>
</svg>
