<svg width="36" height="36" viewBox="0 0 36 36" fill="none" xmlns="http://www.w3.org/2000/svg">
<path fill-rule="evenodd" clip-rule="evenodd" d="M5.96875 26.5229C5.96875 26.2329 6.08398 25.9547 6.2891 25.7495C6.49422 25.5444 6.77242 25.4292 7.0625 25.4292H28.9375C29.2276 25.4292 29.5058 25.5444 29.7109 25.7495C29.916 25.9547 30.0312 26.2329 30.0312 26.5229C30.0312 26.813 29.916 27.0912 29.7109 27.2963C29.5058 27.5015 29.2276 27.6167 28.9375 27.6167H7.0625C6.77242 27.6167 6.49422 27.5015 6.2891 27.2963C6.08398 27.0912 5.96875 26.813 5.96875 26.5229ZM5.96875 17.7729C5.96875 17.4829 6.08398 17.2047 6.2891 16.9996C6.49422 16.7944 6.77242 16.6792 7.0625 16.6792H28.9375C29.2276 16.6792 29.5058 16.7944 29.7109 16.9996C29.916 17.2047 30.0312 17.4829 30.0312 17.7729C30.0312 18.063 29.916 18.3412 29.7109 18.5463C29.5058 18.7515 29.2276 18.8667 28.9375 18.8667H7.0625C6.77242 18.8667 6.49422 18.7515 6.2891 18.5463C6.08398 18.3412 5.96875 18.063 5.96875 17.7729ZM5.96875 9.02295C5.96875 8.73287 6.08398 8.45467 6.2891 8.24955C6.49422 8.04443 6.77242 7.9292 7.0625 7.9292H28.9375C29.2276 7.9292 29.5058 8.04443 29.7109 8.24955C29.916 8.45467 30.0312 8.73287 30.0312 9.02295C30.0312 9.31303 29.916 9.59123 29.7109 9.79635C29.5058 10.0015 29.2276 10.1167 28.9375 10.1167H7.0625C6.77242 10.1167 6.49422 10.0015 6.2891 9.79635C6.08398 9.59123 5.96875 9.31303 5.96875 9.02295Z" fill="#000131"/>
</svg>
