<svg width="31" height="31" viewBox="0 0 31 31" fill="none" xmlns="http://www.w3.org/2000/svg">
<g clip-path="url(#clip0_1_1071)">
<path d="M14.8904 2.77305C14.9629 2.68364 15.0555 2.61134 15.1611 2.56163C15.2667 2.51192 15.3827 2.48608 15.5001 2.48608C15.6175 2.48608 15.7335 2.51192 15.8391 2.56163C15.9447 2.61134 16.0373 2.68364 16.1098 2.77305L18.4464 5.64805C18.5412 5.76498 18.6698 5.85201 18.8159 5.89808C18.9619 5.94415 19.1188 5.94718 19.2666 5.9068L22.9026 4.9093C23.0155 4.87816 23.1343 4.87225 23.2499 4.89202C23.3655 4.91179 23.475 4.95672 23.57 5.02341C23.665 5.09011 23.7432 5.17683 23.7985 5.27702C23.8539 5.37722 23.885 5.48827 23.8895 5.6018L24.0316 9.25805C24.0375 9.40658 24.089 9.55004 24.1794 9.67022C24.2697 9.7904 24.395 9.88188 24.5392 9.93305L28.0874 11.1956C28.1975 11.2347 28.2971 11.2975 28.3785 11.3792C28.4599 11.461 28.5211 11.5595 28.5574 11.6675C28.5937 11.7755 28.6043 11.89 28.5882 12.0025C28.5721 12.115 28.5298 12.2224 28.4646 12.3168L26.3591 15.3555C26.2736 15.4791 26.228 15.6244 26.228 15.773C26.228 15.9217 26.2736 16.067 26.3591 16.1905L28.4646 19.2293C28.5298 19.3237 28.5721 19.4311 28.5882 19.5436C28.6043 19.6561 28.5937 19.7706 28.5574 19.8786C28.5211 19.9866 28.4599 20.0851 28.3785 20.1669C28.2971 20.2486 28.1975 20.3114 28.0874 20.3505L24.5392 21.613C24.3952 21.6644 24.2702 21.756 24.1801 21.8761C24.09 21.9963 24.0387 22.1397 24.0329 22.288L23.8895 25.9443C23.885 26.0578 23.8539 26.1689 23.7985 26.2691C23.7432 26.3693 23.665 26.456 23.57 26.5227C23.475 26.5894 23.3655 26.6343 23.2499 26.6541C23.1343 26.6738 23.0155 26.6679 22.9026 26.6368L19.2666 25.6393C19.1187 25.5985 18.9616 25.6012 18.8154 25.6471C18.6691 25.6929 18.5402 25.7799 18.4451 25.8968L16.1111 28.773C16.0385 28.8625 15.946 28.9348 15.8404 28.9845C15.7348 29.0342 15.6188 29.06 15.5014 29.06C15.3839 29.06 15.268 29.0342 15.1624 28.9845C15.0568 28.9348 14.9642 28.8625 14.8917 28.773L12.5551 25.898C12.4603 25.7811 12.3317 25.6941 12.1856 25.648C12.0396 25.602 11.8827 25.5989 11.7349 25.6393L8.09885 26.6368C7.98594 26.6679 7.86721 26.6738 7.7516 26.6541C7.63599 26.6343 7.52653 26.5894 7.43149 26.5227C7.33645 26.456 7.25831 26.3693 7.20296 26.2691C7.14762 26.1689 7.11652 26.0578 7.11201 25.9443L6.96993 22.288C6.96396 22.1395 6.91252 21.9961 6.82214 21.8759C6.73176 21.7557 6.60651 21.6642 6.46231 21.613L2.9141 20.3505C2.80395 20.3114 2.70441 20.2486 2.62299 20.1669C2.54156 20.0851 2.48039 19.9866 2.44407 19.8786C2.40775 19.7706 2.39724 19.6561 2.41332 19.5436C2.42941 19.4311 2.47167 19.3237 2.53693 19.2293L4.64235 16.1905C4.72787 16.067 4.77353 15.9217 4.77353 15.773C4.77353 15.6244 4.72787 15.4791 4.64235 15.3555L2.53693 12.3168C2.47167 12.2224 2.42941 12.115 2.41332 12.0025C2.39724 11.89 2.40775 11.7755 2.44407 11.6675C2.48039 11.5595 2.54156 11.461 2.62299 11.3792C2.70441 11.2975 2.80395 11.2347 2.9141 11.1956L6.46231 9.93305C6.60627 9.88168 6.73124 9.79012 6.82138 9.66995C6.91152 9.54978 6.96277 9.40643 6.96864 9.25805L7.11201 5.6018C7.11652 5.48827 7.14762 5.37722 7.20296 5.27702C7.25831 5.17683 7.33645 5.09011 7.43149 5.02341C7.52653 4.95672 7.63599 4.91179 7.7516 4.89202C7.86721 4.87225 7.98594 4.87816 8.09885 4.9093L11.7349 5.9068C11.8827 5.94718 12.0396 5.94415 12.1856 5.89808C12.3317 5.85201 12.4603 5.76498 12.5551 5.64805L14.893 2.77305H14.8904Z" stroke="#000131" stroke-width="2.5"/>
<path d="M15.0778 15.8404C14.9021 15.6016 14.9409 15.366 15.0783 15.2217C15.0874 15.2121 18.5033 11.6246 19.2837 10.8047C19.3 10.7878 19.2763 10.7629 19.2573 10.7772L12.2325 15.7101C12.0545 15.835 12.1459 16.1075 12.3656 16.1075H15.4371C15.3917 16.0784 15.1895 15.9924 15.0778 15.8404Z" fill="#000131" stroke="#000131" stroke-width="2"/>
<path d="M15.578 15.7057C15.7538 15.9444 15.7149 16.18 15.5775 16.3244C15.5684 16.3339 12.1525 19.9215 11.3721 20.7413C11.3559 20.7583 11.3795 20.7831 11.3985 20.7688L18.423 15.836C18.6011 15.7111 18.5096 15.4386 18.29 15.4386H15.2185C15.2642 15.4676 15.4663 15.5534 15.578 15.7057Z" fill="#000131" stroke="#000131" stroke-width="2"/>
</g>
<defs>
<clipPath id="clip0_1_1071">
<rect width="31" height="30" fill="white" transform="translate(0 0.772949)"/>
</clipPath>
</defs>
</svg>
