<svg width="36" height="36" viewBox="0 0 36 36" fill="none" xmlns="http://www.w3.org/2000/svg">
<path d="M21.9667 4.4729C21.693 5.5339 21.0871 6.47188 20.2431 7.14101C19.3992 7.81013 18.3645 8.1729 17.3 8.1729C16.2356 8.1729 15.2009 7.81013 14.357 7.14101C13.513 6.47188 12.9071 5.5339 12.6334 4.4729M20.96 4.4729C20.96 4.4729 19.5363 4.97098 17.3 4.97098C15.0638 4.97098 13.64 4.4729 13.64 4.4729C13.4151 4.47291 13.1917 4.5108 12.9794 4.58497L3.30005 7.95944L4.33942 13.4383L7.39442 13.782C7.76855 13.8241 8.11307 14.0049 8.35957 14.2884C8.60607 14.5719 8.73654 14.9374 8.72505 15.3123L8.30005 30.3729H26.3L25.875 15.3123C25.8636 14.9374 25.994 14.5719 26.2405 14.2884C26.487 14.0049 26.8316 13.8241 27.2057 13.782L30.2607 13.4383L31.3 7.95944L21.6207 4.58497C21.4084 4.5108 21.185 4.47291 20.96 4.4729Z" stroke="black" stroke-width="2" stroke-linecap="round" stroke-linejoin="round"/>
</svg>
