<svg width="31" height="31" viewBox="0 0 31 31" fill="none" xmlns="http://www.w3.org/2000/svg">
<path d="M25.1675 20.8478C24.1099 22.986 22.3948 24.7288 20.2738 25.8203C18.1679 26.9016 15.767 27.2667 13.435 26.8603C11.0957 26.4491 8.95257 25.2913 7.32625 23.5603C5.68484 21.813 4.63976 19.5903 4.34125 17.2116C4.03807 14.8275 4.49474 12.4085 5.64625 10.2991C6.78718 8.20579 8.57011 6.53415 10.7325 5.53033C12.8804 4.53553 15.2942 4.2687 17.6075 4.77033C19.92 5.27158 21.815 6.41158 23.3825 8.21408C23.5713 8.41408 24.3013 9.22158 24.9075 10.4403" stroke="#000131" stroke-width="5" stroke-linecap="round" stroke-linejoin="round"/>
<path d="M19.3362 10.539L25.6362 11.6728L26.7499 5.26025" stroke="#000131" stroke-width="5" stroke-linecap="round" stroke-linejoin="round"/>
</svg>
