<svg width="31" height="31" viewBox="0 0 31 31" fill="none" xmlns="http://www.w3.org/2000/svg">
<path d="M26.8904 13.6864L24.4145 11.2114C24.3803 11.1771 24.3397 11.1499 24.295 11.1313C24.2502 11.1127 24.2023 11.1031 24.1538 11.1031C24.1054 11.1031 24.0574 11.1127 24.0127 11.1313C23.968 11.1499 23.9273 11.1771 23.8931 11.2114L17.1182 17.9854L17.1317 17.9989L17.1101 17.9929L16.1828 21.4531L16.1855 21.4537C16.1621 21.5214 16.1592 21.5947 16.1773 21.6641C16.1953 21.7335 16.2336 21.7959 16.2871 21.8436C16.3407 21.8913 16.4072 21.9221 16.4782 21.932C16.5493 21.942 16.6216 21.9306 16.6862 21.8995L16.6868 21.9022L20.1113 20.9845L20.1092 20.9764L20.1149 20.9821L26.8901 14.2072C26.9591 14.1381 26.9978 14.0444 26.9978 13.9468C26.9979 13.8492 26.9593 13.7556 26.8904 13.6864ZM17.3102 20.782L17.861 18.7282L19.3646 20.2318L17.3102 20.782Z" fill="#565656"/>
<path d="M22.0901 22.742H19.8449H19.8446C19.7469 22.7421 19.6533 22.781 19.5842 22.8501C19.5152 22.9193 19.4763 23.0129 19.4762 23.1106L19.4768 23.1143V25.7287H6.98365V7.31565H8.48275V8.23635C8.48215 8.24625 8.47975 8.25525 8.47975 8.26545C8.47975 8.56485 8.72275 8.80965 9.02395 8.80965L9.02815 8.80935V8.81175H17.4362C17.5805 8.81159 17.7187 8.75424 17.8207 8.65227C17.9226 8.5503 17.98 8.41205 17.9801 8.26785C17.9801 8.26335 17.9789 8.25915 17.9789 8.25465V7.31565H19.4765V9.93105L19.4759 9.93465C19.4759 9.98306 19.4853 10.031 19.5038 10.0758C19.5223 10.1205 19.5494 10.1612 19.5837 10.1954C19.6179 10.2297 19.6585 10.2568 19.7033 10.2754C19.748 10.2939 19.7959 10.3034 19.8443 10.3033H22.0898C22.1875 10.3033 22.2812 10.2644 22.3503 10.1954C22.4193 10.1263 22.4582 10.0326 22.4582 9.93495V5.95095H22.4525C22.4528 5.93625 22.457 5.92245 22.457 5.90745C22.457 5.49034 22.2914 5.09029 21.9966 4.79524C21.7018 4.50019 21.3019 4.33427 20.8847 4.33395C20.8727 4.33395 20.8619 4.33725 20.8499 4.33755H16.4829V3.31635C16.4829 3.05205 16.2686 2.83845 16.0049 2.83785V2.83545H10.47V2.83725C10.4655 2.83725 10.4616 2.83605 10.4571 2.83605C10.1931 2.83605 9.97885 3.04995 9.97885 3.31425L9.97975 3.32325V4.33725H5.58055L5.57455 4.33665C5.15757 4.33713 4.7578 4.503 4.46298 4.79789C4.16815 5.09277 4.00235 5.49256 4.00195 5.90955C4.00195 5.92365 4.00585 5.93655 4.00615 5.95065H4.00195V27.1223H4.00285L4.00195 27.1304C4.00203 27.3368 4.04278 27.5412 4.12187 27.732C4.20096 27.9227 4.31685 28.0959 4.46291 28.2419C4.60897 28.3878 4.78235 28.5035 4.97314 28.5824C5.16393 28.6613 5.36839 28.7019 5.57485 28.7017C5.59825 28.7017 5.62015 28.6957 5.64355 28.6948V28.7012H20.7935C20.8229 28.7027 20.8508 28.7099 20.8805 28.7099C21.2973 28.7098 21.697 28.5442 21.9917 28.2495C22.2864 27.9549 22.4521 27.5552 22.4522 27.1385C22.4522 27.1328 22.4507 27.1277 22.4507 27.122H22.4591V23.1103C22.4591 23.0619 22.4495 23.014 22.431 22.9693C22.4124 22.9246 22.3852 22.8839 22.3509 22.8497C22.3167 22.8155 22.276 22.7884 22.2313 22.7699C22.1865 22.7514 22.1386 22.7419 22.0901 22.742Z" fill="#565656"/>
</svg>
