<svg width="31" height="31" viewBox="0 0 31 31" fill="none" xmlns="http://www.w3.org/2000/svg">
<path d="M11.2069 8.22313C11.1175 7.60731 11.1616 6.97947 11.3363 6.38222C11.511 5.78497 11.8122 5.2323 12.2194 4.76174C12.6265 4.29118 13.1302 3.91374 13.6962 3.65504C14.2621 3.39634 14.8771 3.26245 15.4994 3.26245C16.1216 3.26245 16.7366 3.39634 17.3026 3.65504C17.8685 3.91374 18.3722 4.29118 18.7794 4.76174C19.1866 5.2323 19.4877 5.78497 19.6624 6.38222C19.8371 6.97947 19.8813 7.60731 19.7919 8.22313L18.3519 18.2981C18.2522 18.9835 17.9091 19.6101 17.3853 20.0633C16.8614 20.5165 16.192 20.7658 15.4994 20.7658C14.8067 20.7658 14.1373 20.5165 13.6135 20.0633C13.0897 19.6101 12.7465 18.9835 12.6469 18.2981L11.2069 8.22313Z" fill="#FE1D2E"/>
<path d="M18 25.7729C18 26.436 17.7366 27.0719 17.2678 27.5407C16.7989 28.0096 16.163 28.2729 15.5 28.2729C14.837 28.2729 14.2011 28.0096 13.7322 27.5407C13.2634 27.0719 13 26.436 13 25.7729C13 25.1099 13.2634 24.474 13.7322 24.0052C14.2011 23.5363 14.837 23.2729 15.5 23.2729C16.163 23.2729 16.7989 23.5363 17.2678 24.0052C17.7366 24.474 18 25.1099 18 25.7729Z" fill="#FE1D2E"/>
</svg>
